<?xml version="1.0" encoding="UTF-8"?> <svg xmlns="http://www.w3.org/2000/svg" width="729" height="148" viewBox="0 0 729 148" fill="none"><path d="M531.25 88.1562H558.707L530.452 127.108V145.147H506.506V127.108L478.25 88.1562H505.788L518.479 108.191L531.25 88.1562Z" fill="white"></path><path d="M492.523 145.147H466.901L463.629 137.963H435.054L431.781 145.147H406.159L433.617 88.1562H465.065L492.523 145.147ZM449.102 106.674L441.679 123.117H457.004L449.581 106.674H449.102Z" fill="white"></path><path d="M415.004 88.1562L399.2 145.147H370.705L362.803 110.984H362.324L354.422 145.147H325.447L310.122 88.1562H334.307L341.571 122.718H342.05L350.032 88.1562H375.095L383.156 122.718H383.635L390.978 88.1562H415.004Z" fill="white"></path><path d="M309.005 102.683H268.377V109.867H306.93V123.037H268.377V130.859H309.484V145.147H244.432V88.1562H309.005V102.683Z" fill="white"></path><path d="M212.08 111.143C211.548 106.088 207.211 103.56 199.07 103.56C194.068 103.56 190.316 104.677 187.815 106.912C185.367 109.147 184.144 112.393 184.144 116.65C184.144 120.907 185.367 124.153 187.815 126.388C190.316 128.623 194.068 129.74 199.07 129.74C203.752 129.74 207.051 128.969 208.967 127.426C210.883 125.829 211.974 123.621 212.24 120.801H239.857C239.644 129.634 236.212 136.259 229.56 140.676C222.909 145.092 212.745 147.301 199.07 147.301C185.234 147.301 174.911 144.8 168.1 139.798C161.342 134.742 157.963 127.027 157.963 116.65C157.963 106.274 161.342 98.585 168.1 93.583C174.911 88.527 185.234 86 199.07 86C225.729 86 239.272 94.381 239.697 111.143H212.08Z" fill="white"></path><path d="M162.102 145.147H136.48L133.208 137.963H104.633L101.36 145.147H75.738L103.196 88.1562H134.645L162.102 145.147ZM118.681 106.674L111.258 123.117H126.583L119.16 106.674H118.681Z" fill="white"></path><path d="M63.897 124.234L76.828 145.147H50.408L41.149 129.023H24.946V145.147H1V88.1562H50.168C59.427 88.1562 65.972 89.8062 69.804 93.1052C73.635 96.3512 75.551 101.246 75.551 107.791C75.551 112.315 74.566 115.8 72.597 118.248C70.629 120.696 67.729 122.425 63.897 123.436V124.234ZM42.825 115.055C45.007 115.055 46.55 114.683 47.455 113.938C48.412 113.139 48.891 111.915 48.891 110.266C48.891 108.563 48.439 107.313 47.534 106.514C46.63 105.716 45.06 105.317 42.825 105.317H24.946V115.055H42.825Z" fill="white"></path><path d="M222.046 0.828125H259.401V57.8191H235.456V21.9001H234.977L222.046 57.8191H204.406L191.316 21.6611H190.837V57.8191H168.328V0.828125H204.326L212.947 29.1641H213.426L222.046 0.828125Z" fill="#DA212A"></path><path d="M130.405 0.828125C138.227 0.828125 144.56 1.75912 149.402 3.62212C154.297 5.48412 157.916 8.51712 160.257 12.7211C162.599 16.8721 163.769 22.4061 163.769 29.3231C163.769 36.2411 162.599 41.8021 160.257 46.0051C157.916 50.1561 154.297 53.1631 149.402 55.0251C144.56 56.8871 138.227 57.8191 130.405 57.8191H88.8994V0.828125H130.405ZM112.845 17.5901V41.0571H123.86C128.649 41.0571 132.134 40.1521 134.316 38.3431C136.498 36.5341 137.589 33.5271 137.589 29.3231C137.589 25.1201 136.498 22.1131 134.316 20.3041C132.134 18.4951 128.649 17.5901 123.86 17.5901H112.845Z" fill="#DA212A"></path><path d="M87.2465 57.8191H61.6248L58.3522 50.6351H29.7771L26.5046 57.8191H0.882812L28.3404 0.828125H59.7889L87.2465 57.8191ZM43.8252 19.3461L36.4021 35.7891H51.7272L44.3041 19.3461H43.8252Z" fill="#DA212A"></path><path d="M582.413 88.3281H606.505C603.001 94.4821 600.066 100.943 596.978 107.295C604.95 107.383 612.901 107.361 620.873 107.426C617.85 113.712 614.806 119.998 611.806 126.328C619.8 126.393 627.772 126.393 635.766 126.415C632.459 132.723 629.206 139.25 625.921 145.82C618.529 145.82 610.229 145.535 602.563 145.514C605.52 139.118 608.564 132.767 611.652 126.437C603.658 126.393 595.664 126.415 587.67 126.371C590.736 120.064 593.802 113.778 596.803 107.448C588.831 107.404 580.88 107.404 572.93 107.339C575.996 100.965 578.909 94.5041 582.413 88.3281Z" fill="#DA212A"></path><path d="M630.596 88.3281H654.579C651.075 94.5261 648.096 100.987 644.986 107.383C652.98 107.383 660.974 107.383 668.99 107.448C665.99 113.756 662.924 120.02 659.945 126.328C651.907 126.393 643.891 126.393 635.875 126.349C638.897 120.02 641.964 113.712 644.942 107.383C636.97 107.361 628.976 107.361 620.982 107.339C624.114 100.965 627.048 94.4821 630.596 88.3281Z" fill="#DA212A"></path><path d="M704.254 88.3281H728.043C724.933 94.6141 721.823 100.922 718.793 107.273C710.843 107.295 702.896 107.295 694.945 107.251C697.99 100.922 700.881 94.5041 704.254 88.3281Z" fill="#DA212A"></path><path d="M563.403 126.435C571.485 126.326 579.588 126.347 587.67 126.369C584.494 132.83 581.384 139.335 577.946 145.643C570.105 145.555 562.264 145.599 554.423 145.511C557.226 139.072 560.38 132.787 563.403 126.435Z" fill="#DA212A"></path></svg> 