<?xml version="1.0" encoding="UTF-8"?> <svg xmlns="http://www.w3.org/2000/svg" width="38" height="22" viewBox="0 0 38 22" fill="none"><path d="M2 9.60949L0.609488 9.60949L0.609489 12.3905L2 12.3905L2 9.60949ZM36.9832 11.9832C37.5263 11.4402 37.5263 10.5598 36.9832 10.0168L28.1341 1.1676C27.591 0.624568 26.7106 0.624568 26.1676 1.1676C25.6246 1.71063 25.6246 2.59105 26.1676 3.13408L34.0335 11L26.1676 18.8659C25.6246 19.4089 25.6246 20.2894 26.1676 20.8324C26.7106 21.3754 27.5911 21.3754 28.1341 20.8324L36.9832 11.9832ZM2 12.3905L36 12.3905L36 9.60949L2 9.60949L2 12.3905Z" fill="#801A98"></path></svg> 