<?xml version="1.0" encoding="UTF-8"?> <svg xmlns="http://www.w3.org/2000/svg" viewBox="0 0 383.12 383.32"><defs><style>.cls-1{fill:#fff;}</style></defs><g id="Layer_2" data-name="Layer 2"><g id="Layer_1-2" data-name="Layer 1"><path class="cls-1" d="M180.27,0h23.2a20.8,20.8,0,0,0,2.88.61c28.79,2.17,55.85,10.21,80.65,25,51,30.31,82.21,74.65,93.18,133,1.31,7,2,14,2.94,21.05v23.2c-.21,1.2-.45,2.4-.64,3.61-1.56,10-2.42,20.08-4.76,29.85C350.33,351,226.31,413.92,117.77,368.45,34.82,333.69-12.32,247.57,2.8,158.39,15.85,81.44,77,18.74,153.67,3.83,162.45,2.13,171.4,1.26,180.27,0Zm32.18,162c0-6.85.25-13.72-.08-20.56-.33-7.06-3.58-10.77-10.64-11.1-12.81-.6-25.66-.75-38.48-.41-3.42.09-7.18,2.06-10.05,4.17-3.75,2.75-2.94,5.29,1.49,6.57,6.4,1.86,9.47,5.42,9.78,12,.39,8.09.77,16.21.58,24.3a74.72,74.72,0,0,1-2.16,14.36c-1,4.44-3.87,5.42-7.45,2.69a31.57,31.57,0,0,1-5.8-5.75,174.74,174.74,0,0,1-25-44.05C122.2,138,117.82,135,111.2,135c-10.85,0-21.7-.2-32.55-.18-6.07,0-8.56,3.79-6.06,9.47,13.64,30.85,28.78,60.88,50.28,87.15,20.52,25.06,46.86,37.23,79.52,34.54,6.65-.54,9.18-3.24,10.14-9.75a141.51,141.51,0,0,1,3.21-16.1c1.43-5.36,5.9-6.81,10.45-3.64a41.81,41.81,0,0,1,5.91,5.14c5.47,5.64,10.79,11.43,16.27,17.06,4.31,4.45,9.65,7.42,15.8,7.65,12,.46,23.95.68,35.9.27,10.85-.37,14.67-8.1,8.18-16.8S294.48,233.09,287.3,225c-3.79-4.29-8.1-8.11-12.14-12.19-3.08-3.12-3.77-6.69-1.53-10.55a100.14,100.14,0,0,1,5.38-8.52c7.85-10.94,16.12-21.59,23.57-32.79,3.53-5.3,5.84-11.5,8.08-17.52.63-1.69-.35-4.8-1.7-6.19s-4.06-1.94-6.19-2c-13.84-.17-27.68-.12-41.52-.1-3.94,0-6.56,2-8,5.62q-.93,2.25-1.84,4.5c-6.63,16.42-15.21,31.66-27.23,44.8-2.1,2.28-3.92,5.95-7.81,4.51-3.59-1.32-3.72-5.19-3.82-8.32C212.27,178.18,212.43,170.08,212.45,162Z"></path></g></g></svg> 