<?xml version="1.0" encoding="UTF-8"?> <svg xmlns="http://www.w3.org/2000/svg" width="336" height="337" viewBox="0 0 336 337" fill="none"><path d="M-0.000856047 167.79C-0.000856047 75.05 75.6791 -0.449952 168.999 4.80749e-05C260.869 0.450048 335.559 75.87 335.399 168.84C335.229 261.3 259.529 337.5 165.299 336.2C73.8291 334.94 -0.330856 260 -0.000856047 167.79ZM167.999 24.26C88.2291 24.58 23.7191 89.4 24.2991 168.59C24.8991 249.12 89.0791 312.88 169.759 312.09C249.679 311.31 311.889 245.82 311.509 167.53C311.119 88.38 246.589 23.94 167.999 24.26Z" fill="#801A98"></path><path d="M186.219 167.289C199.952 181.643 213.685 195.976 227.419 210.289C232.969 216.079 232.669 224.289 226.679 229.009C221.439 233.099 215.219 232.659 210.159 227.629C197.059 214.609 184.005 201.536 170.999 188.409C169.999 187.409 169.229 186.309 168.129 184.989C166.869 186.169 165.959 186.989 165.129 187.819C151.989 201.153 138.842 214.486 125.689 227.819C121.559 231.999 116.569 232.819 111.689 230.449C107.269 228.319 104.159 223.709 105.089 218.919C105.745 215.669 107.273 212.658 109.509 210.209C121.929 197.209 134.639 184.479 147.279 171.679C148.329 170.619 149.589 169.759 151.069 168.549C149.729 167.129 148.839 166.149 147.909 165.219C135.119 152.389 122.279 139.609 109.539 126.739C102.679 119.809 105.059 109.069 114.059 106.309C118.909 104.829 123.059 106.249 126.649 109.849C139.242 122.516 151.852 135.183 164.479 147.849C165.479 148.849 166.259 149.949 167.399 151.329C168.739 150.049 169.709 149.159 170.639 148.219L209.999 108.699C211.581 106.994 213.63 105.793 215.89 105.245C218.15 104.697 220.522 104.828 222.709 105.619C227.409 107.099 230.119 110.619 230.889 115.419C231.599 119.829 229.889 123.419 226.789 126.529C213.622 139.503 200.465 152.503 187.319 165.529C186.467 166.263 185.561 166.931 184.609 167.529L186.219 167.289Z" fill="#801A98"></path></svg> 