<?xml version="1.0" encoding="UTF-8"?> <svg xmlns="http://www.w3.org/2000/svg" width="99" height="17" viewBox="0 0 99 17" fill="none"><path d="M18.7203 10.3695C37.1947 8.03545 55.7749 6.63367 74.3903 6.16952C79.657 6.05618 84.9303 5.99952 90.2103 5.99952V-0.000483283C67.2103 1.63952 44.0803 3.29952 21.2103 6.89952C14.837 7.90618 8.48032 9.08618 2.14032 10.4395C-1.16968 11.1495 -0.439678 16.4395 2.94032 16.3295L75.5703 13.9995L96.0003 13.3295C99.8503 13.2095 99.8703 7.20952 96.0003 7.32952L23.3303 9.67952L2.94032 10.3295L3.73032 16.2295C25.8203 11.4895 48.3103 9.16952 70.8103 7.41952C77.2703 6.91952 83.7403 6.41952 90.2103 5.99952C91.0004 5.9817 91.7531 5.65991 92.3119 5.10111C92.8707 4.54232 93.1925 3.78957 93.2103 2.99952C93.2103 2.20387 92.8943 1.44081 92.3316 0.878196C91.769 0.315587 91.006 -0.000483283 90.2103 -0.000483283C71.585 -0.065858 52.9682 0.805241 34.4303 2.60952C29.1903 3.12285 23.9537 3.70952 18.7203 4.36952C17.9318 4.39217 17.1819 4.71551 16.6241 5.27328C16.0663 5.83106 15.743 6.58103 15.7203 7.36952C15.7203 8.82952 17.1003 10.5695 18.7203 10.3695Z" fill="#C8ED01"></path></svg> 