<?xml version="1.0" encoding="UTF-8"?> <svg xmlns="http://www.w3.org/2000/svg" width="372" height="373" viewBox="0 0 372 373" fill="none"><path d="M246.34 253.548C206.34 288.938 150.08 280.888 119.86 247.798C105.273 231.962 96.8367 211.428 96.0755 189.911C95.3143 168.395 102.279 147.316 115.71 130.488C143.37 95.9885 196.71 83.8985 239.62 114.549C239.88 113.309 240.11 112.168 240.38 111.028C241.318 106.716 243.814 102.902 247.391 100.316C250.967 97.7309 255.372 96.5559 259.761 97.0168C264.15 97.4776 268.215 99.5418 271.176 102.814C274.137 106.086 275.787 110.335 275.81 114.748C275.92 135.748 275.81 156.668 275.86 177.628C275.86 193.968 275.75 210.318 275.92 226.628C276.047 232.034 277.823 237.271 281.01 241.639C284.196 246.007 288.641 249.297 293.75 251.068C304.51 254.858 316.19 251.868 323.17 243.068C325.419 240.248 327.115 237.028 328.17 233.578C345.94 173.088 333.23 119.658 287.08 76.7485C244.88 37.5085 194.02 26.7485 139.3 44.8485C84.5795 62.9485 50.7595 101.848 39.2995 158.338C22.5195 240.998 78.4295 320.649 161.76 334.379C197.33 340.239 230.76 333.739 261.91 315.839C271.91 310.099 282.7 312.419 287.91 321.479C293.01 330.299 290.12 340.808 280.91 346.328C264.248 356.433 246.034 363.717 227 367.889C125.5 389.909 27.3295 327.158 4.47954 225.708C-18.3705 124.258 48.4795 22.6185 150.48 3.3385C252.33 -15.9015 349 49.8185 368.46 151.668C374.59 183.798 372.67 215.598 361.75 246.458C352.88 271.458 334.5 286.039 308.06 288.199C282.06 290.329 261.95 279.089 248.29 256.719C247.7 255.719 247.18 254.718 246.62 253.798C246.538 253.703 246.444 253.619 246.34 253.548ZM132.1 186.828C132.144 201.083 137.823 214.741 147.898 224.825C157.972 234.909 171.625 240.6 185.88 240.658C215.41 240.788 239.88 216.538 239.88 187.068C239.88 157.308 215.88 132.958 186.46 132.858C179.34 132.811 172.282 134.172 165.691 136.862C159.1 139.553 153.106 143.52 148.053 148.536C143.001 153.552 138.991 159.518 136.253 166.089C133.515 172.661 132.103 179.709 132.1 186.828Z" fill="#C8ED01"></path></svg> 