<?xml version="1.0" encoding="UTF-8"?> <svg xmlns="http://www.w3.org/2000/svg" width="474" height="37" viewBox="0 0 474 37" fill="none"><path d="M473.334 20.453H458.61V8.79688H473.334V20.453ZM473.334 36.5057H458.61V24.8496H473.334V36.5057Z" fill="white"></path><path d="M431.109 0H455.035V36.502H439.698V13.4965H439.391L431.109 36.502H419.811L411.427 13.3432H411.12V36.502H396.703V0H419.76L425.281 18.1488H425.588L431.109 0Z" fill="white"></path><path d="M395.644 36.502H379.234L377.138 31.9009H358.836L356.74 36.502H340.329L357.915 0H378.058L395.644 36.502ZM367.833 11.8606L363.079 22.392H372.895L368.14 11.8606H367.833Z" fill="white"></path><path d="M329.229 0C333.285 0 336.489 0.477151 338.84 1.43145C341.226 2.38575 342.93 3.83425 343.953 5.77693C344.975 7.68553 345.486 10.1906 345.486 13.2921C345.486 16.2913 344.958 18.7282 343.901 20.6027C342.879 22.4772 341.175 23.8746 338.789 24.7948C336.437 25.715 333.251 26.1751 329.229 26.1751H313.688V36.502H298.351V0H329.229ZM324.526 16.6662C326.059 16.6662 327.133 16.4106 327.746 15.8993C328.394 15.354 328.718 14.502 328.718 13.3432C328.718 12.1503 328.394 11.2812 327.746 10.7359C327.133 10.1906 326.059 9.91792 324.526 9.91792H313.688V16.6662H324.526Z" fill="white"></path><path d="M294.976 9.30444H268.954V13.9055H293.647V22.3409H268.954V27.351H295.283V36.502H253.617V0H294.976V9.30444Z" fill="white"></path><path d="M234.702 12.7297V0H250.039V36.502H234.702V23.3633H217.831V36.502H202.494V0H217.831V12.7297H234.702Z" fill="white"></path><path d="M155.168 0.496094H199.032V11.4365H184.768V36.9981H169.431V11.4365H155.168V0.496094Z" fill="white"></path><path d="M136.943 0.496094C140.999 0.496094 144.202 0.973245 146.554 1.92755C148.94 2.88185 150.644 4.33034 151.666 6.27303C152.689 8.18163 153.2 10.6867 153.2 13.7881C153.2 16.7874 152.672 19.2243 151.615 21.0988C150.593 22.9733 148.889 24.3707 146.503 25.2909C144.151 26.2111 140.965 26.6712 136.943 26.6712H121.401V36.9981H106.064V0.496094H136.943ZM132.24 17.1623C133.773 17.1623 134.847 16.9067 135.46 16.3954C136.108 15.8501 136.432 14.9981 136.432 13.8393C136.432 12.6464 136.108 11.7773 135.46 11.232C134.847 10.6867 133.773 10.414 132.24 10.414H121.401V17.1623H132.24Z" fill="white"></path><path d="M105.006 36.9981H88.5952L86.4992 32.397H68.1971L66.101 36.9981H49.6904L67.2768 0.496094H87.4194L105.006 36.9981ZM77.1948 12.3567L72.4403 22.8881H82.256L77.5015 12.3567H77.1948Z" fill="white"></path><path d="M48.6114 0.496094V36.9981H33.2744V0.496094H48.6114Z" fill="white"></path><path d="M40.7452 11.2339V0.497986H0V37H15.337V11.2339H40.7452Z" fill="white"></path></svg> 