<?xml version="1.0" encoding="UTF-8"?> <svg xmlns="http://www.w3.org/2000/svg" width="171" height="73" viewBox="0 0 171 73" fill="none"><path fill-rule="evenodd" clip-rule="evenodd" d="M2.27051 17.1091L165.667 10.4348L167.512 55.8905L4.11612 62.5649L2.27051 17.1091Z" fill="white"></path><mask id="mask0_171_427" style="mask-type:luminance" maskUnits="userSpaceOnUse" x="0" y="0" width="171" height="73"><path d="M0 7.62939e-06H171V73H0V7.62939e-06Z" fill="white"></path></mask><g mask="url(#mask0_171_427)"><path fill-rule="evenodd" clip-rule="evenodd" d="M154.636 16.9301L138.545 17.5878L138.692 21.2165L143.989 21.0008L144.412 31.407L149.909 31.1816L149.486 20.7758L154.784 20.5601L154.636 16.9301ZM137.892 21.2496L137.745 17.6197L123.173 18.2158L123.743 32.2507L129.24 32.0256L129.036 27.0138L137.532 26.6664L137.393 23.2383L128.897 23.5853L128.818 21.6194L137.892 21.2496ZM116.077 18.5049L116.646 32.5398L122.144 32.3159L121.574 18.281L116.077 18.5049ZM103.891 22.6373L107.729 22.4809C108.909 22.4334 109.521 22.7097 109.555 23.571C109.592 24.4743 109.008 24.8796 107.828 24.9269L103.991 25.0847L103.891 22.6373ZM110.05 32.8098L115.848 32.573L112.404 27.6525C114.094 26.8609 115.138 25.452 115.05 23.2867C114.92 20.0789 112.8 18.639 108.761 18.8037L98.2463 19.2337L98.817 33.2686L104.313 33.0435L104.136 28.673L107.155 28.5498L110.05 32.8098ZM86.817 30.1435L85.9169 30.1805L85.6416 23.3826L86.5404 23.346C89.3596 23.231 91.6349 23.0581 91.7756 26.5269C91.9162 29.9954 89.6348 30.0288 86.817 30.1435ZM88.0328 19.6511L79.9966 19.9794L80.567 34.0139L88.6022 33.6856C93.2193 33.4973 97.5776 32.3348 97.3319 26.3002C97.0885 20.2848 92.65 19.4623 88.0328 19.6511ZM65.7045 20.5622L62.98 29.3898L59.5278 20.8146L52.0327 21.1204L52.6021 35.1565L58.0993 34.9314L57.7912 27.3527L60.9173 34.8164L65.4752 34.6301L67.9656 26.9368L68.273 34.5166L73.7704 34.2912L73.2008 20.2567L65.7045 20.5622ZM40.6022 32.0314L39.7018 32.068L39.4266 25.2706L40.3258 25.2339C43.1447 25.1189 45.4199 24.946 45.5606 28.4145C45.7013 31.8834 43.4199 31.9164 40.6022 32.0314ZM41.8178 21.5375L33.7816 21.8658L34.3524 35.9018L42.3873 35.5737C47.0045 35.3853 51.3628 34.2227 51.1183 28.1869C50.8735 22.1729 46.4349 21.3492 41.8178 21.5375ZM22.051 30.8002L23.5559 26.4414L25.4097 30.6637L22.051 30.8002ZM27.8554 36.1674L33.5523 35.9338L26.5061 22.1634L20.2693 22.4182L14.3633 36.7183L20.0603 36.485L20.7584 34.4677L26.9952 34.2132L27.8554 36.1674Z" fill="black"></path><path fill-rule="evenodd" clip-rule="evenodd" d="M155.329 33.988L137.001 34.7371L137.169 38.8705L143.202 38.6242L143.683 50.476L149.945 50.2212L149.463 38.3681L155.497 38.1216L155.329 33.988ZM127.904 40.9644C125 40.7857 123.836 40.7642 123.8 39.8969C123.773 39.2344 124.462 38.771 126.648 38.6821C128.743 38.5969 129.558 39.0211 129.594 39.9348L135.925 39.6763C135.802 36.6616 133.322 34.5665 126.537 34.8439C120.367 35.0962 117.476 36.9068 117.618 40.423C117.753 43.7353 119.822 44.7261 124.812 45.162C129.87 45.5958 130.53 45.5697 130.564 46.4147C130.596 47.191 129.719 47.5239 127.648 47.6082C125.075 47.7137 124.011 47.3224 123.96 46.0888L117.426 46.3568C117.567 49.8277 120.245 51.7771 127.441 51.4832C133.702 51.2275 137.387 49.8871 137.216 45.6624C137.043 41.415 133.344 41.2918 127.904 40.9644ZM116.559 47.467L106.017 47.8973L105.934 45.8649L115.634 45.469L115.476 41.563L105.776 41.959L105.703 40.155L116.04 39.7334L115.872 35.5998L99.2734 36.2776L99.923 52.2645L116.726 51.5769L116.559 47.467ZM97.9076 36.3334L79.5798 37.0824L79.7475 41.216L85.7814 40.9693L86.2619 52.8211L92.5239 52.5666L92.0418 40.7133L98.0754 40.4669L97.9076 36.3334ZM71.9523 37.3928L72.3055 46.0949L65.5772 37.6534L58.9977 37.9225L59.6461 53.909L65.907 53.6533L65.5548 44.9748L72.2596 53.3936L78.8628 53.1236L78.2128 37.1379L71.9523 37.3928ZM47.3131 50.6607C44.3983 50.7793 42.7832 49.176 42.6782 46.5949C42.5743 44.0375 44.0548 42.3072 46.9693 42.1877C49.8839 42.069 51.499 43.6724 51.6029 46.2312C51.708 48.8111 50.2277 50.5425 47.3131 50.6607ZM46.8037 38.1003C41.407 38.3208 36.0951 40.6198 36.3492 46.8542C36.6032 53.1115 42.0828 54.9687 47.4798 54.7482C52.8754 54.5289 58.2094 52.2287 57.9558 45.9714C57.7029 39.737 52.1995 37.8797 46.8037 38.1003ZM25.3417 51.5578C22.61 51.6694 21.2477 50.1464 21.1391 47.4753C21.0319 44.8256 22.2664 43.1973 24.9979 43.086C27.4114 42.9862 28.5989 44.1512 28.9912 45.942L35.3887 45.6811C34.4695 40.4336 29.8643 38.7923 24.8324 38.9974C19.55 39.2131 14.556 41.4765 14.8101 47.7338C15.0653 54.0134 20.2257 55.8621 25.5082 55.6465C30.54 55.4402 34.9963 53.4291 35.4877 48.1248L29.0904 48.3854C28.8435 50.1796 27.7553 51.4595 25.3417 51.5578Z" fill="black"></path></g></svg> 