<?xml version="1.0" encoding="UTF-8"?> <svg xmlns="http://www.w3.org/2000/svg" width="316" height="46" viewBox="0 0 316 46" fill="none"><path opacity="0.7" d="M59.8797 33.6531C53.0946 31.1801 5.10859 32.1507 1.53106 31.3198C-1.44944 30.2937 2.06048 14.1032 4.47829 11.779C5.33927 10.9532 6.38802 10.8529 8.86117 11.3243C10.8463 11.7735 24.3569 12.0326 37.3538 12.2064C50.3507 12.3803 62.7816 12.3553 62.7816 12.3553C63.5054 12.8827 65.3189 11.2353 65.7289 11.8597C66.1389 12.484 87.0618 13.0819 108.47 13.3436C129.879 13.6054 151.885 13.6719 155.343 13.6817C159.563 13.7386 156.34 14.6295 161.259 14.3599C171.712 13.7996 194.874 15.1178 202.708 14.3759C207.114 13.7638 212.029 13.8052 216.628 14.4931C222.97 15.2032 256.379 15.0741 259.832 13.996C260.713 13.6903 261.437 13.8223 261.501 14.1836L262.538 14.231L273.315 14.6C277.295 14.6644 281.281 14.8466 285.242 15.1451C285.488 15.5148 286.239 15.6974 286.871 15.4544C288.03 15.1119 312.693 14.0888 313.344 15.1566C315.216 18.2084 314.634 31.0351 312.46 34.1491C310.118 37.4531 292.829 33.4742 279.982 35.2847C208.001 34.2439 222.561 34.0072 205.222 35.3157C203.536 34.1881 198.188 36.7862 194.302 34.8166C192.713 34.0024 182.146 33.6801 179.945 34.4199C177.744 35.1597 123.983 32.1091 118.745 34.0943C108.714 32.0168 69.1363 33.5077 59.8797 33.6531Z" fill="#C8ED01"></path><path opacity="0.7" d="M59.8797 33.6531C53.0946 31.1801 5.10859 32.1507 1.53106 31.3198C-1.44944 30.2937 2.06048 14.1032 4.47829 11.779C5.33927 10.9532 6.38802 10.8529 8.86117 11.3243C10.8463 11.7735 24.3569 12.0326 37.3538 12.2064C50.3507 12.3803 62.7816 12.3553 62.7816 12.3553C63.5054 12.8827 65.3189 11.2353 65.7289 11.8597C66.1389 12.484 87.0618 13.0819 108.47 13.3436C129.879 13.6054 151.885 13.6719 155.343 13.6817C159.563 13.7386 156.34 14.6295 161.259 14.3599C171.712 13.7996 194.874 15.1178 202.708 14.3759C207.114 13.7638 212.029 13.8052 216.628 14.4931C222.97 15.2032 256.379 15.0741 259.832 13.996C260.713 13.6903 261.437 13.8223 261.501 14.1836L262.538 14.231L273.315 14.6C277.295 14.6644 281.281 14.8466 285.242 15.1451C285.488 15.5148 286.239 15.6974 286.871 15.4544C288.03 15.1119 312.693 14.0888 313.344 15.1566C315.216 18.2084 314.634 31.0351 312.46 34.1491C310.118 37.4531 292.829 33.4742 279.982 35.2847C208.001 34.2439 222.561 34.0072 205.222 35.3157C203.536 34.1881 198.188 36.7862 194.302 34.8166C192.713 34.0024 182.146 33.6801 179.945 34.4199C177.744 35.1597 123.983 32.1091 118.745 34.0943C108.714 32.0168 69.1363 33.5077 59.8797 33.6531Z" fill="#C8ED01"></path><path opacity="0.7" d="M59.8797 33.6531C53.0946 31.1801 5.10859 32.1507 1.53106 31.3198C-1.44944 30.2937 2.06048 14.1032 4.47829 11.779C5.33927 10.9532 6.38802 10.8529 8.86117 11.3243C10.8463 11.7735 24.3569 12.0326 37.3538 12.2064C50.3507 12.3803 62.7816 12.3553 62.7816 12.3553C63.5054 12.8827 65.3189 11.2353 65.7289 11.8597C66.1389 12.484 87.0618 13.0819 108.47 13.3436C129.879 13.6054 151.885 13.6719 155.343 13.6817C159.563 13.7386 156.34 14.6295 161.259 14.3599C171.712 13.7996 194.874 15.1178 202.708 14.3759C207.114 13.7638 212.029 13.8052 216.628 14.4931C222.97 15.2032 256.379 15.0741 259.832 13.996C260.713 13.6903 261.437 13.8223 261.501 14.1836L262.538 14.231L273.315 14.6C277.295 14.6644 281.281 14.8466 285.242 15.1451C285.488 15.5148 286.239 15.6974 286.871 15.4544C288.03 15.1119 312.693 14.0888 313.344 15.1566C315.216 18.2084 314.634 31.0351 312.46 34.1491C310.118 37.4531 292.829 33.4742 279.982 35.2847C208.001 34.2439 222.561 34.0072 205.222 35.3157C203.536 34.1881 198.188 36.7862 194.302 34.8166C192.713 34.0024 182.146 33.6801 179.945 34.4199C177.744 35.1597 123.983 32.1091 118.745 34.0943C108.714 32.0168 69.1363 33.5077 59.8797 33.6531Z" fill="#C8ED01"></path><path opacity="0.7" d="M59.8797 33.6531C53.0946 31.1801 5.10859 32.1507 1.53106 31.3198C-1.44944 30.2937 2.06048 14.1032 4.47829 11.779C5.33927 10.9532 6.38802 10.8529 8.86117 11.3243C10.8463 11.7735 24.3569 12.0326 37.3538 12.2064C50.3507 12.3803 62.7816 12.3553 62.7816 12.3553C63.5054 12.8827 65.3189 11.2353 65.7289 11.8597C66.1389 12.484 87.0618 13.0819 108.47 13.3436C129.879 13.6054 151.885 13.6719 155.343 13.6817C159.563 13.7386 156.34 14.6295 161.259 14.3599C171.712 13.7996 194.874 15.1178 202.708 14.3759C207.114 13.7638 212.029 13.8052 216.628 14.4931C222.97 15.2032 256.379 15.0741 259.832 13.996C260.713 13.6903 261.437 13.8223 261.501 14.1836L262.538 14.231L273.315 14.6C277.295 14.6644 281.281 14.8466 285.242 15.1451C285.488 15.5148 286.239 15.6974 286.871 15.4544C288.03 15.1119 312.693 14.0888 313.344 15.1566C315.216 18.2084 314.634 31.0351 312.46 34.1491C310.118 37.4531 292.829 33.4742 279.982 35.2847C208.001 34.2439 222.561 34.0072 205.222 35.3157C203.536 34.1881 198.188 36.7862 194.302 34.8166C192.713 34.0024 182.146 33.6801 179.945 34.4199C177.744 35.1597 123.983 32.1091 118.745 34.0943C108.714 32.0168 69.1363 33.5077 59.8797 33.6531Z" fill="#C8ED01"></path><path opacity="0.7" d="M59.8797 33.6531C53.0946 31.1801 5.10859 32.1507 1.53106 31.3198C-1.44944 30.2937 2.06048 14.1032 4.47829 11.779C5.33927 10.9532 6.38802 10.8529 8.86117 11.3243C10.8463 11.7735 24.3569 12.0326 37.3538 12.2064C50.3507 12.3803 62.7816 12.3553 62.7816 12.3553C63.5054 12.8827 65.3189 11.2353 65.7289 11.8597C66.1389 12.484 87.0618 13.0819 108.47 13.3436C129.879 13.6054 151.885 13.6719 155.343 13.6817C159.563 13.7386 156.34 14.6295 161.259 14.3599C171.712 13.7996 194.874 15.1178 202.708 14.3759C207.114 13.7638 212.029 13.8052 216.628 14.4931C222.97 15.2032 256.379 15.0741 259.832 13.996C260.713 13.6903 261.437 13.8223 261.501 14.1836L262.538 14.231L273.315 14.6C277.295 14.6644 281.281 14.8466 285.242 15.1451C285.488 15.5148 286.239 15.6974 286.871 15.4544C288.03 15.1119 312.693 14.0888 313.344 15.1566C315.216 18.2084 314.634 31.0351 312.46 34.1491C310.118 37.4531 292.829 33.4742 279.982 35.2847C208.001 34.2439 222.561 34.0072 205.222 35.3157C203.536 34.1881 198.188 36.7862 194.302 34.8166C192.713 34.0024 182.146 33.6801 179.945 34.4199C177.744 35.1597 123.983 32.1091 118.745 34.0943C108.714 32.0168 69.1363 33.5077 59.8797 33.6531Z" fill="#C8ED01"></path><path opacity="0.7" d="M59.8797 33.6531C53.0946 31.1801 5.10859 32.1507 1.53106 31.3198C-1.44944 30.2937 2.06048 14.1032 4.47829 11.779C5.33927 10.9532 6.38802 10.8529 8.86117 11.3243C10.8463 11.7735 24.3569 12.0326 37.3538 12.2064C50.3507 12.3803 62.7816 12.3553 62.7816 12.3553C63.5054 12.8827 65.3189 11.2353 65.7289 11.8597C66.1389 12.484 87.0618 13.0819 108.47 13.3436C129.879 13.6054 151.885 13.6719 155.343 13.6817C159.563 13.7386 156.34 14.6295 161.259 14.3599C171.712 13.7996 194.874 15.1178 202.708 14.3759C207.114 13.7638 212.029 13.8052 216.628 14.4931C222.97 15.2032 256.379 15.0741 259.832 13.996C260.713 13.6903 261.437 13.8223 261.501 14.1836L262.538 14.231L273.315 14.6C277.295 14.6644 281.281 14.8466 285.242 15.1451C285.488 15.5148 286.239 15.6974 286.871 15.4544C288.03 15.1119 312.693 14.0888 313.344 15.1566C315.216 18.2084 314.634 31.0351 312.46 34.1491C310.118 37.4531 292.829 33.4742 279.982 35.2847C208.001 34.2439 222.561 34.0072 205.222 35.3157C203.536 34.1881 198.188 36.7862 194.302 34.8166C192.713 34.0024 182.146 33.6801 179.945 34.4199C177.744 35.1597 123.983 32.1091 118.745 34.0943C108.714 32.0168 69.1363 33.5077 59.8797 33.6531Z" fill="#C8ED01"></path><path opacity="0.7" d="M59.8797 33.6531C53.0946 31.1801 5.10859 32.1507 1.53106 31.3198C-1.44944 30.2937 2.06048 14.1032 4.47829 11.779C5.33927 10.9532 6.38802 10.8529 8.86117 11.3243C10.8463 11.7735 24.3569 12.0326 37.3538 12.2064C50.3507 12.3803 62.7816 12.3553 62.7816 12.3553C63.5054 12.8827 65.3189 11.2353 65.7289 11.8597C66.1389 12.484 87.0618 13.0819 108.47 13.3436C129.879 13.6054 151.885 13.6719 155.343 13.6817C159.563 13.7386 156.34 14.6295 161.259 14.3599C171.712 13.7996 194.874 15.1178 202.708 14.3759C207.114 13.7638 212.029 13.8052 216.628 14.4931C222.97 15.2032 256.379 15.0741 259.832 13.996C260.713 13.6903 261.437 13.8223 261.501 14.1836L262.538 14.231L273.315 14.6C277.295 14.6644 281.281 14.8466 285.242 15.1451C285.488 15.5148 286.239 15.6974 286.871 15.4544C288.03 15.1119 312.693 14.0888 313.344 15.1566C315.216 18.2084 314.634 31.0351 312.46 34.1491C310.118 37.4531 292.829 33.4742 279.982 35.2847C208.001 34.2439 222.561 34.0072 205.222 35.3157C203.536 34.1881 198.188 36.7862 194.302 34.8166C192.713 34.0024 182.146 33.6801 179.945 34.4199C177.744 35.1597 123.983 32.1091 118.745 34.0943C108.714 32.0168 69.1363 33.5077 59.8797 33.6531Z" fill="#C8ED01"></path></svg> 