<?xml version="1.0" encoding="UTF-8"?> <svg xmlns="http://www.w3.org/2000/svg" width="23" height="168" viewBox="0 0 23 168" fill="none"><path d="M5.25151 125.258L5.25151 121.551L17.3612 121.551L17.3612 113.272L12.5729 113.148C10.1222 113.087 8.28923 112.582 7.07415 111.635C5.85906 110.708 5.25152 109.328 5.25152 107.495L5.25152 105.889L8.55696 105.889L8.55696 106.661C8.55696 107.65 8.88648 108.37 9.54551 108.823C10.2045 109.297 11.2858 109.544 12.7892 109.565L20.6357 109.75L20.6357 125.258L5.25151 125.258Z" fill="white"></path><path d="M5.25151 103.266L5.25151 99.5587L17.3612 99.5587L17.3612 91.2797L12.5729 91.1561C10.1222 91.0943 8.28923 90.5898 7.07415 89.6424C5.85906 88.7156 5.25152 87.3358 5.25152 85.5029L5.25152 83.8965L8.55696 83.8965L8.55696 84.6688C8.55696 85.6573 8.88648 86.3781 9.54551 86.8312C10.2045 87.3049 11.2858 87.552 12.7892 87.5726L20.6357 87.758L20.6357 103.266L5.25151 103.266Z" fill="white"></path><path d="M4.8812 73.4626C4.8812 71.5679 5.19012 69.9203 5.80796 68.5198C6.4464 67.1194 7.35256 66.0382 8.52646 65.2762C9.70035 64.5348 11.0802 64.1641 12.666 64.1641L13.1294 64.1641C14.7358 64.1641 16.1259 64.5348 17.2998 65.2762C18.4943 66.0176 19.4107 67.0885 20.0492 68.4889C20.6876 69.8894 21.0068 71.5473 21.0068 73.4626C21.0068 75.3573 20.6876 76.9946 20.0492 78.3744C19.4107 79.7542 18.4943 80.8149 17.2998 81.5563C16.1259 82.2977 14.7358 82.6684 13.1294 82.6684L12.666 82.6684C11.0802 82.6684 9.70035 82.2977 8.52646 81.5563C7.35256 80.8149 6.4464 79.7542 5.80796 78.3744C5.19012 76.9946 4.8812 75.3573 4.8812 73.4626ZM8.27932 73.4317C8.27932 75.1204 8.66032 76.4385 9.42233 77.3858C10.2049 78.3538 11.2861 78.8378 12.666 78.8378L13.1294 78.8378C14.5504 78.8378 15.6522 78.3641 16.4348 77.4167C17.2174 76.4694 17.6087 75.141 17.6087 73.4317C17.6087 71.6811 17.2174 70.3322 16.4348 69.3848C15.6728 68.4581 14.571 67.9947 13.1294 67.9947L12.666 67.9947C11.2861 67.9947 10.2049 68.4684 9.42233 69.4157C8.66032 70.3837 8.27932 71.7223 8.27932 73.4317Z" fill="white"></path><path d="M21.0068 52.3024C21.0068 54.156 20.6876 55.7726 20.0492 57.1525C19.4107 58.5529 18.4943 59.6238 17.2998 60.3653C16.1259 61.1273 14.7461 61.5083 13.1603 61.5083L12.7587 61.5083C11.1729 61.5083 9.78273 61.1273 8.58824 60.3653C7.41435 59.6238 6.49788 58.5529 5.83885 57.1525C5.20042 55.7726 4.8812 54.156 4.8812 52.3024C4.8812 50.243 5.42696 48.4924 6.51848 47.0508L0.000259237 47.0508L0.000259399 43.3437L20.6361 43.3437L20.6361 46.8037L19.2151 46.8963C20.4096 48.4203 21.0068 50.2224 21.0068 52.3024ZM13.1603 57.6777C14.5401 57.6777 15.6213 57.1937 16.4039 56.2257C17.2071 55.2578 17.6087 53.9294 17.6087 52.2407C17.6087 51.1285 17.4234 50.1091 17.0527 49.1823C16.682 48.2762 16.1774 47.5657 15.5389 47.0508L10.4109 47.0508C9.75184 47.5657 9.22668 48.2865 8.83538 49.2132C8.46467 50.14 8.27932 51.1491 8.27932 52.2407C8.27932 53.95 8.67062 55.2784 9.45322 56.2257C10.2564 57.1937 11.3582 57.6777 12.7587 57.6777L13.1603 57.6777Z" fill="white"></path><path d="M5.77668 40.1139L5.25151 40.1139L5.25151 35.8817L11.4299 29.8578L11.4299 25.8418L5.25152 25.8418L5.25152 22.1348L20.6357 22.1348L20.6357 25.8418L14.6427 25.8418L14.6427 29.7651L20.6357 35.4492L20.6357 39.7432L20.1106 39.7432L13.0981 33.1632L5.77668 40.1139Z" fill="white"></path><path d="M4.8812 9.53395C4.8812 7.65983 5.19012 6.03285 5.80796 4.65301C6.4464 3.27316 7.35256 2.20224 8.52646 1.44024C9.70035 0.698829 11.0699 0.328125 12.6351 0.328125L13.1294 0.328125C14.7358 0.328125 16.1259 0.698829 17.2998 1.44024C18.4943 2.18165 19.4107 3.24227 20.0492 4.62212C20.6876 6.02255 21.0068 7.65983 21.0068 9.53395C21.0068 11.2433 20.7185 12.7776 20.1419 14.1369C19.5652 15.4961 18.762 16.5567 17.7323 17.3187C16.7025 18.0807 15.5389 18.4617 14.2415 18.4617L14.1488 18.4617L14.1488 14.6311L14.2415 14.6311C15.23 14.6311 16.0332 14.1575 16.6511 13.2101C17.2895 12.2627 17.6087 11.0374 17.6087 9.53395C17.6087 7.82459 17.2174 6.49623 16.4348 5.54888C15.6522 4.62212 14.5401 4.15874 13.0985 4.15874L12.666 4.15874C11.2656 4.15874 10.1843 4.62212 9.42233 5.54888C8.66032 6.49623 8.27932 7.82459 8.27932 9.53395C8.27932 11.0374 8.58824 12.2627 9.20608 13.2101C9.82392 14.1575 10.6271 14.6311 11.6157 14.6311L11.7083 14.6311L11.7083 18.4617L11.6157 18.4617C10.2976 18.4617 9.1237 18.091 8.09397 17.3496C7.08483 16.6082 6.29194 15.5579 5.71528 14.1986C5.15923 12.86 4.8812 11.3051 4.8812 9.53395Z" fill="white"></path><path fill-rule="evenodd" clip-rule="evenodd" d="M22.2558 158.945L14.3185 166.882C13.8315 167.369 13.0418 167.369 12.5547 166.882L4.61745 158.945C4.13038 158.458 4.13038 157.668 4.61745 157.181C5.10452 156.694 5.89422 156.694 6.38129 157.181L12.1894 162.989L12.1894 140L14.6838 140L14.6838 162.989L20.492 157.181C20.979 156.694 21.7687 156.694 22.2558 157.181C22.7429 157.668 22.7429 158.458 22.2558 158.945Z" fill="white"></path></svg> 