<?xml version="1.0" encoding="UTF-8"?> <svg xmlns="http://www.w3.org/2000/svg" width="146" height="125" viewBox="0 0 146 125" fill="none"><path d="M59.0825 79.4787C63.6568 52.9863 68.1975 26.4881 72.7922 0C77.3868 26.4881 81.9291 52.9863 86.5019 79.4787C106.195 79.4802 125.89 79.4787 145.584 79.4787V86.4057C123.824 86.4043 102.062 86.4086 80.3014 86.4028C77.8993 72.3074 75.4942 58.2121 73.0921 44.1167C72.9712 43.5845 72.9742 43.0189 72.7718 42.5115C70.2648 57.1405 67.7783 71.7724 65.2829 86.4028C43.5224 86.4086 21.7605 86.4043 0 86.4057V79.4787C19.6947 79.4787 39.3893 79.4802 59.0825 79.4787Z" fill="#E01D24"></path><path d="M0 93.3361C2.29587 93.3492 4.59173 93.3085 6.8876 93.355C6.85994 97.403 6.88323 101.451 6.87449 105.499C12.7081 105.509 18.5402 105.501 24.3723 105.503C24.3766 101.447 24.3723 97.3914 24.3752 93.3361C26.6667 93.3347 28.9582 93.3347 31.2497 93.3361C31.2497 101.844 31.2497 110.353 31.2497 118.86C31.2264 120.752 31.2977 122.646 31.2118 124.535H0V117.672C8.12506 117.672 16.2487 117.671 24.3737 117.674C24.3752 115.884 24.3752 114.095 24.3737 112.305C16.2487 112.304 8.12506 112.305 0 112.305V93.3361Z" fill="#E01D24"></path><path d="M38.0874 93.2699C48.5025 93.2699 58.9191 93.2684 69.3342 93.2713C69.3356 99.6342 69.3356 105.998 69.3342 112.363C61.212 112.363 53.0884 112.366 44.9663 112.361C44.9546 116.418 44.9648 120.475 44.9619 124.532H38.0859C38.0874 114.111 38.0845 103.691 38.0874 93.2699ZM44.9619 100.133C44.975 101.904 44.9313 103.676 44.9837 105.446C50.8071 105.424 56.6305 105.44 62.4538 105.437C62.464 103.669 62.4611 101.901 62.4553 100.131C56.6246 100.134 50.7925 100.133 44.9619 100.133Z" fill="#E01D24"></path><path d="M76.1953 93.2937C78.3121 93.2457 80.4304 93.2864 82.5472 93.2733C90.8513 93.2733 99.1554 93.2718 107.46 93.2748C107.461 103.308 107.46 113.34 107.46 123.373C107.458 123.761 107.497 124.158 107.375 124.535H100.678C100.522 124.166 100.595 123.76 100.585 123.373C100.584 119.684 100.587 115.994 100.585 112.305C94.7515 112.307 88.9194 112.304 83.0858 112.307C83.0829 115.703 83.0858 119.101 83.0844 122.498C83.0669 123.177 83.1266 123.859 83.0451 124.535H76.2404C76.1735 122.162 76.2303 119.785 76.2113 117.41C76.2011 109.372 76.2317 101.332 76.1953 93.2937ZM83.0684 100.167C83.1004 101.919 83.0844 103.674 83.0771 105.429C88.9121 105.46 94.7471 105.432 100.584 105.444C100.587 103.674 100.585 101.904 100.584 100.136C94.7457 100.157 88.9034 100.097 83.0684 100.167Z" fill="#E01D24"></path><path d="M114.334 107.438C119.067 102.716 123.793 97.9879 128.529 93.2695C134.214 93.2753 139.899 93.271 145.584 93.2724V124.534H138.838C138.621 124.233 138.726 123.851 138.708 123.509C138.71 115.718 138.708 107.928 138.71 100.137C136.265 100.14 133.821 100.124 131.378 100.144C127.999 103.544 124.597 106.917 121.209 110.308C121.192 115.049 121.247 119.794 121.181 124.534H114.375C114.289 123.811 114.353 123.083 114.334 122.359C114.334 117.385 114.334 112.41 114.334 107.438Z" fill="#E01D24"></path></svg> 