<?xml version="1.0" encoding="UTF-8"?> <svg xmlns="http://www.w3.org/2000/svg" width="335" height="40" viewBox="0 0 335 40" fill="none"><path d="M334.284 21.9491H319.561V10.293H334.284V21.9491ZM334.284 38.0018H319.561V26.3457H334.284V38.0018Z" fill="white"></path><path d="M292.059 1.49609H315.985V37.9981H300.648V14.9926H300.341L292.059 37.9981H280.761L272.377 14.8393H272.07V37.9981H257.653V1.49609H280.71L286.231 19.6449H286.538L292.059 1.49609Z" fill="white"></path><path d="M256.595 37.9981H240.184L238.088 33.397H219.786L217.69 37.9981H201.279L218.866 1.49609H239.008L256.595 37.9981ZM228.784 13.3567L224.029 23.8881H233.845L229.09 13.3567H228.784Z" fill="white"></path><path d="M133.964 1.49609C138.02 1.49609 141.224 1.97324 143.576 2.92755C145.961 3.88185 147.665 5.33034 148.688 7.27303C149.71 9.18163 150.222 11.6867 150.222 14.7881C150.222 17.7874 149.693 20.2243 148.637 22.0988C147.614 23.9733 145.91 25.3707 143.524 26.2909C141.173 27.2111 137.986 27.6712 133.964 27.6712H118.423V37.9981H103.086V1.49609H133.964ZM129.261 18.1623C130.795 18.1623 131.868 17.9067 132.482 17.3954C133.129 16.8501 133.453 15.9981 133.453 14.8393C133.453 13.6464 133.129 12.7773 132.482 12.232C131.868 11.6867 130.795 11.414 129.261 11.414H118.423V18.1623H129.261Z" fill="white"></path><path d="M73.3931 0.117188C82.4589 0.117188 89.1902 1.71905 93.5868 4.92278C97.9834 8.1265 100.182 13.0684 100.182 19.7485C100.182 26.4286 97.9834 31.3705 93.5868 34.5743C89.1902 37.778 82.4589 39.3799 73.3931 39.3799C64.3272 39.3799 57.596 37.778 53.1994 34.5743C48.8028 31.3705 46.6045 26.4286 46.6045 19.7485C46.6045 13.0684 48.8028 8.1265 53.1994 4.92278C57.596 1.71905 64.3272 0.117188 73.3931 0.117188ZM73.3931 28.1327C80.0732 28.1327 83.4132 25.338 83.4132 19.7485C83.4132 14.159 80.0732 11.3643 73.3931 11.3643C66.713 11.3643 63.3729 14.159 63.3729 19.7485C63.3729 25.338 66.713 28.1327 73.3931 28.1327Z" fill="white"></path><path d="M48.027 1.49609L32.8945 14.5325L50.532 37.9981H32.1276L22.1075 23.8881L16.126 29.0004V37.9981H0.789062V1.49609H16.126V14.4303L30.5939 1.49609H48.027Z" fill="white"></path><path d="M159.5 1.5V13.9922C159.667 15.8255 161 19.4922 165 19.4922C169 19.4922 184 19.4922 191 19.4922" stroke="white" stroke-width="10.5"></path><path d="M157.9 1.5V13.9922C158.067 15.8255 159.4 19.4922 163.4 19.4922C167.4 19.4922 182.4 19.4922 189.4 19.4922" stroke="white" stroke-width="10.5"></path><path d="M162.801 1.5V13.9922C162.967 15.8255 164.301 19.4922 168.301 19.4922C172.301 19.4922 187.301 19.4922 194.301 19.4922" stroke="white" stroke-width="10.5"></path><rect x="183.807" y="2.5" width="14" height="35" fill="white" stroke="white"></rect><rect x="183.807" y="2.00781" width="14" height="35" fill="white" stroke="white"></rect><path d="M172 14C169.2 14 168.167 11.3333 168 10L160 5.5V19.5H178.5L184 14H172Z" fill="white"></path></svg> 