<?xml version="1.0" encoding="UTF-8"?> <svg xmlns="http://www.w3.org/2000/svg" width="524" height="524" viewBox="0 0 524 524" fill="none"><path d="M128 198.815V156.886C129.54 154.442 130.739 151.645 132.704 149.634C135.462 146.784 139.406 146.613 143.186 146.607C154.828 146.607 166.477 146.607 178.119 146.607H181.394V133.301H342.468V146.594H345.744C357.418 146.594 369.093 146.672 380.768 146.594C391.971 146.495 396.124 153.394 395.889 161.662C395.587 171.869 395.889 182.089 395.777 192.303C395.815 195.702 395.539 199.097 394.952 202.445C389.868 227.995 374.583 244.105 349.707 251.253C347.329 251.941 344.872 252.367 342.704 252.858C340.267 294.591 319.525 321.465 279.535 333.644L288.746 361.291C298.704 361.291 308.368 361.291 318.038 361.291C325.002 361.291 329.326 364.351 331.632 370.882C335.248 381.129 338.86 391.375 342.468 401.622H181.355C184.971 391.367 188.588 381.103 192.204 370.83C194.471 364.403 198.834 361.271 205.549 361.258C214.617 361.258 223.684 361.206 232.751 361.298C234.507 361.298 235.3 360.859 235.85 359.109C238.032 352.139 240.403 345.22 242.703 338.282C243.246 336.651 243.764 335.007 244.242 333.559C204.206 321.445 183.517 294.466 181.067 252.825C178.662 252.301 176.009 251.875 173.454 251.129C152.489 245.049 138.076 231.952 130.994 211.165C129.664 207.149 128.989 202.93 128 198.815ZM301.902 213.936H298.79C291.38 213.936 283.97 213.864 276.561 213.982C274.628 213.982 273.645 213.458 272.859 211.643C269.688 204.286 266.308 197.007 263.032 189.709C262.737 189.054 262.377 188.398 261.866 187.455C261.276 188.641 260.831 189.466 260.451 190.311C257.391 197.145 254.233 203.938 251.331 210.837C250.355 213.156 249.208 214.113 246.568 214.015C239.361 213.785 232.102 213.929 224.87 213.943C224.044 213.943 223.225 214.028 222.098 214.087C222.754 215.01 223.173 215.646 223.631 216.255C229.01 223.462 234.336 230.668 239.833 237.79C241.353 239.755 241.884 241.485 241.084 243.928C239.977 247.309 239.283 250.827 238.464 254.293C237.448 258.446 236.459 262.607 235.332 267.304C243.849 262.62 251.757 258.296 259.625 253.854C261.243 252.937 262.475 252.838 264.132 253.801C269.374 256.861 274.772 259.744 280.111 262.679C282.732 264.133 285.405 265.561 288.432 267.212C288.209 266.02 288.111 265.247 287.921 264.526C286.126 257.359 284.313 250.189 282.483 243.018C282.243 242.29 282.194 241.513 282.34 240.761C282.485 240.008 282.821 239.306 283.315 238.72C289.454 230.695 295.455 222.564 301.902 213.936ZM342.521 173.782V225.591C343.164 225.526 343.803 225.421 344.434 225.277C353.782 222.486 360.426 216.484 365.012 207.974C370.855 197.125 368.536 185.391 369.074 173.782H342.521ZM154.789 173.782C154.789 179.305 154.848 184.69 154.789 190.082C154.638 200.689 158.281 209.736 165.992 216.989C170.262 221.121 175.53 224.076 181.283 225.565V173.808L154.789 173.782Z" fill="white"></path><path d="M262 520C404.489 520 520 404.489 520 262C520 119.511 404.489 4 262 4C119.511 4 4 119.511 4 262C4 404.489 119.511 520 262 520Z" stroke="white" stroke-width="8" stroke-miterlimit="10"></path></svg> 