<?xml version="1.0" encoding="UTF-8"?> <svg xmlns="http://www.w3.org/2000/svg" width="144" height="190" viewBox="0 0 144 190" fill="none"><path d="M42.0698 63.5103C42.2311 62.2964 42.8412 61.1869 43.7798 60.4003C44.9098 59.2603 46.1798 58.2703 47.3898 57.2303C50.0158 54.9332 52.8214 52.8499 55.7798 51.0003C62.0163 47.2065 68.9086 44.6151 76.0998 43.3603C82.0508 42.1747 88.2037 42.4944 93.9998 44.2903C99.0698 45.9603 103.64 49.2903 105.25 54.6003C106.12 57.5032 106.12 60.5974 105.25 63.5003C104.295 66.6603 102.799 69.631 100.83 72.2803C96.6898 78.1003 90.8298 82.5803 84.9098 86.3903C78.4823 90.5074 71.5433 93.7651 64.2698 96.0803C56.8898 98.4203 48.8098 99.9103 41.1998 97.7403C35.1398 96.0003 29.4798 92.0003 27.4798 85.8503C25.2898 79.1303 27.1698 71.8503 30.9898 66.1403C34.8098 60.4303 40.5698 56.0003 46.4698 52.4603C52.5309 48.8291 59.1048 46.1322 65.9698 44.4603C79.2098 41.2503 93.8898 42.0603 105.81 49.1303C110.99 52.2103 116.15 57.0603 116.81 63.2103C117.56 70.2103 112.87 76.6403 108.2 81.4103C98.1998 91.6103 85.1098 98.2503 71.3898 101.85C64.7984 103.697 57.9943 104.675 51.1498 104.76C44.8998 104.76 38.5398 103.76 33.2198 100.39C22.3498 93.5703 21.3798 78.5803 27.2198 67.9903C34.1598 55.5003 48.0998 48.3203 61.2198 44.2203C68.9316 41.8195 76.9282 40.4542 84.9998 40.1603C92.8398 39.8803 100.86 40.4203 108.29 43.1603C114.582 45.3028 119.936 49.5615 123.44 55.2103C126.77 60.9103 126.95 67.4703 124.73 73.6303C122.37 80.1703 117.67 85.7803 112.73 90.5503C107.36 95.6277 101.505 100.166 95.2498 104.1C83.1098 111.9 68.6298 118.1 53.9098 117.19C47.3098 116.78 40.7398 114.5 36.1998 109.49C31.6598 104.48 29.7798 97.7903 29.8298 91.3303C29.8998 83.6603 32.5998 76.2303 36.3398 69.6103C39.5819 63.8715 43.6524 58.6419 48.4198 54.0903C57.9591 44.9423 69.8564 38.6301 82.7798 35.8603C95.0598 33.2503 110.57 33.4903 120.78 42.1003C130.78 50.5503 132.88 64.9903 129.22 77.0403C125.09 90.6303 114.64 101.68 103.64 110.19C92.1898 119.06 78.2198 126 63.4898 126.3C57.1798 126.43 49.0498 125.85 44.7698 120.51C42.5198 117.71 41.4098 114.06 40.2098 110.74C38.7698 106.74 37.4398 102.74 36.3698 98.6603C34.3698 91.0403 33.2598 82.9403 34.9098 75.1403C36.4319 68.4846 39.5169 62.287 43.9098 57.0603C48.3234 51.71 53.4397 46.9806 59.1198 43.0003C65.267 38.5327 71.996 34.926 79.1198 32.2803C86.1453 29.6463 93.6211 28.423 101.12 28.6803C107.364 29.0012 113.458 30.7093 118.96 33.6803C124.309 36.5064 128.907 40.5691 132.37 45.5303C135.866 50.6688 137.632 56.789 137.41 63.0003C136.96 77.3403 127.1 89.5603 115.63 97.3003C109.332 101.429 102.631 104.907 95.6298 107.68C88.0379 110.949 80.1569 113.5 72.0898 115.3C64.5098 116.86 56.4498 117.3 48.8798 115.48C42.8993 114.022 37.3913 111.058 32.8798 106.87C28.4274 102.901 25.461 97.5323 24.4698 91.6503C24.4698 91.9303 24.3998 91.0203 24.3898 90.8903C24.3898 90.5403 24.3298 90.1903 24.3098 89.8403C24.2598 88.9143 24.2598 87.9863 24.3098 87.0603C24.4236 85.3685 24.7118 83.6929 25.1698 82.0603C26.148 78.6982 27.6136 75.4975 29.5198 72.5603C33.5198 66.2603 38.8598 60.8503 44.4498 55.9603C50.2489 50.9162 56.5717 46.5077 63.3098 42.8103C70.1998 39.0103 77.5798 36.1303 85.5198 35.8103C89.915 35.7151 94.3112 35.9558 98.6698 36.5303C102.32 36.9503 105.98 37.3803 109.61 38.0103C116.31 39.1603 123.36 41.0103 128.61 45.6303C132.905 49.5389 135.79 54.7551 136.82 60.4703C137.94 66.3194 137.659 72.3507 136 78.0703C134.048 84.51 130.794 90.48 126.44 95.6103C121.708 101.21 116.398 106.294 110.6 110.78C104.784 115.506 98.6535 119.829 92.2498 123.72C85.8323 127.704 78.7909 130.581 71.4198 132.23C65.3182 133.46 59.0154 133.269 52.9998 131.67C47.0974 130.19 41.8045 126.904 37.8598 122.27C33.4998 117.01 31.6198 109.62 31.2898 102.75C30.5698 87.9403 35.7098 73.3403 44.1598 61.3003C52.6098 49.2603 64.3398 40.1703 77.2098 33.5403C83.9998 30.0003 91.3098 27.0003 98.9298 25.6403C102.673 24.9652 106.507 24.9652 110.25 25.6403C113.107 26.1579 115.846 27.1951 118.33 28.7003C123.036 31.6056 126.844 35.7596 129.33 40.7003C130.674 43.2347 131.711 45.9203 132.42 48.7003C133.17 51.4271 133.593 54.2335 133.68 57.0603C133.741 58.5704 133.718 60.0828 133.61 61.5903C133.518 63.0063 133.321 64.4136 133.02 65.8003C132.363 69.0872 131.378 72.2999 130.08 75.3903C127.292 81.77 123.52 87.6721 118.9 92.8803C114.135 98.2978 108.871 103.256 103.18 107.69C97.3335 112.409 90.9123 116.367 84.0698 119.47C71.4798 125 55.9298 126 44.1198 118.08C38.1798 114.08 33.9198 107.92 30.8898 101.54C27.9196 95.2091 26.1594 88.3784 25.6998 81.4003C24.707 67.2588 28.5506 53.1998 36.5998 41.5303C44.318 30.6283 54.9358 22.1063 67.2498 16.9303C80.6598 11.2003 96.5298 9.1603 110.6 13.9303C122.67 17.9303 133.15 27.9303 135.79 40.6503C138.67 54.5103 131.45 68.4103 122.62 78.6503C112.955 89.9779 100.783 98.8972 87.0698 104.7C72.7698 110.53 56.5498 112.05 41.8798 106.63C35.7598 104.37 29.5698 100.63 26.7098 94.5303C25.1798 91.2403 24.7998 87.4703 24.5198 83.9003C24.1948 80.0058 24.1147 76.0948 24.2798 72.1903C24.6298 64.8103 26.2798 57.4203 30.1598 51.0703C33.9398 44.9403 39.4998 40.0703 45.2598 35.8103C57.1698 27.0803 71.2598 20.0103 86.2598 19.6803C98.6798 19.4203 112.06 24.1803 119.77 34.3203C128.19 45.4203 128.1 60.9303 122.87 73.4603C117.33 86.7003 106.48 97.2103 95.0598 105.53C82.8498 114.43 68.9698 121.53 53.9298 123.94C50.3583 124.503 46.7449 124.758 43.1298 124.7C39.406 124.751 35.6963 124.232 32.1298 123.16C25.1298 120.86 21.2298 114.16 17.3398 108.31C13.1198 102 9.10977 95.4203 7.13977 88.0603C5.30914 80.9044 5.84235 73.3482 8.65977 66.5203C11.4098 59.4103 15.8498 53.0003 20.1998 46.7703C24.4598 40.4708 29.0948 34.4332 34.0798 28.6903C39.054 22.9838 44.8995 18.1002 51.3998 14.2203C57.8935 10.4774 65.0062 7.93041 72.3998 6.7003C85.9998 4.4403 101.36 7.1803 112.24 16.0003C122.49 24.3303 128.85 38.0603 126.24 51.1203C124.77 58.5603 120.99 65.2403 116.53 71.2903C112.402 76.8441 107.666 81.919 102.41 86.4203C91.9351 95.477 79.6227 102.157 66.3198 106C53.7698 109.59 37.3998 111.91 27.2198 101.86C17.7598 92.4803 16.6698 77.3903 19.9998 65.0003C23.6898 51.2103 32.7998 39.3703 44.5698 31.4303C57.0543 23.0854 71.6392 18.4306 86.6498 18.0003C100.52 17.6803 115.22 22.4303 122.89 34.5403C126.463 40.3426 127.88 47.2181 126.89 53.9603C125.95 61.1703 122.89 67.9603 119.15 74.1803C111.551 86.4021 101.651 97.0321 89.9998 105.48C78.4598 113.97 65.0598 121.19 50.8598 123.78C44.0066 125.195 36.9031 124.798 30.2498 122.63C24.4368 120.528 19.4593 116.603 16.0598 111.44C12.6826 106.315 10.5839 100.454 9.93977 94.3503C9.3163 87.5734 10.2043 80.7426 12.5398 74.3503C17.3098 60.7803 27.2298 49.2303 38.0898 40.0003C49.0625 30.7124 61.7479 23.6631 75.4298 19.2503C87.0398 15.5103 101.83 11.9703 112.66 19.5203C113.347 19.9202 114.164 20.0312 114.933 19.8287C115.702 19.6262 116.359 19.1268 116.76 18.4403C117.144 17.7497 117.246 16.9372 117.045 16.1729C116.844 15.4087 116.354 14.752 115.68 14.3403C109.2 9.8203 101 8.6903 93.2998 9.3203C85.5194 10.0733 77.8711 11.8417 70.5498 14.5803C55.7088 19.8666 42.0822 28.0828 30.4798 38.7403C18.9998 49.3503 8.80977 62.8003 5.13977 78.2803C1.80977 92.2803 4.51977 107.88 14.2598 118.85C19.2601 124.416 25.9241 128.218 33.2598 129.69C41.0998 131.28 49.2598 130.55 56.9198 128.59C72.0598 124.71 86.2398 116.38 98.2898 106.59C104.293 101.71 109.818 96.2686 114.79 90.3403C120.083 84.2494 124.552 77.4879 128.08 70.2303C131.46 62.9603 133.74 54.9003 133.08 46.8103C132.459 39.1355 129.292 31.8882 124.08 26.2203C112.88 13.9403 95.5198 10.5703 79.5998 12.5103C63.6798 14.4503 47.8798 20.5103 35.3698 30.9103C23.0342 40.9946 14.9477 55.3538 12.7198 71.1303C10.8498 85.5603 15.2698 102.4 28.4398 110.31C35.2598 114.4 43.4998 115.42 51.3098 114.84C59.0334 114.196 66.6351 112.514 73.9098 109.84C88.2332 104.715 101.242 96.4768 112 85.7203C122.89 74.8003 133.29 60.2603 132.79 44.1403C132.31 28.7103 122.79 14.5003 109.53 7.0203C95.5298 -0.859699 78.3098 -1.8197 63.0698 2.7103C55.1721 5.05281 47.77 8.82162 41.2298 13.8303C34.7177 18.9852 28.8935 24.9539 23.8998 31.5903C18.7329 38.1711 13.9034 45.0099 9.42977 52.0803C4.99977 59.1503 1.35977 66.8103 0.279773 75.1503C-0.800227 83.4903 1.41977 91.8103 5.06977 99.3403C6.90825 103.05 8.98943 106.635 11.2998 110.07C13.5398 113.48 15.8298 116.88 18.2998 120.07C20.7186 123.357 23.8999 126.006 27.5698 127.79C31.5548 129.466 35.8098 130.408 40.1298 130.57C48.3266 130.998 56.5367 130.031 64.4098 127.71C80.0898 123.23 94.4898 114.4 106.8 103.82C118.57 93.7003 128.8 80.5403 131.6 64.9403C133.153 57.1714 132.698 49.1347 130.28 41.5903C127.902 34.573 123.535 28.3989 117.71 23.8203C105.71 14.4503 90.0198 11.9203 75.3198 14.9503C67.2669 16.7272 59.5451 19.7646 52.4398 23.9503C45.2962 27.9417 38.6813 32.8131 32.7498 38.4503C26.809 44.0837 22.4888 51.2082 20.2398 59.0803C18.0198 67.0803 17.8798 75.6303 18.5198 83.9003C18.6888 88.3046 19.5877 92.6503 21.1798 96.7603C22.7139 100.221 25.0521 103.265 27.9998 105.64C34.2898 110.79 42.3198 113.73 50.2798 115.06C67.0998 117.88 84.1498 113.83 98.8998 105.57C106.033 101.514 112.691 96.6739 118.75 91.1403C124.682 85.8837 129.852 79.8253 134.11 73.1403C138.384 66.4733 141.117 58.937 142.11 51.0803C142.944 43.5163 141.466 35.8769 137.87 29.1703C130.52 15.3003 115.88 7.3503 100.65 5.6403C84.9998 3.8903 68.6798 8.3303 55.2598 16.3303C42.7298 23.8003 31.9998 34.8503 25.8898 48.1603C19.182 62.6188 17.7662 78.9742 21.8898 94.3703C23.9931 102.151 27.6989 109.406 32.7698 115.67C37.8234 121.834 44.6871 126.252 52.3898 128.3C68.2198 132.55 84.5398 127.39 97.9398 118.77C104.623 114.458 110.875 109.511 116.61 104C122.251 98.7083 127.179 92.7045 131.27 86.1403C138.73 73.9003 142.01 59.3003 137.68 45.3703C133.68 32.6003 123.79 21.5103 110.08 19.5703C101.25 18.3203 92.4098 20.4903 84.2398 23.7803C76.7808 26.7541 69.6605 30.5154 62.9998 35.0003C49.7798 44.0003 38.5398 56.0003 31.8998 70.6803C28.477 78.1006 26.3141 86.0393 25.4998 94.1703C24.7398 102.17 25.3798 110.55 28.4998 118C31.3771 124.959 36.5892 130.698 43.2398 134.23C49.5515 137.483 56.5704 139.121 63.6698 139C79.9598 138.88 94.6698 130.16 107.34 120.78C119.9 111.52 132.68 100.93 139.29 86.4103C144.88 74.1303 145.44 58.4103 137.62 46.9203C128.28 33.1603 110.43 31.5803 95.2598 30.1403C90.6538 29.6306 86.0057 29.6306 81.3998 30.1403C77.0724 30.7068 72.839 31.8433 68.8098 33.5203C61.0583 36.8027 53.7589 41.064 47.0898 46.2003C40.4011 51.1302 34.3278 56.8443 28.9998 63.2203C23.9998 69.3703 19.7398 76.4703 18.6298 84.4603C17.6129 91.6978 19.351 99.0534 23.4998 105.07C27.5374 110.886 33.0633 115.511 39.4998 118.46C55.2898 125.8 73.2598 122.33 88.9998 116.66C104.26 111.17 120.29 104.15 131.23 91.7403C141.23 80.3403 147.01 63.8603 141 49.1703C135.68 36.1703 123.24 26.9103 109.7 23.8503C93.6998 20.2103 76.8498 25.1903 62.9998 33.3703C49.7698 41.1703 37.2298 52.1603 31.2898 66.6003C24.5598 82.9503 29.8498 101.24 36.1198 116.87C37.7098 120.87 39.6998 124.56 43.1198 127.22C46.349 129.556 50.1021 131.063 54.0498 131.61C62.0113 132.84 70.1441 132.349 77.8998 130.17C93.3798 125.95 107.41 116.33 118.53 104.93C129.16 94.0303 137.46 79.8703 136.87 64.1903C136.725 56.9195 134.482 49.8456 130.41 43.8203C125.863 37.592 119.399 33.0256 112.01 30.8203C98.0098 26.3503 82.0098 28.4603 68.6398 33.9803C54.9618 39.5508 43.1639 48.9197 34.6398 60.9803C25.4798 74.0703 19.9798 91.4803 27.2198 106.68C28.8975 110.16 31.2693 113.261 34.1893 115.79C37.1094 118.32 40.516 120.226 44.1998 121.39C51.7398 123.88 59.9598 123.57 67.6698 122.11C83.7898 119.11 98.2098 110.28 110.84 100.11C122.54 90.7103 134.58 76.8603 131.84 60.7303C130.56 53.1903 125.66 46.8003 119.63 42.3603C112.83 37.3603 104.37 35.2003 96.0798 34.3603C78.7064 32.8748 61.2593 36.1996 45.6498 43.9703C32.1898 50.7403 19.9998 62.0003 17.9998 77.6003C17.0798 84.6003 18.3298 92.2003 22.3998 98.1103C26.6351 103.986 32.9115 108.07 39.9998 109.56C47.2298 111.24 54.7098 110.97 61.9998 109.88C69.5966 108.79 77.0403 106.816 84.1798 104C91.4689 101.153 98.3303 97.3135 104.57 92.5903C110.82 87.7903 117.05 81.9703 120.43 74.7303C122.265 71.1063 123.08 67.0519 122.79 63.0003C122.386 59.1975 120.951 55.5773 118.64 52.5303C113.94 46.3203 107 42.3303 99.7498 39.7703C85.2798 34.6703 68.8898 36.1303 54.7498 41.7703C47.3841 44.6295 40.5187 48.6394 34.4098 53.6503C28.4098 58.6503 23.3398 65.2303 21.4098 72.9403C19.4098 80.9403 20.8898 89.5303 26.5198 95.7503C31.7798 101.56 39.6498 104.39 47.3298 104.75C56.0798 105.15 64.8998 102.59 72.9098 99.2803C80.6579 96.1085 87.9487 91.9183 94.5898 86.8203C100.69 82.1303 106.32 76.3403 109.44 69.2003C112.44 62.2903 112.94 54.2703 108.56 47.7803C100.39 35.6803 83.2098 35.2703 70.4398 38.4303C63.3269 40.191 56.5757 43.1792 50.4898 47.2603C47.5455 49.3592 44.7117 51.6088 41.9998 54.0003C39.5298 56.0603 36.7998 58.5503 36.3298 61.9203C36.1471 62.687 36.2623 63.4944 36.6521 64.1794C37.042 64.8644 37.6773 65.3758 38.4298 65.6103C39.8298 66.0003 41.8898 65.1303 42.1198 63.5103H42.0698Z" fill="#C8ED01"></path><path d="M35.6403 185.07C52.0603 182.103 68.5737 179.77 85.1803 178.07C89.9803 177.576 94.7903 177.139 99.6103 176.759C100.4 176.739 101.151 176.417 101.709 175.858C102.268 175.3 102.59 174.549 102.61 173.759C102.61 172.964 102.294 172.201 101.732 171.638C101.169 171.076 100.406 170.759 99.6103 170.759L30.5103 174.349L11.1303 175.349L11.9203 181.24C36.327 177.453 60.847 174.569 85.4803 172.589C92.4603 172.029 99.4603 171.539 106.48 171.119L105.68 165.229L50.8003 172.689L35.3003 174.799C33.8403 174.999 32.9503 176.799 33.1503 178.089C33.2455 178.816 33.6032 179.482 34.1558 179.963C34.7084 180.444 35.4179 180.706 36.1503 180.699L101.61 173.699L119.96 171.699L119.16 165.809L44.6303 179.389L23.5703 183.229L25.1603 188.999C49.678 183.405 74.495 179.215 99.4903 176.449C106.624 175.669 113.76 175.003 120.9 174.449C121.69 174.429 122.441 174.107 122.999 173.548C123.558 172.99 123.88 172.239 123.9 171.449C123.9 170.654 123.584 169.891 123.022 169.328C122.459 168.766 121.696 168.449 120.9 168.449C97.5103 170.179 74.1203 171.909 50.8403 174.759C44.1203 175.586 37.417 176.513 30.7303 177.539L32.3203 183.32C59.6601 178.03 87.3268 174.599 115.13 173.049C122.964 172.616 130.8 172.329 138.64 172.189C142.49 172.119 142.51 166.119 138.64 166.189C110.427 166.707 82.2796 169.122 54.3903 173.419C46.4703 174.639 38.5837 176.013 30.7303 177.539C30.35 177.644 29.9939 177.822 29.6825 178.064C29.3711 178.306 29.1104 178.606 28.9153 178.949C28.7203 179.292 28.5947 179.67 28.5458 180.061C28.4969 180.452 28.5256 180.849 28.6303 181.229C28.8585 181.986 29.3692 182.625 30.0565 183.014C30.7437 183.403 31.5545 183.513 32.3203 183.32C55.1603 179.83 78.1803 177.739 101.2 175.949C107.767 175.443 114.334 174.949 120.9 174.469V168.469C95.2916 170.457 69.8169 173.902 44.6003 178.789C37.567 180.163 30.567 181.643 23.6003 183.229C22.8958 183.488 22.3136 184.001 21.9686 184.667C21.6236 185.333 21.5409 186.105 21.7367 186.829C21.9326 187.554 22.3928 188.178 23.0266 188.58C23.6603 188.982 24.4216 189.131 25.1603 188.999L99.6103 175.419L120.67 171.579C123.95 170.979 123.25 165.329 119.87 165.689L54.4103 172.689L36.0603 174.689L36.8503 180.579L91.7303 173.109L107.24 170.999C108.69 170.809 109.58 169 109.39 167.71C109.293 166.985 108.934 166.321 108.382 165.842C107.829 165.364 107.121 165.103 106.39 165.109C81.2837 166.609 56.257 169.039 31.3103 172.399C24.2903 173.346 17.2903 174.346 10.3103 175.399C9.61205 175.594 9.00779 176.035 8.60928 176.64C8.21078 177.246 8.04498 177.975 8.14254 178.693C8.24009 179.412 8.59441 180.07 9.13998 180.547C9.68555 181.025 10.3855 181.288 11.1103 181.289L80.2003 177.71L99.5903 176.71V170.71C82.4303 172.083 65.337 174.12 48.3103 176.82C43.5403 177.57 38.7803 178.389 34.0303 179.249C33.6497 179.361 33.2949 179.546 32.9864 179.795C32.6779 180.044 32.4219 180.352 32.2331 180.701C32.0443 181.05 31.9265 181.432 31.8866 181.827C31.8466 182.221 31.8853 182.62 32.0003 182.999C32.2263 183.757 32.7367 184.398 33.4246 184.787C34.1124 185.177 34.9244 185.285 35.6903 185.089L35.6403 185.07Z" fill="#C8ED01"></path></svg> 