<?xml version="1.0" encoding="UTF-8"?> <svg xmlns="http://www.w3.org/2000/svg" width="288" height="39" viewBox="0 0 288 39" fill="none"><path opacity="0.7" d="M54.7939 31.9698C48.5818 29.6375 4.85514 31.5964 1.58504 30.8395C-1.14309 29.8752 1.87455 13.6182 4.05224 11.245C4.82773 10.4018 5.78251 10.2798 8.04198 10.7001C9.85636 11.1082 22.1737 11.0889 34.0219 10.9949C45.87 10.9009 57.2001 10.6198 57.2001 10.6198C57.8657 11.1321 59.5002 9.44798 59.8809 10.0636C60.2616 10.6793 79.3388 10.8459 98.8549 10.6665C118.371 10.487 138.429 10.1002 141.582 10.0387C145.429 10.0086 142.501 10.9656 146.982 10.5948C156.502 9.81925 177.629 10.6598 184.761 9.75679C188.77 9.05411 193.25 8.9942 197.45 9.58712C203.238 10.1663 233.688 9.34896 236.823 8.20011C237.623 7.87629 238.284 7.9933 238.346 8.35317L239.292 8.37919L249.119 8.52604C252.747 8.50843 256.382 8.60844 259.996 8.82526C260.225 9.18972 260.911 9.35682 261.484 9.10086C262.537 8.73461 285.005 7.20366 285.61 8.25777C287.351 11.2698 286.964 24.104 285.018 27.2616C282.92 30.6127 267.117 26.9915 255.428 29.066C189.808 29.5086 203.076 28.972 187.287 30.6373C185.737 29.5448 180.892 32.2522 177.328 30.3633C175.871 29.5822 166.236 29.4777 164.238 30.2626C162.24 31.0475 113.204 29.1057 108.452 31.1981C99.2864 29.328 63.2293 31.6337 54.7939 31.9698Z" fill="#C8ED01"></path><path opacity="0.7" d="M54.7939 31.9698C48.5818 29.6375 4.85514 31.5964 1.58504 30.8395C-1.14309 29.8752 1.87455 13.6182 4.05224 11.245C4.82773 10.4018 5.78251 10.2798 8.04198 10.7001C9.85636 11.1082 22.1737 11.0889 34.0219 10.9949C45.87 10.9009 57.2001 10.6198 57.2001 10.6198C57.8657 11.1321 59.5002 9.44798 59.8809 10.0636C60.2616 10.6793 79.3388 10.8459 98.8549 10.6665C118.371 10.487 138.429 10.1002 141.582 10.0387C145.429 10.0086 142.501 10.9656 146.982 10.5948C156.502 9.81925 177.629 10.6598 184.761 9.75679C188.77 9.05411 193.25 8.9942 197.45 9.58712C203.238 10.1663 233.688 9.34896 236.823 8.20011C237.623 7.87629 238.284 7.9933 238.346 8.35317L239.292 8.37919L249.119 8.52604C252.747 8.50843 256.382 8.60844 259.996 8.82526C260.225 9.18972 260.911 9.35682 261.484 9.10086C262.537 8.73461 285.005 7.20366 285.61 8.25777C287.351 11.2698 286.964 24.104 285.018 27.2616C282.92 30.6127 267.117 26.9915 255.428 29.066C189.808 29.5086 203.076 28.972 187.287 30.6373C185.737 29.5448 180.892 32.2522 177.328 30.3633C175.871 29.5822 166.236 29.4777 164.238 30.2626C162.24 31.0475 113.204 29.1057 108.452 31.1981C99.2864 29.328 63.2293 31.6337 54.7939 31.9698Z" fill="#C8ED01"></path><path opacity="0.7" d="M54.7939 31.9698C48.5818 29.6375 4.85514 31.5964 1.58504 30.8395C-1.14309 29.8752 1.87455 13.6182 4.05224 11.245C4.82773 10.4018 5.78251 10.2798 8.04198 10.7001C9.85636 11.1082 22.1737 11.0889 34.0219 10.9949C45.87 10.9009 57.2001 10.6198 57.2001 10.6198C57.8657 11.1321 59.5002 9.44798 59.8809 10.0636C60.2616 10.6793 79.3388 10.8459 98.8549 10.6665C118.371 10.487 138.429 10.1002 141.582 10.0387C145.429 10.0086 142.501 10.9656 146.982 10.5948C156.502 9.81925 177.629 10.6598 184.761 9.75679C188.77 9.05411 193.25 8.9942 197.45 9.58712C203.238 10.1663 233.688 9.34896 236.823 8.20011C237.623 7.87629 238.284 7.9933 238.346 8.35317L239.292 8.37919L249.119 8.52604C252.747 8.50843 256.382 8.60844 259.996 8.82526C260.225 9.18972 260.911 9.35682 261.484 9.10086C262.537 8.73461 285.005 7.20366 285.61 8.25777C287.351 11.2698 286.964 24.104 285.018 27.2616C282.92 30.6127 267.117 26.9915 255.428 29.066C189.808 29.5086 203.076 28.972 187.287 30.6373C185.737 29.5448 180.892 32.2522 177.328 30.3633C175.871 29.5822 166.236 29.4777 164.238 30.2626C162.24 31.0475 113.204 29.1057 108.452 31.1981C99.2864 29.328 63.2293 31.6337 54.7939 31.9698Z" fill="#C8ED01"></path><path opacity="0.7" d="M54.7939 31.9698C48.5818 29.6375 4.85514 31.5964 1.58504 30.8395C-1.14309 29.8752 1.87455 13.6182 4.05224 11.245C4.82773 10.4018 5.78251 10.2798 8.04198 10.7001C9.85636 11.1082 22.1737 11.0889 34.0219 10.9949C45.87 10.9009 57.2001 10.6198 57.2001 10.6198C57.8657 11.1321 59.5002 9.44798 59.8809 10.0636C60.2616 10.6793 79.3388 10.8459 98.8549 10.6665C118.371 10.487 138.429 10.1002 141.582 10.0387C145.429 10.0086 142.501 10.9656 146.982 10.5948C156.502 9.81925 177.629 10.6598 184.761 9.75679C188.77 9.05411 193.25 8.9942 197.45 9.58712C203.238 10.1663 233.688 9.34896 236.823 8.20011C237.623 7.87629 238.284 7.9933 238.346 8.35317L239.292 8.37919L249.119 8.52604C252.747 8.50843 256.382 8.60844 259.996 8.82526C260.225 9.18972 260.911 9.35682 261.484 9.10086C262.537 8.73461 285.005 7.20366 285.61 8.25777C287.351 11.2698 286.964 24.104 285.018 27.2616C282.92 30.6127 267.117 26.9915 255.428 29.066C189.808 29.5086 203.076 28.972 187.287 30.6373C185.737 29.5448 180.892 32.2522 177.328 30.3633C175.871 29.5822 166.236 29.4777 164.238 30.2626C162.24 31.0475 113.204 29.1057 108.452 31.1981C99.2864 29.328 63.2293 31.6337 54.7939 31.9698Z" fill="#C8ED01"></path><path opacity="0.7" d="M54.7939 31.9698C48.5818 29.6375 4.85514 31.5964 1.58504 30.8395C-1.14309 29.8752 1.87455 13.6182 4.05224 11.245C4.82773 10.4018 5.78251 10.2798 8.04198 10.7001C9.85636 11.1082 22.1737 11.0889 34.0219 10.9949C45.87 10.9009 57.2001 10.6198 57.2001 10.6198C57.8657 11.1321 59.5002 9.44798 59.8809 10.0636C60.2616 10.6793 79.3388 10.8459 98.8549 10.6665C118.371 10.487 138.429 10.1002 141.582 10.0387C145.429 10.0086 142.501 10.9656 146.982 10.5948C156.502 9.81925 177.629 10.6598 184.761 9.75679C188.77 9.05411 193.25 8.9942 197.45 9.58712C203.238 10.1663 233.688 9.34896 236.823 8.20011C237.623 7.87629 238.284 7.9933 238.346 8.35317L239.292 8.37919L249.119 8.52604C252.747 8.50843 256.382 8.60844 259.996 8.82526C260.225 9.18972 260.911 9.35682 261.484 9.10086C262.537 8.73461 285.005 7.20366 285.61 8.25777C287.351 11.2698 286.964 24.104 285.018 27.2616C282.92 30.6127 267.117 26.9915 255.428 29.066C189.808 29.5086 203.076 28.972 187.287 30.6373C185.737 29.5448 180.892 32.2522 177.328 30.3633C175.871 29.5822 166.236 29.4777 164.238 30.2626C162.24 31.0475 113.204 29.1057 108.452 31.1981C99.2864 29.328 63.2293 31.6337 54.7939 31.9698Z" fill="#C8ED01"></path><path opacity="0.7" d="M54.7939 31.9698C48.5818 29.6375 4.85514 31.5964 1.58504 30.8395C-1.14309 29.8752 1.87455 13.6182 4.05224 11.245C4.82773 10.4018 5.78251 10.2798 8.04198 10.7001C9.85636 11.1082 22.1737 11.0889 34.0219 10.9949C45.87 10.9009 57.2001 10.6198 57.2001 10.6198C57.8657 11.1321 59.5002 9.44798 59.8809 10.0636C60.2616 10.6793 79.3388 10.8459 98.8549 10.6665C118.371 10.487 138.429 10.1002 141.582 10.0387C145.429 10.0086 142.501 10.9656 146.982 10.5948C156.502 9.81925 177.629 10.6598 184.761 9.75679C188.77 9.05411 193.25 8.9942 197.45 9.58712C203.238 10.1663 233.688 9.34896 236.823 8.20011C237.623 7.87629 238.284 7.9933 238.346 8.35317L239.292 8.37919L249.119 8.52604C252.747 8.50843 256.382 8.60844 259.996 8.82526C260.225 9.18972 260.911 9.35682 261.484 9.10086C262.537 8.73461 285.005 7.20366 285.61 8.25777C287.351 11.2698 286.964 24.104 285.018 27.2616C282.92 30.6127 267.117 26.9915 255.428 29.066C189.808 29.5086 203.076 28.972 187.287 30.6373C185.737 29.5448 180.892 32.2522 177.328 30.3633C175.871 29.5822 166.236 29.4777 164.238 30.2626C162.24 31.0475 113.204 29.1057 108.452 31.1981C99.2864 29.328 63.2293 31.6337 54.7939 31.9698Z" fill="#C8ED01"></path><path opacity="0.7" d="M54.7939 31.9698C48.5818 29.6375 4.85514 31.5964 1.58504 30.8395C-1.14309 29.8752 1.87455 13.6182 4.05224 11.245C4.82773 10.4018 5.78251 10.2798 8.04198 10.7001C9.85636 11.1082 22.1737 11.0889 34.0219 10.9949C45.87 10.9009 57.2001 10.6198 57.2001 10.6198C57.8657 11.1321 59.5002 9.44798 59.8809 10.0636C60.2616 10.6793 79.3388 10.8459 98.8549 10.6665C118.371 10.487 138.429 10.1002 141.582 10.0387C145.429 10.0086 142.501 10.9656 146.982 10.5948C156.502 9.81925 177.629 10.6598 184.761 9.75679C188.77 9.05411 193.25 8.9942 197.45 9.58712C203.238 10.1663 233.688 9.34896 236.823 8.20011C237.623 7.87629 238.284 7.9933 238.346 8.35317L239.292 8.37919L249.119 8.52604C252.747 8.50843 256.382 8.60844 259.996 8.82526C260.225 9.18972 260.911 9.35682 261.484 9.10086C262.537 8.73461 285.005 7.20366 285.61 8.25777C287.351 11.2698 286.964 24.104 285.018 27.2616C282.92 30.6127 267.117 26.9915 255.428 29.066C189.808 29.5086 203.076 28.972 187.287 30.6373C185.737 29.5448 180.892 32.2522 177.328 30.3633C175.871 29.5822 166.236 29.4777 164.238 30.2626C162.24 31.0475 113.204 29.1057 108.452 31.1981C99.2864 29.328 63.2293 31.6337 54.7939 31.9698Z" fill="#C8ED01"></path></svg> 