<?xml version="1.0" encoding="UTF-8"?> <svg xmlns="http://www.w3.org/2000/svg" viewBox="0 0 382.98 271.53"><defs><style>.cls-1{fill:#fff;}</style></defs><g id="Layer_2" data-name="Layer 2"><g id="Layer_1-2" data-name="Layer 1"><path class="cls-1" d="M383,163.45c-1.74-.08-3.47-.24-5.21-.24H0V108.37H377.78c1.74,0,3.47-.2,5.2-.3Z"></path><path class="cls-1" d="M383,54.91c-1.74,0-3.49-.13-5.23-.13H0V.19C1.34.12,2.66,0,4,0H379.27c1.24,0,2.47.17,3.71.26Z"></path><path class="cls-1" d="M383,271.24c-1.48.09-3,.27-4.45.27q-186.9,0-373.79,0H0V216.75H377.75c1.75,0,3.49-.09,5.23-.14Z"></path></g></g></svg> 