<?xml version="1.0" encoding="UTF-8"?> <svg xmlns="http://www.w3.org/2000/svg" width="497" height="102" viewBox="0 0 497 102" fill="none"><rect x="2.63592" y="2.63592" width="491.728" height="96.1392" rx="26.0049" stroke="black" stroke-width="4.72816"></rect><path d="M231.835 58.6809V59.2168H227.517L221.37 52.9126H217.273V59.2168H213.49V43.5193H217.273V49.6344H221.276L227.076 43.5193H231.457V44.0552L224.743 51.2105L231.835 58.6809ZM253.728 43.5193V44.0552L245.154 60.7298C244.439 62.1167 243.588 63.1044 242.601 63.6928C241.613 64.2812 240.31 64.5754 238.692 64.5754H235.13V61.2341H238.66C239.459 61.2341 240.047 61.1186 240.426 60.8874C240.804 60.6563 241.161 60.1939 241.497 59.5005L233.523 44.0552V43.5193H237.557L243.641 55.6864L249.693 43.5193H253.728ZM274.445 43.5193V59.2168H270.663V46.8606H260.891V59.2168H257.109V43.5193H274.445ZM283.082 43.5193V54.5832L293.453 43.5193H296.92V59.2168H293.264V48.1529L282.893 59.2168H279.426V43.5193H283.082ZM298.893 46.9236V43.5193H317.175V46.9236H309.988V59.2168H306.174V46.9236H298.893ZM331.783 47.8062C333.843 47.8062 335.45 48.3 336.606 49.2877C337.783 50.2543 338.371 51.6097 338.371 53.3539V53.7321C338.371 55.4133 337.783 56.7476 336.606 57.7353C335.429 58.702 333.822 59.1853 331.783 59.1853H320.089V43.5193H323.872V47.8062H331.783ZM334.463 53.3539C334.463 51.8829 333.475 51.1474 331.5 51.1474H323.872V55.844H331.5C333.475 55.844 334.463 55.1401 334.463 53.7321V53.3539ZM364.644 44.4334C366.367 44.4334 367.88 44.7381 369.183 45.3475C370.486 45.9359 371.484 46.7765 372.177 47.8692C372.892 48.962 373.249 50.2333 373.249 51.6833V52.4713C373.249 53.8792 372.86 55.1296 372.083 56.2223C371.305 57.294 370.213 58.1241 368.805 58.7125C367.397 59.3009 365.758 59.595 363.887 59.595C360.798 59.595 358.413 58.786 356.732 57.1679C355.072 55.5498 354.242 53.2488 354.242 50.2648V48.0268C354.242 42.1639 357.32 39.0013 363.478 38.539L367.229 38.2553C367.88 38.1923 368.206 37.9611 368.206 37.5618V37.2782H372.272V37.6879C372.272 40.1045 370.917 41.4284 368.206 41.6596L363.541 42.0378C361.607 42.2059 360.178 42.6577 359.254 43.3932C358.329 44.1287 357.867 45.1794 357.867 46.5453V46.5769C358.728 45.8834 359.737 45.358 360.893 45.0008C362.049 44.6226 363.299 44.4334 364.644 44.4334ZM369.341 51.7463C369.341 50.5065 368.857 49.5503 367.891 48.8779C366.924 48.2054 365.568 47.8692 363.824 47.8692C361.366 47.8692 359.443 48.5942 358.056 50.0442V51.242C358.056 52.8601 358.539 54.0894 359.506 54.9299C360.473 55.7495 361.902 56.1593 363.793 56.1593C365.537 56.1593 366.892 55.8335 367.859 55.1821C368.847 54.5097 369.341 53.5955 369.341 52.4398V51.7463ZM380.754 43.5193V54.5832L391.125 43.5193H394.592V59.2168H390.936V48.1529L380.565 59.2168H377.098V43.5193H380.754ZM417.032 59.2168H413.249V46.8606H404.801L404.675 51.7463C404.612 54.247 404.097 56.1172 403.131 57.3571C402.185 58.5969 400.777 59.2168 398.907 59.2168H397.268V55.844H398.056C399.065 55.844 399.8 55.5078 400.262 54.8354C400.746 54.1629 400.998 53.0597 401.019 51.5257L401.208 43.5193H417.032V59.2168ZM439.314 52.6289H424.846C424.993 53.7426 425.529 54.6042 426.454 55.2136C427.399 55.823 428.65 56.1277 430.205 56.1277C431.655 56.1277 432.831 55.9176 433.735 55.4973C434.639 55.077 435.143 54.5097 435.248 53.7952H439.314C439.104 55.6444 438.201 57.0734 436.603 58.082C435.027 59.0907 432.894 59.595 430.205 59.595C428.292 59.595 426.632 59.2798 425.224 58.6494C423.837 57.998 422.766 57.0839 422.009 55.9071C421.253 54.7093 420.874 53.3119 420.874 51.7148V51.0844C420.874 49.4663 421.253 48.0583 422.009 46.8606C422.766 45.6628 423.848 44.7486 425.256 44.1182C426.664 43.4668 428.313 43.1411 430.205 43.1411C433.063 43.1411 435.29 43.8345 436.887 45.2215C438.505 46.6084 439.314 48.5207 439.314 50.9583V52.6289ZM430.173 46.6084C428.786 46.6084 427.641 46.8606 426.737 47.3649C425.834 47.8692 425.245 48.5732 424.972 49.4768H435.217C434.964 48.5732 434.397 47.8692 433.514 47.3649C432.632 46.8606 431.518 46.6084 430.173 46.6084ZM440.491 46.9236V43.5193H458.774V46.9236H451.587V59.2168H447.773V46.9236H440.491Z" fill="black"></path><path d="M33 49.6095H31.6095V52.3905H33V49.6095ZM194.983 51.9832C195.526 51.4402 195.526 50.5598 194.983 50.0168L186.134 41.1676C185.591 40.6246 184.711 40.6246 184.168 41.1676C183.625 41.7106 183.625 42.5911 184.168 43.1341L192.034 51L184.168 58.8659C183.625 59.4089 183.625 60.2894 184.168 60.8324C184.711 61.3754 185.591 61.3754 186.134 60.8324L194.983 51.9832ZM33 52.3905L194 52.3905V49.6095L33 49.6095V52.3905Z" fill="black"></path></svg> 