<?xml version="1.0" encoding="UTF-8"?> <svg xmlns="http://www.w3.org/2000/svg" width="866" height="290" viewBox="0 0 866 290" fill="none"><mask id="mask0_1080_2" style="mask-type:alpha" maskUnits="userSpaceOnUse" x="0" y="0" width="866" height="290"><rect width="866" height="290" fill="black"></rect></mask><g mask="url(#mask0_1080_2)"><rect width="866" height="290" fill="#F8F1EB"></rect><circle cx="433" cy="145" r="211" fill="#EE4236"></circle><path d="M375.464 225.028C375.543 224.109 375.639 223.198 375.726 222.288C377.968 222.253 380.209 222.218 382.451 222.191C382.433 222.857 382.407 224.197 382.39 224.862C387.398 224.879 392.415 224.827 397.432 224.923C393.676 231.508 389.491 237.838 385.743 244.432C384.281 244.046 382.836 243.591 381.4 243.118C382.74 241.157 384.176 239.178 384.736 236.823C382.95 236.288 381.103 235.973 379.255 235.746C379.474 234.283 379.544 232.795 378.94 231.411C377.285 233.916 374.886 235.702 372.39 237.278C371.594 236.437 370.797 235.597 370 234.756C372.837 232.059 375.753 229.363 377.661 225.878C376.917 225.597 376.19 225.317 375.464 225.028ZM379.071 230.273C379.474 230.816 379.885 231.359 380.315 231.893C382.836 231.902 385.253 232.646 387.705 233.163C388.475 231.744 389.254 230.317 390.034 228.898C386.391 229.301 382.188 227.83 379.071 230.273Z" fill="#F8F1EB"></path><path d="M426.232 222.267C428.447 222.215 430.663 222.18 432.887 222.145C432.878 222.757 432.852 223.966 432.834 224.57C437.939 224.649 443.044 224.535 448.148 224.684C443.893 230.936 439.865 237.327 435.68 243.614C434.489 245.199 432.466 243.36 431.039 243.141C433.832 237.993 437.773 233.545 440.417 228.291C437.501 228.282 434.594 228.291 431.687 228.256C429.603 231.925 426.451 234.753 423.273 237.441C422.493 236.408 419.875 235.086 421.548 233.772C424.315 231.575 426.512 228.825 428.255 225.761C426.136 225.857 426.364 223.764 426.232 222.267Z" fill="#F8F1EB"></path><path d="M475.853 222.168C477.324 222.177 478.803 222.194 480.292 222.203C479.749 225.101 479.224 227.999 478.506 230.863C480.301 230.941 481.964 230.451 483.4 229.365C484.617 230.766 485.869 232.132 487.13 233.498C488.68 234.251 490.992 235.381 491.228 232.649C493.338 232.229 494.336 233.883 493.163 235.6C492.139 236.957 491.307 239.811 489.127 239.041C485.651 238.007 482.069 236.204 480.143 232.99C479.39 232.955 478.637 232.92 477.893 232.885C477.866 236.747 476.851 240.512 476.098 244.277C475.073 244.285 473.024 244.312 472 244.329C472.105 240.24 472.902 236.213 473.848 232.246C474.399 228.866 475.091 225.504 475.853 222.168Z" fill="#F8F1EB"></path><path d="M531.374 222.347C533.51 221.673 535.84 222.137 538.055 222.128C540.182 224.939 543.23 226.76 546.268 228.432C545.848 230.026 545.716 232.049 543.589 232.092C543.133 231.69 542.24 230.884 541.785 230.49C541.435 230.831 540.725 231.514 540.366 231.865C535.559 231.716 530.752 231.935 525.954 231.725C524.466 230.464 522.811 231.339 521.261 231.9C520.674 230.919 520.254 229.86 520 228.73C524.098 227.189 527.758 224.781 531.374 222.347ZM533.615 224.912C532.004 226.156 530.315 227.294 528.642 228.441C531.899 228.485 535.157 228.511 538.414 228.485C537.17 227.303 535.918 226.121 534.71 224.904C534.439 224.912 533.887 224.912 533.615 224.912Z" fill="#F8F1EB"></path><path d="M323.413 224.027C330.715 224.115 338.018 223.922 345.32 224.132C342.492 227.083 339.27 229.596 336.372 232.451C335.61 232.941 335.794 233.992 336.258 234.605C337.711 237.188 340.408 238.58 342.904 239.946C342.877 240.287 342.816 240.979 342.781 241.32C342.028 242.056 341.415 242.993 340.478 243.501C336.678 242.835 333.701 239.884 331.819 236.653C329.096 238.851 326.661 241.399 323.886 243.509C323.063 243.352 322.257 243.159 321.46 242.931C320.646 242.003 319.823 241.093 319 240.182C319.517 239.648 320.033 239.105 320.55 238.571C321.242 238.659 322.616 238.834 323.308 238.93C327.213 235.261 331.206 231.689 335.19 228.108C330.899 228.029 326.6 228.055 322.319 228.029C322.642 226.689 323.01 225.349 323.413 224.027Z" fill="#F8F1EB"></path><path d="M520 245.037C520.438 241.211 521.147 237.411 522.066 233.672C529.124 233.751 536.181 233.628 543.238 233.742C542.976 234.67 542.722 235.607 542.459 236.526C542.074 239.311 541.391 242.034 541.014 244.818C539.797 244.836 538.58 244.853 537.372 244.853C535.104 243.216 532.145 244.074 529.553 243.846C526.278 243.549 523.231 244.906 520 245.037ZM525.849 236.938C525.77 237.831 525.613 239.626 525.534 240.528C529.36 240.554 533.186 240.502 537.022 240.58C537.319 239.363 537.617 238.146 537.923 236.92C533.896 236.877 529.868 236.877 525.849 236.938Z" fill="#F8F1EB"></path><mask id="mask1_1080_2" style="mask-type:alpha" maskUnits="userSpaceOnUse" x="41" y="80" width="785" height="113"><rect x="47" y="80" width="779" height="79" fill="#D9D9D9"></rect><rect x="44.5" y="155.598" width="778.75" height="4.24708" fill="#D9D9D9"></rect><rect x="44.5" y="164.941" width="778.75" height="4.24708" fill="#D9D9D9"></rect><rect x="44.5" y="172.586" width="778.75" height="3.39767" fill="#D9D9D9"></rect><rect x="44.5" y="178.531" width="778.75" height="1.69883" fill="#D9D9D9"></rect><rect x="44.5" y="181.93" width="778.75" height="1.69883" fill="#D9D9D9"></rect><rect x="44.5" y="184.477" width="778.75" height="3.39767" fill="#D9D9D9"></rect><rect x="41" y="188.895" width="778.75" height="3.39767" fill="#D9D9D9"></rect></mask><g mask="url(#mask1_1080_2)"><path d="M43.1533 186.195L44.3113 180.892H46.7783C48.3408 180.892 49.7826 180.691 51.1039 180.29C52.5073 179.888 53.6696 179.084 54.5907 177.879C55.594 176.674 56.3676 174.826 56.9115 172.336L69.7554 113.527C70.2818 111.117 70.2978 109.349 69.8033 108.225C69.3089 107.1 68.48 106.377 67.3167 106.055C66.1709 105.654 64.8168 105.453 63.2543 105.453H60.7873L61.9454 100.151H95.25C105.283 100.151 112.192 102.4 115.979 106.899C119.784 111.318 120.817 117.504 119.08 125.458C118.291 129.073 116.961 132.527 115.09 135.821C113.319 139.035 110.869 141.967 107.741 144.619C104.713 147.19 100.985 149.198 96.5572 150.644C92.2119 152.09 87.0789 152.813 81.158 152.813H75.1139L70.7185 172.938C70.2097 175.268 70.2025 176.996 70.6969 178.12C71.2736 179.245 72.1349 180.008 73.2806 180.41C74.5262 180.731 75.8891 180.892 77.3693 180.892H81.8099L80.6518 186.195H43.1533ZM81.4609 146.908C84.668 146.908 87.5018 146.547 89.9623 145.824C92.5225 145.02 94.6858 143.775 96.4523 142.088C98.301 140.401 99.8437 138.232 101.081 135.58C102.4 132.929 103.472 129.716 104.296 125.94C105.279 121.441 105.552 117.745 105.114 114.853C104.677 111.96 103.383 109.791 101.231 108.345C99.1624 106.899 96.0721 106.176 91.9604 106.176H85.1762L76.2802 146.908H81.4609ZM99.9571 186.195L101.115 180.892H102.965C104.446 180.892 105.691 180.651 106.701 180.169C107.793 179.687 108.899 178.763 110.02 177.397C111.14 176.032 112.384 174.103 113.75 171.613L154.521 100.151H165.746L174.846 174.264C175.136 175.951 175.545 177.277 176.075 178.241C176.604 179.205 177.318 179.888 178.218 180.29C179.199 180.691 180.388 180.892 181.786 180.892H183.267L182.109 186.195H148.557L149.715 180.892H152.799C154.773 180.892 156.382 180.49 157.626 179.687C158.971 178.803 159.836 177.478 160.222 175.71C160.344 175.148 160.426 174.585 160.467 174.023C160.525 173.38 160.542 172.738 160.518 172.095C160.494 171.452 160.429 170.809 160.322 170.167L158.892 157.513H129.658L123.281 169.203C122.894 169.845 122.539 170.528 122.217 171.251C121.894 171.974 121.572 172.697 121.25 173.421C120.927 174.144 120.705 174.786 120.582 175.349C120.196 177.116 120.473 178.482 121.414 179.446C122.355 180.41 123.976 180.892 126.279 180.892H129.609L128.451 186.195H99.9571ZM133.396 151.126H158.19L155.993 129.555C155.827 127.305 155.602 125.136 155.318 123.047C155.116 120.959 154.938 118.95 154.783 117.022C154.729 115.013 154.689 113.125 154.664 111.358C154.036 112.724 153.409 114.089 152.782 115.455C152.172 116.741 151.463 118.106 150.654 119.553C149.927 120.999 149.15 122.485 148.323 124.011C147.596 125.458 146.769 126.984 145.842 128.591L133.396 151.126ZM218.411 187.4C210.434 187.4 204.136 185.552 199.516 181.856C194.978 178.161 192.071 173.019 190.796 166.431C189.539 159.763 189.884 151.97 191.832 143.052C193.744 134.295 196.818 126.623 201.053 120.035C205.387 113.366 210.713 108.185 217.03 104.489C223.429 100.793 230.74 98.9454 238.963 98.9454C244.391 98.9454 248.741 99.548 252.014 100.753C255.369 101.958 257.723 103.605 259.076 105.694C260.428 107.783 260.824 110.113 260.263 112.684C259.701 115.254 258.176 117.343 255.687 118.95C253.28 120.557 250.391 121.36 247.019 121.36C247.581 118.789 247.673 116.299 247.294 113.889C246.998 111.478 246.03 109.51 244.39 107.984C242.767 106.377 240.27 105.573 236.899 105.573C231.636 105.573 227.035 107.06 223.096 110.032C219.24 113.005 215.958 117.303 213.249 122.927C210.641 128.47 208.477 135.179 206.757 143.052C205.108 150.604 204.468 157.112 204.837 162.575C205.306 167.957 206.943 172.135 209.747 175.108C212.57 178 216.735 179.446 222.245 179.446C226.028 179.446 229.349 178.924 232.209 177.879C235.068 176.835 237.578 175.509 239.738 173.903C241.916 172.215 243.905 170.448 245.707 168.6C246.195 169.002 246.507 169.645 246.643 170.528C246.878 171.332 246.882 172.256 246.654 173.3C246.321 174.826 245.485 176.393 244.147 178C242.892 179.607 241.078 181.133 238.707 182.579C236.417 184.025 233.572 185.19 230.172 186.074C226.854 186.958 222.934 187.4 218.411 187.4ZM248.517 186.195L249.675 180.892H251.896C253.623 180.892 255.147 180.691 256.468 180.29C257.871 179.888 259.034 179.084 259.955 177.879C260.958 176.674 261.732 174.826 262.276 172.336L275.12 113.527C275.646 111.117 275.662 109.349 275.167 108.225C274.673 107.1 273.803 106.377 272.557 106.055C271.412 105.654 270.016 105.453 268.372 105.453H266.151L267.309 100.151H350.324L349.166 105.453H346.823C345.26 105.453 343.777 105.654 342.374 106.055C340.97 106.457 339.767 107.261 338.764 108.466C337.778 109.59 337.004 111.438 336.443 114.009L323.573 172.938C323.064 175.268 323.057 176.996 323.551 178.12C324.128 179.245 324.989 180.008 326.135 180.41C327.38 180.731 328.784 180.892 330.347 180.892H332.69L331.532 186.195H296.501L297.659 180.892H299.632C301.277 180.892 302.76 180.691 304.081 180.29C305.402 179.888 306.565 179.084 307.568 177.879C308.571 176.674 309.345 174.826 309.889 172.336L324.286 106.417H290.611L276.214 172.336C275.67 174.826 275.596 176.674 275.99 177.879C276.467 179.084 277.279 179.888 278.424 180.29C279.652 180.691 281.048 180.892 282.61 180.892H284.707L283.549 186.195H248.517ZM333.716 186.195L334.874 180.892H337.341C338.986 180.892 340.469 180.691 341.79 180.29C343.111 179.888 344.232 179.084 345.153 177.879C346.174 176.594 346.948 174.746 347.474 172.336L360.318 113.527C360.827 111.197 360.834 109.47 360.34 108.345C359.845 107.22 359.025 106.457 357.879 106.055C356.734 105.654 355.379 105.453 353.817 105.453H351.35L352.508 100.151H387.416L386.258 105.453H384.161C382.599 105.453 381.157 105.654 379.836 106.055C378.514 106.457 377.352 107.261 376.349 108.466C375.428 109.671 374.695 111.519 374.151 114.009L363.913 160.887L408.956 116.178L409.456 113.889C410 111.398 410.025 109.59 409.53 108.466C409.136 107.261 408.365 106.457 407.22 106.055C406.074 105.654 404.679 105.453 403.034 105.453H400.937L402.095 100.151H437.003L435.845 105.453H433.378C431.816 105.453 430.374 105.654 429.053 106.055C427.731 106.457 426.569 107.261 425.566 108.466C424.562 109.671 423.789 111.519 423.245 114.009L410.375 172.938C409.883 175.188 409.876 176.915 410.353 178.12C410.848 179.245 411.668 180.008 412.813 180.41C414.059 180.731 415.422 180.892 416.902 180.892H419.369L418.211 186.195H383.303L384.461 180.892H386.558C388.203 180.892 389.686 180.691 391.007 180.29C392.328 179.888 393.449 179.084 394.37 177.879C395.391 176.594 396.165 174.746 396.691 172.336L406.929 125.458L361.913 170.046L361.386 172.456C360.86 174.867 360.794 176.674 361.189 177.879C361.666 179.084 362.477 179.888 363.623 180.29C364.769 180.691 366.123 180.892 367.685 180.892H369.782L368.624 186.195H333.716ZM460.877 187.4C452.9 187.4 446.602 185.552 441.981 181.856C437.443 178.161 434.537 173.019 433.262 166.431C432.004 159.763 432.35 151.97 434.297 143.052C436.21 134.295 439.283 126.623 443.518 120.035C447.853 113.366 453.178 108.185 459.495 104.489C465.894 100.793 473.205 98.9454 481.429 98.9454C486.856 98.9454 491.206 99.548 494.479 100.753C497.834 101.958 500.188 103.605 501.541 105.694C502.894 107.783 503.29 110.113 502.728 112.684C502.167 115.254 500.642 117.343 498.153 118.95C495.746 120.557 492.857 121.36 489.485 121.36C490.047 118.789 490.138 116.299 489.76 113.889C489.464 111.478 488.496 109.51 486.856 107.984C485.233 106.377 482.736 105.573 479.364 105.573C474.101 105.573 469.501 107.06 465.562 110.032C461.706 113.005 458.423 117.303 455.715 122.927C453.106 128.47 450.942 135.179 449.223 143.052C447.573 150.604 446.933 157.112 447.303 162.575C447.772 167.957 449.408 172.135 452.213 175.108C455.035 178 459.201 179.446 464.711 179.446C468.493 179.446 471.815 178.924 474.674 177.879C477.534 176.835 480.044 175.509 482.204 173.903C484.381 172.215 486.371 170.448 488.172 168.6C488.66 169.002 488.972 169.645 489.108 170.528C489.344 171.332 489.348 172.256 489.12 173.3C488.786 174.826 487.951 176.393 486.613 178C485.357 179.607 483.544 181.133 481.172 182.579C478.883 184.025 476.038 185.19 472.638 186.074C469.32 186.958 465.4 187.4 460.877 187.4ZM487.282 186.195L488.441 180.892H490.291C491.771 180.892 493.016 180.651 494.026 180.169C495.118 179.687 496.224 178.763 497.345 177.397C498.466 176.032 499.709 174.103 501.075 171.613L541.846 100.151H553.071L562.171 174.264C562.461 175.951 562.87 177.277 563.4 178.241C563.929 179.205 564.644 179.888 565.543 180.29C566.524 180.691 567.714 180.892 569.112 180.892H570.592L569.434 186.195H535.883L537.041 180.892H540.124C542.098 180.892 543.707 180.49 544.952 179.687C546.296 178.803 547.161 177.478 547.547 175.71C547.67 175.148 547.752 174.585 547.792 174.023C547.85 173.38 547.867 172.738 547.843 172.095C547.819 171.452 547.754 170.809 547.648 170.167L546.217 157.513H516.983L510.606 169.203C510.219 169.845 509.864 170.528 509.542 171.251C509.22 171.974 508.897 172.697 508.575 173.421C508.253 174.144 508.03 174.786 507.907 175.349C507.521 177.116 507.798 178.482 508.739 179.446C509.68 180.41 511.301 180.892 513.604 180.892H516.934L515.776 186.195H487.282ZM520.722 151.126H545.515L543.319 129.555C543.152 127.305 542.927 125.136 542.643 123.047C542.441 120.959 542.263 118.95 542.109 117.022C542.054 115.013 542.014 113.125 541.989 111.358C541.362 112.724 540.734 114.089 540.107 115.455C539.498 116.741 538.788 118.106 537.979 119.553C537.252 120.999 536.475 122.485 535.648 124.011C534.921 125.458 534.094 126.984 533.168 128.591L520.722 151.126ZM569.677 186.195L570.835 180.892H573.549C575.111 180.892 576.512 180.691 577.751 180.29C579.089 179.808 580.219 178.964 581.14 177.759C582.144 176.554 582.9 174.786 583.409 172.456L596.279 113.527C596.788 111.197 596.795 109.47 596.3 108.345C595.806 107.22 594.986 106.457 593.84 106.055C592.694 105.654 591.34 105.453 589.778 105.453H587.311L588.469 100.151H623.5L622.342 105.453H619.999C618.518 105.453 617.077 105.654 615.673 106.055C614.352 106.457 613.231 107.261 612.31 108.466C611.406 109.59 610.691 111.358 610.165 113.768L604.848 138.111H639.263L644.553 113.889C645.097 111.398 645.163 109.59 644.751 108.466C644.356 107.261 643.586 106.457 642.44 106.055C641.294 105.654 639.899 105.453 638.255 105.453H636.034L637.192 100.151H672.224L671.066 105.453H668.352C666.872 105.453 665.43 105.654 664.027 106.055C662.705 106.457 661.543 107.261 660.54 108.466C659.636 109.59 658.913 111.398 658.369 113.889L645.472 172.938C644.981 175.188 644.982 176.875 645.477 178C645.971 179.125 646.791 179.888 647.937 180.29C649.083 180.691 650.396 180.892 651.876 180.892H654.59L653.432 186.195H618.4L619.558 180.892H621.779C623.423 180.892 624.865 180.691 626.104 180.29C627.443 179.808 628.573 178.964 629.494 177.759C630.497 176.554 631.253 174.786 631.762 172.456L637.895 144.378H603.48L597.347 172.456C596.838 174.786 596.781 176.554 597.176 177.759C597.571 178.964 598.332 179.808 599.46 180.29C600.688 180.691 602.043 180.892 603.523 180.892H605.866L604.708 186.195H569.677ZM657.646 186.195L658.804 180.892H661.271C662.916 180.892 664.399 180.691 665.72 180.29C667.041 179.888 668.162 179.084 669.083 177.879C670.104 176.594 670.878 174.746 671.404 172.336L684.248 113.527C684.757 111.197 684.764 109.47 684.27 108.345C683.775 107.22 682.955 106.457 681.809 106.055C680.663 105.654 679.309 105.453 677.747 105.453H675.28L676.438 100.151H711.346L710.188 105.453H708.091C706.529 105.453 705.087 105.654 703.766 106.055C702.444 106.457 701.282 107.261 700.279 108.466C699.358 109.671 698.625 111.519 698.081 114.009L687.843 160.887L732.886 116.178L733.386 113.889C733.93 111.398 733.955 109.59 733.46 108.466C733.065 107.261 732.295 106.457 731.149 106.055C730.004 105.654 728.608 105.453 726.964 105.453H724.867L726.025 100.151H760.933L759.775 105.453H757.308C755.746 105.453 754.304 105.654 752.983 106.055C751.661 106.457 750.499 107.261 749.496 108.466C748.492 109.671 747.719 111.519 747.175 114.009L734.305 172.938C733.813 175.188 733.806 176.915 734.283 178.12C734.778 179.245 735.598 180.008 736.743 180.41C737.989 180.731 739.352 180.892 740.832 180.892H743.299L742.141 186.195H707.233L708.391 180.892H710.488C712.132 180.892 713.615 180.691 714.937 180.29C716.258 179.888 717.379 179.084 718.3 177.879C719.321 176.594 720.095 174.746 720.621 172.336L730.859 125.458L685.843 170.046L685.316 172.456C684.79 174.867 684.724 176.674 685.119 177.879C685.596 179.084 686.407 179.888 687.553 180.29C688.699 180.691 690.053 180.892 691.615 180.892H693.712L692.554 186.195H657.646ZM746.338 186.195L747.496 180.892H750.086C751.649 180.892 753.09 180.691 754.412 180.29C755.733 179.888 756.845 179.125 757.749 178C758.735 176.875 759.464 175.228 759.938 173.059L772.861 113.889C773.405 111.398 773.43 109.59 772.935 108.466C772.541 107.261 771.77 106.457 770.625 106.055C769.479 105.654 768.125 105.453 766.562 105.453H763.972L765.13 100.151H824.708L820.666 121.481H813.882L814.547 116.178C814.768 114.411 814.667 112.804 814.243 111.358C813.918 109.831 813.195 108.626 812.072 107.743C811.031 106.859 809.401 106.417 807.181 106.417H788.308L781.386 138.111H808.77L807.428 144.257H780.044L772.253 179.928H794.21C796.43 179.928 798.294 179.486 799.803 178.602C801.412 177.638 802.744 176.433 803.8 174.987C804.938 173.541 805.823 171.934 806.456 170.167L808.354 164.864H815.015L809.617 186.195H746.338Z" fill="black"></path></g><rect x="11" y="13" width="4" height="265" fill="black"></rect><rect x="851" y="13" width="4" height="265" fill="black"></rect><rect x="855" y="11" width="4.00004" height="844" transform="rotate(90 855 11)" fill="black"></rect><rect x="150" y="275" width="4.00001" height="139" transform="rotate(90 150 275)" fill="black"></rect><rect x="855" y="275" width="4.00003" height="732" transform="rotate(90 855 275)" fill="black"></rect></g></svg> 