<?xml version="1.0" encoding="UTF-8"?> <svg xmlns="http://www.w3.org/2000/svg" width="169" height="61" viewBox="0 0 169 61" fill="none"><path d="M14.2332 8.75977L26.5595 30.1096H1.90689L14.2332 8.75977Z" fill="#DD1D25"></path><path d="M28.6229 32.5342L40.9492 53.884H16.2965L28.6229 32.5342Z" fill="#F0F0F0"></path><path d="M14.2332 53.8047L26.5595 32.4549H1.90689L14.2332 53.8047Z" fill="#F0F0F0"></path><path d="M28.6229 28.4668L40.9492 7.11699H16.2965L28.6229 28.4668Z" fill="#F0F0F0"></path><path d="M57.9989 25.1605V25.5635H55.2589L53.1636 21.1042H43.2242L41.1289 25.5635H38.3888V25.1605L46.7164 7.94126H49.6713L57.9989 25.1605ZM52.0084 18.6865L48.1939 10.6007L44.3793 18.6865H52.0084ZM69.242 7.94126C72.4297 7.94126 74.8474 8.67552 76.495 10.144C78.1605 11.6126 78.9933 13.7526 78.9933 16.5643V16.9673C78.9933 19.7789 78.1605 21.919 76.495 23.3876C74.8474 24.8382 72.4297 25.5635 69.242 25.5635H60.995V7.94126H69.242ZM69.242 23.1727C73.9341 23.1727 76.2801 21.1131 76.2801 16.9941V16.5375C76.2801 14.4959 75.6802 12.9557 74.4803 11.917C73.2983 10.8604 71.5433 10.3321 69.2151 10.3321H63.6813V23.1727H69.242ZM105.888 25.5635H103.228V11.3797L95.9217 25.5635H93.1548L85.848 11.3529V25.5635H83.1886V7.94126H86.9494L94.5517 22.5548L102.154 7.94126H105.888V25.5635Z" fill="#F0F0F0"></path><path d="M48.8912 33.8871C48.8912 34.8039 48.5372 35.5409 47.8293 36.098C47.1329 36.6435 46.1812 36.9162 44.9742 36.9162H44.3997L48.839 41.8256V41.9648H47.8815L43.3203 36.9162H38.9855V41.9648H38.1325V30.5445H44.9742C46.1812 30.5445 47.1329 30.8231 47.8293 31.3802C48.5372 31.9373 48.8912 32.6917 48.8912 33.6433V33.8871ZM44.9568 36.1502C45.9201 36.1502 46.6745 35.9471 47.22 35.5409C47.7654 35.1347 48.0382 34.5718 48.0382 33.8523V33.6259C48.0382 32.8948 47.7654 32.3261 47.22 31.9199C46.6745 31.5136 45.9201 31.3105 44.9568 31.3105H38.9855V36.1502H44.9568ZM63.213 41.8256V41.9648H62.3425L60.6016 38.5005H53.4291L51.6882 41.9648H50.8178V41.8256L56.5453 30.5445H57.4854L63.213 41.8256ZM60.2186 37.7345L57.0154 31.3802L53.8121 37.7345H60.2186ZM70.7766 42.1563C69.4768 42.1563 68.3452 41.9242 67.3819 41.46C66.4302 40.9957 65.6932 40.34 65.1709 39.4928C64.6603 38.6339 64.4049 37.6242 64.4049 36.4636V36.0632C64.4049 34.9026 64.6603 33.8929 65.1709 33.034C65.6932 32.1752 66.4302 31.5136 67.3819 31.0494C68.3452 30.5852 69.4768 30.353 70.7766 30.353C71.914 30.353 72.9411 30.5504 73.858 30.945C74.7749 31.328 75.4945 31.8618 76.0167 32.5466C76.5506 33.2313 76.8175 33.9915 76.8175 34.8272V35.0187H75.9645V34.8272C75.9645 34.1424 75.7382 33.5215 75.2855 32.9644C74.8329 32.3957 74.212 31.9547 73.4228 31.6413C72.6336 31.3163 71.7515 31.1539 70.7766 31.1539C69.0473 31.1539 67.6952 31.5891 66.7203 32.4595C65.7454 33.33 65.258 34.5312 65.258 36.0632V36.4636C65.258 38.0072 65.7454 39.2084 66.7203 40.0673C67.6952 40.9261 69.0473 41.3555 70.7766 41.3555C71.7631 41.3555 72.651 41.1988 73.4402 40.8855C74.2294 40.5721 74.8445 40.1369 75.2855 39.5798C75.7382 39.0227 75.9645 38.396 75.9645 37.6996V37.4907H76.8175V37.6996C76.8175 38.5353 76.5506 39.2955 76.0167 39.9802C75.4945 40.6534 74.7749 41.1872 73.858 41.5818C72.9411 41.9648 71.914 42.1563 70.7766 42.1563ZM89.3698 30.5445V31.3105H80.9439V35.8717H89.0216V36.6377H80.9439V41.1988H89.3698V41.9648H80.0908V30.5445H89.3698ZM110.777 30.5445V30.6838L106.268 41.9648H105.241L101.063 31.5717L96.8671 41.9648H95.8574L91.3311 30.6838V30.5445H92.2015L96.3797 41.0422L100.593 30.5445H101.533L105.746 41.0422L109.906 30.5445H110.777ZM122.801 41.8256V41.9648H121.931L120.19 38.5005H113.017L111.277 41.9648H110.406V41.8256L116.134 30.5445H117.074L122.801 41.8256ZM119.807 37.7345L116.604 31.3802L113.4 37.7345H119.807ZM134.111 30.6838L128.488 37.0033V41.9648H127.653V37.0033L122.029 30.6838V30.5445H122.952L128.07 36.2373L133.189 30.5445H134.111V30.6838Z" fill="#F0F0F0"></path><path d="M116.212 7.03906H124.658L121.373 13.7646H113.24L116.212 7.03906Z" fill="#DD1D25"></path><path d="M121.218 13.7646H129.664L126.379 20.4902H118.246L121.218 13.7646Z" fill="#DD1D25"></path><path d="M132.791 7.19531H141.237L137.953 13.9209H129.819L132.791 7.19531Z" fill="#DD1D25"></path><path d="M138.421 13.7646H146.867L143.582 20.4902H135.449L138.421 13.7646Z" fill="#DD1D25"></path><path d="M159.693 6.88184H168.14L164.855 13.6074H156.722L159.693 6.88184Z" fill="#DD1D25"></path><path d="M126.847 20.6465H135.293L132.008 27.3721H123.875L126.847 20.6465Z" fill="#DD1D25"></path><path d="M109.643 20.6465H118.089L114.804 27.3721H106.671L109.643 20.6465Z" fill="#DD1D25"></path></svg> 