<?xml version="1.0" encoding="UTF-8"?> <svg xmlns="http://www.w3.org/2000/svg" width="271" height="90" viewBox="0 0 271 90" fill="none"><path d="M270.84 73.453H256.116V61.7969H270.84V73.453ZM270.84 89.5057H256.116V77.8496H270.84V89.5057Z" fill="white"></path><path d="M228.615 53H252.541V89.502H237.204V66.4965H236.897L228.615 89.502H217.317L208.932 66.3432H208.626V89.502H194.209V53H217.266L222.787 71.1488H223.094L228.615 53Z" fill="white"></path><path d="M193.15 89.502H176.74L174.644 84.9009H156.342L154.246 89.502H137.835L155.421 53H175.564L193.15 89.502ZM165.339 64.8606L160.585 75.392H170.4L165.646 64.8606H165.339Z" fill="white"></path><path d="M126.735 53C130.791 53 133.994 53.4772 136.346 54.4315C138.732 55.3858 140.436 56.8342 141.458 58.7769C142.481 60.6855 142.992 63.1906 142.992 66.2921C142.992 69.2913 142.464 71.7282 141.407 73.6027C140.385 75.4772 138.681 76.8746 136.295 77.7948C133.943 78.715 130.757 79.1751 126.735 79.1751H111.193V89.502H95.8564V53H126.735ZM122.032 69.6662C123.565 69.6662 124.639 69.4106 125.252 68.8993C125.9 68.354 126.224 67.502 126.224 66.3432C126.224 65.1503 125.9 64.2812 125.252 63.7359C124.639 63.1906 123.565 62.9179 122.032 62.9179H111.193V69.6662H122.032Z" fill="white"></path><path d="M92.4818 62.3044H66.46V66.9055H91.1526V75.3409H66.46V80.351H92.7885V89.502H51.123V53H92.4818V62.3044Z" fill="white"></path><path d="M32.2077 65.7297V53H47.5446V89.502H32.2077V76.3633H15.337V89.502H0V53H15.337V65.7297H32.2077Z" fill="white"></path><path d="M155.168 0.496094H199.032V11.4365H184.768V36.9981H169.431V11.4365H155.168V0.496094Z" fill="white"></path><path d="M136.943 0.496094C140.999 0.496094 144.202 0.973245 146.554 1.92755C148.94 2.88185 150.644 4.33034 151.666 6.27303C152.689 8.18163 153.2 10.6867 153.2 13.7881C153.2 16.7874 152.672 19.2243 151.615 21.0988C150.593 22.9733 148.889 24.3707 146.503 25.2909C144.151 26.2111 140.965 26.6712 136.943 26.6712H121.401V36.9981H106.064V0.496094H136.943ZM132.24 17.1623C133.773 17.1623 134.847 16.9067 135.46 16.3954C136.108 15.8501 136.432 14.9981 136.432 13.8393C136.432 12.6464 136.108 11.7773 135.46 11.232C134.847 10.6867 133.773 10.414 132.24 10.414H121.401V17.1623H132.24Z" fill="white"></path><path d="M105.006 36.9981H88.5952L86.4992 32.397H68.1971L66.101 36.9981H49.6904L67.2768 0.496094H87.4194L105.006 36.9981ZM77.1948 12.3567L72.4403 22.8881H82.256L77.5015 12.3567H77.1948Z" fill="white"></path><path d="M48.6114 0.496094V36.9981H33.2744V0.496094H48.6114Z" fill="white"></path><path d="M40.7452 11.2339V0.497986H0V37H15.337V11.2339H40.7452Z" fill="white"></path></svg> 