<?xml version="1.0" encoding="UTF-8"?> <svg xmlns="http://www.w3.org/2000/svg" width="497" height="102" viewBox="0 0 497 102" fill="none"><rect x="2.63592" y="2.63592" width="491.728" height="96.1392" rx="26.0049" stroke="white" stroke-width="4.72816"></rect><path d="M249.417 43.5193V44.0552L240.843 60.7298C240.128 62.1167 239.277 63.1044 238.29 63.6928C237.302 64.2812 235.999 64.5754 234.381 64.5754H230.819V61.2341H234.349C235.148 61.2341 235.736 61.1186 236.115 60.8874C236.493 60.6563 236.85 60.1939 237.186 59.5005L229.212 44.0552V43.5193H233.246L239.33 55.6864L245.382 43.5193H249.417ZM269.157 43.5193V59.2168H265.375V54.1104C263.189 54.4046 261.214 54.5517 259.449 54.5517C254.363 54.5517 251.82 52.4818 251.82 48.342V43.5193H255.603V47.9638C255.603 49.0565 255.95 49.8656 256.643 50.3909C257.337 50.9163 258.398 51.1789 259.827 51.1789C261.424 51.1789 263.273 51.0423 265.375 50.7692V43.5193H269.157ZM293.589 55.8756V59.2168H291.288C290.279 59.2168 289.417 59.0487 288.703 58.7125C288.009 58.3552 287.494 57.8404 287.158 57.1679C286.339 58.0085 285.372 58.6284 284.258 59.0277C283.145 59.4059 281.831 59.595 280.318 59.595C278.028 59.595 276.252 59.1853 274.991 58.3657C273.73 57.5252 273.1 56.3484 273.1 54.8354C273.1 53.5745 273.573 52.5554 274.518 51.7778C275.485 50.9793 276.851 50.4855 278.616 50.2963L286.685 49.4138C286.433 47.6276 284.826 46.7345 281.863 46.7345C280.329 46.7345 279.131 46.9551 278.269 47.3964C277.408 47.8377 276.977 48.4471 276.977 49.2246V49.3192H273.194V49.2246C273.194 48.0268 273.552 46.9656 274.266 46.041C274.981 45.1164 275.989 44.4019 277.292 43.8976C278.616 43.3932 280.15 43.1411 281.894 43.1411C284.605 43.1411 286.717 43.7505 288.23 44.9693C289.743 46.1671 290.5 47.8482 290.5 50.0127V54.3626C290.5 54.8459 290.647 55.2241 290.941 55.4973C291.235 55.7495 291.655 55.8756 292.202 55.8756H293.589ZM280.224 56.2538C281.821 56.2538 283.176 56.0122 284.29 55.5288C285.425 55.0455 286.234 54.3626 286.717 53.48V52.5028L279.436 53.2908C277.733 53.48 276.882 53.9948 276.882 54.8354C276.882 55.781 277.996 56.2538 280.224 56.2538ZM304.521 59.595C302.608 59.595 300.948 59.2798 299.54 58.6494C298.132 57.998 297.04 57.0734 296.262 55.8756C295.506 54.6778 295.127 53.2803 295.127 51.6833V51.1789C295.127 49.5398 295.506 48.1214 296.262 46.9236C297.019 45.7048 298.101 44.7697 299.509 44.1182C300.938 43.4668 302.608 43.1411 304.521 43.1411C306.265 43.1411 307.83 43.4353 309.217 44.0237C310.604 44.612 311.686 45.4316 312.464 46.4823C313.242 47.533 313.63 48.7203 313.63 50.0442V50.1387H309.722V50.0442C309.722 49.0355 309.238 48.216 308.272 47.5855C307.305 46.9341 306.055 46.6084 304.521 46.6084C302.777 46.6084 301.421 47.0076 300.454 47.8062C299.509 48.6047 299.036 49.7395 299.036 51.2105V51.6517C299.036 53.0807 299.509 54.1839 300.454 54.9615C301.421 55.739 302.777 56.1277 304.521 56.1277C306.055 56.1277 307.305 55.8125 308.272 55.1821C309.238 54.5517 309.722 53.7321 309.722 52.7235V52.6289H313.63V52.7235C313.63 54.0684 313.252 55.2662 312.496 56.3169C311.739 57.3465 310.667 58.1556 309.28 58.744C307.914 59.3114 306.328 59.595 304.521 59.595ZM314.714 46.9236V43.5193H332.996V46.9236H325.809V59.2168H321.995V46.9236H314.714ZM351.765 51.242C353.383 51.8934 354.192 52.9546 354.192 54.4256V54.7408C354.192 56.1698 353.646 57.273 352.553 58.0505C351.46 58.828 349.895 59.2168 347.856 59.2168H335.91V43.5193H347.415C349.453 43.5193 351.019 43.8976 352.112 44.6541C353.225 45.4106 353.782 46.4928 353.782 47.9007V48.216C353.782 48.8674 353.604 49.4558 353.246 49.9811C352.91 50.4855 352.416 50.9057 351.765 51.242ZM339.692 46.4508V49.8235H347.289C348.129 49.8235 348.77 49.6869 349.212 49.4138C349.653 49.1406 349.874 48.7518 349.874 48.2475V47.9323C349.874 46.9446 349.012 46.4508 347.289 46.4508H339.692ZM350.283 54.3626C350.283 53.8582 350.063 53.48 349.621 53.2278C349.18 52.9546 348.55 52.818 347.73 52.818H339.692V56.2853H347.73C348.571 56.2853 349.201 56.1487 349.621 55.8756C350.063 55.6024 350.283 55.2031 350.283 54.6778V54.3626ZM366.642 59.595C364.708 59.595 363.027 59.2798 361.598 58.6494C360.169 57.998 359.066 57.0734 358.288 55.8756C357.532 54.6778 357.154 53.2698 357.154 51.6517V51.1789C357.154 49.5398 357.532 48.1214 358.288 46.9236C359.045 45.7048 360.138 44.7697 361.567 44.1182C362.996 43.4668 364.687 43.1411 366.642 43.1411C368.575 43.1411 370.245 43.4668 371.653 44.1182C373.061 44.7697 374.144 45.7048 374.9 46.9236C375.657 48.1214 376.035 49.5398 376.035 51.1789V51.6517C376.035 53.2698 375.657 54.6778 374.9 55.8756C374.144 57.0734 373.061 57.998 371.653 58.6494C370.245 59.2798 368.575 59.595 366.642 59.595ZM366.61 56.1277C368.333 56.1277 369.678 55.739 370.645 54.9615C371.632 54.1629 372.126 53.0597 372.126 51.6517V51.1789C372.126 49.729 371.643 48.6047 370.676 47.8062C369.71 47.0076 368.354 46.6084 366.61 46.6084C364.824 46.6084 363.447 47.0076 362.481 47.8062C361.535 48.5837 361.062 49.708 361.062 51.1789V51.6517C361.062 53.0597 361.546 54.1629 362.512 54.9615C363.5 55.739 364.866 56.1277 366.61 56.1277ZM395.722 51.242C397.34 51.8934 398.149 52.9546 398.149 54.4256V54.7408C398.149 56.1698 397.603 57.273 396.51 58.0505C395.417 58.828 393.852 59.2168 391.813 59.2168H379.867V43.5193H391.372C393.41 43.5193 394.976 43.8976 396.069 44.6541C397.182 45.4106 397.739 46.4928 397.739 47.9007V48.216C397.739 48.8674 397.561 49.4558 397.203 49.9811C396.867 50.4855 396.373 50.9057 395.722 51.242ZM383.649 46.4508V49.8235H391.246C392.086 49.8235 392.727 49.6869 393.169 49.4138C393.61 49.1406 393.831 48.7518 393.831 48.2475V47.9323C393.831 46.9446 392.969 46.4508 391.246 46.4508H383.649ZM394.24 54.3626C394.24 53.8582 394.02 53.48 393.578 53.2278C393.137 52.9546 392.507 52.818 391.687 52.818H383.649V56.2853H391.687C392.528 56.2853 393.158 56.1487 393.578 55.8756C394.02 55.6024 394.24 55.2031 394.24 54.6778V54.3626ZM422.135 55.8756V59.2168H419.834C418.826 59.2168 417.964 59.0487 417.25 58.7125C416.556 58.3552 416.041 57.8404 415.705 57.1679C414.885 58.0085 413.919 58.6284 412.805 59.0277C411.691 59.4059 410.378 59.595 408.865 59.595C406.574 59.595 404.799 59.1853 403.538 58.3657C402.277 57.5252 401.647 56.3484 401.647 54.8354C401.647 53.5745 402.119 52.5554 403.065 51.7778C404.032 50.9793 405.398 50.4855 407.163 50.2963L415.232 49.4138C414.98 47.6276 413.372 46.7345 410.409 46.7345C408.875 46.7345 407.678 46.9551 406.816 47.3964C405.954 47.8377 405.524 48.4471 405.524 49.2246V49.3192H401.741V49.2246C401.741 48.0268 402.098 46.9656 402.813 46.041C403.527 45.1164 404.536 44.4019 405.839 43.8976C407.163 43.3932 408.697 43.1411 410.441 43.1411C413.152 43.1411 415.264 43.7505 416.777 44.9693C418.29 46.1671 419.046 47.8482 419.046 50.0127V54.3626C419.046 54.8459 419.193 55.2241 419.488 55.4973C419.782 55.7495 420.202 55.8756 420.748 55.8756H422.135ZM408.77 56.2538C410.367 56.2538 411.723 56.0122 412.837 55.5288C413.971 55.0455 414.78 54.3626 415.264 53.48V52.5028L407.982 53.2908C406.28 53.48 405.429 53.9948 405.429 54.8354C405.429 55.781 406.543 56.2538 408.77 56.2538ZM421.805 46.9236V43.5193H440.087V46.9236H432.9V59.2168H429.086V46.9236H421.805ZM454.696 47.8062C456.755 47.8062 458.362 48.3 459.518 49.2877C460.695 50.2543 461.283 51.6097 461.283 53.3539V53.7321C461.283 55.4133 460.695 56.7476 459.518 57.7353C458.341 58.702 456.734 59.1853 454.696 59.1853H443.001V43.5193H446.784V47.8062H454.696ZM457.375 53.3539C457.375 51.8829 456.387 51.1474 454.412 51.1474H446.784V55.844H454.412C456.387 55.844 457.375 55.1401 457.375 53.7321V53.3539Z" fill="white"></path><path d="M33 49.6095H31.6095V52.3905H33V49.6095ZM200.983 51.9832C201.526 51.4402 201.526 50.5598 200.983 50.0168L192.134 41.1676C191.591 40.6246 190.711 40.6246 190.168 41.1676C189.625 41.7106 189.625 42.5911 190.168 43.1341L198.034 51L190.168 58.8659C189.625 59.4089 189.625 60.2894 190.168 60.8324C190.711 61.3754 191.591 61.3754 192.134 60.8324L200.983 51.9832ZM33 52.3905L200 52.3905V49.6095L33 49.6095V52.3905Z" fill="#C8ED01"></path></svg> 