<?xml version="1.0" encoding="UTF-8"?> <svg xmlns="http://www.w3.org/2000/svg" width="336" height="303" viewBox="0 0 336 303" fill="none"><path d="M44.7402 239.52C46.6102 232 48.3902 224.66 50.2802 217.35C54.7302 200.15 58.4702 182.72 63.8702 165.82C73.8102 134.69 96.4902 109 125.87 93.8203C126.51 94.5903 127.26 95.3803 127.87 96.2503C141.79 116.17 155.684 136.107 169.55 156.06C170.529 157.584 171.208 159.281 171.55 161.06C172.55 165.71 174.39 169.87 178.32 172.74C184.26 177.07 190.23 181.36 196.27 185.54C215.15 198.61 225.45 216.99 229.98 239.54L44.7402 239.52Z" fill="#801A98"></path><path d="M135.3 302.551H8.4499C1.7999 302.551 0.329896 300.831 0.0498959 294.161C-0.620104 278.261 5.17989 265.731 18.8099 257.161C24.4213 253.598 30.933 251.711 37.5799 251.721C102.573 251.661 167.573 251.661 232.58 251.721C253.45 251.721 270.03 268.871 270.43 289.721C270.64 301.071 270.14 302.611 257.7 302.551C216.88 302.421 176.09 302.551 135.3 302.551Z" fill="#801A98"></path><path d="M307.12 19.7905L283.12 34.5305C259.98 48.7305 236.84 62.9305 213.7 77.1305C203.7 83.3005 195.7 91.5605 191.15 102.4C188.31 109.22 187.07 116.7 185.15 123.91C183.99 128.36 182.79 132.82 181.97 137.33C181.719 138.968 181.074 140.52 180.089 141.853C179.105 143.185 177.812 144.259 176.32 144.98L136.32 87.7905C143.79 83.5005 151.1 79.2705 158.44 75.0905C197.18 53.0005 236.07 31.1905 274.55 8.68048C286.55 1.68048 299.66 4.17048 305.74 17.3305C306.06 18.0005 306.47 18.6305 307.12 19.7905Z" fill="#801A98"></path><path d="M195.17 133C196.75 126.45 198.39 120.73 199.48 114.92C201.69 103.07 208.63 94.3402 218.36 88.2502C249.59 68.7002 281.13 49.6502 312.56 30.4102C312.86 30.3548 313.165 30.328 313.47 30.3302C315.47 34.0502 317.99 37.7902 319.47 41.9302C322.69 50.9302 318.67 59.6402 309.42 65.1402L222.42 116.85L199.32 130.6C198.23 131.32 197.06 132 195.17 133Z" fill="#801A98"></path><path d="M329.88 35.0607L310.67 2.79073C315.93 -1.43927 319.23 -0.929271 322.67 4.79073C326.31 10.8907 329.933 16.9941 333.54 23.1007C337 29.0007 336.23 31.6507 329.88 35.0607Z" fill="#801A98"></path></svg> 