<?xml version="1.0" encoding="UTF-8"?> <svg xmlns="http://www.w3.org/2000/svg" width="140" height="18" viewBox="0 0 140 18" fill="none"><path d="M139.468 16H133V10.75H139.468V16Z" fill="#C8ED01"></path><path d="M125.271 16C126.937 16 128.253 15.804 129.219 15.412C130.199 15.02 130.899 14.425 131.319 13.627C131.739 12.843 131.949 11.814 131.949 10.54C131.949 9.308 131.732 8.307 131.298 7.537C130.878 6.767 130.178 6.193 129.198 5.815C128.232 5.437 126.923 5.248 125.271 5.248H118.887V1.006H112.587V16H125.271ZM123.339 9.154C123.969 9.154 124.41 9.259 124.662 9.469C124.928 9.693 125.061 10.043 125.061 10.519C125.061 11.009 124.928 11.366 124.662 11.59C124.41 11.814 123.969 11.926 123.339 11.926H118.887V9.154H123.339Z" fill="#C8ED01"></path><path d="M104.075 7.05445C103.935 5.72445 102.794 5.05945 100.652 5.05945C99.3359 5.05945 98.3489 5.35345 97.6909 5.94145C97.0469 6.52945 96.7249 7.38345 96.7249 8.50345C96.7249 9.62345 97.0469 10.4775 97.6909 11.0655C98.3489 11.6535 99.3359 11.9475 100.652 11.9475C101.884 11.9475 102.752 11.7445 103.256 11.3385C103.76 10.9185 104.047 10.3375 104.117 9.59546H111.383C111.327 11.9195 110.424 13.6625 108.674 14.8245C106.924 15.9865 104.25 16.5675 100.652 16.5675C97.0119 16.5675 94.2959 15.9095 92.5039 14.5935C90.7259 13.2635 89.8369 11.2335 89.8369 8.50345C89.8369 5.77345 90.7259 3.75045 92.5039 2.43445C94.2959 1.10445 97.0119 0.439453 100.652 0.439453C107.666 0.439453 111.229 2.64445 111.341 7.05445H104.075Z" fill="#C8ED01"></path><path d="M75.0326 8.85986V1.00586H69.1106V15.9999H76.2716L82.5926 8.06186H82.7186V15.9999H88.6406V1.00586H81.3956L75.1586 8.85986H75.0326Z" fill="#C8ED01"></path><path d="M59.531 12.02V5.08H53.187V12.02H59.531ZM47.3314 12.02V1H65.3988V12.02H68.2371V18H62.3698V16.1H50.4695V18H44.498V12.02H47.3314Z" fill="#C8ED01"></path><path d="M43.7161 15.9999H36.9751L36.1141 14.1099H28.5961L27.7351 15.9999H20.9941L28.2181 1.00586H36.4921L43.7161 15.9999ZM32.2921 5.87786L30.3391 10.2039H34.3711L32.4181 5.87786H32.2921Z" fill="#C8ED01"></path><path d="M14.6599 7.05445C14.5199 5.72445 13.3789 5.05945 11.2369 5.05945C9.92088 5.05945 8.93388 5.35345 8.27588 5.94145C7.63188 6.52945 7.30988 7.38345 7.30988 8.50345C7.30988 9.62345 7.63188 10.4775 8.27588 11.0655C8.93388 11.6535 9.92088 11.9475 11.2369 11.9475C12.4689 11.9475 13.3369 11.7445 13.8409 11.3385C14.3449 10.9185 14.6319 10.3375 14.7019 9.59546H21.9679C21.9119 11.9195 21.0089 13.6625 19.2589 14.8245C17.5089 15.9865 14.8349 16.5675 11.2369 16.5675C7.59688 16.5675 4.88088 15.9095 3.08888 14.5935C1.31088 13.2635 0.421875 11.2335 0.421875 8.50345C0.421875 5.77345 1.31088 3.75045 3.08888 2.43445C4.88088 1.10445 7.59688 0.439453 11.2369 0.439453C18.2509 0.439453 21.8139 2.64445 21.9259 7.05445H14.6599Z" fill="#C8ED01"></path></svg> 