<?xml version="1.0" encoding="UTF-8"?> <svg xmlns="http://www.w3.org/2000/svg" width="449" height="55" viewBox="0 0 449 55" fill="none"><path d="M141.609 36.6152V51.9995H138.025V40.5076L137.222 41.9596L131.6 51.9995H128.294L122.672 41.9596L121.869 40.5076V51.9995H118.285V36.6152H123.568L129.962 47.9835L136.326 36.6152H141.609Z" fill="white"></path><path d="M105.324 52.3698C103.429 52.3698 101.782 52.0609 100.381 51.443C98.9807 50.8046 97.8995 49.8984 97.1375 48.7245C96.3961 47.5506 96.0254 46.1708 96.0254 44.585V44.1216C96.0254 42.5152 96.3961 41.1251 97.1375 39.9512C97.8789 38.7567 98.9498 37.8402 100.35 37.2018C101.751 36.5634 103.409 36.2441 105.324 36.2441C107.219 36.2441 108.856 36.5634 110.236 37.2018C111.616 37.8402 112.676 38.7567 113.418 39.9512C114.159 41.1251 114.53 42.5152 114.53 44.1216V44.585C114.53 46.1708 114.159 47.5506 113.418 48.7245C112.676 49.8984 111.616 50.8046 110.236 51.443C108.856 52.0609 107.219 52.3698 105.324 52.3698ZM105.293 48.9717C106.982 48.9717 108.3 48.5907 109.247 47.8287C110.215 47.0461 110.699 45.9648 110.699 44.585V44.1216C110.699 42.7006 110.225 41.5988 109.278 40.8162C108.331 40.0336 107.002 39.6423 105.293 39.6423C103.542 39.6423 102.194 40.0336 101.246 40.8162C100.319 41.5782 99.856 42.68 99.856 44.1216V44.585C99.856 45.9648 100.33 47.0461 101.277 47.8287C102.245 48.5907 103.584 48.9717 105.293 48.9717Z" fill="white"></path><path d="M95.1149 51.4743V51.9995H90.8827L84.8587 45.8211H80.8428V51.9995H77.1357V36.6152H80.8428V42.6083H84.7661L90.4502 36.6152H94.7442V37.1404L88.1642 44.1529L95.1149 51.4743Z" fill="white"></path><path d="M48.7442 36.6152V48.7249H56.807V36.6152H60.514V48.7249H68.5459V36.6152H72.253V51.9995H45.0371V36.6152H48.7442Z" fill="white"></path><path d="M41.272 45.5426H27.0926C27.2368 46.6342 27.7619 47.4785 28.6681 48.0758C29.5948 48.673 30.8202 48.9717 32.3442 48.9717C33.7653 48.9717 34.9186 48.7657 35.8041 48.3538C36.6897 47.9419 37.184 47.3859 37.287 46.6856H41.272C41.0661 48.498 40.1805 49.8984 38.6153 50.887C37.0707 51.8755 34.9804 52.3698 32.3442 52.3698C30.4701 52.3698 28.8431 52.0609 27.4633 51.443C26.104 50.8046 25.0537 49.9087 24.3123 48.7554C23.5709 47.5815 23.2002 46.212 23.2002 44.6468V44.0289C23.2002 42.4431 23.5709 41.0633 24.3123 39.8894C25.0537 38.7155 26.1143 37.8196 27.4942 37.2018C28.874 36.5634 30.4907 36.2441 32.3442 36.2441C35.1451 36.2441 37.3281 36.9238 38.8933 38.283C40.4791 39.6423 41.272 41.5164 41.272 43.9054V45.5426ZM32.3133 39.6423C30.9541 39.6423 29.8317 39.8894 28.9461 40.3837C28.0605 40.8779 27.4839 41.5679 27.2162 42.4534H37.2561C37.0089 41.5679 36.4529 40.8779 35.5879 40.3837C34.7229 39.8894 33.6314 39.6423 32.3133 39.6423Z" fill="white"></path><path d="M19.431 36.6152V51.9995H15.724V39.8898H6.14747V51.9995H2.44043V36.6152H19.431Z" fill="white"></path><path d="M200.957 4.81655C202.995 4.81655 204.581 5.31082 205.714 6.29937C206.847 7.26732 207.413 8.59567 207.413 10.2844V10.6551C207.413 12.3027 206.836 13.6105 205.683 14.5784C204.55 15.5258 202.975 15.9995 200.957 15.9995H190.299V0.615234H194.006V4.81655H200.957ZM213.035 0.615234V15.9995H209.328V0.615234H213.035ZM203.582 10.2844C203.582 8.82222 202.614 8.0911 200.679 8.0911H194.006V12.7249H200.679C202.614 12.7249 203.582 12.035 203.582 10.6551V10.2844Z" fill="white"></path><path d="M169.402 3.95157V0.615234H187.32V3.95157H180.276V15.9995H176.538V3.95157H169.402Z" fill="white"></path><path d="M168.128 0.615234V1.1404L159.725 17.4823C159.025 18.8415 158.191 19.8095 157.223 20.3861C156.255 20.9628 154.978 21.2511 153.392 21.2511H149.902V17.9766H153.362C154.144 17.9766 154.721 17.8633 155.092 17.6367C155.462 17.4102 155.812 16.9571 156.142 16.2775L148.326 1.1404V0.615234H152.28L158.243 12.5396L164.174 0.615234H168.128Z" fill="white"></path><path d="M131.435 0.615234V6.63918H141.32V0.615234H145.027V15.9995H141.32V9.91373H131.435V15.9995H127.728V0.615234H131.435Z" fill="white"></path><path d="M109.289 0.615234V11.4583L119.452 0.615234H122.85V15.9995H119.267V5.15636L109.103 15.9995H105.705V0.615234H109.289Z" fill="white"></path><path d="M100.822 0.615234V15.9995H97.2381V4.50763L96.4349 5.95955L90.8125 15.9995H87.5071L81.8847 5.95955L81.0815 4.50763V15.9995H77.498V0.615234H82.7806L89.1752 11.9835L95.539 0.615234H100.822Z" fill="white"></path><path d="M46.6899 0.615234V11.4583L56.8534 0.615234H60.2515V15.9995H56.668V5.15636L46.5046 15.9995H43.1064V0.615234H46.6899Z" fill="white"></path><path d="M30.1335 0.244141C31.987 0.244141 33.6037 0.563358 34.9835 1.20179C36.384 1.84023 37.4549 2.75669 38.1963 3.95118C38.9583 5.12508 39.3393 6.50492 39.3393 8.09071V8.49231C39.3393 10.0781 38.9583 11.4682 38.1963 12.6627C37.4549 13.8366 36.384 14.7531 34.9835 15.4121C33.6037 16.0506 31.987 16.3698 30.1335 16.3698C28.074 16.3698 26.3235 15.824 24.8818 14.7325V21.2507H21.1748V0.614845H24.6347L24.7274 2.03588C26.2514 0.841387 28.0534 0.244141 30.1335 0.244141ZM35.5087 8.09071C35.5087 6.71087 35.0247 5.62965 34.0568 4.84705C33.0888 4.04386 31.7605 3.64226 30.0717 3.64226C28.9596 3.64226 27.9402 3.82762 27.0134 4.19832C26.1072 4.56902 25.3967 5.07359 24.8818 5.71203V10.8401C25.3967 11.4991 26.1175 12.0243 27.0443 12.4156C27.971 12.7863 28.9802 12.9717 30.0717 12.9717C31.7811 12.9717 33.1094 12.5804 34.0568 11.7978C35.0247 10.9946 35.5087 9.89275 35.5087 8.49231V8.09071Z" fill="white"></path><path d="M0.401367 3.95157V0.615234H18.3187V3.95157H11.2754V15.9995H7.53742V3.95157H0.401367Z" fill="white"></path><path fill-rule="evenodd" clip-rule="evenodd" d="M439.134 34.2667L447.983 43.1158C448.526 43.6589 448.526 44.5393 447.983 45.0823L439.134 53.9315C438.591 54.4745 437.711 54.4745 437.167 53.9315C436.624 53.3884 436.624 52.508 437.167 51.965L443.643 45.4896L157.609 45.4896L157.609 42.7085L443.643 42.7086L437.167 36.2332C436.624 35.6901 436.624 34.8097 437.167 34.2667C437.711 33.7236 438.591 33.7236 439.134 34.2667Z" fill="#C8ED01"></path></svg> 