<?xml version="1.0" encoding="UTF-8"?> <svg xmlns="http://www.w3.org/2000/svg" width="269" height="37" viewBox="0 0 269 37" fill="none"><path opacity="0.7" d="M51.2125 31.4812C45.3975 29.2008 4.5213 31.5231 1.46161 30.7935C-1.09198 29.852 1.6798 13.5716 3.70859 11.1805C4.43107 10.3309 5.32336 10.2011 7.43713 10.6026C9.13472 10.9955 20.6507 10.8738 31.7279 10.6812C42.805 10.4887 53.3971 10.1134 53.3971 10.1134C54.021 10.6201 55.544 8.92258 55.9018 9.53501C56.2597 10.1474 74.0964 10.1554 92.3424 9.81365C110.588 9.4719 129.34 8.91826 132.288 8.83056C135.884 8.76855 133.15 9.74971 137.338 9.34172C146.237 8.48708 165.992 9.15183 172.657 8.1896C176.403 7.45366 180.592 7.35649 184.52 7.91442C189.934 8.44539 218.4 7.37491 221.328 6.20011C222.074 5.86968 222.693 5.98117 222.752 6.34049L223.637 6.35864L232.825 6.42374C236.217 6.37596 239.616 6.44573 242.995 6.63247C243.21 6.99499 243.853 7.15636 244.387 6.89566C245.371 6.52069 266.373 4.80305 266.941 5.85202C268.578 8.84928 268.256 21.6853 266.446 24.8588C264.495 28.227 249.709 24.7376 238.786 26.9091C177.436 27.8974 189.839 27.2505 175.083 29.0469C173.63 27.9675 169.109 30.7149 165.771 28.8558C164.406 28.0869 155.398 28.0625 153.532 28.8639C151.666 29.6654 105.814 28.1316 101.378 30.2633C92.8026 28.4696 59.0982 31.075 51.2125 31.4812Z" fill="#C8ED01"></path><path opacity="0.7" d="M51.2125 31.4812C45.3975 29.2008 4.5213 31.5231 1.46161 30.7935C-1.09198 29.852 1.6798 13.5716 3.70859 11.1805C4.43107 10.3309 5.32336 10.2011 7.43713 10.6026C9.13472 10.9955 20.6507 10.8738 31.7279 10.6812C42.805 10.4887 53.3971 10.1134 53.3971 10.1134C54.021 10.6201 55.544 8.92258 55.9018 9.53501C56.2597 10.1474 74.0964 10.1554 92.3424 9.81365C110.588 9.4719 129.34 8.91826 132.288 8.83056C135.884 8.76855 133.15 9.74971 137.338 9.34172C146.237 8.48708 165.992 9.15183 172.657 8.1896C176.403 7.45366 180.592 7.35649 184.52 7.91442C189.934 8.44539 218.4 7.37491 221.328 6.20011C222.074 5.86968 222.693 5.98117 222.752 6.34049L223.637 6.35864L232.825 6.42374C236.217 6.37596 239.616 6.44573 242.995 6.63247C243.21 6.99499 243.853 7.15636 244.387 6.89566C245.371 6.52069 266.373 4.80305 266.941 5.85202C268.578 8.84928 268.256 21.6853 266.446 24.8588C264.495 28.227 249.709 24.7376 238.786 26.9091C177.436 27.8974 189.839 27.2505 175.083 29.0469C173.63 27.9675 169.109 30.7149 165.771 28.8558C164.406 28.0869 155.398 28.0625 153.532 28.8639C151.666 29.6654 105.814 28.1316 101.378 30.2633C92.8026 28.4696 59.0982 31.075 51.2125 31.4812Z" fill="#C8ED01"></path><path opacity="0.7" d="M51.2125 31.4812C45.3975 29.2008 4.5213 31.5231 1.46161 30.7935C-1.09198 29.852 1.6798 13.5716 3.70859 11.1805C4.43107 10.3309 5.32336 10.2011 7.43713 10.6026C9.13472 10.9955 20.6507 10.8738 31.7279 10.6812C42.805 10.4887 53.3971 10.1134 53.3971 10.1134C54.021 10.6201 55.544 8.92258 55.9018 9.53501C56.2597 10.1474 74.0964 10.1554 92.3424 9.81365C110.588 9.4719 129.34 8.91826 132.288 8.83056C135.884 8.76855 133.15 9.74971 137.338 9.34172C146.237 8.48708 165.992 9.15183 172.657 8.1896C176.403 7.45366 180.592 7.35649 184.52 7.91442C189.934 8.44539 218.4 7.37491 221.328 6.20011C222.074 5.86968 222.693 5.98117 222.752 6.34049L223.637 6.35864L232.825 6.42374C236.217 6.37596 239.616 6.44573 242.995 6.63247C243.21 6.99499 243.853 7.15636 244.387 6.89566C245.371 6.52069 266.373 4.80305 266.941 5.85202C268.578 8.84928 268.256 21.6853 266.446 24.8588C264.495 28.227 249.709 24.7376 238.786 26.9091C177.436 27.8974 189.839 27.2505 175.083 29.0469C173.63 27.9675 169.109 30.7149 165.771 28.8558C164.406 28.0869 155.398 28.0625 153.532 28.8639C151.666 29.6654 105.814 28.1316 101.378 30.2633C92.8026 28.4696 59.0982 31.075 51.2125 31.4812Z" fill="#C8ED01"></path><path opacity="0.7" d="M51.2125 31.4812C45.3975 29.2008 4.5213 31.5231 1.46161 30.7935C-1.09198 29.852 1.6798 13.5716 3.70859 11.1805C4.43107 10.3309 5.32336 10.2011 7.43713 10.6026C9.13472 10.9955 20.6507 10.8738 31.7279 10.6812C42.805 10.4887 53.3971 10.1134 53.3971 10.1134C54.021 10.6201 55.544 8.92258 55.9018 9.53501C56.2597 10.1474 74.0964 10.1554 92.3424 9.81365C110.588 9.4719 129.34 8.91826 132.288 8.83056C135.884 8.76855 133.15 9.74971 137.338 9.34172C146.237 8.48708 165.992 9.15183 172.657 8.1896C176.403 7.45366 180.592 7.35649 184.52 7.91442C189.934 8.44539 218.4 7.37491 221.328 6.20011C222.074 5.86968 222.693 5.98117 222.752 6.34049L223.637 6.35864L232.825 6.42374C236.217 6.37596 239.616 6.44573 242.995 6.63247C243.21 6.99499 243.853 7.15636 244.387 6.89566C245.371 6.52069 266.373 4.80305 266.941 5.85202C268.578 8.84928 268.256 21.6853 266.446 24.8588C264.495 28.227 249.709 24.7376 238.786 26.9091C177.436 27.8974 189.839 27.2505 175.083 29.0469C173.63 27.9675 169.109 30.7149 165.771 28.8558C164.406 28.0869 155.398 28.0625 153.532 28.8639C151.666 29.6654 105.814 28.1316 101.378 30.2633C92.8026 28.4696 59.0982 31.075 51.2125 31.4812Z" fill="#C8ED01"></path><path opacity="0.7" d="M51.2125 31.4812C45.3975 29.2008 4.5213 31.5231 1.46161 30.7935C-1.09198 29.852 1.6798 13.5716 3.70859 11.1805C4.43107 10.3309 5.32336 10.2011 7.43713 10.6026C9.13472 10.9955 20.6507 10.8738 31.7279 10.6812C42.805 10.4887 53.3971 10.1134 53.3971 10.1134C54.021 10.6201 55.544 8.92258 55.9018 9.53501C56.2597 10.1474 74.0964 10.1554 92.3424 9.81365C110.588 9.4719 129.34 8.91826 132.288 8.83056C135.884 8.76855 133.15 9.74971 137.338 9.34172C146.237 8.48708 165.992 9.15183 172.657 8.1896C176.403 7.45366 180.592 7.35649 184.52 7.91442C189.934 8.44539 218.4 7.37491 221.328 6.20011C222.074 5.86968 222.693 5.98117 222.752 6.34049L223.637 6.35864L232.825 6.42374C236.217 6.37596 239.616 6.44573 242.995 6.63247C243.21 6.99499 243.853 7.15636 244.387 6.89566C245.371 6.52069 266.373 4.80305 266.941 5.85202C268.578 8.84928 268.256 21.6853 266.446 24.8588C264.495 28.227 249.709 24.7376 238.786 26.9091C177.436 27.8974 189.839 27.2505 175.083 29.0469C173.63 27.9675 169.109 30.7149 165.771 28.8558C164.406 28.0869 155.398 28.0625 153.532 28.8639C151.666 29.6654 105.814 28.1316 101.378 30.2633C92.8026 28.4696 59.0982 31.075 51.2125 31.4812Z" fill="#C8ED01"></path><path opacity="0.7" d="M51.2125 31.4812C45.3975 29.2008 4.5213 31.5231 1.46161 30.7935C-1.09198 29.852 1.6798 13.5716 3.70859 11.1805C4.43107 10.3309 5.32336 10.2011 7.43713 10.6026C9.13472 10.9955 20.6507 10.8738 31.7279 10.6812C42.805 10.4887 53.3971 10.1134 53.3971 10.1134C54.021 10.6201 55.544 8.92258 55.9018 9.53501C56.2597 10.1474 74.0964 10.1554 92.3424 9.81365C110.588 9.4719 129.34 8.91826 132.288 8.83056C135.884 8.76855 133.15 9.74971 137.338 9.34172C146.237 8.48708 165.992 9.15183 172.657 8.1896C176.403 7.45366 180.592 7.35649 184.52 7.91442C189.934 8.44539 218.4 7.37491 221.328 6.20011C222.074 5.86968 222.693 5.98117 222.752 6.34049L223.637 6.35864L232.825 6.42374C236.217 6.37596 239.616 6.44573 242.995 6.63247C243.21 6.99499 243.853 7.15636 244.387 6.89566C245.371 6.52069 266.373 4.80305 266.941 5.85202C268.578 8.84928 268.256 21.6853 266.446 24.8588C264.495 28.227 249.709 24.7376 238.786 26.9091C177.436 27.8974 189.839 27.2505 175.083 29.0469C173.63 27.9675 169.109 30.7149 165.771 28.8558C164.406 28.0869 155.398 28.0625 153.532 28.8639C151.666 29.6654 105.814 28.1316 101.378 30.2633C92.8026 28.4696 59.0982 31.075 51.2125 31.4812Z" fill="#C8ED01"></path><path opacity="0.7" d="M51.2125 31.4812C45.3975 29.2008 4.5213 31.5231 1.46161 30.7935C-1.09198 29.852 1.6798 13.5716 3.70859 11.1805C4.43107 10.3309 5.32336 10.2011 7.43713 10.6026C9.13472 10.9955 20.6507 10.8738 31.7279 10.6812C42.805 10.4887 53.3971 10.1134 53.3971 10.1134C54.021 10.6201 55.544 8.92258 55.9018 9.53501C56.2597 10.1474 74.0964 10.1554 92.3424 9.81365C110.588 9.4719 129.34 8.91826 132.288 8.83056C135.884 8.76855 133.15 9.74971 137.338 9.34172C146.237 8.48708 165.992 9.15183 172.657 8.1896C176.403 7.45366 180.592 7.35649 184.52 7.91442C189.934 8.44539 218.4 7.37491 221.328 6.20011C222.074 5.86968 222.693 5.98117 222.752 6.34049L223.637 6.35864L232.825 6.42374C236.217 6.37596 239.616 6.44573 242.995 6.63247C243.21 6.99499 243.853 7.15636 244.387 6.89566C245.371 6.52069 266.373 4.80305 266.941 5.85202C268.578 8.84928 268.256 21.6853 266.446 24.8588C264.495 28.227 249.709 24.7376 238.786 26.9091C177.436 27.8974 189.839 27.2505 175.083 29.0469C173.63 27.9675 169.109 30.7149 165.771 28.8558C164.406 28.0869 155.398 28.0625 153.532 28.8639C151.666 29.6654 105.814 28.1316 101.378 30.2633C92.8026 28.4696 59.0982 31.075 51.2125 31.4812Z" fill="#C8ED01"></path></svg> 