<?xml version="1.0" encoding="UTF-8"?> <svg xmlns="http://www.w3.org/2000/svg" width="169" height="18" viewBox="0 0 169 18" fill="none"><path d="M168.07 16H161.602V10.75H168.07V16Z" fill="white"></path><path d="M153.762 16C155.428 16 156.744 15.804 157.71 15.412C158.69 15.02 159.39 14.425 159.81 13.627C160.23 12.843 160.44 11.814 160.44 10.54C160.44 9.308 160.223 8.307 159.789 7.537C159.369 6.767 158.669 6.193 157.689 5.815C156.723 5.437 155.414 5.248 153.762 5.248H147.378V1.006H141.078V16H153.762ZM151.83 9.154C152.46 9.154 152.901 9.259 153.153 9.469C153.419 9.693 153.552 10.043 153.552 10.519C153.552 11.009 153.419 11.366 153.153 11.59C152.901 11.814 152.46 11.926 151.83 11.926H147.378V9.154H151.83Z" fill="white"></path><path d="M132.566 7.05445C132.426 5.72445 131.285 5.05945 129.143 5.05945C127.827 5.05945 126.84 5.35345 126.182 5.94145C125.538 6.52945 125.216 7.38345 125.216 8.50345C125.216 9.62345 125.538 10.4775 126.182 11.0655C126.84 11.6535 127.827 11.9475 129.143 11.9475C130.375 11.9475 131.243 11.7445 131.747 11.3385C132.251 10.9185 132.538 10.3375 132.608 9.59546H139.874C139.818 11.9195 138.915 13.6625 137.165 14.8245C135.415 15.9865 132.741 16.5675 129.143 16.5675C125.503 16.5675 122.787 15.9095 120.995 14.5935C119.217 13.2635 118.328 11.2335 118.328 8.50345C118.328 5.77345 119.217 3.75045 120.995 2.43445C122.787 1.10445 125.503 0.439453 129.143 0.439453C136.157 0.439453 139.72 2.64445 139.832 7.05445H132.566Z" fill="white"></path><path d="M103.524 8.85986V1.00586H97.6018V15.9999H104.763L111.084 8.06186H111.21V15.9999H117.132V1.00586H109.887L103.65 8.85986H103.524Z" fill="white"></path><path d="M95.404 1.00586L89.188 6.36086L96.433 15.9999H88.873L84.757 10.2039L82.3 12.3039V15.9999H76V1.00586H82.3V6.31886L88.243 1.00586H95.404Z" fill="white"></path><path d="M63.0286 1L69.2446 6.355L61.9996 15.994H69.5596L73.6756 10.198L76.1326 12.298V15.994H82.4326V1H76.1326V6.313L70.1896 1H63.0286Z" fill="white"></path><path d="M56.6674 1.00586C58.3334 1.00586 59.6494 1.20186 60.6154 1.59386C61.5954 1.98586 62.2954 2.58086 62.7154 3.37886C63.1354 4.16286 63.3454 5.19186 63.3454 6.46586C63.3454 7.69786 63.1284 8.69886 62.6944 9.46886C62.2744 10.2389 61.5744 10.8129 60.5944 11.1909C59.6284 11.5689 58.3194 11.7579 56.6674 11.7579H50.2834V15.9999H43.9834V1.00586H56.6674ZM54.7354 7.85186C55.3654 7.85186 55.8064 7.74686 56.0584 7.53686C56.3244 7.31286 56.4574 6.96286 56.4574 6.48686C56.4574 5.99686 56.3244 5.63986 56.0584 5.41586C55.8064 5.19186 55.3654 5.07986 54.7354 5.07986H50.2834V7.85186H54.7354Z" fill="white"></path><path d="M42.5974 4.82786H31.9084V6.71786H42.0514V10.1829H31.9084V12.2409H42.7234V15.9999H25.6084V1.00586H42.5974V4.82786Z" fill="white"></path><path d="M15.6384 12.02V5.08H9.29443V12.02H15.6384ZM3.4388 12.02V1H21.5063V12.02H24.3445V18H18.4773V16.1H6.57689V18H0.605469V12.02H3.4388Z" fill="white"></path></svg> 