<?xml version="1.0" encoding="UTF-8"?> <svg xmlns="http://www.w3.org/2000/svg" width="451" height="111" viewBox="0 0 451 111" fill="none"><path d="M26.2885 13.3025V29H22.6321V17.2742L21.8126 18.7557L16.0757 29H12.703L6.96615 18.7557L6.1466 17.2742V29H2.49016V13.3025H7.88026L14.4051 24.9023L20.8984 13.3025H26.2885ZM50.7304 25.6588V29H48.4294C47.4207 29 46.5591 28.8319 45.8446 28.4957C45.1512 28.1384 44.6363 27.6236 44.3001 26.9511C43.4806 27.7917 42.5139 28.4116 41.4002 28.8109C40.2864 29.1891 38.9731 29.3783 37.46 29.3783C35.1695 29.3783 33.3938 28.9685 32.133 28.1489C30.8721 27.3084 30.2417 26.1316 30.2417 24.6186C30.2417 23.3577 30.7145 22.3386 31.6602 21.561C32.6268 20.7625 33.9927 20.2687 35.7579 20.0795L43.8273 19.197C43.5751 17.4108 41.9676 16.5177 39.0046 16.5177C37.4706 16.5177 36.2728 16.7383 35.4112 17.1796C34.5496 17.6209 34.1188 18.2303 34.1188 19.0078V19.1024H30.3363V19.0078C30.3363 17.81 30.6935 16.7488 31.408 15.8242C32.1225 14.8996 33.1312 14.1851 34.434 13.6808C35.7579 13.1764 37.2919 12.9243 39.0361 12.9243C41.7469 12.9243 43.8588 13.5337 45.3718 14.7525C46.8848 15.9503 47.6413 17.6314 47.6413 19.7959V24.1458C47.6413 24.6291 47.7884 25.0073 48.0826 25.2805C48.3768 25.5327 48.7971 25.6588 49.3435 25.6588H50.7304ZM37.3655 26.037C38.9625 26.037 40.318 25.7954 41.4317 25.312C42.5665 24.8287 43.3755 24.1458 43.8588 23.2632V22.286L36.5775 23.074C34.8753 23.2632 34.0243 23.778 34.0243 24.6186C34.0243 25.5642 35.138 26.037 37.3655 26.037ZM62.5451 12.9243C64.4364 12.9243 66.086 13.25 67.4939 13.9014C68.9229 14.5529 70.0156 15.488 70.7721 16.7068C71.5496 17.9046 71.9384 19.3125 71.9384 20.9306V21.3404C71.9384 22.9585 71.5496 24.3769 70.7721 25.5957C70.0156 26.7935 68.9229 27.7287 67.4939 28.4011C66.086 29.0525 64.4364 29.3783 62.5451 29.3783C60.4437 29.3783 58.6575 28.8214 57.1866 27.7076V34.3586H53.404V13.3025H56.9344L57.0289 14.7525C58.584 13.5337 60.4227 12.9243 62.5451 12.9243ZM68.0298 20.9306C68.0298 19.5227 67.536 18.4194 66.5483 17.6209C65.5606 16.8014 64.2052 16.3916 62.4821 16.3916C61.3473 16.3916 60.3071 16.5807 59.3615 16.959C58.4369 17.3372 57.7119 17.8521 57.1866 18.5035V23.736C57.7119 24.4084 58.4474 24.9443 59.393 25.3436C60.3387 25.7218 61.3683 25.9109 62.4821 25.9109C64.2262 25.9109 65.5817 25.5117 66.5483 24.7131C67.536 23.8936 68.0298 22.7693 68.0298 21.3404V20.9306ZM79.5653 13.3025V25.6588H87.7922V13.3025H91.5748V25.6588H99.7702V13.3025H103.553V29H75.7827V13.3025H79.5653ZM117.676 12.9243C119.567 12.9243 121.217 13.25 122.625 13.9014C124.054 14.5529 125.147 15.488 125.903 16.7068C126.681 17.9046 127.069 19.3125 127.069 20.9306V21.3404C127.069 22.9585 126.681 24.3769 125.903 25.5957C125.147 26.7935 124.054 27.7287 122.625 28.4011C121.217 29.0525 119.567 29.3783 117.676 29.3783C115.575 29.3783 113.789 28.8214 112.318 27.7076V34.3586H108.535V13.3025H112.065L112.16 14.7525C113.715 13.5337 115.554 12.9243 117.676 12.9243ZM123.161 20.9306C123.161 19.5227 122.667 18.4194 121.679 17.6209C120.692 16.8014 119.336 16.3916 117.613 16.3916C116.478 16.3916 115.438 16.5807 114.493 16.959C113.568 17.3372 112.843 17.8521 112.318 18.5035V23.736C112.843 24.4084 113.578 24.9443 114.524 25.3436C115.47 25.7218 116.499 25.9109 117.613 25.9109C119.357 25.9109 120.713 25.5117 121.679 24.7131C122.667 23.8936 123.161 22.7693 123.161 21.3404V20.9306ZM148.742 13.3025V13.8384L140.168 30.513C139.453 31.8999 138.602 32.8876 137.615 33.476C136.627 34.0644 135.324 34.3586 133.706 34.3586H130.144V31.0173H133.675C134.473 31.0173 135.061 30.9018 135.44 30.6706C135.818 30.4395 136.175 29.9772 136.511 29.2837L128.537 13.8384V13.3025H132.571L138.655 25.4696L144.707 13.3025H148.742ZM150.042 16.7068V13.3025H168.325V16.7068H161.138V29H157.324V16.7068H150.042ZM189.584 28.4641V29H185.265L179.119 22.6958H175.021V29H171.239V13.3025H175.021V19.4176H179.024L184.824 13.3025H189.206V13.8384L182.492 20.9937L189.584 28.4641ZM211.845 25.6588V29H209.544C208.535 29 207.673 28.8319 206.959 28.4957C206.266 28.1384 205.751 27.6236 205.414 26.9511C204.595 27.7917 203.628 28.4116 202.515 28.8109C201.401 29.1891 200.087 29.3783 198.574 29.3783C196.284 29.3783 194.508 28.9685 193.247 28.1489C191.987 27.3084 191.356 26.1316 191.356 24.6186C191.356 23.3577 191.829 22.3386 192.775 21.561C193.741 20.7625 195.107 20.2687 196.872 20.0795L204.942 19.197C204.689 17.4108 203.082 16.5177 200.119 16.5177C198.585 16.5177 197.387 16.7383 196.526 17.1796C195.664 17.6209 195.233 18.2303 195.233 19.0078V19.1024H191.451V19.0078C191.451 17.81 191.808 16.7488 192.522 15.8242C193.237 14.8996 194.246 14.1851 195.548 13.6808C196.872 13.1764 198.406 12.9243 200.15 12.9243C202.861 12.9243 204.973 13.5337 206.486 14.7525C207.999 15.9503 208.756 17.6314 208.756 19.7959V24.1458C208.756 24.6291 208.903 25.0073 209.197 25.2805C209.491 25.5327 209.911 25.6588 210.458 25.6588H211.845ZM198.48 26.037C200.077 26.037 201.432 25.7954 202.546 25.312C203.681 24.8287 204.49 24.1458 204.973 23.2632V22.286L197.692 23.074C195.99 23.2632 195.139 23.778 195.139 24.6186C195.139 25.5642 196.252 26.037 198.48 26.037ZM257.273 7.97547C258.387 7.97547 259.385 8.19611 260.268 8.63741C261.15 9.05769 261.833 9.6671 262.317 10.4656C262.8 11.2431 263.042 12.1257 263.042 13.1134V13.3971C263.042 14.9101 262.506 16.1394 261.434 17.085C260.362 18.0307 258.975 18.5035 257.273 18.5035C256.138 18.5035 255.119 18.2934 254.216 17.8731C253.333 17.4318 252.64 16.8224 252.135 16.0449C251.631 15.2673 251.379 14.3847 251.379 13.3971V13.0504C251.379 12.0837 251.631 11.2116 252.135 10.4341C252.64 9.65659 253.333 9.05769 254.216 8.63741C255.119 8.19611 256.138 7.97547 257.273 7.97547ZM243.94 8.3222H247.785V29H243.908L231.174 13.8384V29H227.328V8.3222H231.205L243.94 23.4523V8.3222ZM259.953 13.0188C259.953 12.3464 259.7 11.8105 259.196 11.4113C258.692 10.991 258.04 10.7808 257.242 10.7808C256.422 10.7808 255.76 10.991 255.256 11.4113C254.773 11.8105 254.531 12.3464 254.531 13.0188V13.4286C254.531 14.08 254.783 14.6159 255.287 15.0362C255.792 15.4354 256.443 15.6351 257.242 15.6351C258.04 15.6351 258.692 15.4354 259.196 15.0362C259.7 14.6159 259.953 14.0695 259.953 13.3971V13.0188ZM252.009 21.6241H262.411V24.7762H252.009V21.6241ZM286.832 18.2828C289.122 19.2285 290.267 20.7205 290.267 22.7588V23.1371C290.267 27.2979 286.569 29.3783 279.172 29.3783C271.775 29.3783 268.077 27.2979 268.077 23.1371V22.7588C268.077 20.7205 269.222 19.2285 271.512 18.2828C269.852 17.3582 269.022 16.0659 269.022 14.4058V14.0275C269.022 12.8297 269.442 11.7685 270.283 10.8439C271.124 9.91927 272.311 9.20479 273.845 8.70045C275.379 8.19611 277.155 7.94395 279.172 7.94395C281.189 7.94395 282.965 8.19611 284.499 8.70045C286.033 9.20479 287.22 9.91927 288.061 10.8439C288.901 11.7685 289.322 12.8297 289.322 14.0275V14.4058C289.322 16.0659 288.492 17.3582 286.832 18.2828ZM272.931 14.2482C272.931 15.1938 273.414 15.8767 274.381 16.297C275.347 16.6963 276.944 16.8959 279.172 16.8959C281.399 16.8959 282.997 16.6963 283.963 16.297C284.93 15.8767 285.413 15.1938 285.413 14.2482V14.0275C285.413 13.1449 284.909 12.504 283.9 12.1047C282.891 11.6844 281.315 11.4743 279.172 11.4743C277.029 11.4743 275.452 11.6844 274.444 12.1047C273.435 12.504 272.931 13.1449 272.931 14.0275V14.2482ZM286.359 23.0425C286.359 22.3911 286.117 21.8762 285.634 21.498C285.171 21.1197 284.425 20.8466 283.396 20.6784C282.366 20.5103 280.958 20.4263 279.172 20.4263C277.386 20.4263 275.978 20.5103 274.948 20.6784C273.918 20.8466 273.162 21.1197 272.679 21.498C272.216 21.8762 271.985 22.3911 271.985 23.0425V23.2632C271.985 24.1668 272.542 24.8287 273.656 25.249C274.791 25.6483 276.629 25.8479 279.172 25.8479C281.715 25.8479 283.543 25.6483 284.657 25.249C285.791 24.8287 286.359 24.1668 286.359 23.2632V23.0425ZM305.509 29.3783C303.345 29.3783 301.432 28.9895 299.772 28.212C298.112 27.4345 296.82 26.3522 295.895 24.9653C294.991 23.5574 294.54 21.9393 294.54 20.1111V17.2427C294.54 15.4144 294.991 13.7964 295.895 12.3884C296.82 10.9805 298.112 9.88774 299.772 9.11022C301.432 8.33271 303.345 7.94395 305.509 7.94395C307.652 7.94395 309.544 8.33271 311.183 9.11022C312.843 9.88774 314.125 10.9805 315.028 12.3884C315.932 13.7964 316.384 15.4144 316.384 17.2427V20.1111C316.384 21.9603 315.932 23.5889 315.028 24.9968C314.125 26.3838 312.853 27.466 311.214 28.2435C309.575 29 307.673 29.3783 305.509 29.3783ZM305.509 25.7218C307.715 25.7218 309.428 25.2385 310.647 24.2718C311.866 23.3052 312.475 21.9393 312.475 20.1741V17.2111C312.475 15.467 311.855 14.1011 310.615 13.1134C309.376 12.1047 307.663 11.6004 305.477 11.6004C303.271 11.6004 301.548 12.0942 300.308 13.0819C299.068 14.0695 298.448 15.446 298.448 17.2111V20.1741C298.448 21.9183 299.068 23.2842 300.308 24.2718C301.548 25.2385 303.282 25.7218 305.509 25.7218ZM354.549 25.6588V33.0347H350.766V29H335.352V33.0347H331.57L331.538 25.6588H334.028C334.995 24.1247 335.489 22.2125 335.51 19.9219L335.604 13.3025H351.491V25.6588H354.549ZM347.709 25.6588V16.6438H339.072L339.009 19.9535C338.967 21.1933 338.841 22.2755 338.63 23.2001C338.441 24.1037 338.147 24.9233 337.748 25.6588H347.709ZM365.239 29.3783C363.306 29.3783 361.625 29.063 360.196 28.4326C358.767 27.7812 357.664 26.8566 356.886 25.6588C356.13 24.461 355.752 23.053 355.752 21.435V20.9621C355.752 19.323 356.13 17.9046 356.886 16.7068C357.643 15.488 358.736 14.5529 360.165 13.9014C361.593 13.25 363.285 12.9243 365.239 12.9243C367.173 12.9243 368.843 13.25 370.251 13.9014C371.659 14.5529 372.741 15.488 373.498 16.7068C374.254 17.9046 374.633 19.323 374.633 20.9621V21.435C374.633 23.053 374.254 24.461 373.498 25.6588C372.741 26.8566 371.659 27.7812 370.251 28.4326C368.843 29.063 367.173 29.3783 365.239 29.3783ZM365.208 25.9109C366.931 25.9109 368.276 25.5222 369.243 24.7447C370.23 23.9461 370.724 22.8429 370.724 21.435V20.9621C370.724 19.5122 370.241 18.3879 369.274 17.5894C368.307 16.7909 366.952 16.3916 365.208 16.3916C363.422 16.3916 362.045 16.7909 361.079 17.5894C360.133 18.3669 359.66 19.4912 359.66 20.9621V21.435C359.66 22.8429 360.144 23.9461 361.11 24.7447C362.098 25.5222 363.464 25.9109 365.208 25.9109ZM10.8432 66.3783C8.90995 66.3783 7.22882 66.063 5.79987 65.4326C4.37092 64.7812 3.26768 63.8566 2.49016 62.6588C1.73366 61.461 1.3554 60.053 1.3554 58.435V57.9621C1.3554 56.323 1.73366 54.9046 2.49016 53.7068C3.24667 52.488 4.3394 51.5529 5.76835 50.9014C7.1973 50.25 8.88893 49.9243 10.8432 49.9243C12.7765 49.9243 14.4471 50.25 15.8551 50.9014C17.263 51.5529 18.3452 52.488 19.1017 53.7068C19.8583 54.9046 20.2365 56.323 20.2365 57.9621V58.435C20.2365 60.053 19.8583 61.461 19.1017 62.6588C18.3452 63.8566 17.263 64.7812 15.8551 65.4326C14.4471 66.063 12.7765 66.3783 10.8432 66.3783ZM10.8117 62.9109C12.5349 62.9109 13.8798 62.5222 14.8464 61.7447C15.8341 60.9461 16.3279 59.8429 16.3279 58.435V57.9621C16.3279 56.5122 15.8446 55.3879 14.8779 54.5894C13.9113 53.7909 12.5559 53.3916 10.8117 53.3916C9.02552 53.3916 7.64911 53.7909 6.68246 54.5894C5.73683 55.3669 5.26401 56.4912 5.26401 57.9621V58.435C5.26401 59.8429 5.74734 60.9461 6.71398 61.7447C7.70164 62.5222 9.06755 62.9109 10.8117 62.9109ZM32.327 66.3783C30.4148 66.3783 28.7547 66.063 27.3467 65.4326C25.9388 64.7812 24.846 63.8566 24.0685 62.6588C23.312 61.461 22.9338 60.0635 22.9338 58.4665V57.9621C22.9338 56.323 23.312 54.9046 24.0685 53.7068C24.825 52.488 25.9073 51.5529 27.3152 50.9014C28.7441 50.25 30.4148 49.9243 32.327 49.9243C34.0712 49.9243 35.6367 50.2185 37.0237 50.8069C38.4106 51.3953 39.4928 52.2148 40.2703 53.2655C41.0479 54.3162 41.4366 55.5035 41.4366 56.8274V56.9219H37.528V56.8274C37.528 55.8187 37.0447 54.9992 36.078 54.3687C35.1114 53.7173 33.8611 53.3916 32.327 53.3916C30.5829 53.3916 29.2275 53.7909 28.2608 54.5894C27.3152 55.3879 26.8424 56.5227 26.8424 57.9937V58.435C26.8424 59.8639 27.3152 60.9671 28.2608 61.7447C29.2275 62.5222 30.5829 62.9109 32.327 62.9109C33.8611 62.9109 35.1114 62.5957 36.078 61.9653C37.0447 61.3349 37.528 60.5153 37.528 59.5067V59.4121H41.4366V59.5067C41.4366 60.8516 41.0584 62.0494 40.3019 63.1001C39.5454 64.1298 38.4736 64.9388 37.0867 65.5272C35.7208 66.0946 34.1342 66.3783 32.327 66.3783ZM42.5199 53.7068V50.3025H60.8021V53.7068H53.6153V66H49.8013V53.7068H42.5199ZM83.021 62.6588V66H80.72C79.7113 66 78.8497 65.8319 78.1352 65.4957C77.4418 65.1384 76.9269 64.6236 76.5907 63.9511C75.7712 64.7917 74.8045 65.4116 73.6908 65.8109C72.577 66.1891 71.2636 66.3783 69.7506 66.3783C67.4601 66.3783 65.6844 65.9685 64.4236 65.1489C63.1627 64.3084 62.5323 63.1316 62.5323 61.6186C62.5323 60.3577 63.0051 59.3386 63.9508 58.561C64.9174 57.7625 66.2833 57.2687 68.0485 57.0795L76.1179 56.197C75.8657 54.4108 74.2581 53.5177 71.2952 53.5177C69.7611 53.5177 68.5633 53.7383 67.7018 54.1796C66.8402 54.6209 66.4094 55.2303 66.4094 56.0078V56.1024H62.6269V56.0078C62.6269 54.81 62.9841 53.7488 63.6986 52.8242C64.4131 51.8996 65.4217 51.1851 66.7246 50.6808C68.0485 50.1764 69.5825 49.9243 71.3267 49.9243C74.0375 49.9243 76.1494 50.5337 77.6624 51.7525C79.1754 52.9503 79.9319 54.6314 79.9319 56.7959V61.1458C79.9319 61.6291 80.079 62.0073 80.3732 62.2805C80.6674 62.5327 81.0877 62.6588 81.6341 62.6588H83.021ZM69.6561 63.037C71.2531 63.037 72.6085 62.7954 73.7223 62.312C74.857 61.8287 75.6661 61.1458 76.1494 60.2632V59.286L68.868 60.074C67.1659 60.2632 66.3148 60.778 66.3148 61.6186C66.3148 62.5642 67.4286 63.037 69.6561 63.037ZM89.4771 50.3025V56.4491H99.5639V50.3025H103.346V66H99.5639V59.7904H89.4771V66H85.6946V50.3025H89.4771ZM116.673 66.3783C114.739 66.3783 113.058 66.063 111.629 65.4326C110.2 64.7812 109.097 63.8566 108.32 62.6588C107.563 61.461 107.185 60.053 107.185 58.435V57.9621C107.185 56.323 107.563 54.9046 108.32 53.7068C109.076 52.488 110.169 51.5529 111.598 50.9014C113.027 50.25 114.718 49.9243 116.673 49.9243C118.606 49.9243 120.277 50.25 121.684 50.9014C123.092 51.5529 124.175 52.488 124.931 53.7068C125.688 54.9046 126.066 56.323 126.066 57.9621V58.435C126.066 60.053 125.688 61.461 124.931 62.6588C124.175 63.8566 123.092 64.7812 121.684 65.4326C120.277 66.063 118.606 66.3783 116.673 66.3783ZM116.641 62.9109C118.364 62.9109 119.709 62.5222 120.676 61.7447C121.663 60.9461 122.157 59.8429 122.157 58.435V57.9621C122.157 56.5122 121.674 55.3879 120.707 54.5894C119.741 53.7909 118.385 53.3916 116.641 53.3916C114.855 53.3916 113.479 53.7909 112.512 54.5894C111.566 55.3669 111.093 56.4912 111.093 57.9621V58.435C111.093 59.8429 111.577 60.9461 112.543 61.7447C113.531 62.5222 114.897 62.9109 116.641 62.9109ZM145.753 58.0252C147.371 58.6766 148.18 59.7378 148.18 61.2088V61.524C148.18 62.953 147.634 64.0562 146.541 64.8337C145.448 65.6112 143.883 66 141.844 66H129.898V50.3025H141.403C143.441 50.3025 145.007 50.6808 146.1 51.4373C147.214 52.1938 147.77 53.276 147.77 54.6839V54.9992C147.77 55.6506 147.592 56.239 147.235 56.7643C146.898 57.2687 146.404 57.689 145.753 58.0252ZM133.68 53.234V56.6067H141.277C142.118 56.6067 142.759 56.4701 143.2 56.197C143.641 55.9238 143.862 55.535 143.862 55.0307V54.7155C143.862 53.7278 143 53.234 141.277 53.234H133.68ZM144.272 61.1458C144.272 60.6414 144.051 60.2632 143.61 60.011C143.168 59.7378 142.538 59.6012 141.718 59.6012H133.68V63.0685H141.718C142.559 63.0685 143.189 62.932 143.61 62.6588C144.051 62.3856 144.272 61.9863 144.272 61.461V61.1458ZM170.622 65.4641V66H166.304L160.157 59.6958H156.059V66H152.277V50.3025H156.059V56.4176H160.062L165.862 50.3025H170.244V50.8384L163.53 57.9937L170.622 65.4641ZM177.573 50.3025V61.3664L187.943 50.3025H191.411V66H187.754V54.9361L177.384 66H173.917V50.3025H177.573ZM228.898 62.6588V66H226.597C225.588 66 224.727 65.8319 224.012 65.4957C223.319 65.1384 222.804 64.6236 222.468 63.9511C221.648 64.7917 220.682 65.4116 219.568 65.8109C218.454 66.1891 217.141 66.3783 215.628 66.3783C213.337 66.3783 211.562 65.9685 210.301 65.1489C209.04 64.3084 208.409 63.1316 208.409 61.6186C208.409 60.3577 208.882 59.3386 209.828 58.561C210.795 57.7625 212.16 57.2687 213.926 57.0795L221.995 56.197C221.743 54.4108 220.135 53.5177 217.172 53.5177C215.638 53.5177 214.44 53.7383 213.579 54.1796C212.717 54.6209 212.287 55.2303 212.287 56.0078V56.1024H208.504V56.0078C208.504 54.81 208.861 53.7488 209.576 52.8242C210.29 51.8996 211.299 51.1851 212.602 50.6808C213.926 50.1764 215.46 49.9243 217.204 49.9243C219.915 49.9243 222.027 50.5337 223.54 51.7525C225.053 52.9503 225.809 54.6314 225.809 56.7959V61.1458C225.809 61.6291 225.956 62.0073 226.25 62.2805C226.545 62.5327 226.965 62.6588 227.511 62.6588H228.898ZM215.533 63.037C217.13 63.037 218.486 62.7954 219.599 62.312C220.734 61.8287 221.543 61.1458 222.027 60.2632V59.286L214.745 60.074C213.043 60.2632 212.192 60.778 212.192 61.6186C212.192 62.5642 213.306 63.037 215.533 63.037ZM239.452 49.9243C241.364 49.9243 243.024 50.25 244.432 50.9014C245.84 51.5318 246.922 52.446 247.679 53.6438C248.457 54.8416 248.845 56.239 248.845 57.8361V58.4665C248.845 60.0635 248.457 61.461 247.679 62.6588C246.922 63.8566 245.84 64.7812 244.432 65.4326C243.024 66.063 241.364 66.3783 239.452 66.3783C237.645 66.3783 236.048 66.0946 234.661 65.5272C233.295 64.9598 232.234 64.1613 231.477 63.1316C230.721 62.1019 230.342 60.9146 230.342 59.5697V59.4751H234.251V59.5697C234.251 60.5574 234.724 61.3664 235.669 61.9968C236.615 62.6062 237.876 62.9109 239.452 62.9109C240.881 62.9109 242.047 62.6483 242.951 62.1229C243.854 61.5765 244.453 60.8095 244.748 59.8219H237.246V56.4806H244.748C244.453 55.493 243.854 54.7365 242.951 54.2111C242.047 53.6648 240.881 53.3916 239.452 53.3916C237.918 53.3916 236.668 53.7068 235.701 54.3372C234.734 54.9676 234.251 55.7767 234.251 56.7643V56.8589H230.342V56.7643C230.342 55.4405 230.731 54.2637 231.509 53.234C232.286 52.1833 233.368 51.3742 234.755 50.8069C236.142 50.2185 237.708 49.9243 239.452 49.9243ZM261.829 49.9243C263.721 49.9243 265.37 50.25 266.778 50.9014C268.207 51.5529 269.3 52.488 270.056 53.7068C270.834 54.9046 271.223 56.3125 271.223 57.9306V58.3404C271.223 59.9585 270.834 61.3769 270.056 62.5957C269.3 63.7935 268.207 64.7287 266.778 65.4011C265.37 66.0525 263.721 66.3783 261.829 66.3783C259.728 66.3783 257.942 65.8214 256.471 64.7076V71.3586H252.688V50.3025H256.219L256.313 51.7525C257.868 50.5337 259.707 49.9243 261.829 49.9243ZM267.314 57.9306C267.314 56.5227 266.82 55.4194 265.833 54.6209C264.845 53.8014 263.49 53.3916 261.766 53.3916C260.632 53.3916 259.591 53.5807 258.646 53.959C257.721 54.3372 256.996 54.8521 256.471 55.5035V60.736C256.996 61.4084 257.732 61.9443 258.677 62.3436C259.623 62.7218 260.653 62.9109 261.766 62.9109C263.511 62.9109 264.866 62.5117 265.833 61.7131C266.82 60.8936 267.314 59.7693 267.314 58.3404V57.9306ZM283.42 66.3783C281.487 66.3783 279.806 66.063 278.377 65.4326C276.948 64.7812 275.845 63.8566 275.067 62.6588C274.311 61.461 273.932 60.053 273.932 58.435V57.9621C273.932 56.323 274.311 54.9046 275.067 53.7068C275.824 52.488 276.916 51.5529 278.345 50.9014C279.774 50.25 281.466 49.9243 283.42 49.9243C285.353 49.9243 287.024 50.25 288.432 50.9014C289.84 51.5529 290.922 52.488 291.679 53.7068C292.435 54.9046 292.813 56.323 292.813 57.9621V58.435C292.813 60.053 292.435 61.461 291.679 62.6588C290.922 63.8566 289.84 64.7812 288.432 65.4326C287.024 66.063 285.353 66.3783 283.42 66.3783ZM283.389 62.9109C285.112 62.9109 286.457 62.5222 287.423 61.7447C288.411 60.9461 288.905 59.8429 288.905 58.435V57.9621C288.905 56.5122 288.422 55.3879 287.455 54.5894C286.488 53.7909 285.133 53.3916 283.389 53.3916C281.602 53.3916 280.226 53.7909 279.259 54.5894C278.314 55.3669 277.841 56.4912 277.841 57.9621V58.435C277.841 59.8429 278.324 60.9461 279.291 61.7447C280.279 62.5222 281.644 62.9109 283.389 62.9109ZM316.81 62.6588V70.0347H313.027V66H297.613V70.0347H293.831L293.799 62.6588H296.289C297.256 61.1247 297.75 59.2125 297.771 56.9219L297.865 50.3025H313.752V62.6588H316.81ZM309.969 62.6588V53.6438H301.333L301.27 56.9535C301.228 58.1933 301.102 59.2755 300.891 60.2001C300.702 61.1037 300.408 61.9233 300.009 62.6588H309.969ZM328.873 49.9243C330.765 49.9243 332.414 50.25 333.822 50.9014C335.251 51.5529 336.344 52.488 337.1 53.7068C337.878 54.9046 338.267 56.3125 338.267 57.9306V58.3404C338.267 59.9585 337.878 61.3769 337.1 62.5957C336.344 63.7935 335.251 64.7287 333.822 65.4011C332.414 66.0525 330.765 66.3783 328.873 66.3783C326.772 66.3783 324.986 65.8214 323.515 64.7076V71.3586H319.732V50.3025H323.263L323.357 51.7525C324.912 50.5337 326.751 49.9243 328.873 49.9243ZM334.358 57.9306C334.358 56.5227 333.864 55.4194 332.876 54.6209C331.889 53.8014 330.533 53.3916 328.81 53.3916C327.675 53.3916 326.635 53.5807 325.69 53.959C324.765 54.3372 324.04 54.8521 323.515 55.5035V60.736C324.04 61.4084 324.776 61.9443 325.721 62.3436C326.667 62.7218 327.696 62.9109 328.81 62.9109C330.554 62.9109 331.91 62.5117 332.876 61.7131C333.864 60.8936 334.358 59.7693 334.358 58.3404V57.9306ZM350.464 66.3783C348.531 66.3783 346.85 66.063 345.421 65.4326C343.992 64.7812 342.888 63.8566 342.111 62.6588C341.354 61.461 340.976 60.053 340.976 58.435V57.9621C340.976 56.323 341.354 54.9046 342.111 53.7068C342.867 52.488 343.96 51.5529 345.389 50.9014C346.818 50.25 348.51 49.9243 350.464 49.9243C352.397 49.9243 354.068 50.25 355.476 50.9014C356.884 51.5529 357.966 52.488 358.722 53.7068C359.479 54.9046 359.857 56.323 359.857 57.9621V58.435C359.857 60.053 359.479 61.461 358.722 62.6588C357.966 63.8566 356.884 64.7812 355.476 65.4326C354.068 66.063 352.397 66.3783 350.464 66.3783ZM350.432 62.9109C352.156 62.9109 353.5 62.5222 354.467 61.7447C355.455 60.9461 355.949 59.8429 355.949 58.435V57.9621C355.949 56.5122 355.465 55.3879 354.499 54.5894C353.532 53.7909 352.177 53.3916 350.432 53.3916C348.646 53.3916 347.27 53.7909 346.303 54.5894C345.358 55.3669 344.885 56.4912 344.885 57.9621V58.435C344.885 59.8429 345.368 60.9461 346.335 61.7447C347.322 62.5222 348.688 62.9109 350.432 62.9109ZM387.488 50.3025V66H383.831V54.2742L383.012 55.7557L377.275 66H373.902L368.165 55.7557L367.346 54.2742V66H363.689V50.3025H369.079L375.604 61.9023L382.098 50.3025H387.488Z" fill="white"></path><path d="M235.756 103H231.847V87.5232L224.251 103H220.184L212.588 87.4601V103H208.679V82.3222H214.227L222.233 98.5555L230.208 82.3222H235.756V103ZM258.492 102.968H254.709V98.2403H250.832L245.222 103H240.304V102.527L245.474 98.1773C243.793 97.9882 242.49 97.4523 241.565 96.5697C240.661 95.6661 240.21 94.4893 240.21 93.0394V92.6611C240.21 90.98 240.788 89.6666 241.943 88.721C243.12 87.7753 244.738 87.3025 246.798 87.3025H258.492V102.968ZM254.709 95.0252V90.6122H247.081C245.106 90.6122 244.118 91.2952 244.118 92.6611V93.0394C244.118 94.3632 245.106 95.0252 247.081 95.0252H254.709ZM278.903 87.3025V103H275.121V97.8936C272.935 98.1878 270.96 98.3349 269.195 98.3349C264.109 98.3349 261.567 96.265 261.567 92.1252V87.3025H265.349V91.747C265.349 92.8397 265.696 93.6488 266.389 94.1741C267.083 94.6995 268.144 94.9621 269.573 94.9621C271.17 94.9621 273.019 94.8255 275.121 94.5524V87.3025H278.903ZM302.221 102.464V103H297.903L291.756 96.6958H287.658V103H283.876V87.3025H287.658V93.4176H291.662L297.461 87.3025H301.843V87.8384L295.129 94.9937L302.221 102.464ZM312.638 103.378C310.704 103.378 309.023 103.063 307.594 102.433C306.165 101.781 305.062 100.857 304.285 99.6588C303.528 98.461 303.15 97.053 303.15 95.435V94.9621C303.15 93.323 303.528 91.9046 304.285 90.7068C305.041 89.488 306.134 88.5529 307.563 87.9014C308.992 87.25 310.683 86.9243 312.638 86.9243C314.571 86.9243 316.242 87.25 317.649 87.9014C319.057 88.5529 320.14 89.488 320.896 90.7068C321.653 91.9046 322.031 93.323 322.031 94.9621V95.435C322.031 97.053 321.653 98.461 320.896 99.6588C320.14 100.857 319.057 101.781 317.649 102.433C316.242 103.063 314.571 103.378 312.638 103.378ZM312.606 99.9109C314.329 99.9109 315.674 99.5222 316.641 98.7447C317.628 97.9461 318.122 96.8429 318.122 95.435V94.9621C318.122 93.5122 317.639 92.3879 316.672 91.5894C315.706 90.7909 314.35 90.3916 312.606 90.3916C310.82 90.3916 309.444 90.7909 308.477 91.5894C307.531 92.3669 307.058 93.4912 307.058 94.9621V95.435C307.058 96.8429 307.542 97.9461 308.508 98.7447C309.496 99.5222 310.862 99.9109 312.606 99.9109ZM341.718 95.0252C343.336 95.6766 344.145 96.7378 344.145 98.2088V98.524C344.145 99.953 343.599 101.056 342.506 101.834C341.413 102.611 339.848 103 337.809 103H325.863V87.3025H337.368C339.406 87.3025 340.972 87.6808 342.065 88.4373C343.178 89.1938 343.735 90.276 343.735 91.6839V91.9992C343.735 92.6506 343.557 93.239 343.199 93.7643C342.863 94.2687 342.369 94.689 341.718 95.0252ZM329.645 90.234V93.6067H337.242C338.083 93.6067 338.724 93.4701 339.165 93.197C339.606 92.9238 339.827 92.535 339.827 92.0307V91.7155C339.827 90.7278 338.965 90.234 337.242 90.234H329.645ZM340.237 98.1458C340.237 97.6414 340.016 97.2632 339.575 97.011C339.133 96.7378 338.503 96.6012 337.683 96.6012H329.645V100.069H337.683C338.524 100.069 339.154 99.932 339.575 99.6588C340.016 99.3856 340.237 98.9863 340.237 98.461V98.1458ZM356.595 103.378C354.661 103.378 352.98 103.063 351.551 102.433C350.122 101.781 349.019 100.857 348.242 99.6588C347.485 98.461 347.107 97.053 347.107 95.435V94.9621C347.107 93.323 347.485 91.9046 348.242 90.7068C348.998 89.488 350.091 88.5529 351.52 87.9014C352.949 87.25 354.64 86.9243 356.595 86.9243C358.528 86.9243 360.199 87.25 361.607 87.9014C363.014 88.5529 364.097 89.488 364.853 90.7068C365.61 91.9046 365.988 93.323 365.988 94.9621V95.435C365.988 97.053 365.61 98.461 364.853 99.6588C364.097 100.857 363.014 101.781 361.607 102.433C360.199 103.063 358.528 103.378 356.595 103.378ZM356.563 99.9109C358.286 99.9109 359.631 99.5222 360.598 98.7447C361.586 97.9461 362.079 96.8429 362.079 95.435V94.9621C362.079 93.5122 361.596 92.3879 360.629 91.5894C359.663 90.7909 358.307 90.3916 356.563 90.3916C354.777 90.3916 353.401 90.7909 352.434 91.5894C351.488 92.3669 351.015 93.4912 351.015 94.9621V95.435C351.015 96.8429 351.499 97.9461 352.465 98.7447C353.453 99.5222 354.819 99.9109 356.563 99.9109Z" fill="#C8ED01"></path><mask id="mask0_1207_48" style="mask-type:alpha" maskUnits="userSpaceOnUse" x="401" y="29" width="50" height="67"><rect x="401" y="29" width="50" height="67" fill="#D9D9D9"></rect></mask><g mask="url(#mask0_1207_48)"><path fill-rule="evenodd" clip-rule="evenodd" d="M442.134 47.7686L450.983 56.6178C451.526 57.1608 451.526 58.0412 450.983 58.5842L442.134 67.4334C441.591 67.9764 440.711 67.9764 440.167 67.4334C439.624 66.8904 439.624 66.0099 440.167 65.4669L446.643 58.9915L388.609 58.9915L388.609 56.2105L446.643 56.2105L440.167 49.7351C439.624 49.192 439.624 48.3116 440.167 47.7686C440.711 47.2256 441.591 47.2256 442.134 47.7686Z" fill="#C8ED01"></path></g></svg> 