<?xml version="1.0" encoding="UTF-8"?> <svg xmlns="http://www.w3.org/2000/svg" width="497" height="102" viewBox="0 0 497 102" fill="none"><rect x="2.63592" y="2.63592" width="491.728" height="96.1392" rx="26.0049" stroke="white" stroke-width="4.72816"></rect><path d="M236.638 58.6809V59.2168H232.32L226.173 52.9126H222.075V59.2168H218.293V43.5193H222.075V49.6344H226.078L231.878 43.5193H236.26V44.0552L229.546 51.2105L236.638 58.6809ZM258.53 43.5193V44.0552L249.956 60.7298C249.242 62.1167 248.391 63.1044 247.403 63.6928C246.416 64.2812 245.113 64.5754 243.495 64.5754H239.933V61.2341H243.463C244.262 61.2341 244.85 61.1186 245.228 60.8874C245.607 60.6563 245.964 60.1939 246.3 59.5005L238.325 44.0552V43.5193H242.36L248.443 55.6864L254.495 43.5193H258.53ZM279.248 43.5193V59.2168H275.465V46.8606H265.694V59.2168H261.911V43.5193H279.248ZM287.885 43.5193V54.5832L298.255 43.5193H301.723V59.2168H298.066V48.1529L287.696 59.2168H284.228V43.5193H287.885ZM303.696 46.9236V43.5193H321.978V46.9236H314.791V59.2168H310.977V46.9236H303.696ZM336.586 47.8062C338.645 47.8062 340.253 48.3 341.409 49.2877C342.586 50.2543 343.174 51.6097 343.174 53.3539V53.7321C343.174 55.4133 342.586 56.7476 341.409 57.7353C340.232 58.702 338.624 59.1853 336.586 59.1853H324.892V43.5193H328.674V47.8062H336.586ZM339.265 53.3539C339.265 51.8829 338.278 51.1474 336.302 51.1474H328.674V55.844H336.302C338.278 55.844 339.265 55.1401 339.265 53.7321V53.3539ZM369.447 44.4334C371.17 44.4334 372.683 44.7381 373.986 45.3475C375.288 45.9359 376.287 46.7765 376.98 47.8692C377.695 48.962 378.052 50.2333 378.052 51.6833V52.4713C378.052 53.8792 377.663 55.1296 376.885 56.2223C376.108 57.294 375.015 58.1241 373.607 58.7125C372.199 59.3009 370.56 59.595 368.69 59.595C365.601 59.595 363.216 58.786 361.535 57.1679C359.875 55.5498 359.045 53.2488 359.045 50.2648V48.0268C359.045 42.1639 362.123 39.0013 368.28 38.539L372.031 38.2553C372.683 38.1923 373.008 37.9611 373.008 37.5618V37.2782H377.075V37.6879C377.075 40.1045 375.719 41.4284 373.008 41.6596L368.343 42.0378C366.41 42.2059 364.981 42.6577 364.056 43.3932C363.132 44.1287 362.669 45.1794 362.669 46.5453V46.5769C363.531 45.8834 364.54 45.358 365.695 45.0008C366.851 44.6226 368.102 44.4334 369.447 44.4334ZM374.143 51.7463C374.143 50.5065 373.66 49.5503 372.693 48.8779C371.727 48.2054 370.371 47.8692 368.627 47.8692C366.168 47.8692 364.246 48.5942 362.859 50.0442V51.242C362.859 52.8601 363.342 54.0894 364.309 54.9299C365.275 55.7495 366.704 56.1593 368.595 56.1593C370.34 56.1593 371.695 55.8335 372.662 55.1821C373.649 54.5097 374.143 53.5955 374.143 52.4398V51.7463ZM385.557 43.5193V54.5832L395.927 43.5193H399.395V59.2168H395.738V48.1529L385.368 59.2168H381.901V43.5193H385.557ZM421.834 59.2168H418.052V46.8606H409.604L409.478 51.7463C409.415 54.247 408.9 56.1172 407.933 57.3571C406.988 58.5969 405.58 59.2168 403.71 59.2168H402.071V55.844H402.859C403.867 55.844 404.603 55.5078 405.065 54.8354C405.548 54.1629 405.801 53.0597 405.822 51.5257L406.011 43.5193H421.834V59.2168ZM444.117 52.6289H429.649C429.796 53.7426 430.332 54.6042 431.256 55.2136C432.202 55.823 433.452 56.1277 435.007 56.1277C436.457 56.1277 437.634 55.9176 438.538 55.4973C439.441 55.077 439.946 54.5097 440.051 53.7952H444.117C443.907 55.6444 443.003 57.0734 441.406 58.082C439.83 59.0907 437.697 59.595 435.007 59.595C433.095 59.595 431.435 59.2798 430.027 58.6494C428.64 57.998 427.568 57.0839 426.812 55.9071C426.055 54.7093 425.677 53.3119 425.677 51.7148V51.0844C425.677 49.4663 426.055 48.0583 426.812 46.8606C427.568 45.6628 428.651 44.7486 430.058 44.1182C431.466 43.4668 433.116 43.1411 435.007 43.1411C437.865 43.1411 440.093 43.8345 441.69 45.2215C443.308 46.6084 444.117 48.5207 444.117 50.9583V52.6289ZM434.976 46.6084C433.589 46.6084 432.444 46.8606 431.54 47.3649C430.636 47.8692 430.048 48.5732 429.775 49.4768H440.019C439.767 48.5732 439.2 47.8692 438.317 47.3649C437.434 46.8606 436.321 46.6084 434.976 46.6084ZM445.294 46.9236V43.5193H463.576V46.9236H456.389V59.2168H452.575V46.9236H445.294Z" fill="white"></path><path d="M33 49.6095H31.6095V52.3905H33V49.6095ZM195.983 51.9832C196.526 51.4402 196.526 50.5598 195.983 50.0168L187.134 41.1676C186.591 40.6246 185.711 40.6246 185.168 41.1676C184.625 41.7106 184.625 42.5911 185.168 43.1341L193.034 51L185.168 58.8659C184.625 59.4089 184.625 60.2894 185.168 60.8324C185.711 61.3754 186.591 61.3754 187.134 60.8324L195.983 51.9832ZM33 52.3905L195 52.3905V49.6095L33 49.6095V52.3905Z" fill="white"></path></svg> 