<?xml version="1.0" encoding="UTF-8"?> <svg xmlns="http://www.w3.org/2000/svg" width="244" height="43" viewBox="0 0 244 43" fill="none"><path opacity="0.7" d="M46.142 32.5482C40.9599 30.1258 3.89913 31.4372 1.15623 30.6325C-1.12151 29.6285 1.94801 13.4278 3.86597 11.0885C4.54892 10.2573 5.36066 10.1496 7.25912 10.603C8.78136 11.0376 19.2041 11.2003 29.2322 11.2815C39.2602 11.3626 48.8559 11.2491 48.8559 11.2491C49.4028 11.7709 50.8393 10.1121 51.1418 10.733C51.4444 11.3538 67.581 11.8022 84.0999 11.9113C100.619 12.0204 117.603 11.9302 120.272 11.9153C123.528 11.9422 121.02 12.8552 124.824 12.5509C132.904 11.9166 150.753 13.0687 156.817 12.2717C160.231 11.6288 164.024 11.6351 167.558 12.2897C172.438 12.954 198.228 12.5872 200.917 11.4855C201.604 11.1737 202.16 11.3004 202.201 11.661L203.001 11.701L211.311 11.9929C214.381 12.0289 217.454 12.1826 220.505 12.4527C220.687 12.8202 221.262 12.9974 221.755 12.75C222.658 12.3996 241.717 11.2018 242.196 12.2641C243.573 15.2997 242.838 28.1189 241.091 31.2456C239.21 34.5633 225.953 30.7111 215.997 32.6114C160.46 32.084 171.703 31.7438 158.291 33.1746C157.014 32.06 152.829 34.6939 149.873 32.7537C148.665 31.9516 140.516 31.7048 138.8 32.4596C137.085 33.2144 95.6558 30.5493 91.5685 32.57C83.8724 30.5658 53.2902 32.3371 46.142 32.5482Z" fill="#C8ED01"></path><path opacity="0.7" d="M46.142 32.5482C40.9599 30.1258 3.89913 31.4372 1.15623 30.6325C-1.12151 29.6285 1.94801 13.4278 3.86597 11.0885C4.54892 10.2573 5.36066 10.1496 7.25912 10.603C8.78136 11.0376 19.2041 11.2003 29.2322 11.2815C39.2602 11.3626 48.8559 11.2491 48.8559 11.2491C49.4028 11.7709 50.8393 10.1121 51.1418 10.733C51.4444 11.3538 67.581 11.8022 84.0999 11.9113C100.619 12.0204 117.603 11.9302 120.272 11.9153C123.528 11.9422 121.02 12.8552 124.824 12.5509C132.904 11.9166 150.753 13.0687 156.817 12.2717C160.231 11.6288 164.024 11.6351 167.558 12.2897C172.438 12.954 198.228 12.5872 200.917 11.4855C201.604 11.1737 202.16 11.3004 202.201 11.661L203.001 11.701L211.311 11.9929C214.381 12.0289 217.454 12.1826 220.505 12.4527C220.687 12.8202 221.262 12.9974 221.755 12.75C222.658 12.3996 241.717 11.2018 242.196 12.2641C243.573 15.2997 242.838 28.1189 241.091 31.2456C239.21 34.5633 225.953 30.7111 215.997 32.6114C160.46 32.084 171.703 31.7438 158.291 33.1746C157.014 32.06 152.829 34.6939 149.873 32.7537C148.665 31.9516 140.516 31.7048 138.8 32.4596C137.085 33.2144 95.6558 30.5493 91.5685 32.57C83.8724 30.5658 53.2902 32.3371 46.142 32.5482Z" fill="#C8ED01"></path><path opacity="0.7" d="M46.142 32.5482C40.9599 30.1258 3.89913 31.4372 1.15623 30.6325C-1.12151 29.6285 1.94801 13.4278 3.86597 11.0885C4.54892 10.2573 5.36066 10.1496 7.25912 10.603C8.78136 11.0376 19.2041 11.2003 29.2322 11.2815C39.2602 11.3626 48.8559 11.2491 48.8559 11.2491C49.4028 11.7709 50.8393 10.1121 51.1418 10.733C51.4444 11.3538 67.581 11.8022 84.0999 11.9113C100.619 12.0204 117.603 11.9302 120.272 11.9153C123.528 11.9422 121.02 12.8552 124.824 12.5509C132.904 11.9166 150.753 13.0687 156.817 12.2717C160.231 11.6288 164.024 11.6351 167.558 12.2897C172.438 12.954 198.228 12.5872 200.917 11.4855C201.604 11.1737 202.16 11.3004 202.201 11.661L203.001 11.701L211.311 11.9929C214.381 12.0289 217.454 12.1826 220.505 12.4527C220.687 12.8202 221.262 12.9974 221.755 12.75C222.658 12.3996 241.717 11.2018 242.196 12.2641C243.573 15.2997 242.838 28.1189 241.091 31.2456C239.21 34.5633 225.953 30.7111 215.997 32.6114C160.46 32.084 171.703 31.7438 158.291 33.1746C157.014 32.06 152.829 34.6939 149.873 32.7537C148.665 31.9516 140.516 31.7048 138.8 32.4596C137.085 33.2144 95.6558 30.5493 91.5685 32.57C83.8724 30.5658 53.2902 32.3371 46.142 32.5482Z" fill="#C8ED01"></path><path opacity="0.7" d="M46.142 32.5482C40.9599 30.1258 3.89913 31.4372 1.15623 30.6325C-1.12151 29.6285 1.94801 13.4278 3.86597 11.0885C4.54892 10.2573 5.36066 10.1496 7.25912 10.603C8.78136 11.0376 19.2041 11.2003 29.2322 11.2815C39.2602 11.3626 48.8559 11.2491 48.8559 11.2491C49.4028 11.7709 50.8393 10.1121 51.1418 10.733C51.4444 11.3538 67.581 11.8022 84.0999 11.9113C100.619 12.0204 117.603 11.9302 120.272 11.9153C123.528 11.9422 121.02 12.8552 124.824 12.5509C132.904 11.9166 150.753 13.0687 156.817 12.2717C160.231 11.6288 164.024 11.6351 167.558 12.2897C172.438 12.954 198.228 12.5872 200.917 11.4855C201.604 11.1737 202.16 11.3004 202.201 11.661L203.001 11.701L211.311 11.9929C214.381 12.0289 217.454 12.1826 220.505 12.4527C220.687 12.8202 221.262 12.9974 221.755 12.75C222.658 12.3996 241.717 11.2018 242.196 12.2641C243.573 15.2997 242.838 28.1189 241.091 31.2456C239.21 34.5633 225.953 30.7111 215.997 32.6114C160.46 32.084 171.703 31.7438 158.291 33.1746C157.014 32.06 152.829 34.6939 149.873 32.7537C148.665 31.9516 140.516 31.7048 138.8 32.4596C137.085 33.2144 95.6558 30.5493 91.5685 32.57C83.8724 30.5658 53.2902 32.3371 46.142 32.5482Z" fill="#C8ED01"></path><path opacity="0.7" d="M46.142 32.5482C40.9599 30.1258 3.89913 31.4372 1.15623 30.6325C-1.12151 29.6285 1.94801 13.4278 3.86597 11.0885C4.54892 10.2573 5.36066 10.1496 7.25912 10.603C8.78136 11.0376 19.2041 11.2003 29.2322 11.2815C39.2602 11.3626 48.8559 11.2491 48.8559 11.2491C49.4028 11.7709 50.8393 10.1121 51.1418 10.733C51.4444 11.3538 67.581 11.8022 84.0999 11.9113C100.619 12.0204 117.603 11.9302 120.272 11.9153C123.528 11.9422 121.02 12.8552 124.824 12.5509C132.904 11.9166 150.753 13.0687 156.817 12.2717C160.231 11.6288 164.024 11.6351 167.558 12.2897C172.438 12.954 198.228 12.5872 200.917 11.4855C201.604 11.1737 202.16 11.3004 202.201 11.661L203.001 11.701L211.311 11.9929C214.381 12.0289 217.454 12.1826 220.505 12.4527C220.687 12.8202 221.262 12.9974 221.755 12.75C222.658 12.3996 241.717 11.2018 242.196 12.2641C243.573 15.2997 242.838 28.1189 241.091 31.2456C239.21 34.5633 225.953 30.7111 215.997 32.6114C160.46 32.084 171.703 31.7438 158.291 33.1746C157.014 32.06 152.829 34.6939 149.873 32.7537C148.665 31.9516 140.516 31.7048 138.8 32.4596C137.085 33.2144 95.6558 30.5493 91.5685 32.57C83.8724 30.5658 53.2902 32.3371 46.142 32.5482Z" fill="#C8ED01"></path><path opacity="0.7" d="M46.142 32.5482C40.9599 30.1258 3.89913 31.4372 1.15623 30.6325C-1.12151 29.6285 1.94801 13.4278 3.86597 11.0885C4.54892 10.2573 5.36066 10.1496 7.25912 10.603C8.78136 11.0376 19.2041 11.2003 29.2322 11.2815C39.2602 11.3626 48.8559 11.2491 48.8559 11.2491C49.4028 11.7709 50.8393 10.1121 51.1418 10.733C51.4444 11.3538 67.581 11.8022 84.0999 11.9113C100.619 12.0204 117.603 11.9302 120.272 11.9153C123.528 11.9422 121.02 12.8552 124.824 12.5509C132.904 11.9166 150.753 13.0687 156.817 12.2717C160.231 11.6288 164.024 11.6351 167.558 12.2897C172.438 12.954 198.228 12.5872 200.917 11.4855C201.604 11.1737 202.16 11.3004 202.201 11.661L203.001 11.701L211.311 11.9929C214.381 12.0289 217.454 12.1826 220.505 12.4527C220.687 12.8202 221.262 12.9974 221.755 12.75C222.658 12.3996 241.717 11.2018 242.196 12.2641C243.573 15.2997 242.838 28.1189 241.091 31.2456C239.21 34.5633 225.953 30.7111 215.997 32.6114C160.46 32.084 171.703 31.7438 158.291 33.1746C157.014 32.06 152.829 34.6939 149.873 32.7537C148.665 31.9516 140.516 31.7048 138.8 32.4596C137.085 33.2144 95.6558 30.5493 91.5685 32.57C83.8724 30.5658 53.2902 32.3371 46.142 32.5482Z" fill="#C8ED01"></path></svg> 