<?xml version="1.0" encoding="UTF-8"?> <svg xmlns="http://www.w3.org/2000/svg" width="1020" height="242" viewBox="0 0 1020 242" fill="none"><path d="M185.415 0.101562V57.092H161.47V0.101562H185.415Z" fill="white"></path><path d="M132.278 57.0898C138.61 57.0898 143.612 56.3449 147.284 54.8549C151.009 53.365 153.669 51.1034 155.266 48.0703C156.862 45.0904 157.66 41.1793 157.66 36.337C157.66 31.6543 156.835 27.8496 155.186 24.923C153.589 21.9963 150.929 19.8146 147.204 18.3778C143.532 16.9411 138.557 16.2227 132.278 16.2227H108.013V0.0993791H84.0674V57.0898H132.278ZM124.934 31.069C127.329 31.069 129.005 31.4681 129.963 32.2663C130.974 33.1177 131.48 34.448 131.48 36.2572C131.48 38.1196 130.974 39.4765 129.963 40.3279C129.005 41.1793 127.329 41.605 124.934 41.605H108.013V31.069H124.934Z" fill="white"></path><path d="M67.9314 26.6013C71.5499 27.2931 74.3701 28.65 76.3922 30.6721C78.4675 32.6941 79.5051 35.8337 79.5051 40.0907C79.5051 44.0284 78.8134 47.2477 77.4298 49.7487C76.0463 52.1965 73.7848 54.0323 70.6452 55.2562C67.5057 56.4801 63.2487 57.092 57.8743 57.092H4.79492V0.101562H56.2779C70.326 0.101562 77.35 5.02371 77.35 14.868C77.35 17.9011 76.5518 20.3223 74.9555 22.1315C73.4123 23.8875 71.071 25.1646 67.9314 25.9628V26.6013ZM46.9391 22.2911C48.7484 22.2911 50.0255 21.9719 50.7704 21.3333C51.5686 20.6948 51.9677 19.7103 51.9677 18.38C51.9677 16.9433 51.5952 15.9056 50.8502 15.2671C50.1053 14.6285 48.8016 14.3093 46.9391 14.3093H28.7405V22.2911H46.9391ZM47.4979 43.2834C49.6264 43.2834 51.1163 42.9375 51.9677 42.2458C52.8723 41.5008 53.3246 40.3301 53.3246 38.7338C53.3246 37.0842 52.8989 35.8869 52.0475 35.1419C51.1961 34.3969 49.6796 34.0245 47.4979 34.0245H28.7405V43.2834H47.4979Z" fill="white"></path><path d="M932.853 106.836H892.225V114.019H930.777V127.189H892.225V135.012H933.331V149.299H868.279V92.3086H932.853V106.836Z" fill="white"></path><path d="M825.344 92.3086H862.699V149.299H838.753V113.381H838.275L825.344 149.299H807.704L794.614 113.141H794.135V149.299H771.626V92.3086H807.624L816.245 120.644H816.723L825.344 92.3086Z" fill="white"></path><path d="M725.267 90.1523C739.422 90.1523 749.931 92.6533 756.796 97.6553C763.66 102.657 767.092 110.373 767.092 120.803C767.092 131.232 763.66 138.948 756.796 143.95C749.931 148.952 739.422 151.453 725.267 151.453C711.113 151.453 700.603 148.952 693.739 143.95C686.875 138.948 683.442 131.232 683.442 120.803C683.442 110.373 686.875 102.657 693.739 97.6553C700.603 92.6533 711.113 90.1523 725.267 90.1523ZM725.267 133.893C735.697 133.893 740.912 129.53 740.912 120.803C740.912 112.076 735.697 107.712 725.267 107.712C714.838 107.712 709.623 112.076 709.623 120.803C709.623 129.53 714.838 133.893 725.267 133.893Z" fill="white"></path><path d="M654.665 92.3086C660.997 92.3086 665.999 93.0536 669.67 94.5435C673.395 96.0335 676.056 98.295 677.652 101.328C679.249 104.308 680.047 108.219 680.047 113.061C680.047 117.744 679.222 121.549 677.572 124.475C675.976 127.402 673.315 129.584 669.591 131.021C665.919 132.457 660.944 133.176 654.665 133.176H630.4V149.299H606.454V92.3086H654.665ZM647.321 118.329C649.716 118.329 651.392 117.93 652.35 117.132C653.361 116.281 653.866 114.95 653.866 113.141C653.866 111.279 653.361 109.922 652.35 109.07C651.392 108.219 649.716 107.793 647.321 107.793H630.4V118.329H647.321Z" fill="white"></path><path d="M468.76 90.1523C482.915 90.1523 493.424 92.6533 500.289 97.6553C507.153 102.657 510.585 110.373 510.585 120.803C510.585 131.232 507.153 138.948 500.289 143.95C493.424 148.952 482.915 151.453 468.76 151.453C454.606 151.453 444.097 148.952 437.232 143.95C430.368 138.948 426.936 131.232 426.936 120.803C426.936 110.373 430.368 102.657 437.232 97.6553C444.097 92.6533 454.606 90.1523 468.76 90.1523ZM468.76 133.893C479.19 133.893 484.405 129.53 484.405 120.803C484.405 112.076 479.19 107.712 468.76 107.712C458.331 107.712 453.116 112.076 453.116 120.803C453.116 129.53 458.331 133.893 468.76 133.893Z" fill="white"></path><path d="M356.616 92.3086H425.101V109.39H402.831V149.299H378.886V109.39H356.616V92.3086Z" fill="white"></path><path d="M343.554 118.808C347.173 119.5 349.993 120.857 352.015 122.879C354.091 124.901 355.128 128.041 355.128 132.298C355.128 136.235 354.436 139.455 353.053 141.956C351.669 144.404 349.408 146.239 346.268 147.463C343.129 148.687 338.872 149.299 333.497 149.299H280.418V92.3086H331.901C345.949 92.3086 352.973 97.2307 352.973 107.075C352.973 110.108 352.175 112.529 350.578 114.339C349.035 116.095 346.694 117.372 343.554 118.17V118.808ZM322.562 114.498C324.371 114.498 325.648 114.179 326.393 113.54C327.192 112.902 327.591 111.917 327.591 110.587C327.591 109.15 327.218 108.113 326.473 107.474C325.728 106.836 324.425 106.516 322.562 106.516H304.364V114.498H322.562ZM323.121 135.49C325.249 135.49 326.739 135.145 327.591 134.453C328.495 133.708 328.948 132.537 328.948 130.941C328.948 129.291 328.522 128.094 327.671 127.349C326.819 126.604 325.303 126.231 323.121 126.231H304.364V135.49H323.121Z" fill="white"></path><path d="M278.764 149.299H253.142L249.87 142.115H221.295L218.022 149.299H192.4L219.858 92.3086H251.306L278.764 149.299ZM235.343 110.827L227.92 127.269H243.245L235.822 110.827H235.343Z" fill="white"></path><path d="M167.064 149.299H141.442L138.17 142.115H109.595L106.322 149.299H80.7002L108.158 92.3086H139.606L167.064 149.299ZM123.643 110.827L116.219 127.269H131.545L124.122 110.827H123.643Z" fill="white"></path><path d="M55.0806 112.183V92.3086H79.0262V149.299H55.0806V128.786H28.7405V149.299H4.79492V92.3086H28.7405V112.183H55.0806Z" fill="white"></path><path d="M569.461 134.016V107.78H545.478V134.016H569.461ZM523.341 134.016V92.3555H591.644V134.016H602.374V156.623H580.193V149.44H535.205V156.623H512.63V134.016H523.341Z" fill="white"></path><path d="M822.827 182.828H850.284L822.029 221.78V239.819H798.083V221.78L769.827 182.828H797.365L810.056 202.863L822.827 182.828Z" fill="white"></path><path d="M784.1 239.819H758.478L755.206 232.635H726.631L723.358 239.819H697.736L725.194 182.828H756.642L784.1 239.819ZM740.679 201.346L733.256 217.789H748.581L741.158 201.346H740.679Z" fill="white"></path><path d="M706.581 182.828L690.777 239.819H662.282L654.38 205.656H653.901L645.999 239.819H617.024L601.699 182.828H625.884L633.148 217.39H633.627L641.609 182.828H666.672L674.733 217.39H675.212L682.555 182.828H706.581Z" fill="white"></path><path d="M600.582 197.355H559.954V204.539H598.507V217.709H559.954V225.531H601.061V239.819H536.009V182.828H600.582V197.355Z" fill="white"></path><path d="M503.657 205.815C503.125 200.76 498.788 198.232 490.647 198.232C485.645 198.232 481.893 199.349 479.392 201.584C476.944 203.819 475.721 207.065 475.721 211.322C475.721 215.579 476.944 218.825 479.392 221.06C481.893 223.295 485.645 224.412 490.647 224.412C495.329 224.412 498.628 223.641 500.544 222.098C502.46 220.501 503.551 218.293 503.817 215.473H531.434C531.221 224.306 527.789 230.931 521.137 235.348C514.486 239.764 504.322 241.973 490.647 241.973C476.811 241.973 466.488 239.472 459.677 234.47C452.919 229.414 449.54 221.699 449.54 211.322C449.54 200.946 452.919 193.257 459.677 188.255C466.488 183.199 476.811 180.672 490.647 180.672C517.306 180.672 530.849 189.053 531.274 205.815H503.657Z" fill="white"></path><path d="M453.679 239.819H428.057L424.785 232.635H396.21L392.937 239.819H367.315L394.773 182.828H426.222L453.679 239.819ZM410.258 201.346L402.835 217.789H418.16L410.737 201.346H410.258Z" fill="white"></path><path d="M355.474 218.906L368.405 239.819H341.985L332.726 223.695H316.523V239.819H292.577V182.828H341.745C351.004 182.828 357.549 184.478 361.381 187.777C365.212 191.023 367.128 195.918 367.128 202.463C367.128 206.987 366.143 210.472 364.174 212.92C362.206 215.368 359.306 217.097 355.474 218.108V218.906ZM334.402 209.727C336.584 209.727 338.127 209.355 339.032 208.61C339.989 207.811 340.468 206.587 340.468 204.938C340.468 203.235 340.016 201.985 339.111 201.186C338.207 200.388 336.637 199.989 334.402 199.989H316.523V209.727H334.402Z" fill="white"></path><path d="M222.046 182.828H259.401V239.819H235.456V203.9H234.977L222.046 239.819H204.406L191.316 203.661H190.837V239.819H168.328V182.828H204.326L212.947 211.164H213.426L222.046 182.828Z" fill="#DA212A"></path><path d="M130.405 182.828C138.227 182.828 144.56 183.759 149.402 185.622C154.297 187.484 157.916 190.517 160.257 194.721C162.599 198.872 163.769 204.406 163.769 211.323C163.769 218.241 162.599 223.802 160.257 228.005C157.916 232.156 154.297 235.163 149.402 237.025C144.56 238.887 138.227 239.819 130.405 239.819H88.8994V182.828H130.405ZM112.845 199.59V223.057H123.86C128.649 223.057 132.134 222.152 134.316 220.343C136.498 218.534 137.589 215.527 137.589 211.323C137.589 207.12 136.498 204.113 134.316 202.304C132.134 200.495 128.649 199.59 123.86 199.59H112.845Z" fill="#DA212A"></path><path d="M87.2465 239.819H61.6248L58.3522 232.635H29.7771L26.5046 239.819H0.882812L28.3404 182.828H59.7889L87.2465 239.819ZM43.8252 201.346L36.4021 217.789H51.7272L44.3041 201.346H43.8252Z" fill="#DA212A"></path><path d="M873.99 183H898.082C894.578 189.154 891.643 195.615 888.555 201.967C896.527 202.055 904.478 202.033 912.45 202.098C909.427 208.384 906.383 214.67 903.383 221C911.377 221.065 919.349 221.065 927.343 221.087C924.036 227.395 920.783 233.922 917.498 240.492C910.106 240.492 901.806 240.207 894.14 240.186C897.097 233.79 900.141 227.439 903.229 221.109C895.235 221.065 887.241 221.087 879.247 221.043C882.313 214.736 885.379 208.45 888.38 202.12C880.408 202.076 872.457 202.076 864.507 202.011C867.573 195.637 870.486 189.176 873.99 183Z" fill="#DA212A"></path><path d="M922.173 183H946.156C942.652 189.198 939.673 195.659 936.563 202.055C944.557 202.055 952.551 202.055 960.567 202.12C957.567 208.428 954.501 214.692 951.522 221C943.484 221.065 935.468 221.065 927.452 221.021C930.474 214.692 933.541 208.384 936.519 202.055C928.547 202.033 920.553 202.033 912.559 202.011C915.691 195.637 918.625 189.154 922.173 183Z" fill="#DA212A"></path><path d="M995.831 183H1019.62C1016.51 189.286 1013.4 195.594 1010.37 201.945C1002.42 201.967 994.473 201.967 986.522 201.923C989.567 195.594 992.458 189.176 995.831 183Z" fill="#DA212A"></path><path d="M854.98 221.107C863.062 220.998 871.165 221.019 879.247 221.041C876.071 227.502 872.961 234.007 869.523 240.315C861.682 240.227 853.841 240.271 846 240.183C848.803 233.744 851.957 227.459 854.98 221.107Z" fill="#DA212A"></path></svg> 