<?xml version="1.0" encoding="UTF-8"?> <svg xmlns="http://www.w3.org/2000/svg" width="497" height="102" viewBox="0 0 497 102" fill="none"><rect x="2.63592" y="2.63592" width="491.728" height="96.1392" rx="26.0049" stroke="white" stroke-width="4.72816"></rect><path d="M176.608 59.597C174.696 59.597 173.036 59.2818 171.628 58.6514C170.22 57.9999 169.127 57.0753 168.35 55.8775C167.593 54.6797 167.215 53.2823 167.215 51.6852V51.1809C167.215 49.5418 167.593 48.1233 168.35 46.9255C169.106 45.7067 170.189 44.7716 171.597 44.1202C173.026 43.4687 174.696 43.143 176.608 43.143C178.353 43.143 179.918 43.4372 181.305 44.0256C182.692 44.614 183.774 45.4335 184.552 46.4843C185.329 47.535 185.718 48.7222 185.718 50.0461V50.1407H181.809V50.0461C181.809 49.0375 181.326 48.2179 180.359 47.5875C179.393 46.9361 178.143 46.6103 176.608 46.6103C174.864 46.6103 173.509 47.0096 172.542 47.8081C171.597 48.6067 171.124 49.7414 171.124 51.2124V51.6537C171.124 53.0827 171.597 54.1859 172.542 54.9634C173.509 55.7409 174.864 56.1297 176.608 56.1297C178.143 56.1297 179.393 55.8145 180.359 55.1841C181.326 54.5536 181.809 53.7341 181.809 52.7254V52.6309H185.718V52.7254C185.718 54.0703 185.34 55.2681 184.583 56.3188C183.827 57.3485 182.755 58.1575 181.368 58.7459C180.002 59.3133 178.416 59.597 176.608 59.597ZM209.356 55.8775V59.2188H207.055C206.047 59.2188 205.185 59.0506 204.471 58.7144C203.777 58.3572 203.262 57.8423 202.926 57.1699C202.107 58.0104 201.14 58.6304 200.026 59.0296C198.912 59.4079 197.599 59.597 196.086 59.597C193.795 59.597 192.02 59.1872 190.759 58.3677C189.498 57.5271 188.868 56.3503 188.868 54.8373C188.868 53.5765 189.341 52.5573 190.286 51.7798C191.253 50.9813 192.619 50.4874 194.384 50.2983L202.453 49.4157C202.201 47.6295 200.594 46.7364 197.631 46.7364C196.097 46.7364 194.899 46.9571 194.037 47.3984C193.176 47.8397 192.745 48.4491 192.745 49.2266V49.3211H188.962V49.2266C188.962 48.0288 189.319 46.9676 190.034 46.043C190.748 45.1183 191.757 44.4039 193.06 43.8995C194.384 43.3952 195.918 43.143 197.662 43.143C200.373 43.143 202.485 43.7524 203.998 44.9712C205.511 46.169 206.267 47.8502 206.267 50.0146V54.3645C206.267 54.8478 206.414 55.2261 206.709 55.4993C207.003 55.7514 207.423 55.8775 207.969 55.8775H209.356ZM195.991 56.2558C197.589 56.2558 198.944 56.0141 200.058 55.5308C201.192 55.0475 202.001 54.3645 202.485 53.4819V52.5048L195.203 53.2928C193.501 53.4819 192.65 53.9968 192.65 54.8373C192.65 55.783 193.764 56.2558 195.991 56.2558ZM215.686 43.5213V54.5852L226.057 43.5213H229.524V59.2188H225.868V48.1549L215.497 59.2188H212.03V43.5213H215.686ZM220.793 41.567C218.565 41.567 216.874 41.1677 215.718 40.3692C214.562 39.5706 213.984 38.4044 213.984 36.8703V36.6497H217.483V36.8703C217.483 37.3537 217.767 37.7319 218.334 38.0051C218.923 38.2573 219.742 38.3833 220.793 38.3833C221.781 38.3833 222.548 38.2573 223.094 38.0051C223.64 37.7319 223.913 37.3537 223.913 36.8703V36.6497H227.601V36.8703C227.601 38.4044 227.024 39.5706 225.868 40.3692C224.733 41.1677 223.041 41.567 220.793 41.567ZM231.497 46.9255V43.5213H249.779V46.9255H242.593V59.2188H238.779V46.9255H231.497ZM283.665 55.8775V59.2188H281.364C280.355 59.2188 279.493 59.0506 278.779 58.7144C278.086 58.3572 277.571 57.8423 277.234 57.1699C276.415 58.0104 275.448 58.6304 274.335 59.0296C273.221 59.4079 271.907 59.597 270.394 59.597C268.104 59.597 266.328 59.1872 265.067 58.3677C263.806 57.5271 263.176 56.3503 263.176 54.8373C263.176 53.5765 263.649 52.5573 264.595 51.7798C265.561 50.9813 266.927 50.4874 268.692 50.2983L276.762 49.4157C276.509 47.6295 274.902 46.7364 271.939 46.7364C270.405 46.7364 269.207 46.9571 268.346 47.3984C267.484 47.8397 267.053 48.4491 267.053 49.2266V49.3211H263.271V49.2266C263.271 48.0288 263.628 46.9676 264.342 46.043C265.057 45.1183 266.066 44.4039 267.368 43.8995C268.692 43.3952 270.226 43.143 271.97 43.143C274.681 43.143 276.793 43.7524 278.306 44.9712C279.819 46.169 280.576 47.8502 280.576 50.0146V54.3645C280.576 54.8478 280.723 55.2261 281.017 55.4993C281.311 55.7514 281.731 55.8775 282.278 55.8775H283.665ZM270.3 56.2558C271.897 56.2558 273.252 56.0141 274.366 55.5308C275.501 55.0475 276.31 54.3645 276.793 53.4819V52.5048L269.512 53.2928C267.81 53.4819 266.959 53.9968 266.959 54.8373C266.959 55.783 268.072 56.2558 270.3 56.2558ZM302.193 51.2439C303.812 51.8954 304.621 52.9566 304.621 54.4276V54.7428C304.621 56.1717 304.074 57.275 302.981 58.0525C301.889 58.83 300.323 59.2188 298.285 59.2188H286.338V43.5213H297.844C299.882 43.5213 301.447 43.8995 302.54 44.656C303.654 45.4125 304.211 46.4948 304.211 47.9027V48.2179C304.211 48.8693 304.032 49.4577 303.675 49.9831C303.339 50.4874 302.845 50.9077 302.193 51.2439ZM290.121 46.4527V49.8255H297.717C298.558 49.8255 299.199 49.6889 299.64 49.4157C300.082 49.1425 300.302 48.7538 300.302 48.2494V47.9342C300.302 46.9466 299.441 46.4527 297.717 46.4527H290.121ZM300.712 54.3645C300.712 53.8602 300.491 53.4819 300.05 53.2298C299.609 52.9566 298.978 52.82 298.159 52.82H290.121V56.2873H298.159C298.999 56.2873 299.63 56.1507 300.05 55.8775C300.491 55.6043 300.712 55.2051 300.712 54.6797V54.3645ZM306.052 46.9255V43.5213H324.334V46.9255H317.147V59.2188H313.333V46.9255H306.052ZM335.016 59.597C333.083 59.597 331.402 59.2818 329.973 58.6514C328.544 57.9999 327.441 57.0753 326.663 55.8775C325.907 54.6797 325.528 53.2718 325.528 51.6537V51.1809C325.528 49.5418 325.907 48.1233 326.663 46.9255C327.42 45.7067 328.512 44.7716 329.941 44.1202C331.37 43.4687 333.062 43.143 335.016 43.143C336.95 43.143 338.62 43.4687 340.028 44.1202C341.436 44.7716 342.518 45.7067 343.275 46.9255C344.031 48.1233 344.409 49.5418 344.409 51.1809V51.6537C344.409 53.2718 344.031 54.6797 343.275 55.8775C342.518 57.0753 341.436 57.9999 340.028 58.6514C338.62 59.2818 336.95 59.597 335.016 59.597ZM334.985 56.1297C336.708 56.1297 338.053 55.7409 339.019 54.9634C340.007 54.1649 340.501 53.0616 340.501 51.6537V51.1809C340.501 49.7309 340.018 48.6067 339.051 47.8081C338.084 47.0096 336.729 46.6103 334.985 46.6103C333.198 46.6103 331.822 47.0096 330.855 47.8081C329.91 48.5857 329.437 49.7099 329.437 51.1809V51.6537C329.437 53.0616 329.92 54.1649 330.887 54.9634C331.875 55.7409 333.241 56.1297 334.985 56.1297ZM368.406 55.8775V63.2534H364.623V59.2188H349.209V63.2534H345.427L345.395 55.8775H347.885C348.852 54.3435 349.346 52.4312 349.367 50.1407L349.461 43.5213H365.348V55.8775H368.406ZM361.566 55.8775V46.8625H352.929L352.866 50.1722C352.824 51.412 352.698 52.4943 352.487 53.4189C352.298 54.3225 352.004 55.142 351.605 55.8775H361.566ZM380.469 43.143C382.361 43.143 384.01 43.4687 385.418 44.1202C386.847 44.7716 387.94 45.7067 388.696 46.9255C389.474 48.1233 389.863 49.5313 389.863 51.1494V51.5591C389.863 53.1772 389.474 54.5957 388.696 55.8145C387.94 57.0123 386.847 57.9474 385.418 58.6199C384.01 59.2713 382.361 59.597 380.469 59.597C378.368 59.597 376.582 59.0401 375.111 57.9264V64.5773H371.328V43.5213H374.859L374.953 44.9712C376.508 43.7524 378.347 43.143 380.469 43.143ZM385.954 51.1494C385.954 49.7414 385.46 48.6382 384.472 47.8397C383.485 47.0201 382.129 46.6103 380.406 46.6103C379.272 46.6103 378.231 46.7995 377.286 47.1777C376.361 47.556 375.636 48.0708 375.111 48.7222V53.9547C375.636 54.6272 376.372 55.163 377.317 55.5623C378.263 55.9406 379.293 56.1297 380.406 56.1297C382.15 56.1297 383.506 55.7304 384.472 54.9319C385.46 54.1123 385.954 52.9881 385.954 51.5591V51.1494ZM402.06 59.597C400.127 59.597 398.446 59.2818 397.017 58.6514C395.588 57.9999 394.484 57.0753 393.707 55.8775C392.95 54.6797 392.572 53.2718 392.572 51.6537V51.1809C392.572 49.5418 392.95 48.1233 393.707 46.9255C394.463 45.7067 395.556 44.7716 396.985 44.1202C398.414 43.4687 400.106 43.143 402.06 43.143C403.993 43.143 405.664 43.4687 407.072 44.1202C408.48 44.7716 409.562 45.7067 410.318 46.9255C411.075 48.1233 411.453 49.5418 411.453 51.1809V51.6537C411.453 53.2718 411.075 54.6797 410.318 55.8775C409.562 57.0753 408.48 57.9999 407.072 58.6514C405.664 59.2818 403.993 59.597 402.06 59.597ZM402.028 56.1297C403.752 56.1297 405.096 55.7409 406.063 54.9634C407.051 54.1649 407.545 53.0616 407.545 51.6537V51.1809C407.545 49.7309 407.061 48.6067 406.095 47.8081C405.128 47.0096 403.773 46.6103 402.028 46.6103C400.242 46.6103 398.866 47.0096 397.899 47.8081C396.954 48.5857 396.481 49.7099 396.481 51.1809V51.6537C396.481 53.0616 396.964 54.1649 397.931 54.9634C398.918 55.7409 400.284 56.1297 402.028 56.1297ZM439.084 43.5213V59.2188H435.427V47.4929L434.608 48.9744L428.871 59.2188H425.498L419.761 48.9744L418.942 47.4929V59.2188H415.285V43.5213H420.675L427.2 55.121L433.694 43.5213H439.084ZM463.526 55.8775V59.2188H461.224C460.216 59.2188 459.354 59.0506 458.64 58.7144C457.946 58.3572 457.431 57.8423 457.095 57.1699C456.276 58.0104 455.309 58.6304 454.195 59.0296C453.082 59.4079 451.768 59.597 450.255 59.597C447.965 59.597 446.189 59.1872 444.928 58.3677C443.667 57.5271 443.037 56.3503 443.037 54.8373C443.037 53.5765 443.51 52.5573 444.455 51.7798C445.422 50.9813 446.788 50.4874 448.553 50.2983L456.622 49.4157C456.37 47.6295 454.763 46.7364 451.8 46.7364C450.266 46.7364 449.068 46.9571 448.206 47.3984C447.345 47.8397 446.914 48.4491 446.914 49.2266V49.3211H443.131V49.2266C443.131 48.0288 443.489 46.9676 444.203 46.043C444.918 45.1183 445.926 44.4039 447.229 43.8995C448.553 43.3952 450.087 43.143 451.831 43.143C454.542 43.143 456.654 43.7524 458.167 44.9712C459.68 46.169 460.436 47.8502 460.436 50.0146V54.3645C460.436 54.8478 460.584 55.2261 460.878 55.4993C461.172 55.7514 461.592 55.8775 462.139 55.8775H463.526ZM450.161 56.2558C451.758 56.2558 453.113 56.0141 454.227 55.5308C455.362 55.0475 456.171 54.3645 456.654 53.4819V52.5048L449.373 53.2928C447.67 53.4819 446.819 53.9968 446.819 54.8373C446.819 55.783 447.933 56.2558 450.161 56.2558Z" fill="white"></path><path d="M33 49.6095H31.6095V52.3905H33V49.6095ZM141.983 51.9832C142.526 51.4402 142.526 50.5598 141.983 50.0168L133.134 41.1676C132.591 40.6246 131.711 40.6246 131.168 41.1676C130.625 41.7106 130.625 42.5911 131.168 43.1341L139.034 51L131.168 58.8659C130.625 59.4089 130.625 60.2894 131.168 60.8324C131.711 61.3754 132.591 61.3754 133.134 60.8324L141.983 51.9832ZM33 52.3905L141 52.3905V49.6095L33 49.6095V52.3905Z" fill="#DA212A"></path></svg> 