<?xml version="1.0" encoding="UTF-8"?> <svg xmlns="http://www.w3.org/2000/svg" width="1546" height="234" viewBox="0 0 1546 234" fill="none"><path d="M1503.11 96.9922C1513.8 96.9922 1522.25 95.734 1528.45 93.2176C1534.74 90.7012 1539.23 86.8816 1541.93 81.7589C1544.63 76.7261 1545.97 70.1205 1545.97 61.9421C1545.97 54.0334 1544.58 47.6076 1541.8 42.6646C1539.1 37.7216 1534.61 34.0369 1528.31 31.6104C1522.11 29.1838 1513.71 27.9705 1503.11 27.9705H1462.12V0.739349H1421.68V96.9922H1503.11ZM1490.7 53.0448C1494.75 53.0448 1497.58 53.7188 1499.2 55.0669C1500.9 56.5049 1501.76 58.7517 1501.76 61.8073C1501.76 64.9528 1500.9 67.2446 1499.2 68.6825C1497.58 70.1205 1494.75 70.8395 1490.7 70.8395H1462.12V53.0448H1490.7Z" fill="white"></path><path d="M1193.86 96.9911H1150.59L1145.06 84.8584H1096.8L1091.27 96.9911H1048L1094.37 0.738281H1147.49L1193.86 96.9911ZM1120.53 32.0137L1107.99 59.7841H1133.87L1121.34 32.0137H1120.53Z" fill="white"></path><path d="M1016.93 0.738281C1027.63 0.738281 1036.07 1.99649 1042.28 4.5129C1048.57 7.02931 1053.06 10.8489 1055.76 15.9716C1058.45 21.0044 1059.8 27.61 1059.8 35.7883C1059.8 43.6971 1058.41 50.1229 1055.62 55.0659C1052.93 60.0088 1048.43 63.6936 1042.14 66.1201C1035.94 68.5467 1027.54 69.7599 1016.93 69.7599H883.442V96.9911H843V0.738281H1016.93ZM1004.53 44.6857C1008.57 44.6857 1011.4 44.0116 1013.02 42.6635C1014.73 41.2256 1015.58 38.9788 1015.58 35.9231C1015.58 32.7776 1014.73 30.4859 1013.02 29.0479C1011.4 27.61 1008.57 26.891 1004.53 26.891H883.442V44.6857H1004.53Z" fill="white"></path><path d="M521.016 51.1564V0.738281H483V96.9911H528.969L569.546 46.0337H570.355V96.9911H608.371V0.738281H561.862L521.824 51.1564H521.016Z" fill="white"></path><path d="M475.442 0.738281V96.9911H435V0.738281H475.442Z" fill="white"></path><path d="M387.5 96.9883C398.195 96.9883 406.643 95.7301 412.844 93.2137C419.135 90.6972 423.629 86.8777 426.325 81.755C429.021 76.7222 430.369 70.1166 430.369 61.9382C430.369 54.0295 428.976 47.6037 426.19 42.6607C423.494 37.7177 419 34.033 412.709 31.6064C406.508 29.1799 398.105 27.9666 387.5 27.9666H175.048V0.735443H134.605V96.9883H387.5ZM375.098 53.0409C379.142 53.0409 381.973 53.7149 383.591 55.063C385.298 56.501 386.152 58.7478 386.152 61.8034C386.152 64.9489 385.298 67.2407 383.591 68.6786C381.973 70.1166 379.142 70.8356 375.098 70.8356H175.048V53.0409H375.098Z" fill="white"></path><path d="M107.352 45.4945C113.463 46.6628 118.226 48.9546 121.641 52.3697C125.146 55.7848 126.899 61.0873 126.899 68.277C126.899 74.9276 125.731 80.3648 123.394 84.5888C121.057 88.7229 117.238 91.8235 111.935 93.8905C106.633 95.9576 99.4431 96.9911 90.366 96.9911H0.71875V0.738281H87.6698C111.396 0.738281 123.259 9.05144 123.259 25.6777C123.259 30.8004 121.911 34.8896 119.215 37.9453C116.609 40.911 112.654 43.068 107.352 44.416V45.4945ZM71.8973 38.2149C74.953 38.2149 77.1099 37.6756 78.3681 36.5972C79.7162 35.5187 80.3902 33.8561 80.3902 31.6093C80.3902 29.1828 79.7611 27.4302 78.5029 26.3518C77.2447 25.2733 75.0428 24.7341 71.8973 24.7341H41.1611V38.2149H71.8973ZM72.841 73.6694C76.4359 73.6694 78.9523 73.0852 80.3902 71.9169C81.918 70.6586 82.6819 68.6815 82.6819 65.9853C82.6819 63.1993 81.963 61.1772 80.525 59.9189C79.0871 58.6607 76.5257 58.0316 72.841 58.0316H41.1611V73.6694H72.841Z" fill="white"></path><path d="M835.084 26.903V0.993256H615.617V97.2461H656.06V26.903H835.084Z" fill="white"></path><rect x="1173" y="0.1875" width="241" height="26" fill="white"></rect><rect x="1273" y="11.9922" width="41" height="85" fill="white"></rect><path d="M1060.11 150.732L1054.99 191.983H1021.02L1015.89 150.732V133.746H1060.11V150.732ZM1058.09 229.999H1017.92V199.263H1058.09V229.999Z" fill="#C8ED01"></path><path d="M490.016 184.418V134H452V230.253H497.969L538.546 179.295H539.355V230.253H577.371V134H530.862L490.824 184.418H490.016Z" fill="#C8ED01"></path><path d="M1006.44 133.746V229.999H966V133.746H1006.44Z" fill="#C8ED01"></path><path d="M918 230C928.695 230 937.143 228.742 943.344 226.225C949.635 223.709 954.128 219.889 956.825 214.767C959.521 209.734 960.869 203.128 960.869 194.95C960.869 187.041 959.476 180.615 956.69 175.672C953.994 170.729 949.5 167.045 943.209 164.618C937.008 162.192 928.605 160.978 918 160.978H759.442V133.747H719V230H918ZM905.598 186.053C909.642 186.053 912.473 186.727 914.091 188.075C915.798 189.513 916.652 191.759 916.652 194.815C916.652 197.961 915.798 200.252 914.091 201.69C912.473 203.128 909.642 203.847 905.598 203.847H759.442V186.053H905.598Z" fill="#C8ED01"></path><path d="M688.443 180.929C695.273 181.828 700.62 183.985 704.485 187.4C708.439 190.725 710.416 195.848 710.416 202.768C710.416 210.048 708.439 215.934 704.485 220.428C700.62 224.832 694.105 228.112 684.938 230.269C675.771 232.426 663.279 233.504 647.461 233.504C631.554 233.504 619.107 232.381 610.119 230.134C601.222 227.887 594.796 224.338 590.842 219.484C586.977 214.631 584.865 208.026 584.506 199.668H628.453C628.813 202.903 630.475 205.195 633.441 206.543C636.497 207.891 641.17 208.565 647.461 208.565C654.022 208.565 658.785 208.026 661.751 206.947C664.806 205.779 666.334 203.667 666.334 200.611C666.334 197.735 665.076 195.758 662.56 194.68C660.043 193.601 656.448 193.062 651.775 193.062H629.667V171.223H651.775C656.179 171.223 659.549 170.729 661.886 169.74C664.312 168.752 665.525 166.864 665.525 164.078C665.525 161.292 664.043 159.36 661.077 158.282C658.201 157.203 653.662 156.664 647.461 156.664C641.619 156.664 637.261 157.293 634.385 158.551C631.509 159.72 629.936 161.652 629.667 164.348H588.415C588.775 156.619 590.932 150.418 594.886 145.745C598.93 141.071 605.176 137.656 613.624 135.499C622.162 133.252 633.441 132.129 647.461 132.129C661.571 132.129 672.94 133.117 681.568 135.095C690.195 136.982 696.531 140.083 700.575 144.396C704.62 148.71 706.642 154.417 706.642 161.517C706.642 167.179 705.069 171.493 701.924 174.459C698.778 177.334 694.284 179.222 688.443 180.121V180.929Z" fill="#C8ED01"></path><path d="M402.107 133.746C412.802 133.746 421.25 135.004 427.451 137.521C433.742 140.037 438.236 143.857 440.932 148.979C443.628 154.012 444.976 160.618 444.976 168.796C444.976 176.705 443.583 183.131 440.797 188.074C438.101 193.017 433.608 196.701 427.316 199.128C421.115 201.554 412.712 202.768 402.107 202.768H266.55V229.999H226.107V133.746H402.107ZM389.705 177.693C393.749 177.693 396.58 177.019 398.198 175.671C399.906 174.233 400.759 171.987 400.759 168.931C400.759 165.785 399.906 163.494 398.198 162.056C396.58 160.618 393.749 159.899 389.705 159.899H266.55V177.693H389.705Z" fill="#C8ED01"></path><path d="M218.442 133.746V229.999H178V133.746H218.442Z" fill="#C8ED01"></path><path d="M191.5 162.057V133.747H0.71875V230H41.1611V162.057H191.5Z" fill="#C8ED01"></path></svg> 