<?xml version="1.0" encoding="UTF-8"?> <svg xmlns="http://www.w3.org/2000/svg" width="469" height="25" viewBox="0 0 469 25" fill="none"><path d="M34.6644 23.9997H24.5461L23.2537 21.1628H11.9692L10.6768 23.9997H0.558594L11.4018 1.49365H23.8211L34.6644 23.9997ZM17.5169 8.80653L14.5855 15.2999H20.6375L17.706 8.80653H17.5169Z" fill="#801A98"></path><path d="M51.7081 1.49365C54.7972 1.49365 57.2979 1.86139 59.2101 2.59688C61.1434 3.33237 62.5724 4.53017 63.497 6.19028C64.4216 7.82938 64.8839 10.0148 64.8839 12.7467C64.8839 15.4785 64.4216 17.6744 63.497 19.3346C62.5724 20.9736 61.1434 22.1609 59.2101 22.8964C57.2979 23.6319 54.7972 23.9997 51.7081 23.9997H35.3172V1.49365H51.7081ZM44.7735 8.11307V17.3802H49.1234C51.0147 17.3802 52.3911 17.023 53.2527 16.3085C54.1142 15.5941 54.545 14.4068 54.545 12.7467C54.545 11.0865 54.1142 9.89926 53.2527 9.18478C52.3911 8.4703 51.0147 8.11307 49.1234 8.11307H44.7735Z" fill="#801A98"></path><path d="M87.898 1.49365H102.65V23.9997H93.1935V9.8152H93.0044L87.898 23.9997H80.9318L75.7624 9.72064H75.5732V23.9997H66.6843V1.49365H80.9003L84.3046 12.6836H84.4937L87.898 1.49365Z" fill="#801A98"></path><path d="M132.142 1.49365C135.231 1.49365 137.732 1.86139 139.644 2.59688C141.577 3.33237 143.006 4.53017 143.931 6.19028C144.856 7.82938 145.318 10.0148 145.318 12.7467C145.318 15.4785 144.856 17.6744 143.931 19.3346C143.006 20.9736 141.577 22.1609 139.644 22.8964C137.732 23.6319 135.231 23.9997 132.142 23.9997H115.751V1.49365H132.142ZM125.208 8.11307V17.3802H129.557C131.449 17.3802 132.825 17.023 133.687 16.3085C134.548 15.5941 134.979 14.4068 134.979 12.7467C134.979 11.0865 134.548 9.89926 133.687 9.18478C132.825 8.4703 131.449 8.11307 129.557 8.11307H125.208Z" fill="#801A98"></path><path d="M171.957 15.7412L177.063 23.9997H166.63L162.973 17.6324H156.575V23.9997H147.118V1.49365H166.535C170.192 1.49365 172.776 2.14508 174.29 3.44795C175.803 4.72981 176.559 6.6631 176.559 9.24782C176.559 11.034 176.17 12.4104 175.393 13.3771C174.615 14.3437 173.47 15.0267 171.957 15.4259V15.7412ZM163.635 12.1162C164.497 12.1162 165.106 11.9691 165.464 11.6749C165.842 11.3597 166.031 10.8764 166.031 10.225C166.031 9.55253 165.852 9.0587 165.495 8.74349C165.138 8.42828 164.518 8.27067 163.635 8.27067H156.575V12.1162H163.635Z" fill="#801A98"></path><path d="M187.634 1.49365V23.9997H178.178V1.49365H187.634Z" fill="#801A98"></path><path d="M215.408 1.49365V7.8609H199.3V11.3913H214.525V17.4433H199.3V23.9997H189.844V1.49365H215.408Z" fill="#801A98"></path><path d="M216.518 1.49365H243.563V8.23915H234.769V23.9997H225.313V8.23915H216.518V1.49365Z" fill="#801A98"></path><path d="M277.018 10.5717C276.808 8.57537 275.095 7.57721 271.88 7.57721C269.905 7.57721 268.424 8.0185 267.436 8.90109C266.469 9.78368 265.986 11.0655 265.986 12.7467C265.986 14.4278 266.469 15.7096 267.436 16.5922C268.424 17.4748 269.905 17.9161 271.88 17.9161C273.73 17.9161 275.032 17.6114 275.789 17.002C276.545 16.3716 276.976 15.4995 277.081 14.3858H287.988C287.904 17.8741 286.548 20.4903 283.921 22.2345C281.295 23.9787 277.281 24.8507 271.88 24.8507C266.417 24.8507 262.34 23.8631 259.65 21.8878C256.981 19.8914 255.647 16.8444 255.647 12.7467C255.647 8.64892 256.981 5.6124 259.65 3.63708C262.34 1.64074 266.417 0.642578 271.88 0.642578C282.408 0.642578 287.756 3.95229 287.925 10.5717H277.018Z" fill="#801A98"></path><path d="M305.901 0.642578C311.491 0.642578 315.641 1.63024 318.352 3.60556C321.063 5.58087 322.418 8.62791 322.418 12.7467C322.418 16.8654 321.063 19.9124 318.352 21.8878C315.641 23.8631 311.491 24.8507 305.901 24.8507C300.312 24.8507 296.161 23.8631 293.451 21.8878C290.74 19.9124 289.384 16.8654 289.384 12.7467C289.384 8.62791 290.74 5.58087 293.451 3.60556C296.161 1.63024 300.312 0.642578 305.901 0.642578ZM305.901 17.9161C310.02 17.9161 312.079 16.193 312.079 12.7467C312.079 9.30036 310.02 7.57721 305.901 7.57721C301.783 7.57721 299.723 9.30036 299.723 12.7467C299.723 16.193 301.783 17.9161 305.901 17.9161Z" fill="#801A98"></path><path d="M344.634 13.2825V1.49365H353.523V23.9997H342.775L333.287 12.0847H333.098V23.9997H324.209V1.49365H335.083L344.445 13.2825H344.634Z" fill="#801A98"></path><path d="M355.131 1.49365H382.176V8.23915H373.382V23.9997H363.925V8.23915H355.131V1.49365Z" fill="#801A98"></path><path d="M409.273 7.23048H393.229V10.0674H408.453V15.2683H393.229V18.3574H409.462V23.9997H383.772V1.49365H409.273V7.23048Z" fill="#801A98"></path><path d="M429.699 8.23915C429.636 7.62974 429.257 7.15693 428.564 6.8207C427.891 6.48448 426.893 6.31636 425.569 6.31636C424.14 6.31636 423.153 6.43194 422.606 6.6631C422.081 6.87324 421.818 7.18845 421.818 7.60873C421.818 8.02901 422.007 8.34422 422.386 8.55436C422.764 8.74349 423.489 8.88008 424.561 8.96413L432.378 9.68912C435.215 9.9623 437.4 10.6768 438.934 11.8325C440.468 12.9673 441.235 14.6694 441.235 16.939C441.235 19.1034 440.668 20.7635 439.533 21.9193C438.398 23.054 436.738 23.821 434.553 24.2203C432.388 24.6406 429.509 24.8507 425.916 24.8507C422.428 24.8507 419.601 24.6196 417.437 24.1573C415.272 23.695 413.602 22.8649 412.425 21.6671C411.269 20.4693 410.649 18.7777 410.565 16.5922H421.282C421.366 17.5379 421.776 18.1788 422.512 18.515C423.268 18.8302 424.445 18.9878 426.042 18.9878C427.618 18.9878 428.7 18.8828 429.289 18.6726C429.877 18.4625 430.171 18.1368 430.171 17.6955C430.171 17.2332 429.972 16.8864 429.572 16.6553C429.173 16.4031 428.417 16.214 427.303 16.0879L419.99 15.2683C417.174 14.9531 414.989 14.2912 413.434 13.2825C411.9 12.2528 411.133 10.5717 411.133 8.23915C411.133 5.40226 412.383 3.42694 414.884 2.31319C417.405 1.19945 421.009 0.642578 425.695 0.642578C430.318 0.642578 433.859 1.19945 436.318 2.31319C438.798 3.40592 440.101 5.38124 440.227 8.23915H429.699Z" fill="#801A98"></path><path d="M441.229 1.49365H468.274V8.23915H459.48V23.9997H450.023V8.23915H441.229V1.49365Z" fill="#801A98"></path></svg> 