<?xml version="1.0" encoding="UTF-8"?> <svg xmlns="http://www.w3.org/2000/svg" viewBox="0 0 510.81 511.07"><defs><style>.cls-1{fill:#fff;}</style></defs><g id="Layer_2" data-name="Layer 2"><g id="Layer_1-2" data-name="Layer 1"><path class="cls-1" d="M510.81,239.53v32c-.41,3.27-.87,6.54-1.23,9.82-5.46,50.55-23.78,95.9-56,135.21-40.11,48.9-91.42,79.26-153.75,90.6-9.44,1.72-19,2.66-28.53,4H239.32a28.93,28.93,0,0,0-3.84-.83c-55.8-4.54-105.36-24.59-147.23-61.72C22.71,390.4-6.43,317,1.18,229.82,5.93,175.37,27.32,127.3,63.8,86.55,113.63,30.9,176.27,1.9,251,.08,299.34-1.1,344.69,10.72,386,36,452,76.52,492.64,135,506.88,211.45,508.61,220.73,509.52,230.17,510.81,239.53ZM255.28,108l0,1.78c-20.95,0-41.91-.38-62.85.12-17,.41-33.3,4.39-47.67,14-24,16.13-34.33,40-34.89,67.73-.87,42.56-.54,85.15-.07,127.72.19,16.65,4.49,32.62,14,46.69,16.15,24,40,34.33,67.72,34.9,42.55.87,85.14.68,127.7,0,21.1-.32,40.57-6.78,56.44-21.69,17.59-16.52,24.69-37.67,25.26-61,.85-34.92.87-69.86.9-104.79A306.46,306.46,0,0,0,400,182.66c-4-39.66-32.28-68.45-72-71.74C303.86,108.91,279.53,108.9,255.28,108Z"></path><path class="cls-1" d="M134.53,254.9c.65-22,.75-44.44,2.13-66.83,1.2-19.31,9.29-35.27,27.2-44.73,10.07-5.32,21.14-7.25,32.31-7.26,41.89,0,83.8-.49,125.65.83,31,1,51.18,21.05,52,52.12q1.77,66.54,0,133.14c-.81,30.68-21.14,51.07-51.74,51.88q-66.51,1.77-133.1,0c-31.36-.85-50.51-20.91-52.43-52.38C135.21,299.64,135.17,277.5,134.53,254.9Zm120.64-74.7a75.3,75.3,0,1,0,75.4,75.43A75.18,75.18,0,0,0,255.17,180.2Zm78.48,14.48a17.53,17.53,0,1,0-17.56-17.22A17.44,17.44,0,0,0,333.65,194.68Z"></path><path class="cls-1" d="M304.18,255.26a48.9,48.9,0,1,1-49-48.66A49,49,0,0,1,304.18,255.26Z"></path></g></g></svg> 