<?xml version="1.0" encoding="UTF-8"?> <svg xmlns="http://www.w3.org/2000/svg" viewBox="0 0 665.07 152"><defs><style>.cls-1{fill:#fff;}</style></defs><g id="Layer_2" data-name="Layer 2"><g id="Layer_1-2" data-name="Layer 1"><g id="Layer_3" data-name="Layer 3"><path class="cls-1" d="M665.07,152H0V0H665.07Zm-470.76-5.58c1.95-.14,5.79-.3,9.61-.72a47.76,47.76,0,0,0,14-3.54c8-3.47,13.13-9.36,15-17.94a39.41,39.41,0,0,0,.5-13.09c-1.17-9.57-5.94-16.56-14.79-20.63a48.66,48.66,0,0,0-15.07-3.91,95.11,95.11,0,0,0-24.31.29,44.24,44.24,0,0,0-14.43,4.35,23.58,23.58,0,0,0-12.55,15.87,37.93,37.93,0,0,0-.14,17.6,23.49,23.49,0,0,0,13.21,16.67,41.73,41.73,0,0,0,6.12,2.39C178.25,145.85,185.31,146.33,194.31,146.42Zm333.52-41.53c-.36-7.29-3.7-12.31-10.33-15a44.1,44.1,0,0,0-11.28-2.92,109.34,109.34,0,0,0-31.34.3,38.94,38.94,0,0,0-11.16,3.33,14,14,0,0,0-8.09,10.16,24.16,24.16,0,0,0-.39,5.88c.29,5.9,3.07,10.22,8.63,12.49a47.92,47.92,0,0,0,7,2.31c5.73,1.36,11.63,1.58,17.45,2.33,3.42.44,6.86.81,10.28,1.33a7.22,7.22,0,0,1,2.88,1.1,2.52,2.52,0,0,1-.39,4.5,7.69,7.69,0,0,1-2,.62,47.17,47.17,0,0,1-11,.24,17.84,17.84,0,0,1-3.23-.6,5.15,5.15,0,0,1-4.13-4.2,7.25,7.25,0,0,0-.28-.86h-26.7c.16,1.38.24,2.63.46,3.86a16.19,16.19,0,0,0,7.73,11.5,27.21,27.21,0,0,0,8.23,3.25A80.61,80.61,0,0,0,485,146.21a144.64,144.64,0,0,0,27.28-1.12,28.5,28.5,0,0,0,10.27-3.33,14,14,0,0,0,6.34-6.9,21.23,21.23,0,0,0,.55-14.34c-1.35-4.4-4.6-7.08-8.65-8.94a37.17,37.17,0,0,0-11.92-3c-7.26-.71-14.54-1.33-21.8-2a16.87,16.87,0,0,1-3.51-.81,2.33,2.33,0,0,1-1.65-2.25,2.26,2.26,0,0,1,1.44-2.2,6.79,6.79,0,0,1,1.85-.65,30.62,30.62,0,0,1,11.13,0c2.49.49,4.6,1.54,5.31,4.24Zm-267.44,9.86.4-.16c.47.59,1,1.17,1.43,1.77q10.68,13.36,21.33,26.77a2.67,2.67,0,0,0,2.35,1.13c7.91,0,15.81,0,23.72,0,.53,0,1.06-.06,1.68-.09V88.24H289.07v29.09l-.33.14c-.4-.48-.82-.94-1.21-1.43q-10.61-13.33-21.2-26.67a2.65,2.65,0,0,0-2.28-1.26c-8.18.06-16.36,0-24.54,0-.42,0-.84.08-1.3.12V144c2,.37,20.91.26,22.18-.15ZM242.87,75.23h15.26c3.77-10.21,7.34-20.45,11.12-30.62l.43.09V75.19h20.57V26.37H258.08c-2.54,8.07-4.87,16.13-7.43,24.12l-.4,0-7.36-24c-2.72-.32-29.84-.2-31,.13v48.6c2.29.32,18.13.21,19.4-.16,0-5,0-10.14,0-15.23s-.07-10.1.06-15.14l.38-.07Q237.28,59.86,242.87,75.23Zm-95.38,35.5a6.23,6.23,0,0,0,.07-.82c-.49-8.48-4.46-14.74-12-18.7a40.94,40.94,0,0,0-12.48-4,93.07,93.07,0,0,0-28.71-.3,42.31,42.31,0,0,0-13.77,4.25,23.67,23.67,0,0,0-12.22,14.59,37.62,37.62,0,0,0-1.16,15.15c1.09,9.62,5.74,16.75,14.64,20.92a50.46,50.46,0,0,0,17.5,4.23,95.43,95.43,0,0,0,22-.62,44,44,0,0,0,13.36-3.94,22.81,22.81,0,0,0,9.5-8.39,24,24,0,0,0,3.44-12.77h-27.1c-.09.3-.19.55-.24.81a8.37,8.37,0,0,1-7,7.32,25.53,25.53,0,0,1-12.07-.2,10.5,10.5,0,0,1-7.93-7.79,17,17,0,0,1-.26-7.34c.81-4.82,3.69-7.83,8.39-9.1a18.84,18.84,0,0,1,3.07-.56,25,25,0,0,1,10.1.81c2.93.94,5,2.73,5.62,5.86a3.18,3.18,0,0,0,.24.59ZM387,144.07c2.4.34,62.8.23,64-.09.33-2.18.22-12.57-.19-13.81H424c-4.42,0-8.85.05-13.28,0v-7.66h12.62c4.23,0,8.46,0,12.69,0s8.29.09,12.45-.08V109.45H410.64v-7H444c2.16,0,4.33.06,6.47-.06.3-3.61.18-12.93-.16-14.11-3.9-.35-62.13-.17-63.33.2ZM319.06,75.24c.47,0,.8.06,1.12.06,12,0,24.05.06,36.08,0a43.66,43.66,0,0,0,14.42-2.21,17.35,17.35,0,0,0,11.64-12.42,38.66,38.66,0,0,0,.39-18.24C381.12,34.81,376.49,30.05,369,28a43.46,43.46,0,0,0-11.55-1.62c-12.41,0-24.82,0-37.23,0-.37,0-.74,0-1.2.07Zm-175.67,0c.5,0,.82.06,1.14.06,12,0,23.94,0,35.91,0A43.89,43.89,0,0,0,195,73.06a17.38,17.38,0,0,0,11.63-12.43A38.75,38.75,0,0,0,207,42.4c-1.57-7.53-6.15-12.29-13.52-14.41a42.89,42.89,0,0,0-11.86-1.66c-12.41,0-24.83,0-37.24,0-.31,0-.63,0-1,.08ZM441.57,57c.2-.22.23-.28.28-.3.71-.28,1.43-.53,2.14-.82,4.38-1.78,7.1-4.92,7.54-9.7a30.92,30.92,0,0,0,0-6.38c-.73-6.23-4.11-10.36-10.2-12.16A33,33,0,0,0,432,26.32q-21.66,0-43.32,0a9.18,9.18,0,0,0-1.08.11c-.38,2.62-.24,47.69.14,48.79h20.34V61.55h14L423,63.1c2.11,3.65,4.26,7.29,6.3,11a2.15,2.15,0,0,0,2.21,1.25c6.53,0,13.07,0,19.6,0,.47,0,.95,0,1.72-.08ZM119.72,75.19h22.12c-7.93-16.39-15.76-32.6-23.61-48.83H91Q79.4,50.3,67.87,74.18a7.08,7.08,0,0,0-.28.77s0,.1.06.15.06.08.09.13H89.49l2.82-6.08h24.58ZM360.9,144.13V111.54c0-2.16,0-4.33,0-6.57h7.48c2.42,0,4.83,0,7.25,0l7.15,0V88.25H315.46V105h21.79v39.13ZM530.3,88.2c0,5.68,0,11.18.05,16.77h14.7l7.07,0a2.55,2.55,0,0,1,.13.4q0,18.91,0,37.83c0,.11,0,.22,0,.33a1.88,1.88,0,0,0,.05.33c0,.05.06.09.1.13l.1.12h23.37V104.93h21.81c.32-3.35.19-15.55-.16-16.73ZM501.45,40.09h35a100.18,100.18,0,0,0-.11-13.7H480.9c-.37,2.68-.23,47.69.14,48.8h20.37V61h33.08V47.74h-33Zm56.74.89v34.2h20.63V52.38c0-1.86,0-3.72,0-5.59s-.05-3.78,0-5.79h9.6c3.16,0,6.32,0,9.5,0V26.49c-1.86-.36-57.73-.28-58.93.07V41ZM475.81,75.21V26.4H455.23V50.81c0,4.11,0,8.22,0,12.33s-.07,8.06.06,12.07Z"></path><path class="cls-1" d="M192.39,129.22c-2.06-.29-4.15-.42-6.16-.89-5.7-1.31-8.77-4.89-9.15-10.71a19.88,19.88,0,0,1,.35-5.22,10.17,10.17,0,0,1,6.82-7.8,24.35,24.35,0,0,1,11.36-1.1,21.84,21.84,0,0,1,5.1,1.18c4.14,1.54,6.35,4.67,6.93,9a17.71,17.71,0,0,1-.22,6.2,10.37,10.37,0,0,1-6.92,7.91A27.43,27.43,0,0,1,192.39,129.22Z"></path><path class="cls-1" d="M339.72,60.74V40.9a6.17,6.17,0,0,1,1.06-.17c3.34,0,6.69,0,10,.08a19.19,19.19,0,0,1,4,.63,7.36,7.36,0,0,1,5.78,6.24,17.23,17.23,0,0,1,0,6.2,7.45,7.45,0,0,1-5.94,6.29,20.39,20.39,0,0,1-4.39.63c-3.23.1-6.47.05-9.71.05A7,7,0,0,1,339.72,60.74Z"></path><path class="cls-1" d="M164.05,60.7V40.89a6.83,6.83,0,0,1,1.09-.16c3.29,0,6.58,0,9.87.07a20,20,0,0,1,4.21.65A7.36,7.36,0,0,1,185,47.71a15.94,15.94,0,0,1-.15,6.84,7,7,0,0,1-4.88,5.31,20,20,0,0,1-4.83.91c-3.45.15-6.91.07-10.36.08A4,4,0,0,1,164.05,60.7Z"></path><path class="cls-1" d="M408.18,49.27V41.21c.5,0,.92-.12,1.34-.12q7.08,0,14.16,0c.43,0,.88,0,1.31,0,2.58.27,3.8,1.66,3.75,4.27a3.44,3.44,0,0,1-3,3.74,6.84,6.84,0,0,1-1.62.2c-5.05,0-10.1,0-15.15,0C408.77,49.36,408.55,49.31,408.18,49.27Z"></path><path class="cls-1" d="M104.82,42.31c2.07,4.56,4.14,9.12,6.32,13.94-4.41.1-8.61,0-13.09,0l6.35-14Z"></path></g></g></g></svg> 