<?xml version="1.0" encoding="UTF-8"?> <svg xmlns="http://www.w3.org/2000/svg" width="524" height="524" viewBox="0 0 524 524" fill="none"><path d="M300.061 130.209L282.209 126.481C281.417 126.548 280.622 126.554 279.83 126.5C265.413 124.486 250.763 124.842 236.461 127.553C198.012 134.781 167.897 154.817 145.967 187.151C140.659 194.987 136.285 203.417 132.935 212.27C140.353 212.892 147.554 213.503 154.736 214.076C167.001 215.086 179.27 216.088 191.542 217.081L228.08 220.056C235.812 220.689 243.58 221.083 251.279 222.004C265.022 223.658 274.286 237.1 271.496 251.224C269.323 262.189 266.928 273.101 264.685 284.044C262.417 295.236 255.956 302.122 244.808 305.065C205.836 315.228 166.885 325.498 127.956 335.876C127.026 336.121 126.111 336.396 125.163 336.665C126.001 346.255 128.151 355.22 133.848 362.935C145.876 379.281 162.067 385.543 181.933 381.895C215.072 375.776 248.161 369.536 281.269 363.334C310.087 357.914 338.897 352.491 367.698 347.067C378.932 344.993 385.958 338.095 388.282 326.997C390.547 316.147 392.667 305.267 395.077 294.447C398.634 279.205 399.367 263.44 397.24 247.934C392.391 213.571 378.093 183.81 353.081 159.552C341.099 147.917 326.905 139.615 311.112 134.108C307.414 132.821 303.748 131.514 300.061 130.209ZM337.321 254.138C345.61 255.96 352.854 260.963 357.492 268.071C362.131 275.179 363.795 283.823 362.125 292.145C358.53 309.367 341.053 320.767 323.93 317.027C306.807 313.288 295.553 296.129 299.151 278.997C300.956 270.659 305.98 263.371 313.13 258.716C320.28 254.062 328.978 252.417 337.334 254.14L337.321 254.138Z" fill="white"></path><path d="M110.433 314.165C111.815 318.193 113.981 321.363 118.771 321.395C120.019 321.356 121.256 321.153 122.451 320.791C151.755 313.089 181.057 305.374 210.357 297.648C211.671 297.305 212.696 297.031 213.054 295.281C216.986 276.023 221.034 256.796 225.044 237.554C225.15 237.048 225.158 236.515 225.235 235.851L189.719 232.945C177.547 231.95 165.375 230.959 153.201 229.973C144.94 229.312 136.677 228.692 128.41 228.057L110.433 314.165Z" fill="white"></path><path d="M241.651 237.223L230.102 292.544C235.086 291.087 239.889 290.038 244.351 288.19C246.086 287.475 247.816 285.105 248.255 283.2C251.016 271.191 253.462 259.109 255.904 247.054C256.268 245.1 255.861 243.08 254.768 241.419C253.676 239.758 251.983 238.585 250.044 238.145C249.176 237.916 248.293 237.752 247.401 237.655C245.568 237.465 243.726 237.375 241.651 237.223Z" fill="white"></path><path d="M314.893 282.277C314.236 285.395 314.519 288.639 315.708 291.596C316.897 294.552 318.938 297.089 321.571 298.884C324.204 300.679 327.312 301.651 330.498 301.677C333.685 301.703 336.808 300.781 339.47 299.029C342.132 297.277 344.213 294.774 345.45 291.836C346.687 288.899 347.023 285.661 346.416 282.532C345.808 279.404 344.285 276.526 342.04 274.265C339.794 272.003 336.928 270.46 333.803 269.831C329.648 269.005 325.335 269.848 321.796 272.177C318.258 274.506 315.778 278.134 314.893 282.277Z" fill="white"></path><path d="M262 520C404.489 520 520 404.489 520 262C520 119.511 404.489 4 262 4C119.511 4 4 119.511 4 262C4 404.489 119.511 520 262 520Z" stroke="white" stroke-width="8" stroke-miterlimit="10"></path></svg> 