<?xml version="1.0" encoding="UTF-8"?> <svg xmlns="http://www.w3.org/2000/svg" width="379" height="40" viewBox="0 0 379 40" fill="none"><path d="M378.102 22.1092H363.379V10.4531H378.102V22.1092ZM378.102 38.1619H363.379V26.5058H378.102V38.1619Z" fill="white"></path><path d="M335.878 1.65625H359.803V38.1583H344.466V15.1528H344.16L335.878 38.1583H324.579L316.195 14.9994H315.888V38.1583H301.472V1.65625H324.528L330.05 19.805H330.356L335.878 1.65625Z" fill="white"></path><path d="M300.413 38.1583H284.002L281.906 33.5572H263.604L261.508 38.1583H245.098L262.684 1.65625H282.827L300.413 38.1583ZM272.602 13.5168L267.848 24.0482H277.663L272.909 13.5168H272.602Z" fill="white"></path><path d="M119.02 1.69531L101.52 38.1953H117.52L129.02 13.1953L140.02 38.1953H156.52L139.02 1.69531H119.02Z" fill="white"></path><path d="M207.789 1.65625H251.653V12.5966H237.389V38.1583H222.052V12.5966H207.789V1.65625Z" fill="white"></path><path d="M179.817 0.277344C188.883 0.277344 195.614 1.87921 200.011 5.08293C204.407 8.28666 206.606 13.2286 206.606 19.9087C206.606 26.5888 204.407 31.5307 200.011 34.7344C195.614 37.9382 188.883 39.54 179.817 39.54C170.751 39.54 164.02 37.9382 159.623 34.7344C155.227 31.5307 153.028 26.5888 153.028 19.9087C153.028 13.2286 155.227 8.28666 159.623 5.08293C164.02 1.87921 170.751 0.277344 179.817 0.277344ZM179.817 28.2929C186.497 28.2929 189.837 25.4982 189.837 19.9087C189.837 14.3192 186.497 11.5245 179.817 11.5245C173.137 11.5245 169.797 14.3192 169.797 19.9087C169.797 25.4982 173.137 28.2929 179.817 28.2929Z" fill="white"></path><path d="M66.6124 20.7764V1.65625H52.1956V38.1583H69.6286L85.0167 18.8337H85.3235V38.1583H99.7402V1.65625H82.1027L66.9191 20.7764H66.6124Z" fill="white"></path><path d="M48.6114 1.65625V38.1583H33.2744V1.65625H48.6114Z" fill="white"></path><path d="M40.7452 12.394V1.65814H0V38.1602H15.337V12.394H40.7452Z" fill="white"></path></svg> 