<?xml version="1.0" encoding="UTF-8"?> <svg xmlns="http://www.w3.org/2000/svg" width="61" height="139" viewBox="0 0 61 139" fill="none"><path d="M17.0898 117.719C19.0458 116.202 21.2295 115.004 23.5598 114.169C24.3654 113.889 25.2204 113.779 26.0707 113.846C26.9209 113.913 27.748 114.156 28.4998 114.559C29.1161 115 29.5782 115.623 29.8204 116.341C30.0627 117.059 30.073 117.835 29.8498 118.559C29.271 120.592 28.0015 122.36 26.2598 123.559C24.4571 125.01 22.4307 126.158 20.2598 126.959C18.2598 127.629 16.3498 127.839 14.7098 126.889C14.0561 126.479 13.557 125.864 13.2909 125.14C13.0248 124.416 13.0068 123.624 13.2398 122.889C13.7298 120.749 15.3098 119.129 16.9098 117.739C20.2698 114.809 24.7398 111.589 29.3798 111.519C29.7998 111.519 30.1998 111.659 30.5898 111.659C30.6598 111.659 30.4798 111.659 30.4798 111.659L30.3798 111.499L30.5298 111.739L30.4498 111.559C30.5198 111.869 30.5498 111.929 30.5298 111.729C30.5298 111.299 30.5298 112.319 30.5298 112.249C30.5298 112.179 30.4698 112.819 30.5298 112.409C30.4762 112.748 30.3959 113.082 30.2898 113.409C29.5726 115.101 28.5177 116.629 27.1898 117.899C24.2102 121.027 20.3905 123.229 16.1898 124.239C14.2998 124.689 12.1398 125.109 10.3398 124.429C9.71535 124.14 9.2215 123.627 8.9551 122.993C8.6887 122.358 8.66898 121.647 8.89979 120.999C9.34979 118.879 11.0198 117.269 12.5898 115.899C14.3187 114.431 16.2398 113.207 18.2998 112.259C20.4122 111.267 22.6599 110.593 24.9698 110.259C26.0114 110.113 27.0682 110.113 28.1098 110.259C28.8168 110.4 29.4936 110.664 30.1098 111.039C30.3134 111.204 30.5009 111.388 30.6698 111.589C30.9998 111.969 30.4798 111.289 30.7598 111.709C30.8997 111.918 31.0266 112.135 31.1398 112.359C31.1398 112.429 31.3398 112.879 31.1998 112.489C31.3368 112.88 31.4438 113.281 31.5198 113.689C31.4398 113.249 31.5198 113.759 31.5198 113.829C31.5198 114.149 31.5198 114.479 31.5198 114.829C31.4733 116.572 31.0323 118.281 30.2298 119.829C28.1767 123.599 25.0656 126.685 21.2798 128.709C19.3996 129.753 17.3789 130.521 15.2798 130.989C13.4979 131.459 11.636 131.54 9.81979 131.229C9.11106 131.11 8.44379 130.814 7.87979 130.369C7.46229 129.946 7.16836 129.417 7.02979 128.839C6.79979 126.989 7.95979 124.939 9.12979 123.329C11.8979 119.649 15.4241 116.607 19.4698 114.409C23.1398 112.409 27.6998 111.049 31.6198 112.299C32.3699 112.518 33.0583 112.91 33.6297 113.443C34.201 113.976 34.6395 114.636 34.9098 115.369C35.4908 117.126 35.369 119.04 34.5698 120.709C32.6898 124.999 28.1998 128.059 24.1398 130.069C21.9881 131.217 19.6475 131.969 17.2298 132.289C16.271 132.436 15.2922 132.386 14.3534 132.142C13.4145 131.898 12.5354 131.465 11.7698 130.869C11.1358 130.33 10.695 129.599 10.5145 128.787C10.334 127.974 10.4236 127.126 10.7698 126.369C11.7146 124.236 13.1099 122.332 14.8598 120.789C16.6542 118.961 18.5829 117.269 20.6298 115.729C21.2978 115.309 21.7803 114.65 21.9792 113.886C22.178 113.122 22.0781 112.311 21.6998 111.619C20.9598 110.349 18.8998 109.619 17.5998 110.549C14.7651 112.648 12.1185 114.991 9.68979 117.549C7.36979 120.009 5.15979 122.979 4.60979 126.389C3.40979 133.729 10.1498 138.809 16.9998 138.389C23.8498 137.969 30.5198 133.999 35.3698 129.399C40.2198 124.799 42.9998 118.159 39.9998 111.869C37.0698 105.739 29.3398 104.869 23.4598 106.299C17.3298 107.739 11.9198 111.529 7.54979 115.939C3.41979 120.119 -1.45021 126.939 2.36979 132.859C5.91979 138.349 13.6598 137.759 19.0798 135.999C24.9249 134.091 30.0266 130.402 33.6698 125.449C36.9398 121.019 38.8998 114.769 36.4298 109.519C33.4298 103.149 25.4998 103.519 19.7798 105.259C16.654 106.192 13.6993 107.624 11.0298 109.499C8.35979 111.389 5.64979 113.689 4.12979 116.639C3.33395 118.069 2.8923 119.668 2.84185 121.304C2.79139 122.939 3.13359 124.563 3.83979 126.039C5.46979 129.169 8.83979 130.499 12.2498 130.539C18.3298 130.609 24.4098 127.889 29.0598 124.129C33.1598 120.809 38.6098 114.459 35.8298 108.799C34.0898 105.239 29.8898 105.089 26.4698 105.709C23.1456 106.429 20.0085 107.836 17.2598 109.839C11.9198 113.509 6.04979 118.599 7.25979 125.839C7.58759 127.485 8.35605 129.011 9.48319 130.254C10.6103 131.498 12.0539 132.412 13.6598 132.899C16.8846 133.831 20.3402 133.535 23.3598 132.069C29.2398 129.549 35.3598 124.889 35.8798 118.019C35.9965 116.373 35.6759 114.725 34.9506 113.243C34.2253 111.761 33.1211 110.497 31.7498 109.579C29.049 107.951 25.8159 107.452 22.7498 108.189C19.5398 108.869 16.7498 110.739 14.0198 112.559C13.3636 112.985 12.8934 113.644 12.7041 114.403C12.5148 115.162 12.6205 115.965 12.9998 116.649C13.1991 116.989 13.4636 117.287 13.7782 117.525C14.0927 117.763 14.4511 117.937 14.8329 118.036C15.2146 118.136 15.6122 118.159 16.0029 118.104C16.3936 118.05 16.7698 117.919 17.1098 117.719H17.0898Z" fill="#C8ED01"></path><path d="M23.3594 83.9995C18.3268 66.2629 14.7022 48.1566 12.5194 29.8495C11.8994 24.5628 11.3928 19.2795 10.9994 13.9995L5.10945 14.7995C8.30945 34.2495 13.6394 53.2995 18.9994 72.2895C19.2103 73.0573 19.7175 73.7099 20.4095 74.1037C20.7522 74.2987 21.1299 74.4243 21.5211 74.4734C21.9123 74.5224 22.3093 74.4939 22.6894 74.3895C23.0696 74.2851 23.4255 74.1068 23.7368 73.8649C24.0481 73.623 24.3087 73.3221 24.5037 72.9794C24.6987 72.6368 24.8243 72.2591 24.8733 71.8679C24.9223 71.4767 24.8938 71.0797 24.7894 70.6995C21.6779 51.9925 19.5716 33.1321 18.4794 14.1995C18.4794 13.4039 18.1634 12.6408 17.6008 12.0782C17.0382 11.5156 16.2751 11.1995 15.4794 11.1995C14.6838 11.1995 13.9207 11.5156 13.3581 12.0782C12.7955 12.6408 12.4794 13.4039 12.4794 14.1995C11.4294 34.8795 15.3294 55.3795 19.2094 75.5995L24.9994 73.9995C19.1094 56.5095 17.9994 37.9995 14.8794 19.9095C13.9794 14.7395 12.8794 9.59951 11.4894 4.53951L7.77945 8.23951C22.3694 11.3895 37.1894 9.14951 51.7194 6.83951L50.1194 1.04951L11.9994 14.6495C11.2429 14.8777 10.6029 15.388 10.2121 16.0749C9.82119 16.7617 9.70926 17.5725 9.89945 18.3395C10.1119 19.1058 10.6199 19.7564 11.3119 20.1483C12.0038 20.5402 12.823 20.6413 13.5894 20.4295C24.8094 16.5228 36.1928 13.1095 47.7394 10.1895L45.4294 4.70951C35.8528 11.4784 24.4553 15.1974 12.7294 15.3795L14.2494 20.9995C22.2705 16.2754 30.896 12.6623 39.8894 10.2595C40.6521 10.0399 41.2992 9.5316 41.6931 8.84262C42.0871 8.15363 42.197 7.33821 41.9994 6.56951C41.7712 5.81076 41.2594 5.16914 40.5703 4.77804C39.8812 4.38694 39.0679 4.27644 38.2994 4.46951C26.5861 6.46951 14.9961 9.01951 3.52945 12.1195C3.14927 12.2239 2.79338 12.4022 2.48209 12.6441C2.17081 12.8861 1.91023 13.1869 1.71522 13.5296C1.3214 14.2216 1.2186 15.0417 1.42945 15.8095C1.64029 16.5773 2.14751 17.2299 2.83952 17.6237C3.53153 18.0176 4.35164 18.1204 5.11945 17.9095L53.3394 8.45951L49.9994 4.04951C41.0377 20.225 33.1021 36.948 26.2394 54.1195C24.3194 58.9328 22.4828 63.7795 20.7294 68.6595L26.5194 70.2595C30.5194 55.1695 36.7694 40.8295 43.5194 26.7695C45.4394 22.7695 47.3894 18.7695 49.3494 14.7695L44.1594 11.7695C35.8948 30.9064 28.805 50.5295 22.9294 70.5295C21.2894 76.1495 19.7494 81.8162 18.3094 87.5295C17.3094 91.2895 22.9294 92.7995 24.0894 89.1295C30.7448 67.9577 38.6793 47.2096 47.8494 26.9995C50.4628 21.2395 53.1794 15.5228 55.9994 9.84951C57.7094 6.41951 52.8494 3.49951 50.8194 6.84951C40.3394 24.0495 32.8194 42.8495 26.1094 61.7795C24.2094 67.1195 22.3694 72.4695 20.5294 77.8295L26.3094 79.4195C30.9994 58.8595 44.8394 42.2295 54.0894 23.6995C56.8527 18.2872 59.1155 12.6337 60.8494 6.80951C61.9294 3.08951 56.1394 1.50951 55.0694 5.20951C49.2294 25.4295 35.2594 41.8395 26.5394 60.7295C23.9546 66.2002 21.9439 71.9241 20.5394 77.8095C19.6294 81.5895 24.9994 82.9995 26.2894 79.3995C32.6894 60.7895 39.0994 42.0995 47.9094 24.4695C50.4028 19.4895 53.0994 14.6162 55.9994 9.84951L50.8194 6.84951C40.7634 27.1097 31.9374 47.9575 24.3894 69.2795C22.2628 75.3195 20.2361 81.3895 18.3094 87.4895L24.0894 89.0895C29.1424 69.1997 35.4041 49.6367 42.8394 30.5095C44.8994 25.2162 47.0528 19.9595 49.2994 14.7395C49.672 14.0447 49.7677 13.2347 49.5673 12.4722C49.367 11.7098 48.8854 11.0514 48.2194 10.6295C47.8788 10.4299 47.5022 10.2995 47.1111 10.2458C46.72 10.192 46.3221 10.216 45.9403 10.3163C45.5584 10.4167 45.2002 10.5914 44.886 10.8305C44.5718 11.0695 44.3079 11.3683 44.1094 11.7095C37.1094 26.1095 30.0494 40.5595 24.7394 55.7095C23.2494 59.9795 21.8994 64.2895 20.7394 68.6595C20.5273 69.4273 20.6288 70.248 21.0217 70.9409C21.4146 71.6338 22.0666 72.1423 22.8344 72.3545C23.6022 72.5667 24.4229 72.4652 25.1158 72.0723C25.8088 71.6794 26.3173 71.0273 26.5294 70.2595C32.5956 53.3483 39.7128 36.8328 47.8394 20.8095C50.1861 16.1895 52.6161 11.6128 55.1294 7.07951C55.4322 6.56421 55.5741 5.97023 55.537 5.37374C55.4999 4.77725 55.2855 4.20544 54.9212 3.73161C54.557 3.25779 54.0595 2.90355 53.4926 2.71432C52.9258 2.52508 52.3153 2.50948 51.7394 2.66951L3.51945 12.1195L5.10945 17.9095C16.5694 14.7895 28.1628 12.2395 39.8894 10.2595L38.2894 4.46951C28.7978 7.00753 19.6923 10.8152 11.2194 15.7895C10.6508 16.1219 10.2073 16.6322 9.95749 17.2417C9.70766 17.8512 9.66538 18.526 9.83715 19.1619C10.0089 19.7978 10.3852 20.3594 10.9079 20.7602C11.4307 21.161 12.0708 21.3787 12.7294 21.3795C25.519 21.2184 37.9645 17.2151 48.4494 9.88951C51.1494 7.98951 49.5894 3.53951 46.1394 4.40951C34.6128 7.30951 23.2328 10.7228 11.9994 14.6495L13.5994 20.4295L51.7194 6.83951C52.4742 6.60925 53.1118 6.0981 53.5006 5.4115C53.8895 4.7249 54.0001 3.91523 53.8094 3.14951C53.5812 2.39293 53.0709 1.753 52.3841 1.36213C51.6973 0.971252 50.8865 0.85933 50.1194 1.04951C36.7194 3.18951 22.8294 5.35951 9.37945 2.45951C8.86815 2.3184 8.32857 2.31538 7.81572 2.45074C7.30287 2.58611 6.83508 2.85502 6.46001 3.23008C6.08495 3.60514 5.81604 4.07294 5.68067 4.58579C5.54531 5.09864 5.54834 5.63821 5.68945 6.14951C10.6094 23.9095 11.4494 42.4395 15.1594 60.4395C16.1857 65.5689 17.5215 70.6315 19.1594 75.5995C19.3716 76.3739 19.8827 77.0324 20.5804 77.4299C21.278 77.8275 22.105 77.9317 22.8794 77.7195C23.6539 77.5073 24.3123 76.9962 24.7099 76.2986C25.1075 75.6009 25.2116 74.7739 24.9994 73.9995C21.2094 54.2795 17.4494 34.3595 18.4794 14.1895H12.4794C13.616 33.6585 15.7924 53.0529 18.9994 72.2895L24.7894 70.6995C19.4494 51.6995 14.1194 32.6995 10.9194 13.1595C10.3594 9.84951 4.76945 10.5995 4.99945 13.9995C6.3733 32.9252 9.23548 51.7133 13.5594 70.1895C14.7794 75.3695 16.1128 80.5195 17.5594 85.6395C18.6094 89.3495 24.3994 87.7695 23.3494 84.0395L23.3594 83.9995Z" fill="#C8ED01"></path></svg> 