<?xml version="1.0" encoding="UTF-8"?> <svg xmlns="http://www.w3.org/2000/svg" width="1101" height="92" viewBox="0 0 1101 92" fill="none"><path d="M373.202 2L336.103 33.9607L379.344 91.49H334.223L309.657 56.8972L294.992 69.4308V91.49H257.392V2H294.992V33.71L330.463 2H373.202Z" fill="#C8ED01"></path><path d="M254.792 91.49H214.56L209.421 80.2097H164.55L159.412 91.49H119.179L162.294 2H211.677L254.792 91.49ZM186.61 31.078L174.953 56.8972H199.018L187.362 31.078H186.61Z" fill="#C8ED01"></path><path d="M116.535 2L79.4357 33.9607L122.677 91.49H77.5557L52.9898 56.8972L38.3254 69.4308V91.49H0.724609V2H38.3254V33.71L73.7956 2H116.535Z" fill="#C8ED01"></path><path d="M994.748 31.834C994.748 23.5622 996.837 17.0868 1001.01 12.4077C1005.28 7.72873 1011.21 4.51191 1018.81 2.75728C1026.5 0.919094 1036.11 0 1047.64 0C1059.75 0 1069.61 0.793763 1077.22 2.38129C1084.82 3.96881 1090.5 6.60075 1094.26 10.2771C1098.1 13.8699 1100.03 18.8414 1100.03 25.1915C1100.03 29.8705 1098.86 33.5886 1096.52 36.3459C1094.18 39.1032 1090.29 41.4427 1084.86 43.3644L1072.58 47.6257C1068.57 49.0461 1066.31 51.3438 1065.81 54.5189L1065.56 56.1482H1028.46V53.8922C1028.46 50.2159 1028.88 47.2915 1029.72 45.1191C1030.63 42.8631 1032.14 41.0249 1034.23 39.6045C1036.4 38.1006 1039.45 36.7219 1043.38 35.4686L1051.77 32.8367C1055.37 31.7505 1057.79 30.8314 1059.04 30.0794C1060.38 29.2438 1061.05 28.0741 1061.05 26.5701C1061.05 24.899 1060.05 23.6457 1058.04 22.8102C1056.12 21.8911 1052.82 21.4316 1048.14 21.4316C1043.46 21.4316 1039.83 22.2253 1037.24 23.8128C1034.65 25.3168 1033.35 27.9905 1033.35 31.834H994.748ZM1065.69 91.4915H1028.34V62.916H1065.69V91.4915Z" fill="white"></path><path d="M951.67 91.4824C961.612 91.4824 969.467 90.3127 975.232 87.9732C981.08 85.6337 985.258 82.0826 987.765 77.32C990.271 72.641 991.525 66.4998 991.525 58.8964C991.525 51.5437 990.23 45.5696 987.639 40.9741C985.133 36.3787 980.955 32.9529 975.106 30.697C969.341 28.441 961.529 27.3131 951.67 27.3131H913.569V1.99625H875.97V91.4824H951.67ZM940.139 50.6246C943.899 50.6246 946.531 51.2512 948.035 52.5046C949.622 53.8414 950.416 55.9303 950.416 58.7711C950.416 61.6955 949.622 63.8261 948.035 65.163C946.531 66.4998 943.899 67.1683 940.139 67.1683H913.569V50.6246H940.139Z" fill="white"></path><path d="M762.085 2.00977H869.619V28.8306H834.651V91.4959H797.052V28.8306H762.085V2.00977Z" fill="white"></path><path d="M778.518 91.4959H738.287L733.148 80.2162H688.28L683.141 91.4959H642.91L686.024 2.00977H735.404L778.518 91.4959ZM710.338 31.0865L698.682 56.9046H722.746L711.09 31.0865H710.338Z" fill="white"></path><path d="M643.975 2.00977L609.634 44.7476L647.985 91.4959H602.114L586.573 69.0617L571.032 91.4959H525.161L563.512 44.7476L529.172 2.00977H573.163L586.573 21.5614L599.984 2.00977H643.975Z" fill="white"></path><path d="M523.404 24.82H459.611V36.0997H520.146V56.7793H459.611V69.0617H524.156V91.4959H422.012V2.00977H523.404V24.82Z" fill="white"></path></svg> 