<?xml version="1.0" encoding="UTF-8"?> <svg xmlns="http://www.w3.org/2000/svg" width="619" height="180" viewBox="0 0 619 180" fill="none"><path d="M467.875 0.455078H512.803V68.9991H484.003V25.7991H483.427L467.875 68.9991H446.659L430.915 25.5111H430.339V68.9991H403.267V0.455078H446.563L456.931 34.5351H457.507L467.875 0.455078Z" fill="white"></path><path d="M334.339 36.3591V0.455078H307.267V68.9991H340.003L368.899 32.7111H369.475V68.9991H396.547V0.455078H363.427L334.915 36.3591H334.339Z" fill="white"></path><path d="M272.157 0.455078C279.773 0.455078 285.789 1.35108 290.205 3.14308C294.685 4.93508 297.885 7.65508 299.805 11.3031C301.725 14.8871 302.685 19.5911 302.685 25.4151C302.685 31.0471 301.693 35.6231 299.709 39.1431C297.789 42.6631 294.589 45.2871 290.109 47.0151C285.693 48.7431 279.709 49.6071 272.157 49.6071H242.973V68.9991H214.173V0.455078H272.157ZM263.325 31.7511C266.205 31.7511 268.221 31.2711 269.373 30.3111C270.589 29.2871 271.197 27.6871 271.197 25.5111C271.197 23.2711 270.589 21.6391 269.373 20.6151C268.221 19.5911 266.205 19.0791 263.325 19.0791H242.973V31.7511H263.325Z" fill="white"></path><path d="M212.185 68.9991H181.369L177.433 60.3591H143.065L139.129 68.9991H108.312L141.337 0.455078H179.16L212.185 68.9991ZM159.961 22.7271L151.033 42.5031H169.465L160.537 22.7271H159.961Z" fill="white"></path><path d="M68.3931 50.9141V19.48H39.6586V50.9141H68.3931ZM13.1361 50.9141V1H94.971V50.9141H107.827V78H81.2514V69.3941H27.3498V78H0.302734V50.9141H13.1361Z" fill="white"></path><rect x="49.3125" y="129.436" width="36.2893" height="15.1206" fill="white"></rect><path d="M556.072 139.496V103.592H529V172.136H561.736L590.632 135.848H591.208V172.136H618.28V103.592H585.16L556.648 139.496H556.072Z" fill="white"></path><path d="M460.072 139.496V103.592H433V172.136H465.736L494.632 135.848H495.208V172.136H522.28V103.592H489.16L460.648 139.496H460.072Z" fill="white"></path><path d="M400.685 151.976V172.136H324.173V103.592H352.973V151.976H400.685Z" fill="white"></path><path d="M268.416 101C285.44 101 298.08 104.008 306.336 110.024C314.592 116.04 318.72 125.32 318.72 137.864C318.72 150.408 314.592 159.688 306.336 165.704C298.08 171.72 285.44 174.728 268.416 174.728C251.392 174.728 238.752 171.72 230.496 165.704C222.24 159.688 218.112 150.408 218.112 137.864C218.112 125.32 222.24 116.04 230.496 110.024C238.752 104.008 251.392 101 268.416 101ZM268.416 153.608C280.96 153.608 287.232 148.36 287.232 137.864C287.232 127.368 280.96 122.12 268.416 122.12C255.872 122.12 249.6 127.368 249.6 137.864C249.6 148.36 255.872 153.608 268.416 153.608Z" fill="white"></path><path d="M167.718 103.592H212.646V172.136H183.846V128.936H183.27L167.718 172.136H146.502L130.758 128.648H130.182V172.136H103.11V103.592H146.406L156.774 137.672H157.35L167.718 103.592Z" fill="white"></path><path d="M33.1727 131.164C33.8082 125.126 38.9874 122.108 48.7104 122.108C54.6839 122.108 59.1641 123.442 62.1509 126.111C65.0742 128.78 66.5358 132.657 66.5358 137.741C66.5358 142.825 65.0742 146.701 62.1509 149.37C59.1641 152.039 54.6839 153.374 48.7104 153.374C43.1181 153.374 39.178 152.452 36.8903 150.609C34.6025 148.703 33.2998 146.066 32.982 142.698H0.000230006C0.254429 153.247 4.35333 161.159 12.2969 166.433C20.2405 171.708 32.3783 174.345 48.7104 174.345C65.233 174.345 77.5615 171.358 85.6957 165.385C93.7664 159.347 97.8018 150.133 97.8018 137.741C97.8018 125.349 93.7664 116.166 85.6957 110.192C77.5615 104.155 65.233 101.137 48.7104 101.137C16.8724 101.137 0.69927 111.146 0.190887 131.164H33.1727Z" fill="white"></path><rect x="386" y="103.137" width="28" height="69" fill="white"></rect><rect x="400" y="152.137" width="27" height="27" fill="white"></rect></svg> 