<?xml version="1.0" encoding="UTF-8"?> <svg xmlns="http://www.w3.org/2000/svg" width="866" height="290" viewBox="0 0 866 290" fill="none"><rect width="866" height="290" fill="black"></rect><rect x="14.5" y="17.5" width="838" height="255" stroke="white" stroke-width="5"></rect><path d="M93.7069 121.987C88.9304 121.987 84.5025 121.29 80.4232 119.895C76.344 118.466 72.8225 116.426 69.859 113.777C66.9303 111.127 64.6466 107.902 63.0079 104.101C61.3693 100.266 60.5499 95.9429 60.5499 91.1315C60.5499 84.7511 61.7179 78.7368 64.0539 73.0886C66.4247 67.4404 69.7544 62.4024 74.0428 57.9745C78.157 53.7209 83.1776 50.3041 89.1047 47.7241C95.0667 45.1092 101.395 43.8017 108.089 43.8017C112.133 43.8017 116.23 44.2898 120.379 45.266C124.528 46.2423 127.631 47.3754 129.688 48.6654L133.61 45.789H138.16L132.355 72.8794H127.753C127.056 64.965 124.946 58.9507 121.425 54.8366C117.938 50.6876 113.441 48.6131 107.932 48.6131C103.888 48.6131 100.157 49.816 96.7402 52.2217C93.3234 54.6274 90.2901 58.3231 87.6403 63.3089C85.4787 67.423 83.8226 72.1996 82.672 77.6386C81.5563 83.0427 80.9985 88.1156 80.9985 92.8573C80.9985 99.8304 82.6895 105.252 86.0714 109.122C89.4533 112.992 93.9858 114.927 99.6689 114.927C104.655 114.927 109.274 113.532 113.528 110.743C117.781 107.954 121.878 103.927 125.818 98.6624L129.845 101.382C128.136 104.032 126.097 106.647 123.726 109.227C121.355 111.772 118.653 113.986 115.62 115.868C112.447 117.856 109.17 119.372 105.788 120.418C102.441 121.464 98.4137 121.987 93.7069 121.987ZM222.103 45.789L221.214 49.6068C219.819 49.6417 218.581 49.816 217.501 50.1298C216.455 50.4087 215.566 50.6876 214.833 50.9665C212.497 51.9079 210.406 53.1456 208.558 54.6797C206.71 56.1789 204.792 57.8176 202.805 59.5957C200.155 61.9666 196.878 64.965 192.973 68.591C189.068 72.217 185.32 75.6687 181.729 78.946C184.657 85.3961 187.011 90.4167 188.789 94.0079C190.602 97.599 192.589 101.643 194.751 106.141C195.553 107.815 196.512 109.471 197.627 111.109C198.778 112.713 200.277 113.916 202.125 114.718C202.997 115.067 203.921 115.38 204.897 115.659C205.908 115.903 207.268 116.078 208.976 116.182L208.087 120H164.47L165.359 116.182C169.997 115.903 172.995 115.485 174.355 114.927C175.749 114.369 176.447 113.567 176.447 112.521C176.447 111.964 176.325 111.249 176.081 110.377C175.837 109.471 175.314 108.041 174.512 106.089C173.849 104.485 172.89 102.236 171.635 99.3423C170.38 96.4484 168.933 93.2583 167.294 89.7717C164.122 92.7004 161.054 95.6291 158.09 98.5578C155.126 101.486 152.651 103.944 150.664 105.932C148.119 108.512 146.584 110.273 146.061 111.214C145.573 112.12 145.329 112.8 145.329 113.254C145.329 113.951 145.852 114.561 146.898 115.084C147.979 115.572 150.054 115.938 153.122 116.182L152.233 120H122.161L123.05 116.182C124.55 116.078 125.665 115.956 126.397 115.816C127.13 115.642 128.123 115.311 129.378 114.822C131.645 113.846 133.684 112.661 135.497 111.266C137.31 109.872 139.298 108.181 141.459 106.193C144.911 103.055 148.45 99.8129 152.076 96.4659C155.702 93.1188 159.955 89.1616 164.836 84.5942C162.57 79.6085 160.6 75.3897 158.927 71.9381C157.253 68.4864 155.266 64.3897 152.965 59.648C152.058 57.8002 151.047 56.1266 149.932 54.6274C148.816 53.1282 147.317 51.9602 145.434 51.1234C144.493 50.705 143.586 50.3913 142.714 50.1821C141.843 49.938 140.5 49.7463 138.687 49.6068L139.577 45.789H183.298L182.409 49.6068C179.585 49.7463 177.005 50.06 174.669 50.5482C172.367 51.0363 171.217 51.9776 171.217 53.3723C171.217 53.965 171.321 54.6623 171.531 55.4642C171.775 56.2312 172.228 57.4341 172.89 59.0727C173.588 60.816 174.39 62.7162 175.296 64.7732C176.237 66.7954 177.58 69.8113 179.323 73.8208C182.844 70.4737 185.878 67.5625 188.423 65.087C190.968 62.5767 193.025 60.4674 194.594 58.759C196.965 56.1789 198.272 54.5925 198.516 53.9998C198.795 53.3723 198.935 52.8667 198.935 52.4832C198.935 52.1694 198.83 51.873 198.621 51.5941C198.412 51.3152 197.993 51.0363 197.366 50.7573C196.738 50.5133 195.919 50.3041 194.908 50.1298C193.932 49.9206 192.642 49.7463 191.038 49.6068L191.927 45.789H222.103ZM289.572 45.789L285.231 64.7209H281.256C280.768 61.4087 279.583 58.3754 277.7 55.6211C275.852 52.8318 273.9 51.2106 271.843 50.7573C270.866 50.5133 269.454 50.3738 267.606 50.339C265.759 50.2692 264.224 50.2344 263.004 50.2344H252.754L246.06 79.2598H253.172C255.787 79.2598 257.827 78.9809 259.291 78.423C260.79 77.8303 262.185 77.011 263.475 75.965C264.451 75.1631 265.584 73.7336 266.874 71.6766C268.199 69.5847 269.14 67.8065 269.698 66.3422H273.673L266.508 97.3026H262.533V95.3676C262.533 93.7987 262.359 92.1949 262.01 90.5562C261.697 88.8826 261.313 87.7147 260.86 87.0522C259.953 85.7273 258.751 84.8557 257.251 84.4373C255.752 83.9841 254.044 83.7574 252.126 83.7574H245.014L240.254 104.415C240.01 105.461 239.784 106.594 239.575 107.815C239.365 109.035 239.261 109.906 239.261 110.429C239.261 112.661 239.993 114.073 241.457 114.666C242.922 115.223 245.624 115.502 249.564 115.502C254.584 115.502 258.245 115.293 260.546 114.875C262.847 114.422 264.573 113.742 265.724 112.835C267.816 111.092 270.326 108.425 273.255 104.834C276.183 101.242 278.171 98.5927 279.217 96.8843H283.034L276.288 120H207.202L208.091 116.182C208.963 116.147 210.253 116.043 211.961 115.868C213.705 115.659 214.995 115.415 215.831 115.136C217.191 114.683 218.22 113.986 218.917 113.044C219.649 112.103 220.155 111.022 220.434 109.802L232.41 57.9222C232.584 57.19 232.706 56.5799 232.776 56.0918C232.846 55.6036 232.88 55.2375 232.88 54.9935C232.88 53.5291 232.131 52.396 230.632 51.5941C229.167 50.7573 226.762 50.0949 223.415 49.6068L224.304 45.789H289.572ZM400.552 45.789L399.663 49.6068C398.582 49.6765 397.24 49.8508 395.636 50.1298C394.032 50.4087 392.812 50.6702 391.975 50.9142C390.546 51.3675 389.483 52.0822 388.785 53.0585C388.123 54.0347 387.652 55.0981 387.373 56.2486L375.711 108.181C375.606 108.704 375.502 109.227 375.397 109.75C375.292 110.273 375.24 110.708 375.24 111.057C375.24 112.626 375.885 113.777 377.175 114.509C378.465 115.241 380.993 115.799 384.758 116.182L383.869 120H343.757L344.646 116.182C346.04 116.008 347.47 115.816 348.934 115.607C350.398 115.398 351.514 115.154 352.281 114.875C353.711 114.352 354.809 113.655 355.576 112.783C356.343 111.876 356.883 110.708 357.197 109.279L369.749 53.5814H369.226L328.904 118.797H322.314C322.245 117.437 322.001 115.258 321.582 112.26C321.164 109.227 320.78 106.385 320.432 103.735L313.319 52.7447H312.796L302.336 98.1917C301.918 99.935 301.587 101.643 301.343 103.317C301.099 104.956 300.977 106.42 300.977 107.71C300.977 109.105 301.116 110.203 301.395 111.005C301.709 111.772 302.127 112.417 302.65 112.94C303.382 113.672 304.742 114.369 306.73 115.032C308.752 115.659 310.251 116.043 311.227 116.182L310.338 120H278.436L279.325 116.182C280.232 116.078 281.714 115.851 283.771 115.502C285.828 115.119 287.588 114.474 289.053 113.567C290.622 112.591 291.912 110.987 292.923 108.756C293.969 106.49 294.997 103.143 296.008 98.7147L304.481 62.0537C304.76 60.7986 304.934 59.8398 305.004 59.1773C305.108 58.5149 305.161 57.8699 305.161 57.2423C305.161 56.1615 305.004 55.2201 304.69 54.4182C304.411 53.6163 303.975 52.919 303.382 52.3263C302.302 51.2803 301.029 50.6005 299.565 50.2867C298.1 49.938 296.671 49.7114 295.276 49.6068L296.165 45.789H330.107L337.219 94.7923L361.538 54.9935C362.619 53.1805 363.595 51.3152 364.467 49.3976C365.338 47.48 365.844 46.2771 365.983 45.789H400.552ZM436.119 90.1378L431.569 63.0997L414.625 90.1378H436.119ZM427.751 120L428.641 116.182C432.232 115.903 435.021 115.468 437.008 114.875C439.03 114.247 440.042 113.567 440.042 112.835C440.042 112.208 440.007 111.667 439.937 111.214C439.867 110.761 439.78 110.238 439.675 109.645L437.061 95.0538H411.487C410.65 96.3438 409.587 98.0522 408.297 100.179C407.041 102.271 405.978 104.067 405.106 105.566C403.782 107.937 402.997 109.558 402.753 110.429C402.544 111.301 402.439 111.859 402.439 112.103C402.439 113.149 403.259 114.021 404.897 114.718C406.536 115.38 409.046 115.868 412.428 116.182L411.539 120H380.369L381.258 116.182C382.27 116.113 383.542 115.938 385.076 115.659C386.61 115.38 387.9 114.962 388.946 114.404C390.411 113.637 391.788 112.643 393.078 111.423C394.368 110.203 395.571 108.721 396.686 106.978C403.764 96.0998 410.266 86.0585 416.194 76.8541C422.121 67.6148 428.989 56.9111 436.799 44.7431H447.154C449.839 60.3628 452.053 73.2804 453.796 83.4959C455.574 93.7115 457.126 102.254 458.45 109.122C458.625 110.168 458.956 111.127 459.444 111.998C459.967 112.835 460.786 113.637 461.902 114.404C462.739 114.962 463.75 115.38 464.935 115.659C466.156 115.938 467.289 116.113 468.335 116.182L467.446 120H427.751Z" fill="white"></path><path d="M67.6475 247.105L66.9016 242.672L64.1238 247.105H67.6475ZM66.2758 252L66.4215 251.374C67.0102 251.328 67.4675 251.257 67.7933 251.16C68.1248 251.057 68.2905 250.945 68.2905 250.825C68.2905 250.723 68.2848 250.634 68.2734 250.56C68.262 250.485 68.2477 250.4 68.2305 250.302L67.8018 247.91H63.6094C63.4722 248.122 63.2979 248.402 63.0864 248.751C62.8807 249.094 62.7064 249.388 62.5635 249.634C62.3463 250.022 62.2177 250.288 62.1777 250.431C62.1434 250.574 62.1262 250.665 62.1262 250.705C62.1262 250.877 62.2605 251.02 62.5292 251.134C62.7978 251.243 63.2093 251.323 63.7637 251.374L63.618 252H58.5082L58.654 251.374C58.8197 251.363 59.0283 251.334 59.2798 251.288C59.5313 251.243 59.7428 251.174 59.9143 251.083C60.1543 250.957 60.3801 250.794 60.5916 250.594C60.803 250.394 61.0002 250.151 61.1831 249.865C62.3434 248.082 63.4094 246.436 64.381 244.927C65.3527 243.412 66.4787 241.658 67.759 239.663H69.4565C69.8966 242.223 70.2596 244.341 70.5453 246.016C70.8368 247.69 71.0912 249.091 71.3084 250.217C71.337 250.388 71.3913 250.545 71.4713 250.688C71.557 250.825 71.6913 250.957 71.8742 251.083C72.0114 251.174 72.1772 251.243 72.3715 251.288C72.5715 251.334 72.7573 251.363 72.9288 251.374L72.783 252H66.2758ZM85.0352 240.82C85.6696 241.215 86.1669 241.732 86.527 242.372C86.887 243.006 87.0671 243.758 87.0671 244.627C87.0671 245.713 86.8527 246.716 86.4241 247.636C85.9954 248.556 85.3895 249.339 84.6065 249.985C83.8292 250.637 82.9261 251.137 81.8973 251.486C80.8685 251.829 79.7339 252 78.4936 252H72.1493L72.295 251.374C72.4379 251.368 72.6494 251.351 72.9295 251.323C73.2152 251.288 73.4267 251.248 73.5639 251.203C73.7868 251.128 73.9554 251.014 74.0697 250.86C74.1898 250.705 74.2726 250.528 74.3184 250.328L76.2817 241.823C76.3103 241.703 76.3303 241.603 76.3417 241.523C76.3531 241.443 76.3588 241.383 76.3588 241.343C76.3588 241.103 76.236 240.917 75.9902 240.786C75.7501 240.649 75.3557 240.54 74.807 240.46L74.9528 239.834H81.1857C81.8258 239.834 82.4831 239.911 83.1576 240.066C83.8377 240.214 84.4636 240.466 85.0352 240.82ZM82.4974 249.008C82.9032 248.316 83.2033 247.565 83.3976 246.753C83.592 245.936 83.6891 245.084 83.6891 244.198C83.6891 243.089 83.4377 242.209 82.9347 241.558C82.4317 240.9 81.6744 240.572 80.6627 240.572C80.4627 240.572 80.2626 240.577 80.0626 240.589C79.8682 240.594 79.7139 240.6 79.5996 240.606L77.4991 249.737C77.4762 249.822 77.4562 249.928 77.4391 250.054C77.4219 250.174 77.4134 250.26 77.4134 250.311C77.4134 250.671 77.5448 250.92 77.8078 251.057C78.0764 251.194 78.4508 251.263 78.9309 251.263C79.7082 251.263 80.3969 251.057 80.9971 250.645C81.6029 250.234 82.1031 249.688 82.4974 249.008ZM105.818 239.834L105.672 240.46C105.495 240.472 105.275 240.5 105.012 240.546C104.749 240.592 104.549 240.634 104.412 240.674C104.178 240.749 104.003 240.866 103.889 241.026C103.78 241.186 103.703 241.36 103.657 241.549L101.746 250.062C101.728 250.148 101.711 250.234 101.694 250.32C101.677 250.405 101.668 250.477 101.668 250.534C101.668 250.791 101.774 250.98 101.986 251.1C102.197 251.22 102.611 251.311 103.229 251.374L103.083 252H96.5071L96.6529 251.374C96.8815 251.346 97.1159 251.314 97.3559 251.28C97.596 251.246 97.7789 251.206 97.9046 251.16C98.139 251.074 98.319 250.96 98.4447 250.817C98.5705 250.668 98.6591 250.477 98.7105 250.242L100.768 241.112H100.682L94.0723 251.803H92.992C92.9806 251.58 92.9406 251.223 92.872 250.731C92.8034 250.234 92.7405 249.768 92.6834 249.334L91.5174 240.975H91.4317L89.717 248.425C89.6484 248.711 89.5941 248.991 89.5541 249.265C89.5141 249.534 89.4941 249.774 89.4941 249.985C89.4941 250.214 89.5169 250.394 89.5626 250.525C89.6141 250.651 89.6827 250.757 89.7684 250.843C89.8884 250.963 90.1113 251.077 90.4371 251.186C90.7686 251.288 91.0144 251.351 91.1745 251.374L91.0287 252H85.7989L85.9446 251.374C86.0933 251.357 86.3362 251.32 86.6734 251.263C87.0106 251.2 87.2993 251.094 87.5393 250.945C87.7965 250.785 88.008 250.523 88.1737 250.157C88.3452 249.785 88.5138 249.236 88.6796 248.511L90.0685 242.501C90.1142 242.295 90.1428 242.138 90.1542 242.029C90.1714 241.92 90.1799 241.815 90.1799 241.712C90.1799 241.535 90.1542 241.38 90.1028 241.249C90.057 241.117 89.9856 241.003 89.8884 240.906C89.7113 240.734 89.5026 240.623 89.2626 240.572C89.0225 240.514 88.7882 240.477 88.5596 240.46L88.7053 239.834H94.2695L95.4355 247.868L99.4221 241.343C99.5993 241.046 99.7593 240.74 99.9022 240.426C100.045 240.111 100.128 239.914 100.151 239.834H105.818ZM116.415 240.82C117.05 241.215 117.547 241.732 117.907 242.372C118.267 243.006 118.447 243.758 118.447 244.627C118.447 245.713 118.233 246.716 117.804 247.636C117.376 248.556 116.77 249.339 115.987 249.985C115.209 250.637 114.306 251.137 113.278 251.486C112.249 251.829 111.114 252 109.874 252H103.529L103.675 251.374C103.818 251.368 104.03 251.351 104.31 251.323C104.595 251.288 104.807 251.248 104.944 251.203C105.167 251.128 105.336 251.014 105.45 250.86C105.57 250.705 105.653 250.528 105.699 250.328L107.662 241.823C107.69 241.703 107.71 241.603 107.722 241.523C107.733 241.443 107.739 241.383 107.739 241.343C107.739 241.103 107.616 240.917 107.37 240.786C107.13 240.649 106.736 240.54 106.187 240.46L106.333 239.834H112.566C113.206 239.834 113.863 239.911 114.538 240.066C115.218 240.214 115.844 240.466 116.415 240.82ZM113.878 249.008C114.283 248.316 114.584 247.565 114.778 246.753C114.972 245.936 115.069 245.084 115.069 244.198C115.069 243.089 114.818 242.209 114.315 241.558C113.812 240.9 113.055 240.572 112.043 240.572C111.843 240.572 111.643 240.577 111.443 240.589C111.248 240.594 111.094 240.6 110.98 240.606L108.879 249.737C108.856 249.822 108.836 249.928 108.819 250.054C108.802 250.174 108.794 250.26 108.794 250.311C108.794 250.671 108.925 250.92 109.188 251.057C109.457 251.194 109.831 251.263 110.311 251.263C111.088 251.263 111.777 251.057 112.377 250.645C112.983 250.234 113.483 249.688 113.878 249.008ZM127.776 242.389C127.776 241.778 127.582 241.323 127.193 241.026C126.81 240.723 126.253 240.572 125.521 240.572H124.938L123.746 245.741H124.578C125.51 245.741 126.276 245.45 126.876 244.867C127.476 244.278 127.776 243.452 127.776 242.389ZM122.743 250.062C122.72 250.16 122.7 250.251 122.683 250.337C122.672 250.422 122.666 250.488 122.666 250.534C122.666 250.791 122.772 250.98 122.983 251.1C123.195 251.22 123.598 251.311 124.192 251.374L124.046 252H117.471L117.616 251.374C117.759 251.368 117.971 251.348 118.251 251.314C118.537 251.274 118.748 251.231 118.885 251.186C119.108 251.111 119.277 251 119.391 250.851C119.511 250.703 119.594 250.528 119.64 250.328L121.603 241.823C121.632 241.703 121.652 241.603 121.663 241.523C121.674 241.443 121.68 241.383 121.68 241.343C121.68 241.103 121.557 240.917 121.312 240.786C121.071 240.649 120.677 240.54 120.128 240.46L120.274 239.834H126.979C128.373 239.834 129.419 240.031 130.116 240.426C130.819 240.82 131.171 241.417 131.171 242.218C131.171 243.161 130.831 243.952 130.151 244.593C129.471 245.227 128.51 245.693 127.27 245.99C127.504 246.419 127.799 246.953 128.153 247.593C128.513 248.228 128.93 248.959 129.405 249.788C129.542 250.034 129.719 250.314 129.936 250.628C130.159 250.937 130.394 251.134 130.639 251.22C130.759 251.26 130.925 251.294 131.137 251.323C131.348 251.351 131.5 251.368 131.591 251.374L131.437 252H126.996C126.458 250.771 125.998 249.788 125.615 249.051C125.238 248.308 124.764 247.453 124.192 246.487H123.575L122.743 250.062ZM130.726 252L130.872 251.374C131.037 251.368 131.263 251.351 131.549 251.323C131.835 251.288 132.055 251.246 132.209 251.194C132.432 251.12 132.601 251.008 132.715 250.86C132.835 250.705 132.918 250.528 132.964 250.328L134.927 241.823C134.955 241.703 134.975 241.603 134.987 241.523C134.998 241.443 135.004 241.383 135.004 241.343C135.004 241.103 134.87 240.917 134.601 240.786C134.338 240.649 133.932 240.54 133.384 240.46L133.529 239.834H140.277L140.131 240.46C139.948 240.472 139.714 240.5 139.428 240.546C139.142 240.586 138.928 240.629 138.785 240.674C138.551 240.749 138.376 240.866 138.262 241.026C138.153 241.18 138.076 241.355 138.03 241.549L136.067 250.062C136.044 250.16 136.024 250.251 136.007 250.337C135.996 250.422 135.99 250.488 135.99 250.534C135.99 250.82 136.121 251.02 136.384 251.134C136.653 251.243 137.065 251.323 137.619 251.374L137.473 252H130.726ZM151.74 239.834L150.986 243.084H150.325C150.263 242.546 150.077 242.018 149.768 241.498C149.465 240.977 149.145 240.694 148.808 240.649C148.636 240.626 148.411 240.606 148.131 240.589C147.856 240.572 147.599 240.563 147.359 240.563H145.464L144.341 245.407H145.55C145.864 245.407 146.159 245.367 146.433 245.287C146.713 245.207 146.982 245.061 147.239 244.85C147.416 244.707 147.611 244.47 147.822 244.138C148.033 243.807 148.182 243.518 148.268 243.272H148.919L147.736 248.391H147.093V248.125C147.093 247.828 147.062 247.545 146.999 247.276C146.942 247.002 146.879 246.816 146.81 246.719C146.673 246.519 146.49 246.373 146.262 246.282C146.039 246.19 145.747 246.144 145.387 246.144H144.178L143.27 250.062C143.247 250.16 143.227 250.251 143.209 250.337C143.198 250.422 143.192 250.488 143.192 250.534C143.192 250.791 143.298 250.98 143.51 251.1C143.721 251.22 144.124 251.311 144.718 251.374L144.573 252H137.997L138.143 251.374C138.285 251.368 138.497 251.348 138.777 251.314C139.063 251.274 139.274 251.231 139.411 251.186C139.634 251.111 139.803 251 139.917 250.851C140.037 250.703 140.12 250.528 140.166 250.328L142.129 241.823C142.158 241.703 142.178 241.603 142.189 241.523C142.201 241.443 142.206 241.383 142.206 241.343C142.206 241.103 142.084 240.917 141.838 240.786C141.598 240.649 141.203 240.54 140.655 240.46L140.8 239.834H151.74ZM163.203 239.834L162.398 243.315H161.737C161.715 243.121 161.669 242.878 161.6 242.586C161.537 242.295 161.449 242.006 161.334 241.72C161.214 241.423 161.083 241.177 160.94 240.983C160.803 240.789 160.637 240.674 160.443 240.64C160.271 240.617 160.051 240.597 159.783 240.58C159.52 240.563 159.291 240.554 159.097 240.554H158.668L156.482 250.011C156.459 250.108 156.439 250.202 156.422 250.294C156.41 250.38 156.405 250.442 156.405 250.482C156.405 250.62 156.43 250.743 156.482 250.851C156.539 250.954 156.642 251.037 156.791 251.1C156.928 251.157 157.128 251.214 157.391 251.271C157.654 251.323 157.871 251.357 158.042 251.374L157.897 252H151.115L151.261 251.374C151.421 251.363 151.655 251.34 151.964 251.306C152.272 251.271 152.492 251.231 152.624 251.186C152.852 251.094 153.024 250.971 153.138 250.817C153.253 250.663 153.333 250.48 153.378 250.268L155.625 240.554H155.29C155.073 240.554 154.853 240.563 154.63 240.58C154.413 240.592 154.164 240.612 153.884 240.64C153.678 240.669 153.447 240.792 153.19 241.009C152.938 241.226 152.692 241.463 152.452 241.72C152.167 242.041 151.929 242.332 151.741 242.595C151.558 242.852 151.401 243.092 151.269 243.315H150.609L151.415 239.834H163.203ZM167.062 252.326C166.279 252.326 165.553 252.211 164.885 251.983C164.216 251.749 163.639 251.414 163.153 250.98C162.673 250.545 162.298 250.017 162.03 249.394C161.761 248.765 161.627 248.056 161.627 247.267C161.627 246.221 161.818 245.236 162.201 244.31C162.59 243.384 163.136 242.558 163.839 241.832C164.513 241.135 165.336 240.574 166.308 240.151C167.285 239.723 168.323 239.508 169.42 239.508C170.083 239.508 170.755 239.588 171.435 239.749C172.115 239.909 172.624 240.094 172.961 240.306L173.604 239.834H174.35L173.398 244.275H172.644C172.529 242.978 172.183 241.992 171.606 241.317C171.035 240.637 170.297 240.297 169.394 240.297C168.731 240.297 168.12 240.494 167.559 240.889C166.999 241.283 166.502 241.889 166.068 242.706C165.713 243.381 165.442 244.164 165.253 245.056C165.07 245.941 164.979 246.773 164.979 247.55C164.979 248.694 165.256 249.582 165.81 250.217C166.365 250.851 167.108 251.168 168.04 251.168C168.857 251.168 169.614 250.94 170.312 250.482C171.009 250.025 171.68 249.365 172.326 248.502L172.986 248.948C172.706 249.382 172.372 249.811 171.983 250.234C171.595 250.651 171.152 251.014 170.654 251.323C170.134 251.648 169.597 251.897 169.043 252.069C168.494 252.24 167.834 252.326 167.062 252.326ZM186.988 244.498C186.988 245.527 186.793 246.522 186.405 247.482C186.022 248.436 185.482 249.268 184.784 249.977C184.07 250.703 183.23 251.277 182.264 251.7C181.298 252.123 180.203 252.334 178.98 252.334C177.38 252.334 176.065 251.874 175.036 250.954C174.007 250.028 173.493 248.819 173.493 247.327C173.493 246.241 173.702 245.221 174.119 244.267C174.536 243.307 175.113 242.469 175.851 241.755C176.571 241.052 177.414 240.5 178.38 240.1C179.352 239.7 180.375 239.5 181.449 239.5C183.061 239.5 184.387 239.951 185.427 240.855C186.467 241.758 186.988 242.972 186.988 244.498ZM182.504 248.991C182.892 248.202 183.181 247.345 183.37 246.419C183.558 245.487 183.653 244.57 183.653 243.667C183.653 242.621 183.452 241.798 183.052 241.197C182.652 240.597 182.055 240.297 181.261 240.297C180.563 240.297 179.937 240.532 179.383 241C178.834 241.469 178.371 242.078 177.994 242.826C177.617 243.575 177.328 244.421 177.128 245.364C176.928 246.307 176.828 247.245 176.828 248.176C176.828 249.188 177.028 250.002 177.428 250.62C177.828 251.231 178.428 251.537 179.229 251.537C179.92 251.537 180.546 251.297 181.106 250.817C181.672 250.337 182.138 249.728 182.504 248.991ZM202.592 239.834L202.446 240.46C202.286 240.477 202.052 240.509 201.743 240.554C201.44 240.594 201.143 240.706 200.852 240.889C200.606 241.043 200.394 241.309 200.217 241.686C200.046 242.063 199.874 242.615 199.703 243.341L197.688 252.069H196.248L190.992 242.321L189.603 248.408C189.529 248.728 189.472 249.028 189.432 249.308C189.392 249.588 189.372 249.811 189.372 249.977C189.372 250.211 189.395 250.394 189.44 250.525C189.486 250.651 189.552 250.757 189.637 250.843C189.769 250.974 189.998 251.088 190.323 251.186C190.655 251.283 190.901 251.346 191.061 251.374L190.915 252H185.685L185.831 251.374C185.985 251.351 186.228 251.311 186.56 251.254C186.897 251.197 187.185 251.094 187.426 250.945C187.677 250.785 187.889 250.525 188.06 250.165C188.231 249.799 188.4 249.245 188.566 248.502L189.886 242.775C189.915 242.644 189.938 242.521 189.955 242.406C189.978 242.286 189.989 242.178 189.989 242.081C189.989 241.909 189.969 241.746 189.929 241.592C189.889 241.432 189.815 241.286 189.706 241.155C189.546 240.96 189.349 240.812 189.115 240.709C188.88 240.6 188.606 240.517 188.291 240.46L188.446 239.834H192.938L197.534 248.408L198.674 243.427C198.754 243.061 198.811 242.764 198.845 242.535C198.885 242.301 198.905 242.083 198.905 241.883C198.905 241.66 198.88 241.48 198.828 241.343C198.783 241.2 198.714 241.083 198.622 240.992C198.497 240.866 198.274 240.754 197.954 240.657C197.639 240.554 197.396 240.489 197.225 240.46L197.371 239.834H202.592ZM213.961 239.834L213.155 243.315H212.495C212.472 243.121 212.426 242.878 212.358 242.586C212.295 242.295 212.206 242.006 212.092 241.72C211.972 241.423 211.841 241.177 211.698 240.983C211.561 240.789 211.395 240.674 211.2 240.64C211.029 240.617 210.809 240.597 210.54 240.58C210.277 240.563 210.049 240.554 209.854 240.554H209.426L207.239 250.011C207.217 250.108 207.197 250.202 207.179 250.294C207.168 250.38 207.162 250.442 207.162 250.482C207.162 250.62 207.188 250.743 207.239 250.851C207.297 250.954 207.4 251.037 207.548 251.1C207.685 251.157 207.885 251.214 208.148 251.271C208.411 251.323 208.628 251.357 208.8 251.374L208.654 252H201.873L202.018 251.374C202.178 251.363 202.413 251.34 202.721 251.306C203.03 251.271 203.25 251.231 203.381 251.186C203.61 251.094 203.782 250.971 203.896 250.817C204.01 250.663 204.09 250.48 204.136 250.268L206.382 240.554H206.048C205.831 240.554 205.611 240.563 205.388 240.58C205.17 240.592 204.922 240.612 204.642 240.64C204.436 240.669 204.204 240.792 203.947 241.009C203.696 241.226 203.45 241.463 203.21 241.72C202.924 242.041 202.687 242.332 202.498 242.595C202.315 242.852 202.158 243.092 202.027 243.315H201.367L202.173 239.834H213.961ZM224.67 239.834L223.958 242.938H223.307C223.227 242.395 223.032 241.898 222.724 241.446C222.421 240.989 222.101 240.723 221.764 240.649C221.604 240.609 221.372 240.586 221.069 240.58C220.766 240.569 220.515 240.563 220.315 240.563H218.634L217.537 245.321H218.703C219.132 245.321 219.466 245.276 219.706 245.184C219.952 245.087 220.18 244.953 220.392 244.781C220.552 244.65 220.738 244.415 220.949 244.078C221.166 243.735 221.321 243.444 221.412 243.204H222.064L220.889 248.279H220.238V247.962C220.238 247.705 220.209 247.442 220.152 247.173C220.1 246.899 220.037 246.707 219.963 246.599C219.815 246.382 219.617 246.239 219.372 246.17C219.126 246.096 218.846 246.059 218.531 246.059H217.365L216.585 249.445C216.545 249.617 216.508 249.802 216.474 250.002C216.439 250.202 216.422 250.345 216.422 250.431C216.422 250.797 216.542 251.028 216.782 251.126C217.022 251.217 217.465 251.263 218.111 251.263C218.934 251.263 219.535 251.228 219.912 251.16C220.289 251.085 220.572 250.974 220.761 250.825C221.103 250.54 221.515 250.102 221.995 249.514C222.475 248.925 222.801 248.491 222.972 248.211H223.598L222.492 252H211.167L211.313 251.374C211.455 251.368 211.667 251.351 211.947 251.323C212.233 251.288 212.444 251.248 212.581 251.203C212.804 251.128 212.973 251.014 213.087 250.86C213.207 250.705 213.29 250.528 213.336 250.328L215.299 241.823C215.328 241.703 215.348 241.603 215.359 241.523C215.371 241.443 215.376 241.383 215.376 241.343C215.376 241.103 215.253 240.917 215.008 240.786C214.768 240.649 214.373 240.54 213.825 240.46L213.97 239.834H224.67ZM228.537 252.326C227.863 252.326 227.183 252.243 226.497 252.077C225.817 251.911 225.219 251.686 224.705 251.4L223.968 252H223.239L224.148 247.602H224.885C224.954 248.03 225.079 248.476 225.262 248.939C225.445 249.397 225.682 249.805 225.974 250.165C226.26 250.537 226.623 250.845 227.063 251.091C227.503 251.337 228.006 251.46 228.572 251.46C229.4 251.46 230.063 251.26 230.561 250.86C231.058 250.454 231.307 249.922 231.307 249.265C231.307 248.842 231.164 248.471 230.878 248.151C230.598 247.83 230.143 247.556 229.515 247.327C229.115 247.185 228.726 247.047 228.349 246.916C227.977 246.779 227.623 246.639 227.286 246.496C226.617 246.216 226.114 245.819 225.777 245.304C225.439 244.784 225.271 244.232 225.271 243.649C225.271 243.112 225.394 242.598 225.639 242.106C225.885 241.609 226.24 241.166 226.703 240.777C227.154 240.394 227.711 240.089 228.374 239.86C229.043 239.626 229.775 239.508 230.569 239.508C231.232 239.508 231.89 239.606 232.541 239.8C233.193 239.989 233.673 240.171 233.981 240.349L234.624 239.834H235.37L234.479 243.984H233.741C233.667 243.498 233.558 243.041 233.416 242.612C233.278 242.183 233.087 241.798 232.841 241.455C232.601 241.123 232.301 240.86 231.941 240.666C231.587 240.466 231.158 240.366 230.655 240.366C229.958 240.366 229.375 240.56 228.906 240.949C228.443 241.337 228.212 241.826 228.212 242.415C228.212 242.826 228.352 243.186 228.632 243.495C228.912 243.804 229.355 244.072 229.961 244.301C230.315 244.432 230.686 244.57 231.075 244.713C231.464 244.85 231.835 244.993 232.19 245.141C232.853 245.416 233.376 245.79 233.759 246.264C234.141 246.733 234.333 247.29 234.333 247.936C234.333 248.548 234.193 249.122 233.913 249.659C233.633 250.197 233.241 250.66 232.738 251.048C232.207 251.46 231.587 251.777 230.878 252C230.169 252.217 229.389 252.326 228.537 252.326ZM248.017 239.834L247.211 243.315H246.551C246.528 243.121 246.482 242.878 246.414 242.586C246.351 242.295 246.262 242.006 246.148 241.72C246.028 241.423 245.896 241.177 245.754 240.983C245.616 240.789 245.451 240.674 245.256 240.64C245.085 240.617 244.865 240.597 244.596 240.58C244.333 240.563 244.105 240.554 243.91 240.554H243.482L241.295 250.011C241.272 250.108 241.252 250.202 241.235 250.294C241.224 250.38 241.218 250.442 241.218 250.482C241.218 250.62 241.244 250.743 241.295 250.851C241.352 250.954 241.455 251.037 241.604 251.1C241.741 251.157 241.941 251.214 242.204 251.271C242.467 251.323 242.684 251.357 242.856 251.374L242.71 252H235.928L236.074 251.374C236.234 251.363 236.468 251.34 236.777 251.306C237.086 251.271 237.306 251.231 237.437 251.186C237.666 251.094 237.837 250.971 237.952 250.817C238.066 250.663 238.146 250.48 238.192 250.268L240.438 240.554H240.104C239.886 240.554 239.666 240.563 239.443 240.58C239.226 240.592 238.978 240.612 238.698 240.64C238.492 240.669 238.26 240.792 238.003 241.009C237.752 241.226 237.506 241.463 237.266 241.72C236.98 242.041 236.743 242.332 236.554 242.595C236.371 242.852 236.214 243.092 236.083 243.315H235.422L236.228 239.834H248.017ZM250.015 250.577C250.015 251.028 249.847 251.42 249.509 251.751C249.178 252.083 248.783 252.249 248.326 252.249C247.863 252.249 247.463 252.086 247.126 251.76C246.794 251.428 246.629 251.034 246.629 250.577C246.629 250.12 246.794 249.725 247.126 249.394C247.463 249.056 247.863 248.888 248.326 248.888C248.783 248.888 249.178 249.056 249.509 249.394C249.847 249.731 250.015 250.125 250.015 250.577ZM260.587 242.389C260.587 241.778 260.393 241.323 260.004 241.026C259.621 240.723 259.064 240.572 258.332 240.572H257.749L256.557 245.741H257.389C258.321 245.741 259.087 245.45 259.687 244.867C260.287 244.278 260.587 243.452 260.587 242.389ZM255.554 250.062C255.531 250.16 255.511 250.251 255.494 250.337C255.483 250.422 255.477 250.488 255.477 250.534C255.477 250.791 255.583 250.98 255.794 251.1C256.006 251.22 256.409 251.311 257.003 251.374L256.857 252H250.282L250.427 251.374C250.57 251.368 250.782 251.348 251.062 251.314C251.348 251.274 251.559 251.231 251.696 251.186C251.919 251.111 252.088 251 252.202 250.851C252.322 250.703 252.405 250.528 252.451 250.328L254.414 241.823C254.443 241.703 254.463 241.603 254.474 241.523C254.485 241.443 254.491 241.383 254.491 241.343C254.491 241.103 254.368 240.917 254.123 240.786C253.883 240.649 253.488 240.54 252.939 240.46L253.085 239.834H259.79C261.184 239.834 262.23 240.031 262.927 240.426C263.631 240.82 263.982 241.417 263.982 242.218C263.982 243.161 263.642 243.952 262.962 244.593C262.282 245.227 261.321 245.693 260.081 245.99C260.315 246.419 260.61 246.953 260.964 247.593C261.324 248.228 261.742 248.959 262.216 249.788C262.353 250.034 262.53 250.314 262.747 250.628C262.97 250.937 263.205 251.134 263.45 251.22C263.571 251.26 263.736 251.294 263.948 251.323C264.159 251.351 264.311 251.368 264.402 251.374L264.248 252H259.807C259.269 250.771 258.809 249.788 258.426 249.051C258.049 248.308 257.575 247.453 257.003 246.487H256.386L255.554 250.062ZM270.533 252.334C269.047 252.334 267.907 252.049 267.112 251.477C266.323 250.9 265.929 250.088 265.929 249.042C265.929 248.859 265.94 248.676 265.963 248.493C265.986 248.305 266.02 248.102 266.066 247.885L267.472 241.806C267.501 241.686 267.521 241.592 267.532 241.523C267.544 241.455 267.549 241.395 267.549 241.343C267.549 241.103 267.435 240.917 267.206 240.786C266.978 240.654 266.58 240.546 266.015 240.46L266.16 239.834H272.676L272.53 240.46C272.342 240.472 272.136 240.497 271.913 240.537C271.69 240.572 271.502 240.612 271.347 240.657C271.113 240.726 270.942 240.84 270.833 241C270.724 241.155 270.647 241.332 270.601 241.532L269.213 247.525C269.155 247.765 269.11 248.025 269.075 248.305C269.041 248.585 269.024 248.819 269.024 249.008C269.024 249.745 269.235 250.291 269.658 250.645C270.081 250.994 270.699 251.168 271.51 251.168C272.493 251.168 273.342 250.843 274.057 250.191C274.777 249.534 275.26 248.665 275.505 247.585L276.466 243.418C276.546 243.064 276.603 242.761 276.637 242.509C276.677 242.258 276.697 242.046 276.697 241.875C276.697 241.658 276.671 241.478 276.62 241.335C276.574 241.192 276.506 241.077 276.414 240.992C276.271 240.86 276.034 240.746 275.703 240.649C275.377 240.546 275.14 240.483 274.991 240.46L275.137 239.834H280.409L280.264 240.46C280.092 240.477 279.844 240.517 279.518 240.58C279.198 240.637 278.912 240.74 278.66 240.889C278.409 241.032 278.195 241.295 278.017 241.678C277.846 242.055 277.675 242.606 277.503 243.332L276.449 247.902C276.117 249.319 275.42 250.414 274.357 251.186C273.299 251.951 272.025 252.334 270.533 252.334Z" fill="white"></path><path d="M662.363 238.056C663.274 238.05 664.196 238.045 665.125 238.039C665.119 238.341 665.096 238.939 665.085 239.241C666.998 239.258 668.923 239.246 670.848 239.315C670.723 239.491 670.466 239.844 670.341 240.027C670.113 242.134 669.504 244.184 669.51 246.319C669.999 246.689 670.495 247.065 670.996 247.441C669.885 248.159 668.798 248.893 667.71 249.633C668.621 250.209 669.521 250.801 670.432 251.393C669.578 251.98 668.86 253.369 667.659 252.919C666.161 251.997 664.948 250.687 663.57 249.611C663.285 250.733 662.978 251.837 662.625 252.936C660.814 253.455 658.934 253.369 657.084 253.352C657.055 252.902 656.993 251.997 656.964 251.547C655.962 252.094 654.971 252.674 653.912 253.084C653.342 252.549 652.853 251.946 652.346 251.37C653.428 250.772 654.532 250.209 655.666 249.702C655.819 249.474 656.121 249.024 656.275 248.796C655.409 248.831 654.55 248.865 653.695 248.893C653.741 248.421 653.832 247.475 653.883 247.003C656.036 246.985 658.188 246.991 660.352 247.025C660.233 248.808 659.008 249.998 657.739 251.08C658.496 251.108 659.259 251.16 660.034 251.131C660.757 249.673 660.774 247.971 661.133 246.399C659.35 246.462 657.573 246.479 655.797 246.513C655.637 244.058 656.435 241.701 656.696 239.281C658.411 239.224 660.142 239.366 661.856 239.104C661.981 238.842 662.237 238.318 662.363 238.056ZM658.843 241.809C661.19 242.168 663.576 242.042 665.95 242.031C666.554 242.048 667.078 241.826 667.516 241.359C664.641 241.445 661.548 240.539 658.843 241.809ZM659.145 243.671C659.128 243.853 659.1 244.212 659.083 244.394C661.765 244.332 664.475 244.582 667.141 244.167C664.623 243.142 661.788 243.927 659.145 243.671ZM664.925 246.177C665.028 246.638 665.13 247.105 665.244 247.566C665.489 247.635 665.985 247.777 666.229 247.845C666.753 247.532 667.283 247.219 667.818 246.911C667.875 246.718 667.983 246.331 668.04 246.137C666.998 246.154 665.956 246.165 664.925 246.177Z" fill="#FBF9FA"></path><path d="M701.426 238.142C702.149 238.136 702.884 238.125 703.63 238.113C704.023 240.067 706.517 238.939 707.946 239.229C707.895 239.919 707.849 240.608 707.815 241.297C708.624 242.145 708.544 243.552 707.4 244.047C707.098 244.816 706.807 245.585 706.534 246.359C706.597 247.361 706.614 248.369 706.608 249.372C704.922 249.338 703.231 249.292 701.562 249.543C703.242 250.072 705.025 249.839 706.756 249.861C706.71 250.494 706.665 251.131 706.636 251.769C705.059 251.775 703.487 251.775 701.921 251.729C701.551 252.31 701.181 252.897 700.828 253.483C700.241 253.495 699.068 253.529 698.482 253.546C698.493 253.107 698.516 252.23 698.527 251.798C696.745 251.769 694.957 251.781 693.186 251.712C693.51 251.052 693.903 250.42 694.324 249.805C695.754 249.867 697.206 249.879 698.652 249.901C698.664 249.668 698.687 249.195 698.698 248.956C697.263 248.984 695.828 248.984 694.41 248.928C694.524 248.489 694.757 247.606 694.877 247.168C696.323 247.031 697.787 247.088 699.25 247.1C699.222 246.866 699.171 246.41 699.148 246.177C697.901 246.183 696.654 246.177 695.424 246.177L695.275 244.81C696.711 244.765 698.163 244.748 699.609 244.736C699.672 244.491 699.803 243.996 699.865 243.751C698.225 243.768 696.58 243.768 694.951 243.745C695.025 243.267 695.179 242.299 695.253 241.815C697.149 241.855 699.057 241.883 700.959 241.661C699.484 240.801 697.73 241.12 696.124 241.035C696.244 240.602 696.471 239.736 696.591 239.303C697.98 239.155 699.387 239.241 700.794 239.235C700.953 238.962 701.272 238.415 701.426 238.142ZM703.624 241.262C703.749 242.037 704.148 242.151 704.82 241.61C704.677 240.841 704.279 240.727 703.624 241.262Z" fill="#FBF9FA"></path><path d="M771.491 238.765C775.773 238.754 780.073 238.805 784.349 238.406C784.611 238.338 785.141 238.201 785.403 238.133C785.449 238.833 785.5 239.528 785.568 240.228C784.748 240.348 783.934 240.468 783.137 240.593C783.336 240.775 783.729 241.14 783.922 241.322C783.683 241.601 783.205 242.165 782.971 242.444C783.996 242.632 785.255 242.37 786.138 243.133C786.434 243.087 787.026 243.002 787.322 242.956C786.827 241.72 788.199 241.726 788.888 241.396C789.082 240.456 789.287 239.522 789.526 238.588C790.164 238.594 791.445 238.617 792.083 238.623C791.992 239.562 791.929 240.496 791.855 241.436C792.556 241.703 793.262 241.982 793.979 242.261C794.173 241.242 794.349 240.217 794.56 239.192C795.414 239.198 796.28 239.203 797.157 239.209C797.077 239.995 797.009 240.775 796.946 241.561C797.214 241.521 797.749 241.447 798.017 241.407C798.102 240.445 798.182 239.482 798.29 238.52C799.161 238.509 800.038 238.503 800.927 238.497C800.739 239.351 800.579 240.206 800.414 241.06C801.809 240.855 803.205 240.61 804.611 240.365C804.452 241.231 804.338 242.091 804.178 242.951C803.831 244.232 803.489 245.519 803.062 246.777C802.937 247.438 801.804 248.543 803.484 248.571C803.267 249.79 802.937 250.98 802.567 252.153C799.475 253.85 795.75 252.842 792.379 252.945C792.248 250.189 793.023 247.529 793.541 244.853C793.21 244.847 792.55 244.841 792.214 244.841C792.06 244.448 791.753 243.662 791.599 243.269C791.092 244.864 790.688 246.493 790.608 248.167C790.46 248.338 790.164 248.691 790.021 248.862C790.54 248.998 791.57 249.266 792.089 249.397C791.986 249.807 791.787 250.621 791.684 251.031C789.754 251.982 787.624 252.421 785.488 252.535C785.261 251.071 786.172 250.263 787.362 249.744C787.738 247.734 788.119 245.73 788.421 243.708C787.385 243.776 786.36 243.845 785.335 243.896L785.898 244.722C784.771 244.761 783.655 244.813 782.544 244.875C783.33 245.9 784.56 246.407 785.676 246.994C785.357 247.597 785.027 248.201 784.748 248.816C784.327 248.827 783.478 248.85 783.057 248.862C782.835 250.388 782.561 251.908 782.265 253.423C781.73 253.383 780.654 253.309 780.118 253.275C777.59 252.387 774.856 253.064 772.248 252.763C771.309 253.548 770.073 253.332 768.968 253.417C769.179 251.851 769.475 250.297 769.822 248.753C769.401 248.793 768.547 248.873 768.12 248.913C768.091 248.406 768.034 247.387 768 246.88C769.259 246.35 770.751 246.077 771.553 244.835C770.921 244.824 769.646 244.807 769.014 244.801C769.059 244.061 769.128 243.326 769.202 242.586C770.101 242.575 770.99 242.563 771.912 242.558C771.912 242.176 771.907 241.402 771.907 241.02C771.605 241.009 771.001 240.986 770.705 240.98C770.956 240.24 771.218 239.5 771.491 238.765ZM774.583 240.986C774.703 241.476 774.834 241.96 774.97 242.449C775.238 242.512 775.768 242.632 776.035 242.694C776.178 242.13 776.343 241.572 776.502 241.014C775.853 241.003 775.215 240.992 774.583 240.986ZM779.315 240.843C779.327 241.527 779.361 242.205 779.406 242.882C780.084 242.239 780.745 241.578 781.411 240.912C780.705 240.889 780.004 240.866 779.315 240.843ZM799.902 243.731C799.742 245.638 799.355 247.518 798.78 249.346C798.153 249.334 796.906 249.317 796.286 249.306C796.656 247.62 797.06 245.929 797.077 244.192C797.237 244.152 797.556 244.072 797.715 244.033C797.425 243.976 796.838 243.856 796.548 243.799C795.938 246.179 795.46 248.605 795.192 251.048C796.707 251.071 798.233 251.077 799.759 251.094C800.221 250.251 800.631 249.386 801.052 248.52C799.89 248.281 799.617 247.347 799.577 246.299C801.308 246.128 801.007 244.215 801.137 242.973C800.716 243.224 800.306 243.474 799.902 243.731ZM772.089 248.315C773.194 248.805 774.481 248.993 775.545 248.269C774.384 248.025 773.228 248.087 772.089 248.315ZM777.584 248.201C778.501 249.129 779.811 248.776 780.864 248.304C779.777 248.116 778.666 248.076 777.584 248.201ZM772.579 250.132C772.544 250.394 772.476 250.923 772.442 251.185C773.171 251.14 773.911 251.1 774.663 251.06C774.668 250.838 774.668 250.388 774.668 250.16C773.962 250.154 773.268 250.143 772.579 250.132ZM777.732 250.126C777.692 250.371 777.613 250.872 777.573 251.117C778.342 251.117 779.122 251.117 779.913 251.122C779.896 250.878 779.868 250.394 779.856 250.149C779.133 250.143 778.427 250.132 777.732 250.126Z" fill="#FBF9FA"></path><path d="M420.303 238.636C425.661 238.556 431.026 238.602 436.39 238.613C435.673 242.503 434.955 246.392 434.181 250.27C433.97 251.085 433.793 251.91 433.628 252.736C431.669 253.465 429.574 253.311 427.535 253.243C427.581 252.32 427.626 251.392 427.689 250.47C426.464 250.646 424.665 250.122 424.505 251.859C423.475 251.791 422.444 251.762 421.447 251.523C420.314 251.261 420.758 252.628 420.559 253.305C419.614 253.317 418.674 253.328 417.734 253.345C418.304 249.257 419.124 245.196 419.944 241.153C420.069 240.316 420.189 239.473 420.303 238.636ZM421.442 247.975C421.385 248.579 421.259 249.798 421.202 250.401L421.652 250.424C421.846 250.344 422.233 250.179 422.427 250.094C422.78 248.374 423.053 246.637 423.281 244.894C425.861 244.843 428.44 244.855 431.026 244.872C430.673 247.075 430.2 249.251 429.756 251.438C430.081 251.238 430.73 250.834 431.054 250.635C431.834 248.135 431.988 245.487 432.723 242.97C429.693 244.365 426.271 243.459 423.053 243.71C423.093 243.277 423.167 242.417 423.207 241.984C426.368 241.392 429.705 241.54 432.865 242.098L432.78 240.811C429.403 240.868 426.032 240.714 422.66 240.937C422.575 243.323 422.125 245.686 421.442 247.975ZM425.821 246.637C425.587 247.326 425.365 248.021 425.155 248.716C426.088 248.716 427.022 248.704 427.962 248.687C428.002 248.044 428.047 247.4 428.099 246.762C427.336 246.717 426.578 246.677 425.821 246.637Z" fill="#FBF9FA"></path><path d="M644.692 238.034C645.563 238.023 646.451 238.011 647.34 238C647.408 238.302 647.556 238.9 647.624 239.202C649.669 239.327 651.725 239.224 653.775 239.259C653.723 239.805 653.615 240.893 653.564 241.434C653.143 241.417 652.3 241.383 651.878 241.366C651.895 241.935 651.93 243.074 651.952 243.643C652.26 243.638 652.881 243.626 653.194 243.621C653.114 244.167 653.046 244.72 652.983 245.272C650.546 245.568 650.836 248.296 650.421 250.113C650.193 251.064 649.954 252.015 649.703 252.96C647.995 253.569 646.161 253.416 644.39 253.376C644.538 252.368 644.407 251.223 645.107 250.392C645.079 250.608 645.028 251.03 645.005 251.246C645.774 251.2 646.56 251.16 647.351 251.121C647.693 249.27 648.091 247.425 648.2 245.54C646.582 245.574 644.965 245.597 643.353 245.608C643.279 245.227 643.126 244.458 643.052 244.076C642.448 247.214 641.981 250.386 641.184 253.484C640.546 253.461 639.282 253.421 638.65 253.399C638.786 251.815 639.048 250.244 639.481 248.706C639.248 248.786 638.786 248.94 638.558 249.014C637.727 250.608 636.822 252.168 635.819 253.66C635.29 252.932 634.749 252.22 634.299 251.451C636.389 247.681 636.77 243.359 637.716 239.236C639.897 239.224 642.089 239.367 644.265 239.162C644.373 238.877 644.583 238.313 644.692 238.034ZM640.068 241.462C639.84 242.47 639.572 243.473 639.333 244.475C639.584 244.412 640.079 244.281 640.33 244.219C640.899 243.279 641.486 242.351 642.078 241.417C641.4 241.434 640.734 241.451 640.068 241.462ZM644.515 241.423C644.481 241.935 644.413 242.96 644.384 243.478C645.774 243.569 647.169 243.621 648.575 243.695C648.746 243.125 649.099 241.986 649.276 241.417C647.687 241.457 646.098 241.462 644.515 241.423Z" fill="#FBF9FA"></path><path d="M748.21 238.609C752.771 238.672 757.333 238.598 761.894 238.655C761.507 240.232 761.268 241.838 760.892 243.41C760.721 244.384 760.584 245.363 760.356 246.32C760.049 247.117 760.391 248.33 759.457 248.74C758.432 248.803 757.412 248.763 756.404 248.757C756.308 249.543 756.222 250.335 756.142 251.121C756.7 251.138 757.27 251.155 757.845 251.172C758.044 250.517 758.255 249.862 758.472 249.207C759.434 249.298 760.408 249.389 761.382 249.486C761.211 249.93 761.046 250.375 760.886 250.819C760.607 251.502 760.317 252.18 760.038 252.858C757.617 253.325 755.146 253.376 752.731 252.892C752.987 251.514 753.238 250.135 753.42 248.746C753.175 248.774 752.68 248.826 752.435 248.854C751.689 250.073 750.687 251.086 749.588 251.986C747.902 252.67 746.165 253.228 744.371 253.518C744.326 252.926 744.229 251.747 744.178 251.155C744.576 251.138 745.374 251.092 745.772 251.069C747.122 250.528 748.398 249.811 749.531 248.883C748.415 248.814 747.31 248.769 746.216 248.717C746.547 246.576 746.94 244.441 747.401 242.322C747.589 241.069 747.845 239.822 748.21 238.609ZM750.613 240.893L750.67 241.588C753.375 241.337 756.256 242.106 758.847 241.092C756.12 240.688 753.352 240.927 750.613 240.893ZM750.391 243.285C750.368 243.53 750.328 244.019 750.305 244.264C752.782 244.207 755.26 244.213 757.743 244.247C757.771 244.008 757.828 243.524 757.856 243.285C755.362 243.251 752.874 243.256 750.391 243.285ZM749.707 246.03L749.827 246.741C752.458 246.474 755.317 247.294 757.794 246.212C755.106 245.882 752.401 246.064 749.707 246.03Z" fill="#FBF9FA"></path><path d="M348.934 240.466C348.986 239.868 349.048 239.276 349.105 238.684C350.563 238.661 352.021 238.638 353.479 238.621C353.467 239.054 353.45 239.925 353.439 240.358C356.696 240.369 359.959 240.335 363.222 240.398C360.779 244.68 358.057 248.798 355.62 253.086C354.669 252.835 353.729 252.539 352.795 252.231C353.667 250.956 354.601 249.669 354.965 248.137C353.803 247.79 352.602 247.585 351.4 247.437C351.543 246.485 351.588 245.517 351.195 244.618C350.119 246.246 348.559 247.408 346.936 248.433C346.417 247.886 345.899 247.34 345.381 246.793C347.226 245.039 349.122 243.285 350.364 241.019C349.88 240.836 349.407 240.654 348.934 240.466ZM351.281 243.877C351.543 244.23 351.81 244.583 352.089 244.931C353.729 244.937 355.301 245.421 356.896 245.757C357.397 244.834 357.904 243.906 358.41 242.983C356.041 243.245 353.308 242.288 351.281 243.877Z" fill="#FBF9FA"></path><path d="M367.044 238.67C368.484 238.635 369.925 238.613 371.372 238.59C371.366 238.988 371.349 239.774 371.337 240.167C374.657 240.219 377.977 240.145 381.297 240.241C378.53 244.307 375.91 248.464 373.188 252.553C372.414 253.584 371.098 252.388 370.17 252.246C371.987 248.897 374.549 246.004 376.269 242.588C374.373 242.582 372.482 242.588 370.591 242.565C369.236 244.951 367.186 246.79 365.119 248.539C364.612 247.867 362.909 247.007 363.997 246.152C365.796 244.723 367.226 242.935 368.359 240.942C366.981 241.004 367.129 239.643 367.044 238.67Z" fill="#FBF9FA"></path><path d="M386.549 238.605C387.505 238.611 388.468 238.623 389.436 238.628C389.083 240.513 388.741 242.398 388.274 244.26C389.442 244.312 390.524 243.993 391.457 243.287C392.249 244.198 393.063 245.086 393.883 245.974C394.891 246.464 396.395 247.199 396.549 245.422C397.921 245.149 398.57 246.225 397.807 247.341C397.141 248.224 396.6 250.08 395.182 249.579C392.921 248.907 390.592 247.734 389.339 245.644C388.849 245.621 388.36 245.599 387.876 245.576C387.858 248.087 387.198 250.536 386.708 252.985C386.042 252.99 384.709 253.007 384.043 253.019C384.111 250.359 384.63 247.74 385.245 245.16C385.603 242.962 386.053 240.775 386.549 238.605Z" fill="#FBF9FA"></path><path d="M407.989 238.723C409.379 238.284 410.894 238.586 412.334 238.58C413.718 240.408 415.7 241.593 417.676 242.681C417.403 243.717 417.317 245.032 415.933 245.061C415.637 244.799 415.056 244.275 414.76 244.019C414.532 244.241 414.071 244.685 413.838 244.913C410.711 244.816 407.585 244.958 404.464 244.822C403.496 244.002 402.42 244.571 401.412 244.936C401.03 244.298 400.757 243.609 400.592 242.874C403.257 241.872 405.637 240.306 407.989 238.723ZM409.447 240.391C408.399 241.2 407.3 241.94 406.212 242.686C408.331 242.715 410.449 242.732 412.568 242.715C411.759 241.946 410.945 241.177 410.159 240.386C409.982 240.391 409.624 240.391 409.447 240.391Z" fill="#FBF9FA"></path><path d="M444.373 238.602C445.848 238.511 447.334 238.499 448.815 238.59C450.347 240.498 452.579 241.58 454.584 242.901C454.293 243.624 453.929 244.313 453.593 245.014C453.017 244.883 452.448 244.752 451.879 244.621C451.651 244.308 451.429 243.995 451.212 243.681C451.064 243.949 450.762 244.49 450.609 244.758C447.374 245.059 444.111 244.832 440.865 244.837C439.754 243.824 438.45 244.695 437.266 245.037C437.198 244.279 437.129 243.522 437.072 242.764C439.641 241.631 442.237 240.452 444.373 238.602ZM446.121 240.219C444.977 241.13 443.764 241.933 442.562 242.753C444.806 242.725 447.049 242.725 449.299 242.696C448.24 241.87 447.192 241.028 446.121 240.219Z" fill="#FBF9FA"></path><path d="M458.594 238.83C459.488 238.232 460.667 238.619 461.692 238.494C461.51 239.252 461.35 240.003 461.174 240.761C461.812 240.778 462.461 240.806 463.11 240.835C463.811 242.201 465.564 241.416 466.783 241.609C466.971 240.578 467.182 239.553 467.398 238.523C468.418 238.545 469.437 238.568 470.462 238.597C470.234 239.588 469.989 240.573 469.716 241.552C470.701 241.581 471.681 241.609 472.677 241.632C472.615 242.162 472.484 243.226 472.421 243.756C471.373 243.773 470.331 243.796 469.289 243.813C469.05 246.079 468.514 248.3 468.03 250.527C469.027 250.55 470.012 250.573 471.014 250.59C470.986 251.171 470.929 252.332 470.9 252.913C467.324 252.993 463.748 252.947 460.172 252.947C460.32 252.156 460.473 251.37 460.627 250.578C462.119 250.584 463.611 250.573 465.109 250.567C465.536 248.318 465.98 246.074 466.356 243.819C465.023 243.802 463.697 243.79 462.375 243.756C462.131 244.229 461.908 244.707 461.703 245.191C462.353 246.182 463.144 247.065 463.845 248.016C463.07 248.426 462.307 248.841 461.538 249.251C460.969 248.631 460.382 248.01 459.801 247.406C459.568 249.422 459.169 251.421 458.776 253.414C457.797 253.42 456.817 253.431 455.844 253.437C456.043 252.008 456.328 250.601 456.635 249.194C455.912 249.314 455.189 249.439 454.477 249.57C454.454 248.767 454.437 247.959 454.42 247.156C456.493 246.171 458.475 244.929 459.927 243.118C458.571 243.044 457.216 243.027 455.866 243.027C455.895 242.48 455.952 241.393 455.975 240.852C456.726 240.823 457.484 240.795 458.241 240.772C458.338 240.123 458.452 239.474 458.594 238.83Z" fill="#FBF9FA"></path><path d="M484.13 239.205C489.204 239.211 494.278 239.194 499.358 239.211C499.29 239.957 499.221 240.703 499.17 241.455C494.062 241.586 488.954 241.517 483.846 241.512C483.937 240.743 484.034 239.974 484.13 239.205Z" fill="#FBF9FA"></path><path d="M607.601 238.5C608.587 238.5 609.572 238.5 610.563 238.506C610.466 239.519 610.386 240.539 610.295 241.552C612.294 241.53 614.293 241.535 616.297 241.53C616.269 242.093 616.217 243.221 616.189 243.785C614.082 243.785 611.981 243.79 609.885 243.785C609.891 244.457 609.908 245.129 609.936 245.801C610.881 248.278 612.914 249.941 615.05 251.376C614.532 252.019 613.968 252.617 613.438 253.238C610.961 252.771 609.481 250.556 608.148 248.637C608.074 248.295 607.926 247.623 607.852 247.281C605.409 249.804 602.772 252.27 599.39 253.443C599.27 252.651 598.256 251.518 599.15 250.909C602.072 249.286 605.46 247.355 606.189 243.79C604.145 243.785 602.1 243.785 600.067 243.762C600.227 243.016 600.403 242.27 600.58 241.53C602.721 241.547 604.862 241.547 607.009 241.541C607.231 240.533 607.413 239.519 607.601 238.5Z" fill="#FBF9FA"></path><path d="M616.621 253.403C617.601 248.495 618.307 243.523 619.463 238.648C624.856 238.705 630.254 238.671 635.647 238.654C635.602 239.412 635.556 240.175 635.522 240.938C633.079 240.938 630.636 240.96 628.198 240.955C628.13 241.296 627.988 241.991 627.919 242.339C630.288 242.424 632.663 242.344 635.032 242.538C634.907 242.737 634.656 243.142 634.531 243.341C634.184 245.647 632.777 247.572 631.325 249.315C632.19 250.038 633.079 250.727 633.973 251.422C633.398 251.974 632.874 252.566 632.253 253.056C631.046 253.204 630.22 252.225 629.36 251.575C629.075 251.638 628.512 251.769 628.227 251.832C627.179 252.504 626.023 252.971 624.81 253.198C624.594 252.902 624.161 252.31 623.944 252.014C622.851 254.651 620.345 250.955 622.418 249.981C621.866 250.254 621.251 250.499 620.716 250.755C620.539 250.271 620.374 249.787 620.214 249.303C619.85 250.647 619.44 251.985 619.218 253.369C618.347 253.381 617.481 253.398 616.621 253.403ZM623.557 244.121C623.472 245.294 623.739 246.462 623.87 247.629C624.702 245.049 625.135 242.373 625.482 239.691C624.981 241.234 624.206 242.652 623.557 244.121Z" fill="#FBF9FA"></path><path d="M680.426 238.54C681.434 238.517 682.448 238.5 683.473 238.488C683.37 239.508 683.285 240.521 683.188 241.541C685.181 241.535 687.175 241.558 689.173 241.546C689.156 242.099 689.122 243.209 689.105 243.762C686.964 243.79 684.823 243.784 682.681 243.796C682.938 245.373 683.165 247.104 684.31 248.323C685.318 249.553 686.696 250.379 687.949 251.33C687.385 252.173 686.48 253.426 685.329 252.97C683.16 251.877 681.622 249.815 680.722 247.606C680.58 247.645 680.29 247.731 680.147 247.776C678.297 250.151 675.768 251.871 673.086 253.181C672.687 253.744 672.061 254.656 672.465 253.26C672.129 252.68 671.098 251.427 672.061 250.874C674.982 249.325 678.393 247.355 679.082 243.836C677.027 243.733 674.971 243.801 672.915 243.727C673.114 242.987 673.336 242.252 673.553 241.512C675.774 241.552 678 241.581 680.227 241.438C680.29 240.47 680.347 239.508 680.426 238.54Z" fill="#FBF9FA"></path><path d="M691.488 240.152C692.063 239.566 692.65 238.979 693.242 238.398C694.176 239.116 695.099 239.839 696.027 240.574C695.446 241.143 694.877 241.718 694.313 242.299C693.328 241.639 692.388 240.91 691.488 240.152Z" fill="#FBF9FA"></path><path d="M716.815 238.457C717.84 238.445 718.87 238.445 719.907 238.445C719.884 238.776 719.833 239.436 719.81 239.772C722.111 239.749 724.417 239.744 726.723 239.755C726.644 240.302 726.478 241.389 726.399 241.93C724.001 241.948 721.61 241.913 719.218 241.965C719.206 242.289 719.184 242.938 719.172 243.269C721.108 243.314 723.05 243.32 724.998 243.28C724.93 246.122 724.383 248.941 723.46 251.629C721.832 252.073 720.129 251.862 718.472 251.873C718.54 251.401 718.677 250.455 718.745 249.983C719.502 249.92 720.271 249.886 721.051 249.886C721.41 248.457 721.678 247.004 721.928 245.552C720.841 245.547 719.77 245.547 718.699 245.541C718.631 245.877 718.489 246.543 718.42 246.879C717.902 249.06 717.435 251.264 717.253 253.502C716.177 253.548 715.1 253.565 714.041 253.576C714.537 250.905 715.118 248.24 715.425 245.535C714.434 245.541 713.455 245.547 712.475 245.552C712.031 247.665 711.604 249.783 711.137 251.896C710.186 251.891 709.241 251.885 708.307 251.879C708.831 249.106 709.32 246.321 709.913 243.553C711.82 243.576 713.728 243.565 715.647 243.588C715.869 243.058 716.097 242.528 716.331 241.999C714.018 241.908 711.706 241.953 709.4 241.976C709.531 241.424 709.793 240.33 709.93 239.778C712.196 239.687 714.468 239.766 716.746 239.749C716.763 239.425 716.797 238.776 716.815 238.457Z" fill="#FBF9FA"></path><path d="M728.699 240.303C729.058 239.54 729.73 238.999 730.265 238.355C731.461 239.05 732.537 239.939 733.517 240.924C732.868 241.402 732.253 241.932 731.547 242.313C730.487 241.812 729.553 241.089 728.699 240.303Z" fill="#FBF9FA"></path><path d="M737.093 238.495C737.999 238.489 738.904 238.495 739.827 238.5C739.764 238.933 739.639 239.793 739.576 240.226C741.41 240.169 743.238 240.163 745.083 240.226C744.365 244.075 742.412 247.777 739.257 250.169C737.378 251.746 735.043 252.583 732.771 253.409C732.395 252.914 732.025 252.418 731.666 251.923C731.706 251.666 731.791 251.16 731.831 250.903C733.802 250.368 735.8 249.65 737.423 248.363C737.794 247.116 735.84 246.587 735.248 245.704C735.806 245.174 736.393 244.673 737.002 244.189C738.147 244.326 738.927 245.311 739.878 245.886C740.299 245.089 740.738 244.292 741.199 243.506C741.262 243.233 741.381 242.68 741.444 242.407C740.214 242.413 738.972 242.276 737.771 242.498C736.324 244.007 735.123 245.846 733.215 246.832C732.475 246.769 731.865 246.012 732.03 245.277C733.659 242.971 735.829 241.063 737.093 238.495Z" fill="#FBF9FA"></path><path d="M502.562 239.777C505.307 239.635 508.052 239.772 510.797 239.732C510.706 240.484 510.615 241.235 510.535 241.987C508.684 241.998 506.839 242.015 505 242.027C504.937 242.488 504.823 243.405 504.76 243.861C505.723 243.855 506.708 243.855 507.682 243.866C508.496 244.356 509.629 244.652 509.891 245.711C510.643 247.938 509.276 250.142 507.545 251.457C506.788 251.64 506.019 251.827 505.279 252.038C503.963 252.237 502.613 252.255 501.315 251.97C500.968 251.896 500.267 251.753 499.92 251.679C499.954 250.916 500 250.153 500.045 249.39C502.186 249.293 504.857 250.427 506.554 248.638C506.873 247.978 506.759 247.186 506.879 246.474C504.886 245.876 502.921 246.987 500.888 246.782C501.383 244.436 501.828 242.061 502.562 239.777Z" fill="#FBF9FA"></path><path d="M525.779 239.75C528.575 239.699 531.377 239.711 534.173 239.739C534.031 240.502 533.9 241.265 533.757 242.023C531.969 242.034 530.181 242.023 528.398 242C528.239 242.455 527.914 243.361 527.749 243.816C529.498 243.811 531.525 243.697 532.886 245.012C534.093 247.108 532.96 249.591 531.383 251.123C528.797 252.279 525.904 252.518 523.199 251.664C523.268 250.901 523.347 250.138 523.433 249.369C525.676 249.511 528.159 250.126 530.141 248.697C530.09 247.86 530.01 247.028 529.896 246.203C527.983 246.02 526.172 246.983 524.247 246.818C524.321 246.271 524.475 245.177 524.549 244.631C524.805 243.862 524.999 243.076 525.227 242.296C525.432 241.453 525.591 240.599 525.779 239.75Z" fill="#FBF9FA"></path><path d="M287 252.377C289.813 248.094 292.871 243.977 295.741 239.734C296.664 239.74 297.586 239.751 298.515 239.774C295.696 244.091 292.587 248.202 289.733 252.496C289.05 252.462 287.683 252.405 287 252.377Z" fill="#FBF9FA"></path><path d="M301.008 246.594C302.585 244.293 304.146 241.981 305.78 239.715C306.452 239.738 307.796 239.777 308.468 239.795C305.717 244.094 302.625 248.171 299.812 252.431C299.111 252.431 297.722 252.425 297.021 252.425C298.217 250.398 299.618 248.496 301.008 246.594Z" fill="#FBF9FA"></path><path d="M315.205 240.564C315.854 239.283 317.426 239.881 318.548 239.756C315.718 244.021 312.694 248.155 309.847 252.404C308.907 252.421 307.973 252.426 307.039 252.426C309.596 248.36 312.478 244.517 315.205 240.564Z" fill="#FBF9FA"></path><path d="M330.144 239.812C334.893 239.869 339.642 239.744 344.392 239.881C342.552 241.8 340.457 243.434 338.572 245.291C338.076 245.61 338.196 246.293 338.498 246.692C339.443 248.372 341.197 249.277 342.82 250.165C342.803 250.388 342.763 250.837 342.74 251.06C342.251 251.538 341.852 252.147 341.243 252.478C338.771 252.045 336.835 250.126 335.611 248.024C333.839 249.454 332.256 251.111 330.451 252.483C329.916 252.381 329.392 252.255 328.874 252.107C328.344 251.504 327.809 250.911 327.273 250.319C327.609 249.972 327.945 249.619 328.281 249.271C328.731 249.328 329.625 249.442 330.075 249.505C332.615 247.119 335.212 244.795 337.803 242.466C335.013 242.415 332.216 242.432 329.432 242.415C329.642 241.544 329.882 240.672 330.144 239.812Z" fill="#FBF9FA"></path><path d="M515.506 239.786C517.271 239.649 519.042 239.655 520.819 239.769C521.719 240.595 522.784 241.517 522.675 242.878C522.761 246.284 521.354 250.424 517.863 251.671C516.104 252.406 514.19 252.161 512.345 252.098C512.345 251.215 512.368 250.338 512.408 249.456C513.792 249.894 515.261 250.139 516.719 249.86C517.761 249.422 518.439 248.488 519.128 247.633C517.095 247.73 514.8 248.362 513 247.092C512.345 246.42 512.237 245.418 511.855 244.598C512.283 242.48 513.627 240.806 515.506 239.786ZM515.574 242.884C514.902 243.921 515.529 245.065 515.939 246.05C517.732 246.301 519.72 245.321 519.805 243.323C519.919 241.085 516.343 241.181 515.574 242.884Z" fill="#FBF9FA"></path><path d="M544.947 242.04C546.502 239.278 549.993 239.563 552.698 239.745C553.341 240.337 553.979 240.941 554.611 241.561C554.64 243.167 554.611 244.773 554.549 246.379C553.769 248.543 552.761 251.168 550.255 251.766C548.535 252.433 546.701 252.131 544.976 251.698C542.499 249.158 543.472 244.893 544.947 242.04ZM547.539 243.412C546.838 245.525 545.642 248.566 547.88 250.172C551.468 249.335 551.644 244.916 551.189 241.96C549.782 241.596 547.988 241.772 547.539 243.412Z" fill="#FBF9FA"></path><path d="M555.887 243.363C556.582 241.831 557.732 240.573 559.224 239.775C561.006 239.627 562.806 239.644 564.594 239.827C565.243 240.584 565.887 241.358 566.519 242.144C566.542 243.995 566.177 245.806 565.813 247.611C564.97 249.747 563.432 251.563 561.12 252.11C558.951 252.349 556.183 252.133 555.198 249.821C554.981 248.272 555.147 246.706 555.249 245.157C555.471 244.565 555.682 243.967 555.887 243.363ZM559.674 242.611C558.37 244.502 558.33 246.939 558.393 249.155C558.632 249.325 559.11 249.667 559.349 249.838C559.776 249.889 560.215 249.94 560.659 249.997C563.017 248.118 563.193 244.855 563.017 242.082C561.901 241.888 560.403 241.421 559.674 242.611Z" fill="#FBF9FA"></path><path d="M569.372 239.729C572.202 239.729 575.038 239.717 577.874 239.746C577.646 240.498 577.424 241.255 577.219 242.012C575.374 241.995 573.529 241.995 571.689 242.086C571.632 242.787 571.575 243.482 571.53 244.182C573.045 244.131 574.559 244.188 576.074 244.33C577.242 246.221 577.139 248.818 575.545 250.435C573.284 252.718 569.799 251.671 566.957 251.79C567.008 251.147 567.116 249.854 567.173 249.211C568.557 249.484 569.947 249.774 571.348 250.013C572.481 249.421 573.472 248.607 574.024 247.422C573.705 246.967 573.392 246.511 573.09 246.056C571.291 246.477 569.474 246.83 567.618 246.767C568.272 244.438 568.819 242.086 569.372 239.729Z" fill="#FBF9FA"></path><path d="M578.461 246.614C580.807 244.33 583.023 241.916 585.42 239.684C586.405 239.701 587.402 239.718 588.398 239.729C588.034 242.263 587.499 244.763 587.037 247.275C587.51 247.297 588.45 247.332 588.917 247.349C588.843 247.884 588.7 248.955 588.626 249.49C587.937 249.501 587.254 249.518 586.582 249.535C586.491 250.264 586.405 250.993 586.331 251.722C585.357 251.785 584.384 251.842 583.421 251.887C583.427 251.096 583.433 250.304 583.45 249.513C581.36 249.501 579.27 249.547 577.186 249.427C577.55 248.482 577.664 247.332 578.461 246.614ZM580.773 247.292C581.861 247.286 582.96 247.286 584.065 247.275C584.144 246.022 584.23 244.763 584.321 243.51C583.131 244.769 581.946 246.022 580.773 247.292Z" fill="#FBF9FA"></path><path d="M728.277 242.593C729.661 241.87 730.788 243.339 731.717 244.142C731.073 244.785 730.487 246.067 729.37 245.566C728.249 245.155 726.483 243.396 728.277 242.593Z" fill="#FBF9FA"></path><path d="M690.424 243.876C690.931 243.301 691.494 242.8 692.132 242.367C693.123 242.8 693.983 243.483 694.917 244.041C694.683 245.169 693.943 245.943 692.838 246.228C692.075 245.397 691.255 244.628 690.424 243.876Z" fill="#FBF9FA"></path><path d="M482.988 243.743C488.267 243.47 493.564 243.578 498.848 243.68C498.524 244.461 498.205 245.235 497.874 246.01C495.944 245.941 494.008 245.941 492.083 245.998C491.736 248.293 491.274 250.56 490.83 252.838C489.714 252.826 488.603 252.82 487.499 252.82C488.068 250.571 488.495 248.287 488.723 245.975C486.787 245.953 484.856 245.964 482.926 245.97C482.943 245.224 482.966 244.483 482.988 243.743Z" fill="#FBF9FA"></path><path d="M437.239 245.984C442.592 246.024 447.951 246.001 453.304 246.007C453.196 246.708 453.099 247.408 453.002 248.109C452.216 248.12 451.436 248.137 450.662 248.154C450.963 249.259 451.322 250.352 451.647 251.451C451.852 251.913 452.057 252.368 452.268 252.835C451.26 253.143 450.252 253.433 449.232 253.695C449.181 253.342 449.073 252.636 449.022 252.283C444.853 252.516 440.707 253.114 436.527 252.995C436.618 252.249 436.727 251.508 436.835 250.762C437.678 250.717 438.52 250.688 439.363 250.58C440.337 250.107 440.656 248.917 441.351 248.148C439.819 248.109 438.298 248.114 436.772 248.126C436.926 247.414 437.08 246.702 437.239 245.984ZM442.78 250.495C444.523 250.523 446.271 250.466 448.019 250.432C447.996 249.823 447.979 249.208 447.968 248.598C448.338 248.479 449.078 248.251 449.449 248.137C447.928 248.126 446.408 248.046 444.899 248.183C443.976 248.689 443.469 249.726 442.78 250.495Z" fill="#FBF9FA"></path><path d="M400.592 253.478C400.877 250.989 401.338 248.518 401.936 246.086C406.526 246.137 411.116 246.057 415.706 246.131C415.535 246.735 415.37 247.344 415.199 247.942C414.948 249.753 414.504 251.524 414.259 253.335C413.468 253.347 412.676 253.358 411.89 253.358C410.415 252.293 408.49 252.851 406.805 252.703C404.675 252.51 402.693 253.392 400.592 253.478ZM404.396 248.21C404.345 248.791 404.242 249.958 404.191 250.545C406.679 250.562 409.168 250.528 411.662 250.579C411.856 249.787 412.05 248.996 412.249 248.199C409.629 248.17 407.01 248.17 404.396 248.21Z" fill="#FBF9FA"></path><path d="M535.945 246.085C537.984 245.937 540.034 246.051 542.084 246.028C542.044 246.547 541.97 247.589 541.93 248.113C539.589 248.118 537.192 248.432 534.914 247.737C535.17 247.327 535.689 246.495 535.945 246.085Z" fill="#FBF9FA"></path><path d="M644.012 246.039C644.416 245.994 645.219 245.897 645.624 245.852C646.233 247.144 646.877 248.454 647.007 249.906C646.461 249.895 645.362 249.883 644.809 249.872C643.579 249.565 643.722 247.674 643.078 246.734L644.018 246.729L644.012 246.039Z" fill="#FBF9FA"></path><path d="M689.485 251.765C690.43 250.17 691.393 248.587 692.452 247.066C693.739 247.414 694.565 248.137 694.263 249.572L693.597 249.361C693.34 250.045 693.095 250.734 692.851 251.417C692.127 251.964 691.66 253.541 690.567 252.898C689.975 252.63 689.394 252.345 688.83 252.049C688.995 251.975 689.326 251.839 689.485 251.765Z" fill="#FBF9FA"></path><path d="M730.277 247.02C731.046 247.281 731.826 247.555 732.612 247.834C731.325 249.633 730.055 251.501 728.398 252.982C727.486 253.306 726.718 252.464 725.938 252.145C727.452 250.499 728.95 248.825 730.277 247.02Z" fill="#FBF9FA"></path><path d="M507.923 142.367L507.034 146.185C505.918 146.255 504.541 146.429 502.902 146.708C501.263 146.987 500.026 147.248 499.189 147.492C497.759 147.946 496.713 148.66 496.051 149.637C495.389 150.578 494.918 151.641 494.639 152.827L482.663 204.759C482.558 205.212 482.453 205.735 482.349 206.328C482.244 206.92 482.192 207.356 482.192 207.635C482.192 209.448 483.011 210.686 484.65 211.348C486.324 212.011 488.677 212.481 491.71 212.76L490.769 216.578H450.97L451.859 212.76C452.94 212.691 454.247 212.586 455.781 212.447C457.316 212.272 458.396 212.063 459.024 211.819C460.419 211.331 461.464 210.634 462.162 209.727C462.894 208.821 463.4 207.74 463.678 206.485L477.224 147.649H447.414L434.287 204.759C434.078 205.596 433.938 206.241 433.869 206.694C433.834 207.112 433.816 207.443 433.816 207.687C433.816 209.187 434.426 210.302 435.647 211.035C436.902 211.767 439.273 212.342 442.759 212.76L441.87 216.578H402.071L402.96 212.76C403.867 212.726 405.174 212.603 406.883 212.394C408.626 212.185 409.916 211.941 410.753 211.662C412.113 211.209 413.141 210.529 413.838 209.622C414.571 208.681 415.076 207.6 415.355 206.38L427.279 154.5C427.349 154.187 427.436 153.733 427.54 153.141C427.68 152.513 427.75 151.99 427.75 151.572C427.75 149.898 426.895 148.695 425.187 147.963C423.479 147.196 421.195 146.603 418.336 146.185L419.225 142.367H507.923ZM543.803 186.716L539.253 159.678L522.309 186.716H543.803ZM535.436 216.578L536.325 212.76C539.916 212.481 542.705 212.046 544.692 211.453C546.715 210.825 547.726 210.145 547.726 209.413C547.726 208.786 547.691 208.245 547.621 207.792C547.551 207.339 547.464 206.816 547.36 206.223L544.745 191.632H519.171C518.334 192.922 517.271 194.63 515.981 196.757C514.726 198.849 513.662 200.645 512.791 202.144C511.466 204.515 510.681 206.136 510.437 207.008C510.228 207.879 510.123 208.437 510.123 208.681C510.123 209.727 510.943 210.599 512.581 211.296C514.22 211.958 516.73 212.447 520.112 212.76L519.223 216.578H488.054L488.943 212.76C489.954 212.691 491.226 212.516 492.76 212.237C494.294 211.958 495.584 211.54 496.63 210.982C498.095 210.215 499.472 209.222 500.762 208.001C502.052 206.781 503.255 205.299 504.371 203.556C511.448 192.678 517.951 182.637 523.878 173.432C529.805 164.193 536.673 153.489 544.483 141.321H554.838C557.523 156.941 559.737 169.859 561.48 180.074C563.258 190.29 564.81 198.832 566.135 205.7C566.309 206.746 566.64 207.705 567.128 208.577C567.651 209.413 568.471 210.215 569.586 210.982C570.423 211.54 571.434 211.958 572.62 212.237C573.84 212.516 574.973 212.691 576.019 212.76L575.13 216.578H535.436ZM654.261 157.952C654.261 162.24 653.267 166.093 651.28 169.51C649.328 172.892 646.503 175.733 642.808 178.034C639.147 180.266 635.05 181.922 630.518 183.003C626.02 184.084 621.052 184.624 615.613 184.624H608.082L603.427 204.759C603.288 205.351 603.166 205.909 603.061 206.432C602.991 206.955 602.957 207.356 602.957 207.635C602.957 209.204 603.602 210.355 604.892 211.087C606.182 211.819 608.709 212.377 612.475 212.76L611.586 216.578H571.264L572.153 212.76C573.025 212.726 574.315 212.603 576.023 212.394C577.766 212.15 579.056 211.889 579.893 211.61C581.253 211.157 582.281 210.477 582.979 209.57C583.711 208.664 584.216 207.6 584.495 206.38L596.472 154.5C596.646 153.768 596.768 153.158 596.838 152.67C596.907 152.182 596.942 151.816 596.942 151.572C596.942 150.107 596.193 148.974 594.693 148.172C593.229 147.335 590.823 146.673 587.476 146.185L588.365 142.367H628.583C637.229 142.367 643.662 143.64 647.881 146.185C652.134 148.73 654.261 152.652 654.261 157.952ZM632.4 166.686C633.167 164.071 633.551 161.212 633.551 158.109C633.551 154.343 632.54 151.537 630.518 149.689C628.495 147.806 625.201 146.865 620.633 146.865H616.816L609.18 179.969H612.579C616.345 179.969 619.57 179.412 622.255 178.296C624.974 177.145 627.171 175.559 628.844 173.537C630.448 171.584 631.633 169.301 632.4 166.686ZM735.902 150.63C735.902 153.664 735.013 156.017 733.235 157.69C731.492 159.364 729.295 160.201 726.646 160.201C724.972 160.201 723.334 159.713 721.73 158.736C720.126 157.76 718.261 155.877 716.134 153.088C714.983 154.064 713.78 155.599 712.525 157.69C711.305 159.782 710.032 161.874 708.707 163.966C706.302 167.662 704.297 170.364 702.693 172.072C701.089 173.781 699.294 175.28 697.307 176.57V177.511C701.7 178.732 705.186 180.789 707.766 183.683C710.346 186.576 712.264 190.29 713.519 194.822C714.077 196.809 714.617 198.762 715.14 200.68C715.663 202.562 716.169 204.306 716.657 205.909C717.215 207.792 717.947 209.239 718.853 210.25C719.795 211.226 720.771 211.784 721.782 211.924C722.863 212.133 723.909 212.307 724.92 212.447C725.931 212.586 726.855 212.691 727.692 212.76L726.75 216.578H698.823C698.265 212.987 697.673 209.396 697.045 205.805C696.452 202.214 695.772 198.884 695.005 195.816C693.576 190.481 691.693 186.96 689.357 185.252C687.021 183.543 683.848 182.637 679.839 182.532L674.766 204.759C674.627 205.351 674.505 205.909 674.4 206.432C674.33 206.955 674.295 207.356 674.295 207.635C674.295 209.657 675.237 210.947 677.119 211.505C679.037 212.063 681.199 212.481 683.604 212.76L682.715 216.578H642.603L643.492 212.76C644.363 212.726 645.653 212.603 647.362 212.394C649.105 212.185 650.395 211.941 651.232 211.662C652.592 211.209 653.62 210.529 654.317 209.622C655.05 208.681 655.555 207.6 655.834 206.38L667.81 154.5C667.985 153.768 668.107 153.158 668.176 152.67C668.246 152.182 668.281 151.816 668.281 151.572C668.281 150.107 667.531 148.974 666.032 148.172C664.568 147.335 662.162 146.673 658.815 146.185L659.704 142.367H699.817L698.928 146.185C697.847 146.255 696.522 146.429 694.953 146.708C693.419 146.987 692.216 147.248 691.345 147.492C689.88 147.946 688.817 148.678 688.154 149.689C687.492 150.665 687.021 151.711 686.742 152.827L680.937 177.878H683.448C684.842 177.878 686.359 177.668 687.997 177.25C689.636 176.797 691.17 175.96 692.6 174.74C695.703 172.125 698.161 169.562 699.974 167.052C701.822 164.542 703.46 161.962 704.89 159.312C706.249 156.801 707.627 154.378 709.021 152.042C710.416 149.706 712.177 147.51 714.303 145.453C715.628 144.198 717.162 143.204 718.906 142.472C720.684 141.74 722.636 141.373 724.763 141.373C728.703 141.373 731.544 142.332 733.288 144.25C735.031 146.167 735.902 148.294 735.902 150.63ZM772.986 186.716L768.436 159.678L751.491 186.716H772.986ZM764.618 216.578L765.507 212.76C769.099 212.481 771.888 212.046 773.875 211.453C775.897 210.825 776.908 210.145 776.908 209.413C776.908 208.786 776.873 208.245 776.804 207.792C776.734 207.339 776.647 206.816 776.542 206.223L773.927 191.632H748.354C747.517 192.922 746.453 194.63 745.163 196.757C743.908 198.849 742.845 200.645 741.973 202.144C740.648 204.515 739.864 206.136 739.62 207.008C739.411 207.879 739.306 208.437 739.306 208.681C739.306 209.727 740.125 210.599 741.764 211.296C743.403 211.958 745.913 212.447 749.295 212.76L748.406 216.578H717.236L718.125 212.76C719.136 212.691 720.409 212.516 721.943 212.237C723.477 211.958 724.767 211.54 725.813 210.982C727.277 210.215 728.655 209.222 729.945 208.001C731.235 206.781 732.438 205.299 733.553 203.556C740.631 192.678 747.133 182.637 753.06 173.432C758.988 164.193 765.856 153.489 773.666 141.321H784.021C786.706 156.941 788.919 169.859 790.663 180.074C792.441 190.29 793.992 198.832 795.317 205.7C795.492 206.746 795.823 207.705 796.311 208.577C796.834 209.413 797.653 210.215 798.769 210.982C799.606 211.54 800.617 211.958 801.802 212.237C803.023 212.516 804.156 212.691 805.202 212.76L804.313 216.578H764.618Z" fill="white"></path><path d="M137 155.5L139 138.5H127V142L81.5 147L80 160.5L99 158.5C100.2 164.9 100.167 169.167 100 170.5H64L60 184H96C93.2 194.8 81.5 204.833 76 208.5L87 216C100.6 206.4 109.333 190.667 112 184H141L143 170.5H116.5V158L137 155.5Z" fill="white"></path><path d="M147.5 195L143 210H209L211.5 199H200L214.5 158L165 158.5L161.5 170.5H196.5L185 199H156.5L158 195H147.5Z" fill="white"></path><path d="M222.5 184L226.5 170.5H307L304 184H222.5Z" fill="white"></path><path d="M324.5 141L313.5 152.5L343 170.5L353.5 158L324.5 141Z" fill="white"></path><path d="M393.5 166L380.5 158C360.5 185.6 329.5 197.167 316.5 199.5L315.5 195L305.5 197.5L307 215C344.6 211.4 380.333 180.833 393.5 166Z" fill="white"></path><path d="M527 45L483 116.5L499.5 123L543 50.5L527 45Z" fill="white"></path><path d="M579.037 120C553.037 105.6 550.537 74 552.537 60L581.037 56V69H571.537C571.937 89.8 587.37 103.333 595.037 107.5L579.037 120Z" fill="white"></path><path d="M609.037 76.5L605.537 92.5H705.037L709.037 76.5H609.037Z" fill="white"></path><path d="M727.037 48L713 122H731.5L746.037 48H727.037Z" fill="white"></path><path d="M762.537 68L746.037 78C754.037 98 779.037 108.333 790.537 111L807.537 86L795.537 80.5L788.537 90C773.737 86 765.037 73.6667 762.537 68Z" fill="white"></path><path d="M783.037 53L771.537 55V70H783.037V53Z" fill="white"></path><path d="M798.537 57L786.537 59.5V74.5L798.537 72.5V57Z" fill="white"></path></svg> 