<?xml version="1.0" encoding="UTF-8"?> <svg xmlns="http://www.w3.org/2000/svg" width="1000" height="271" viewBox="0 0 1000 271" fill="none"><path d="M918.05 270.977C899.792 270.977 884.417 268.094 871.923 262.329C859.431 256.321 848.259 247.914 838.408 237.102L869.761 205.39C876.488 212.837 883.936 218.724 892.104 223.048C900.272 227.372 909.523 229.534 919.852 229.534C930.423 229.534 937.751 227.972 941.836 224.85C945.921 221.486 947.962 217.042 947.962 211.516C947.962 202.627 941.595 197.341 928.862 195.659L908.321 193.137C865.797 187.851 844.535 168.391 844.535 134.757C844.535 125.627 846.216 117.338 849.58 109.891C853.184 102.203 858.109 95.7161 864.356 90.4307C870.842 84.905 878.53 80.7006 887.419 77.8177C896.549 74.6944 906.76 73.1328 918.05 73.1328C927.901 73.1328 936.55 73.8535 943.998 75.295C951.685 76.4962 958.413 78.4182 964.179 81.061C970.185 83.4635 975.59 86.5868 980.396 90.4307C985.441 94.0344 990.366 98.1186 995.17 102.683L964.539 134.036C958.533 128.03 951.685 123.345 943.998 119.981C936.55 116.377 928.862 114.576 920.933 114.576C911.805 114.576 905.317 116.017 901.474 118.9C897.63 121.783 895.709 125.627 895.709 130.432C895.709 135.477 897.029 139.441 899.671 142.324C902.555 144.967 907.841 146.889 915.528 148.09L936.791 150.973C978.353 156.499 999.135 175.478 999.135 207.912C999.135 217.042 997.214 225.451 993.368 233.138C989.524 240.826 983.999 247.553 976.791 253.319C969.825 258.845 961.296 263.169 951.205 266.293C941.356 269.416 930.303 270.977 918.05 270.977Z" fill="white"></path><path d="M761.521 234.963H759.718C758.278 240.009 755.995 244.813 752.871 249.378C749.748 253.702 745.905 257.546 741.34 260.909C737.016 264.034 731.97 266.435 726.204 268.117C720.678 270.039 714.912 271 708.906 271C684.881 271 666.743 262.591 654.49 245.774C642.238 228.717 636.111 204.091 636.111 171.898C636.111 139.704 642.238 115.199 654.49 98.3817C666.743 81.5644 684.881 73.1556 708.906 73.1556C721.158 73.1556 731.97 76.5191 741.34 83.2462C750.95 89.9731 757.076 98.622 759.718 109.193H761.521V0H814.855V266.676H761.521V234.963ZM726.565 227.756C736.654 227.756 744.944 225.353 751.43 220.549C758.157 215.503 761.521 208.656 761.521 200.006V144.149C761.521 135.5 758.157 128.773 751.43 123.968C744.944 118.923 736.654 116.4 726.565 116.4C716.475 116.4 708.066 120.004 701.339 127.211C694.851 134.179 691.608 143.669 691.608 155.681V188.475C691.608 200.488 694.851 210.097 701.339 217.304C708.066 224.272 716.475 227.756 726.565 227.756Z" fill="white"></path><path d="M512.006 266.657V77.4609H565.342V118.544H567.143C568.105 113.258 569.787 108.213 572.188 103.408C574.591 98.3627 577.714 93.918 581.559 90.074C585.642 86.23 590.448 83.227 595.974 81.0648C601.499 78.6623 607.985 77.4609 615.434 77.4609H624.803V127.192H611.469C595.853 127.192 584.201 129.235 576.514 133.319C569.065 137.403 565.342 144.971 565.342 156.022V266.657H512.006Z" fill="white"></path><path d="M201.787 77.4609H253.321L271.7 153.86L284.674 211.52H286.115L301.25 153.86L322.872 77.4609H371.523L393.507 153.86L409.002 211.52H410.443L423.417 153.86L441.796 77.4609H491.168L438.913 266.657H383.055L359.992 186.653L346.658 137.643H345.577L332.603 186.653L309.539 266.657H254.762L201.787 77.4609Z" fill="white"></path><path d="M158.978 266.634C140.478 266.634 126.424 261.949 116.814 252.58C107.444 243.21 102.759 229.515 102.759 211.498V118.881H76.0918V77.4386H89.4256C96.6331 77.4386 101.558 75.7568 104.201 72.3933C106.843 68.7897 108.165 63.7444 108.165 57.2576V26.2656H156.094V77.4386H193.574V118.881H156.094V225.191H190.691V266.634H158.978Z" fill="white"></path><path d="M31.7127 270.598C20.9016 270.598 12.8533 267.956 7.56782 262.669C2.52261 257.144 0 250.178 0 241.769V234.56C0 226.153 2.52261 219.305 7.56782 214.019C12.8533 208.493 20.9016 205.73 31.7127 205.73C42.524 205.73 50.4521 208.493 55.4974 214.019C60.7828 219.305 63.4256 226.153 63.4256 234.56V241.769C63.4256 250.178 60.7828 257.144 55.4974 262.669C50.4521 267.956 42.524 270.598 31.7127 270.598Z" fill="#C8ED01"></path></svg> 