<?xml version="1.0" encoding="UTF-8"?> <svg xmlns="http://www.w3.org/2000/svg" width="683" height="570" viewBox="0 0 683 570" fill="none"><path d="M634.453 5.00009C642.52 1.72009 651.493 -0.293247 660.16 1.70675C668.467 3.37342 675.587 9.38675 678.947 17.1334C684.013 28.4268 683.013 41.3201 680.573 53.1468C647.187 209.64 613.773 366.12 580.387 522.613C577.787 534.707 575.76 547.507 568.4 557.8C563.76 564.533 556.16 569.36 547.88 569.653C537.693 570.04 527.707 566.2 519.267 560.747C467.44 522.867 415.693 484.853 363.853 446.987C336.667 472.973 309.533 499.013 282.267 524.907C275.467 531.56 265.987 534.707 256.573 534.707C260.307 481.747 264.093 428.8 267.853 375.84C364.573 288.987 461.293 202.147 558.027 115.307C560.213 113.213 562.64 111 563.347 107.933C563.933 105.107 561.187 103.093 558.707 102.76C552.053 101.693 545.507 104.493 539.947 107.893C419.867 183.12 299.68 258.173 179.613 333.413C127.533 317.213 75.4267 301.067 23.3733 284.813C13.76 281.467 2.04 276.24 0 265.08V262.28C1.04 255.787 5.81333 250.733 10.84 246.893C21.68 238.68 34.8933 234.747 47.3733 229.787C243.067 154.867 438.76 79.9468 634.453 5.00009Z" fill="#C8ED01"></path></svg> 